<?xml version="1.0" encoding="UTF-8"?>
<!DOCTYPE svg PUBLIC "-//W3C//DTD SVG 1.1//EN" "http://www.w3.org/Graphics/SVG/1.1/DTD/svg11.dtd">
<!-- Creator: CorelDRAW 2020 (64 Bit) -->
<svg xmlns="http://www.w3.org/2000/svg" xml:space="preserve" width="242.147mm" height="242.147mm" version="1.1" style="shape-rendering:geometricPrecision; text-rendering:geometricPrecision; image-rendering:optimizeQuality; fill-rule:evenodd; clip-rule:evenodd"
viewBox="0 0 24214.7 24214.7"
 xmlns:xlink="http://www.w3.org/1999/xlink"
 xmlns:xodm="http://www.corel.com/coreldraw/odm/2003">
 <defs>
  <style type="text/css">
   <![CDATA[
    .str1 {stroke:#00005B;stroke-width:200;stroke-miterlimit:22.9256}
    .str0 {stroke:#373435;stroke-width:20;stroke-miterlimit:22.9256}
    .fil8 {fill:none}
    .fil0 {fill:#FEFEFE}
    .fil15 {fill:#0F69B2}
    .fil14 {fill:#3E4095}
    .fil16 {fill:black}
    .fil6 {fill:#00005B}
    .fil20 {fill:#001834}
    .fil21 {fill:#00AAFF}
    .fil18 {fill:#310000}
    .fil10 {fill:#760728}
    .fil7 {fill:#9999FF}
    .fil17 {fill:#B71E35}
    .fil9 {fill:#E40F50}
    .fil11 {fill:#E75783}
    .fil19 {fill:#FE9900}
    .fil12 {fill:#FEFEFE}
    .fil5 {fill:#FF5722}
    .fil13 {fill:white}
    .fil4 {fill:#201E1E;fill-opacity:0.211765}
    .fil2 {fill:url(#id0)}
    .fil3 {fill:url(#id1)}
    .fil1 {fill:url(#id2)}
   ]]>
  </style>
  <linearGradient id="id0" gradientUnits="userSpaceOnUse" x1="10126.83" y1="6365.92" x2="14087.86" y2="2341.8">
   <stop offset="0" style="stop-opacity:1; stop-color:white"/>
   <stop offset="1" style="stop-opacity:1; stop-color:#FEFEFE"/>
  </linearGradient>
  <linearGradient id="id1" gradientUnits="userSpaceOnUse" x1="10168.82" y1="6323.49" x2="14045.87" y2="2384.23">
   <stop offset="0" style="stop-opacity:1; stop-color:#01FE33"/>
   <stop offset="1" style="stop-opacity:1; stop-color:#345939"/>
  </linearGradient>
  <linearGradient id="id2" gradientUnits="userSpaceOnUse" x1="14359.36" y1="2435.76" x2="9855.32" y2="6271.96">
   <stop offset="0" style="stop-opacity:1; stop-color:#01FE33"/>
   <stop offset="0.741176" style="stop-opacity:1; stop-color:#01AE1D"/>
   <stop offset="1" style="stop-opacity:1; stop-color:#015E07"/>
  </linearGradient>
 </defs>
 <g id="Camada_x0020_1">
  <metadata id="CorelCorpID_0Corel-Layer"/>
  <g id="_2316584546448">
   <rect class="fil0 str0" x="0.01" y="0.01" width="24214.68" height="24214.68"/>
   <g>
    <path class="fil1" d="M11100.4 1405.01l2013.88 0c1076.88,0 1957.96,881.08 1957.96,1957.96l0 1981.78c0,1076.87 -881.08,1957.95 -1957.96,1957.95l-2013.88 0c-1076.87,0 -1957.95,-881.08 -1957.95,-1957.95l0 -1981.78c0,-1076.88 881.08,-1957.96 1957.95,-1957.96zm65.79 192.67l1882.31 0c1006.51,0 1830.02,823.51 1830.02,1830.03l0 1852.3c0,1006.51 -823.51,1830.03 -1830.02,1830.03l-1882.31 0c-1006.51,0 -1830.03,-823.52 -1830.03,-1830.03l0 -1852.3c0,-1006.52 823.52,-1830.03 1830.03,-1830.03z"/>
    <g>
     <path class="fil2" d="M11166.19 1537.99l1882.31 0c1039.46,0 1889.72,850.26 1889.72,1889.72l0 1852.3c0,1039.46 -850.26,1889.72 -1889.72,1889.72l-1882.31 0c-1039.46,0 -1889.72,-850.26 -1889.72,-1889.72l0 -1852.3c0,-1039.46 850.26,-1889.72 1889.72,-1889.72z"/>
    </g>
    <path class="fil3" d="M11166.19 1597.68l1882.31 0c1006.51,0 1830.02,823.51 1830.02,1830.03l0 1852.3c0,1006.51 -823.51,1830.03 -1830.02,1830.03l-1882.31 0c-1006.51,0 -1830.03,-823.52 -1830.03,-1830.03l0 -1852.3c0,-1006.52 823.52,-1830.03 1830.03,-1830.03z"/>
    <g>
     <path class="fil4" d="M13166.54 6145.09c142.34,-142.34 284.67,-284.67 427.01,-427.01 -22.59,-146.85 -45.19,-293.71 -67.78,-440.56 -858.86,-949.85 -1746.28,-1785.57 -2623.06,-2663.73 -61.65,-18.01 -124.45,-19.98 -189.78,13.55 -196.57,192.04 -393.12,384.09 -589.69,576.13 -37.65,54.44 -42.16,84.03 -46.67,124.66 -4.53,40.71 7.52,77.26 19.56,119.35 866.7,876.53 1718.37,1794.39 2666.02,2641.48 144.59,27.11 259.8,29.02 404.39,56.13z"/>
     <path class="fil4" d="M13456.03 6169.64c-16.01,21 -14.51,40.16 6.6,57.27 83.69,14.68 167.39,29.36 251.08,44.04 48.37,-10.1 76.58,-41.37 85.9,-92.49 -11.01,-81.5 -22.03,-162.98 -33.04,-244.47 -16.94,-23.55 -36.91,-30.46 -61.66,-11.02 -82.96,82.22 -165.92,164.45 -248.88,246.67z"/>
    </g>
    <g>
     <path class="fil0" d="M13241.06 6080.51c142.34,-142.34 284.68,-284.68 427.01,-427.01 -22.59,-146.86 -45.18,-293.72 -67.78,-440.57 -858.86,-949.85 -1746.27,-1785.56 -2623.06,-2663.73 -61.65,-18.01 -124.45,-19.98 -189.78,13.55 -196.56,192.04 -393.12,384.09 -589.68,576.13 -37.65,54.44 -42.16,84.03 -46.68,124.67 -4.53,40.7 7.52,77.25 19.56,119.34 866.7,876.54 1718.37,1794.4 2666.02,2641.48 144.59,27.11 259.8,29.02 404.39,56.14z"/>
     <path class="fil0" d="M13530.55 6105.06c-16.01,20.99 -14.51,40.16 6.61,57.26 83.69,14.69 167.38,29.37 251.08,44.05 48.36,-10.1 76.58,-41.38 85.89,-92.5 -11.01,-81.49 -22.02,-162.98 -33.04,-244.47 -16.94,-23.55 -36.91,-30.45 -61.66,-11.01 -82.96,82.22 -165.92,164.45 -248.88,246.67z"/>
    </g>
   </g>
   <path class="fil5" d="M5230.33 15057.24l39.77 -0.25 1822.73 -552.44 0.38 -4795.92 -1823.11 -551.17 -34.74 0.68 -3304.71 1287.54 2.13 3505.21 1104.04 -366.78 0.09 -2952.39 2212.67 -367.42 -0.13 4071.73 -3265.04 -375.69c11.35,8.3 1.22,3.16 24.53,14.73l77.77 27.3c36.47,11.97 67.66,22.53 103.71,34.55l604.98 201.67c268.38,89.44 2369.45,773.97 2434.93,818.65z"/>
   <g>
    <g>
     <path class="fil6" d="M17560.66 21139.77c-27.71,-192.61 763.75,-2060 814.42,-2547.32l669.13 -1.34 894.57 2543.34 -569.8 -8.46 -192.86 -590.79 -916.56 -0.93c-28.98,126.85 -142.44,521.03 -210.79,611.16l-488.11 -5.66zm4085.46 -59.13c-341.56,195.52 -995.86,157.32 -1295.85,-113.77 -326.63,-295.16 -394.71,-857.95 -198.77,-1258.77 431.64,-882.91 1818.41,-694.88 1641.67,588.74 -149.53,46.69 -986.43,26.6 -1188.26,17.92 0.92,512.32 699.44,445.42 1039.92,337.13l1.29 428.75zm-4818.01 -3092.56l0 3972.49c124.44,238.38 69.48,316.91 306.66,554.08 238.8,238.81 314.55,181.65 554.06,306.66l4100.75 0c241.08,-125.08 314.9,-67.62 554.07,-306.66 237.15,-237.03 182.28,-315.83 306.66,-554.08l0 -3972.49c-124.7,-238.87 -68.87,-316.41 -306.66,-554.08 -239.12,-239 -313.04,-181.61 -554.07,-306.66l-4100.75 0c-241.07,125.08 -314.89,67.62 -554.06,306.66 -237.76,237.64 -181.98,315.17 -306.66,554.08z"/>
     <path class="fil7" d="M18711.55 19054.76l309.5 995.85 -609.5 0.87 300 -996.72zm-1150.89 2085.01l488.11 5.66c68.35,-90.13 181.81,-484.31 210.79,-611.16l916.56 0.93 192.86 590.79 569.8 8.46 -894.57 -2543.34 -669.13 1.34c-50.67,487.32 -842.13,2354.71 -814.42,2547.32z"/>
     <path class="fil7" d="M20597.72 19958.03c95.74,-517.75 696.16,-448.07 699.39,-2.74l-699.39 2.74zm1048.4 1122.61l-1.29 -428.75c-340.48,108.29 -1039,175.19 -1039.92,-337.13 201.83,8.68 1038.73,28.77 1188.26,-17.92 176.74,-1283.62 -1210.03,-1471.65 -1641.67,-588.74 -195.94,400.82 -127.86,963.61 198.77,1258.77 299.99,271.09 954.29,309.29 1295.85,113.77z"/>
     <polygon class="fil6" points="18411.55,20051.48 19021.05,20050.61 18711.55,19054.76 "/>
     <path class="fil6" d="M20597.72 19958.03l699.39 -2.74c-3.23,-445.33 -603.65,-515.01 -699.39,2.74z"/>
    </g>
    <rect class="fil8 str1" x="16882.96" y="17118.08" width="5712.49" height="5712.49" rx="850.64" ry="850.64"/>
   </g>
   <g>
    <g>
     <path class="fil9" d="M11877.8 20234.63c-30.36,9.39 -483.13,7.33 -540.11,2.64 1.3,-25.17 133.52,-474.11 152.89,-545.54l77.81 -268.57c13.78,-39.94 28.02,-93.8 37.38,-136.07 10.4,-47.06 26.35,-92.05 39.45,-139.78 49.61,-180.85 105.1,-360.32 155.59,-542.16 12.23,-44.06 23.53,-92.8 37.89,-134.8 41.91,-122.52 64.09,-221.93 98.52,-342.82l21.82 -66.92 722.68 -1.25c15.94,25.34 33.56,98.68 41.92,133.14l122.99 407.31c35.81,129.32 90.44,284.1 121.91,410.34l82.33 268.35c15.07,43.52 29.74,91.95 41.59,137.44l204.11 684.12c12.94,34.5 37.36,101.69 40.64,137.01l-545.5 1.37c-16.6,-17.09 -30.68,-91.61 -38.54,-117.6 -11.32,-37.41 -25.67,-79.1 -35.85,-117.84 -9.61,-36.5 -54.95,-219.96 -70.38,-237.05l-642.46 -2.33c-20.61,25.96 -117,453.2 -126.68,471.01zm-1552.82 879.69c155.84,-10.04 345.02,-0.74 504.56,-0.74l3021.38 0c81.92,-0.11 455.25,10.26 504.49,-3.47l1.19 -3050.97 382.56 2.5c-13.03,-13.43 -22.01,-8.43 -44.91,-8.13 -67.57,0.88 -305.07,3.43 -338.28,-2.63 -6.12,-82.58 -0.77,-186.47 -0.77,-271.39 0,-89.36 0.01,-178.71 -0.05,-268.07 -0.08,-94.81 1.42,-137.72 -54.3,-215.48 -36.66,-51.15 -100.18,-97.58 -163.77,-105.01l-1.97 -9.01 -3807.03 0 -3.1 3932.4z"/>
     <path class="fil10" d="M12139.14 22323.13l-201.5 2.11 205.27 -725.92c8.5,-32.72 15.46,-70.35 33.45,-98.8l265.61 -0.42c14.52,18.89 55.94,163.52 65.04,197.14 27.61,102.02 179.61,568.84 180.91,626.21 -240.86,0.59 -191.81,25.13 -229.09,-91.22 -8.24,-25.74 -19.11,-60.46 -25.57,-85.92l-241.03 -0.64c-22.96,34.52 -29.58,139.88 -53.09,177.46zm666.93 -2.39c-11.12,-18.94 -8.36,-741.03 -4.74,-816.39 54.48,-10.23 198.38,-2.86 262.13,-2.8 80.46,0.08 155.52,3.16 227.39,38.81 60.41,29.96 100.19,76.31 126.82,135.82 39.81,88.99 30.51,138.81 30.49,236.07 -0.01,93.25 4.64,145.1 -31.63,229.79 -59.32,138.52 -207.45,183.15 -347.48,183.55 -44.55,0.13 -238.55,8.16 -262.98,-4.85zm-1104.34 -245.55l187.75 -2.23c5.51,89.78 -44.12,172.99 -114.09,220.91 -69.92,47.88 -197.03,56.58 -282.21,43.14 -89.06,-14.04 -153.6,-57.18 -207.22,-127.6 -57.56,-75.59 -49.78,-196.87 -49.78,-291.57 0,-187.41 -8.23,-365.08 244.38,-425.71 177.19,-42.54 416.68,43.36 404.48,252.5l-185.92 1.94c-7.6,-76.35 -30.68,-67.85 -70.95,-109.24 -86.57,-7.47 -155.74,-3.44 -180.27,93.58 -10.09,39.97 -3.4,221.89 -3.4,276.29 0,84.88 0.27,162.02 97.87,181.8 149.52,30.3 149.51,-96.35 159.36,-113.81zm-1376.75 -960.87l-381.12 228.23c-10.19,41.6 -3.55,931.47 -3.7,1072.34 -0.02,25.75 -0.73,52.62 0.03,78.24 0.81,27.53 7.96,46.77 9.61,72.85 6.43,80.83 87.59,146.58 154.27,183.54 17.36,9.63 20.43,6.14 34.85,17.21l4601.91 0 -1.67 -4705.09 -382.56 -2.5 -1.19 3050.97c-49.24,13.73 -422.57,3.36 -504.49,3.47l-3021.38 0c-159.54,0 -348.72,-9.3 -504.56,0.74z"/>
     <path class="fil11" d="M9943.86 21342.55l381.12 -228.23 3.1 -3932.4 -19.95 0c-12.04,17.4 -29.79,25.51 -50.28,37.32l-782.13 470.89 -1.83 3933.42c14.05,0.21 92.82,-51.91 113.21,-65.51l285.57 -172.33 55.09 -33.67 16.1 -9.49z"/>
     <path class="fil12" d="M12107.66 19355.57c-10.77,-20.91 13.08,-89.19 19.75,-117.68 30.73,-131.27 76.19,-344.75 109.29,-464.89 10.04,-36.47 17.66,-73.5 27.29,-110.94 8.47,-32.93 43.03,-213.62 56.69,-226.6l85.12 349.39c19.39,97.13 40.38,148.4 56.79,225.19 18.22,85.31 82.58,298.02 75.74,349.05 -52,3.19 -408.38,7.33 -430.67,-3.52zm-229.86 879.06c9.68,-17.81 106.07,-445.05 126.68,-471.01l642.46 2.33c15.43,17.09 60.77,200.55 70.38,237.05 10.18,38.74 24.53,80.43 35.85,117.84 7.86,25.99 21.94,100.51 38.54,117.6l545.5 -1.37c-3.28,-35.32 -27.7,-102.51 -40.64,-137.01l-204.11 -684.12c-11.85,-45.49 -26.52,-93.92 -41.59,-137.44l-82.33 -268.35c-31.47,-126.24 -86.1,-281.02 -121.91,-410.34l-122.99 -407.31c-8.36,-34.46 -25.98,-107.8 -41.92,-133.14l-722.68 1.25 -21.82 66.92c-34.43,120.89 -56.61,220.3 -98.52,342.82 -14.36,42 -25.66,90.74 -37.89,134.8 -50.49,181.84 -105.98,361.31 -155.59,542.16 -13.1,47.73 -29.05,92.72 -39.45,139.78 -9.36,42.27 -23.6,96.13 -37.38,136.07l-77.81 268.57c-19.37,71.43 -151.59,520.37 -152.89,545.54 56.98,4.69 509.75,6.75 540.11,-2.64z"/>
     <path class="fil12" d="M13010.54 21652.99c234.7,-12.58 231.18,56.6 231.17,264.85 -0.01,187.39 -18.13,271.81 -231.69,257.49l0.52 -522.34zm-204.47 667.75c24.43,13.01 218.43,4.98 262.98,4.85 140.03,-0.4 288.16,-45.03 347.48,-183.55 36.27,-84.69 31.62,-136.54 31.63,-229.79 0.02,-97.26 9.32,-147.08 -30.49,-236.07 -26.63,-59.51 -66.41,-105.86 -126.82,-135.82 -71.87,-35.65 -146.93,-38.73 -227.39,-38.81 -63.75,-0.06 -207.65,-7.43 -262.13,2.8 -3.62,75.36 -6.38,797.45 4.74,816.39z"/>
     <path class="fil12" d="M12227.69 21988.74c0.04,-15.22 31.74,-147.81 38.36,-164.33 13.47,-33.67 23.15,-149.35 43.46,-164.71 10.54,15.6 80.82,305.93 79.37,331.87l-161.19 -2.83zm-88.55 334.39c23.51,-37.58 30.13,-142.94 53.09,-177.46l241.03 0.64c6.46,25.46 17.33,60.18 25.57,85.92 37.28,116.35 -11.77,91.81 229.09,91.22 -1.3,-57.37 -153.3,-524.19 -180.91,-626.21 -9.1,-33.62 -50.52,-178.25 -65.04,-197.14l-265.61 0.42c-17.99,28.45 -24.95,66.08 -33.45,98.8l-205.27 725.92 201.5 -2.11z"/>
     <path class="fil12" d="M11701.73 22075.19c-9.85,17.46 -9.84,144.11 -159.36,113.81 -97.6,-19.78 -97.87,-96.92 -97.87,-181.8 0,-54.4 -6.69,-236.32 3.4,-276.29 24.53,-97.02 93.7,-101.05 180.27,-93.58 40.27,41.39 63.35,32.89 70.95,109.24l185.92 -1.94c12.2,-209.14 -227.29,-295.04 -404.48,-252.5 -252.61,60.63 -244.38,238.3 -244.38,425.71 0,94.7 -7.78,215.98 49.78,291.57 53.62,70.42 118.16,113.56 207.22,127.6 85.18,13.44 212.29,4.74 282.21,-43.14 69.97,-47.92 119.6,-131.13 114.09,-220.91l-187.75 2.23z"/>
     <path class="fil9" d="M12107.66 19355.57c22.29,10.85 378.67,6.71 430.67,3.52 6.84,-51.03 -57.52,-263.74 -75.74,-349.05 -16.41,-76.79 -37.4,-128.06 -56.79,-225.19l-85.12 -349.39c-13.66,12.98 -48.22,193.67 -56.69,226.6 -9.63,37.44 -17.25,74.47 -27.29,110.94 -33.1,120.14 -78.56,333.62 -109.29,464.89 -6.67,28.49 -30.52,96.77 -19.75,117.68z"/>
     <path class="fil10" d="M13010.02 22175.33c213.56,14.32 231.68,-70.1 231.69,-257.49 0.01,-208.25 3.53,-277.43 -231.17,-264.85l-0.52 522.34z"/>
     <path class="fil10" d="M12227.69 21988.74l161.19 2.83c1.45,-25.94 -68.83,-316.27 -79.37,-331.87 -20.31,15.36 -29.99,131.04 -43.46,164.71 -6.62,16.52 -38.32,149.11 -38.36,164.33z"/>
    </g>
    <path class="fil13" d="M14263.15 17077.01c62.68,30.34 118.21,78.1 157.57,133.02 76.11,106.21 81.81,176.28 81.9,301.27 0.07,89.4 0.06,178.8 0.06,268.19 0,42.17 -1.44,85.14 -2.15,128.08 10.82,-0.14 21.33,-0.26 31.31,-0.28 53.49,-0.1 106.98,-0.56 160.46,-1.26 63.4,-0.82 104.21,2.94 152.69,52.91l41.63 42.88 1.75 4912.4 -4799.51 0 -30.31 -23.26c-8.81,-3.62 -17.25,-7.59 -25.99,-12.44 -113,-62.63 -219.55,-165.49 -229.84,-301.41 -2.02,-26.72 -9.11,-50.44 -9.96,-79.63 -0.81,-27.61 -0.12,-55.14 -0.1,-82.74 0.18,-175.66 -1.47,-351.43 -1.83,-527.11 -0.2,-93.42 -0.32,-186.87 0.05,-280.31l-124.67 75.24c-54.56,36.52 -128.43,89.4 -194.42,88.46l-145.46 -2.05 1.93 -4162.21 854.72 -514.6 1.23 -0.71c3.69,-2.13 7.69,-4.25 11.59,-6.41l34.99 -50.61 4023.05 0 9.31 42.58zm-3935.08 104.91l-19.95 0c-12.04,17.4 -29.78,25.51 -50.28,37.32l-782.13 470.9 -1.83 3933.42c14.05,0.19 92.82,-51.92 113.21,-65.51l285.57 -172.34 55.09 -33.66 16.1 -9.5c-10.19,41.6 -3.56,931.47 -3.7,1072.33 -0.02,25.76 -0.73,52.63 0.03,78.26 0.81,27.52 7.95,46.76 9.61,72.84 6.43,80.83 87.59,146.59 154.27,183.55 17.36,9.62 20.43,6.13 34.86,17.2l4601.91 0 -1.68 -4705.09c-13.03,-13.42 -22.01,-8.43 -44.91,-8.13 -67.57,0.88 -305.07,3.43 -338.27,-2.63 -6.12,-82.58 -0.78,-186.47 -0.78,-271.39 0,-89.35 0.01,-178.72 -0.06,-268.07 -0.07,-94.81 1.43,-137.72 -54.29,-215.48 -36.66,-51.15 -100.18,-97.58 -163.77,-105.01l-1.97 -9.01 -3807.03 0z"/>
   </g>
   <g>
    <polygon class="fil14" points="19527.96,1944.47 19499.53,4214.16 22565.05,4221.35 22571.25,1504.81 "/>
    <polygon class="fil14" points="22562.57,7202.91 22569.96,4531.48 19509.9,4525.11 19504.3,6724.35 "/>
    <polygon class="fil14" points="16907.17,2321.66 16913.75,4206.65 19215.62,4206.72 19212.87,2002.44 "/>
    <polygon class="fil14" points="19194.46,6708 19201.19,4507.21 16909.8,4492.99 16908.84,6360.88 "/>
   </g>
   <g>
    <path class="fil15" d="M11948.84 11034.15c138.01,-58.28 535.66,14.59 705.04,115.73l538.73 315.88c9.6,142.24 14.76,670.19 -8.97,784.12 -30.88,148.13 -173.97,484.58 -257.32,526.37l-4.32 -1164.6 -854.32 -496.35c-24.51,-14.28 -39.07,-24.17 -63.25,-37.22 -10.58,-5.73 -20.75,-8.94 -33.23,-18.13 -42.29,-31.09 -2.43,-6.06 -22.36,-25.8zm-1040.48 -607c159.74,-80.61 386.97,-230.65 550.57,-313.02 80.24,-40.39 98.98,-59.22 206.3,-86.5 354.58,-90.14 670.14,-85.62 1005.96,42.39 116.06,44.24 942.47,528.1 1108.34,626.85l366.62 214.48c16.92,340.06 1.43,721.68 1.44,1066.32 0,172.48 6.46,361.71 -1.82,532.28 -20.08,413.04 -247.87,803.54 -545.12,1051.01 -92.24,76.8 -214.68,143.24 -326.82,204.3l-89.05 53.05c-10.75,6 12.17,-6.49 -12.94,6.8l-153.63 86.04c-22.67,13.34 -56.91,38.59 -94.25,47.9l-1.22 -302.14 280.49 -162.23c95.85,-52.86 185.09,-101.73 266.16,-175.68 462.68,-422.02 404.46,-818.38 404.46,-1361.4 0,-289.2 12.85,-608.5 -1.2,-893.9l-680.93 -391.57c-117.49,-67.35 -223.3,-126.21 -336.27,-195.03 -104.53,-63.68 -238.25,-143.12 -357.77,-185.9 -265.06,-94.87 -678.14,-73.44 -912.47,59.38 -132.47,75.09 -225.53,131.48 -336.16,195.96 -102.1,59.49 -84.63,48.58 -175.72,-3.6 -28.87,-16.53 -56.14,-32.68 -83.08,-47.56 -67.01,-37.03 -63.25,-25.17 -81.89,-68.23zm-1366.63 21.11c49.07,16.77 279.45,158.22 347.15,195.28l2243.88 1288.55c117.73,65.19 107.52,31.1 107.62,206.19l0.8 2996.57c32.18,-1.73 328.3,-178.86 391.15,-213.57l792.86 -451.2c214.77,-120.84 581.11,-318.26 773.88,-470.82 349.58,-276.66 628.69,-826.83 628.93,-1288.85l-0.37 -2189.18c-82.64,-55.63 -205.57,-121.81 -303.85,-177.17 -528.64,-297.76 -1031.72,-601.62 -1553.98,-895.45 -354.82,-199.62 -587.65,-212.46 -972.47,-212.85 -233.08,-0.17 -545.09,96.76 -717.27,197.76l-1705.12 974.17c-47.48,34.07 -13.49,-5.22 -33.21,40.57z"/>
    <path class="fil15" d="M11292.77 12550.16l-1.94 314.14c-65.48,-0.82 -1031.66,-610.03 -1087.98,-603.18l-658.84 379.03c37.97,40.34 1202.59,700.55 1303.76,757.69l436.8 256.1 5.07 297c-60.28,-7.41 -406.83,-216.25 -481.84,-261.98l-749.73 -432.31c-21.37,-12.22 -38.65,-21.05 -59.39,-32.95 -38.67,-22.17 -75.47,-43.25 -121.07,-70.44 -55.6,-33.14 -430.99,-255.51 -468.17,-262.48 0.05,127.41 88.92,353.51 135,456.32 207.06,461.87 445.1,673.81 891.94,915.23l376.51 216.33c115.86,72.11 258.95,144.39 381.28,218.79 104.71,63.69 712.95,423.54 772.72,435.45l-0.39 -2983.21 -638.68 -365.61c-372.83,-213.74 -907.09,-530.02 -1287.16,-739.39 -79.53,-43.81 -606.25,-361.02 -648.23,-359.23 -12.08,161.6 -1.04,503.03 -2.63,700.65 -0.79,98.08 28.48,85.61 107.49,131.07 196.49,113.04 400.52,228.03 599.84,343.51l446.2 256.39c53.07,30.05 90.89,55.22 151.98,88.25l597.46 344.83z"/>
   </g>
   <g>
    <path class="fil16" d="M3059.02 22266.58l71.15 0.38 4.95 461.01 -72.85 0.35 -3.25 -461.74zm1116.24 304.11c-69.44,289.02 -487.08,196.54 -406.25,-156.51 60.26,-263.24 488.81,-187.06 406.25,156.51zm-804.19 -188.52l-6.47 345.05 -71.22 1.15 -5.06 -461.64c97.54,0.17 68.41,9.53 85.8,46.11 339.63,-218.61 314.8,205.35 295.11,412.89l-67.36 2.89c-24.32,-162.82 74.96,-544.14 -230.8,-346.45zm-738.94 -4.44l-1.6 349.09 -72.09 1.74 -5.93 -641.79 77.33 1.46 3.36 227.01c85.42,-62.88 224.54,-94.01 284.07,16 30.64,56.63 23.35,320.07 17.05,393.69l-71.86 0.73c-22.34,-336.78 75.47,-466.83 -230.33,-347.93zm-382.59 90.23c54.28,80.56 172.85,178.69 211.05,260.46l-99.01 -1.49 -200.67 -240.56 -113.58 -2.89 -1.92 243.92 -78.93 -1.63 -2.58 -605.07c192.87,-30.7 476.48,-0.89 391.42,232.19 -20.25,55.48 -70.9,77.99 -105.78,115.07zm890.71 -337.68l-0.01 64.77 -66.62 0.15 -21.47 0.13 -0.09 -80.3 88.58 0 -0.39 15.25zm1228.24 -116.78l466.38 -0.58c-7.61,105.52 -210.87,566.6 -260.87,705.46l-102.08 -4.95c38.46,-114.66 225.46,-547.13 228.5,-620.86l-331.9 -6.78 -0.03 -72.29zm-48.88 -2126.21c-124.16,-40.7 -380.08,8.95 -417.06,-112.33 -78.34,-256.97 280.99,-293.07 565.79,-476.78 84.72,-54.65 243.8,-197.07 328.71,-207.46 384.07,993.73 738.76,485.11 1005.15,501.42 10.75,89.94 -45.61,195.2 -99.98,265.19 -47.23,60.79 -154.44,133.79 -177.18,189.26 102.87,267.13 711.16,-140.88 847.07,-238.84 121.24,-87.39 622.64,-511.45 731.66,-504.02 17.89,158.51 -245.57,452.92 -337.08,575.41 -235.69,315.52 -872.72,714.06 -942.4,907.42 -42.32,117.44 38.05,209.11 -93.83,375.62 -51.37,64.85 -169.18,183.22 -261.73,185.36 -43.38,-12.73 -275.74,-332.52 -447.78,-391.97 69.9,128.84 387.75,283.41 320.15,463.51 -79.9,65.28 -174.21,-47.47 -235.79,-102.75 -66.75,-59.91 -124.93,-125.69 -198.23,-182.08 -146.61,-112.77 -290.19,-212.49 -453.06,-310.68 -529.93,-319.45 -559.94,-209.24 -500.41,-586.85 11.36,-72.07 19.37,-286.02 44.63,-324.37 57.09,9.78 58.14,23.38 63.37,89.08 30.64,384.99 -187.07,358.96 373.27,590.86 212.24,87.84 229.2,-132.59 285.12,-264.88 96.75,-228.82 234.71,-191.47 295.36,-264.11 -24.94,-20.19 25.91,-13.71 -47.65,-22.99l-143.65 24.52c-97.33,32.84 -65.99,44.71 -183.15,36.51 17.93,83.19 42.42,102.28 -40.92,159.72 -79.7,-2.04 -348.21,-178.61 -395.07,-244.1 -27.6,-89.2 97.55,-117.25 114.69,-129.67zm-1776.54 -2130.53c77.15,-66.55 442.07,-166.72 557.93,-194.11 225.8,-53.38 427.27,-111.06 470.75,179.93 110.99,742.87 -404.23,1335.27 -420.69,1412.81 -20.4,96.16 97.88,190.21 187.35,177.06 85.14,-12.52 283.27,-321.13 330.2,-407.64 150.18,-276.85 217.02,-532.68 265.67,-833.18 14.67,-90.58 0.37,-275.77 30.24,-338.73 85.05,-78.41 645,537.58 751.02,1076.87 40.4,205.48 -87.27,256.22 -241.43,356.26 -117.98,76.56 -267.09,164.61 -395.25,221.37 -79.46,35.2 -390,139.62 -424.43,191.91 -62.18,94.45 -2.07,144.56 37.39,224.87 112.53,229.05 160.95,502.54 105.84,755.43 -84.18,-3.77 -61.74,-26.22 -96.28,-104.15 -17.72,-40 -41.94,-89.1 -65.39,-125.53 -48.87,-75.89 -104.52,-155.52 -159.08,-223.03 -318.54,-394.18 -735.74,-655.83 -1256.82,-595.91 -86.87,9.99 -242.22,64.48 -315.49,40.05 -86.92,-114.52 -29.22,-565.33 109.19,-628.21 145.1,-65.91 534.35,25.81 689.92,73.13 258.11,-911.45 -153.68,-1113.44 -160.64,-1259.2zm3321.29 -161.4l1052.69 1.8c6.89,142.66 -75.21,295.18 -129.25,424.49 -98.21,235.01 -404.27,1087.58 -468.83,1183.35l-220.88 1.18c10.55,-128.37 509.03,-1259.13 541.89,-1423.49l-775.91 -2.85 0.29 -184.48zm-4287.76 5459.66l5870.65 0 0 -5870.65 -5870.65 0 0 5870.65z"/>
    <path class="fil12" d="M2543.07 17756.76c6.96,145.76 418.75,347.75 160.64,1259.2 -155.57,-47.32 -544.82,-139.04 -689.92,-73.13 -138.41,62.88 -196.11,513.69 -109.19,628.21 73.27,24.43 228.62,-30.06 315.49,-40.05 521.08,-59.92 938.28,201.73 1256.82,595.91 54.56,67.51 110.21,147.14 159.08,223.03 23.45,36.43 47.67,85.53 65.39,125.53 34.54,77.93 12.1,100.38 96.28,104.15 55.11,-252.89 6.69,-526.38 -105.84,-755.43 -39.46,-80.31 -99.57,-130.42 -37.39,-224.87 34.43,-52.29 344.97,-156.71 424.43,-191.91 128.16,-56.76 277.27,-144.81 395.25,-221.37 154.16,-100.04 281.83,-150.78 241.43,-356.26 -106.02,-539.29 -665.97,-1155.28 -751.02,-1076.87 -29.87,62.96 -15.57,248.15 -30.24,338.73 -48.65,300.5 -115.49,556.33 -265.67,833.18 -46.93,86.51 -245.06,395.12 -330.2,407.64 -89.47,13.15 -207.75,-80.9 -187.35,-177.06 16.46,-77.54 531.68,-669.94 420.69,-1412.81 -43.48,-290.99 -244.95,-233.31 -470.75,-179.93 -115.86,27.39 -480.78,127.56 -557.93,194.11z"/>
    <path class="fil12" d="M5480.33 21258.99c-91.62,-45.14 -259.36,-301.87 -71.19,-310.83 162.51,-7.74 215.92,236.54 71.19,310.83zm-963.74 -1105.5c-63.51,31.06 -78.07,-8.82 -137.44,-47.1 -59.19,-38.17 -99.91,-35.74 -63.52,-108.25 73.75,-37.47 244.4,67.89 200.96,155.35zm-196.98 -266.2c-17.14,12.42 -142.29,40.47 -114.69,129.67 46.86,65.49 315.37,242.06 395.07,244.1 83.34,-57.44 58.85,-76.53 40.92,-159.72 117.16,8.2 85.82,-3.67 183.15,-36.51l143.65 -24.52c73.56,9.28 22.71,2.8 47.65,22.99 -60.65,72.64 -198.61,35.29 -295.36,264.11 -55.92,132.29 -72.88,352.72 -285.12,264.88 -560.34,-231.9 -342.63,-205.87 -373.27,-590.86 -5.23,-65.7 -6.28,-79.3 -63.37,-89.08 -25.26,38.35 -33.27,252.3 -44.63,324.37 -59.53,377.61 -29.52,267.4 500.41,586.85 162.87,98.19 306.45,197.91 453.06,310.68 73.3,56.39 131.48,122.17 198.23,182.08 61.58,55.28 155.89,168.03 235.79,102.75 67.6,-180.1 -250.25,-334.67 -320.15,-463.51 172.04,59.45 404.4,379.24 447.78,391.97 92.55,-2.14 210.36,-120.51 261.73,-185.36 131.88,-166.51 51.51,-258.18 93.83,-375.62 69.68,-193.36 706.71,-591.9 942.4,-907.42 91.51,-122.49 354.97,-416.9 337.08,-575.41 -109.02,-7.43 -610.42,416.63 -731.66,504.02 -135.91,97.96 -744.2,505.97 -847.07,238.84 22.74,-55.47 129.95,-128.47 177.18,-189.26 54.37,-69.99 110.73,-175.25 99.98,-265.19 -266.39,-16.31 -621.08,492.31 -1005.15,-501.42 -84.91,10.39 -243.99,152.81 -328.71,207.46 -284.8,183.71 -644.13,219.81 -565.79,476.78 36.98,121.28 292.9,71.63 417.06,112.33z"/>
    <path class="fil12" d="M5864.07 17779.84l775.91 2.85c-32.86,164.36 -531.34,1295.12 -541.89,1423.49l220.88 -1.18c64.56,-95.77 370.62,-948.34 468.83,-1183.35 54.04,-129.31 136.14,-281.83 129.25,-424.49l-1052.69 -1.8 -0.29 184.48z"/>
    <path class="fil12" d="M2046.12 22188.54c98.2,-2.47 172.17,-24.7 231.14,60.83 19.23,179.78 -91.89,163.9 -230.69,160.45l-0.45 -221.28zm203.42 279.42c34.88,-37.08 85.53,-59.59 105.78,-115.07 85.06,-233.08 -198.55,-262.89 -391.42,-232.19l2.58 605.07 78.93 1.63 1.92 -243.92 113.58 2.89 200.67 240.56 99.01 1.49c-38.2,-81.77 -156.77,-179.9 -211.05,-260.46z"/>
    <path class="fil12" d="M4368.52 22085.79l331.9 6.78c-3.04,73.73 -190.04,506.2 -228.5,620.86l102.08 4.95c50,-138.86 253.26,-599.94 260.87,-705.46l-466.38 0.58 0.03 72.29z"/>
    <path class="fil12" d="M2632.13 22377.73c305.8,-118.9 207.99,11.15 230.33,347.93l71.86 -0.73c6.3,-73.62 13.59,-337.06 -17.05,-393.69 -59.53,-110.01 -198.65,-78.88 -284.07,-16l-3.36 -227.01 -77.33 -1.46 5.93 641.79 72.09 -1.74 1.6 -349.09z"/>
    <path class="fil12" d="M3932.6 22334.68c196,-71.61 226.44,280.62 85.51,329.47 -195.49,67.76 -251.94,-268.66 -85.51,-329.47zm242.66 236.01c82.56,-343.57 -345.99,-419.75 -406.25,-156.51 -80.83,353.05 336.81,445.53 406.25,156.51z"/>
    <path class="fil12" d="M3371.07 22382.17c305.76,-197.69 206.48,183.63 230.8,346.45l67.36 -2.89c19.69,-207.54 44.52,-631.5 -295.11,-412.89 -17.39,-36.58 11.74,-45.94 -85.8,-46.11l5.06 461.64 71.22 -1.15 6.47 -345.05z"/>
    <path class="fil16" d="M3932.6 22334.68c-166.43,60.81 -109.98,397.23 85.51,329.47 140.93,-48.85 110.49,-401.08 -85.51,-329.47z"/>
    <path class="fil16" d="M5480.33 21258.99c144.73,-74.29 91.32,-318.57 -71.19,-310.83 -188.17,8.96 -20.43,265.69 71.19,310.83z"/>
    <path class="fil16" d="M2046.57 22409.82c138.8,3.45 249.92,19.33 230.69,-160.45 -58.97,-85.53 -132.94,-63.3 -231.14,-60.83l0.45 221.28z"/>
    <polygon class="fil12" points="3062.27,22728.32 3135.12,22727.97 3130.17,22266.96 3059.02,22266.58 "/>
    <path class="fil17" d="M4315.63 19998.14c-36.39,72.51 4.33,70.08 63.52,108.25 59.37,38.28 73.93,78.16 137.44,47.1 43.44,-87.46 -127.21,-192.82 -200.96,-155.35z"/>
    <polygon class="fil12" points="3052.15,22195.33 3073.62,22195.2 3140.24,22195.05 3140.25,22130.28 3140.64,22115.03 3052.06,22115.03 "/>
   </g>
   <g>
    <path class="fil18" d="M20716.66 13292.24c-3.09,-30.59 -0.45,-596.56 -0.45,-644.34l-0.04 -1288.76c-0.09,-59.17 16.41,-47.52 111.8,-47.55l402.77 -0.12c32.63,-0.12 47.16,-0.14 49.42,33.08 3.67,53.86 0.18,252.34 0.18,322.33l0 966.51c0,214.63 1.56,429.82 0.05,644.38 -0.2,29.06 -3.72,46.14 -32.64,47.67 -51.32,2.71 -184.52,0.12 -241.44,0.14l-241.76 0.11c-27.21,-0.07 -45.17,-6.63 -47.89,-33.45zm-1078.42 -604.4l-935.59 -1.1c-10.74,22.39 -148.51,457.33 -161.49,496.7 -9.11,27.66 -29.84,105.87 -44.58,119.42 -19.83,18.24 -121.3,10.67 -156.8,10.68 -110.25,0.02 -220.57,-0.34 -330.81,0.1 -67.6,0.26 -57.25,-18.74 -29.78,-96.57l298.81 -860.49c142.7,-408.93 282.66,-819.42 426.51,-1227.6 45.33,-128.62 98.55,-254.77 106.35,-387.69 5.42,-92.38 -11.61,-81.41 86.96,-81.43l575.33 -0.2c37.97,0.02 39.12,3.66 49.7,34.54 83.37,243.25 175.86,489.17 259.56,732.8l259.67 732.67c117.31,325.17 229.03,652.34 346.42,976.69 14.46,39.95 28.08,80.93 42.83,121.11 25.31,68.94 -10.55,55.58 -95.25,55.6 -110.27,0.03 -220.53,0.06 -330.8,0.08 -173.49,0.04 -143.92,26.24 -197.05,-134.31l-169.99 -491zm1342.32 -2218.81c193.43,-14.12 329.58,115.58 334.93,291.73 3.66,120.43 -37.61,216.19 -117.85,277.7 -14.79,11.33 -29.44,20.89 -47.63,30.06 -34.95,17.61 -78.07,30.08 -123.5,31.74 -131.83,4.8 -250.96,-47 -306.47,-168.05 -17.15,-37.4 -28.89,-78.51 -31.19,-125.24 -2.5,-50.71 2.25,-97.4 18.33,-140.89 10.66,-28.85 37.48,-76.92 58.86,-96.62 63.68,-58.7 114.48,-93.12 214.52,-100.43zm-4263.14 -288.78l0 3865.75c4.99,12.7 10.05,88.08 13.8,110.66 29.49,177.38 101.95,344.67 210.16,483.08 9.37,11.98 19.55,22.53 28.62,34.61 5.97,7.93 8.22,9.26 14.88,16.71l30.55 32.78c5.97,5.94 9.54,10.25 15.48,16.19 45.52,45.48 81.97,76.76 135.07,115.16 42.54,30.75 104.2,69.04 159.31,93.85 59.64,26.85 117.18,50.68 184.87,68.33 33.41,8.71 68.77,16.46 104.17,22.1 21.58,3.44 102.09,9.6 113.27,13.9l4023.2 -0.94c12.57,-4.84 87.88,-9.88 110.82,-13.58 165.77,-26.76 315.2,-89.42 449.08,-183.68 43.54,-30.65 83.34,-63.63 120.58,-100.91 58.58,-58.66 79.92,-79.45 131.41,-150.58 196.6,-271.59 185.88,-529.39 198.3,-561.67l0 -3870.8c-4.48,-11.65 -10.22,-91.21 -13.85,-113.14 -17.58,-106.1 -45.56,-191.31 -89.57,-287.24 -42.92,-93.58 -89.17,-157.58 -149.05,-230.64 -20.08,-24.5 -94.37,-101.99 -124.99,-125.26 -11.93,-9.07 -22.72,-18.93 -35.08,-28.24 -111.57,-84.03 -236.32,-153.48 -377.83,-188.7 -35.03,-8.71 -68.05,-16.73 -104.22,-22.52 -22.79,-3.65 -97.41,-8.81 -110.55,-14.15l-4028.3 0.94c-10.57,4.02 -93.96,10.67 -115.61,14.23 -222.57,36.53 -428.66,143.59 -583.9,302.32 -9.54,9.76 -22.95,21.18 -31.63,31.59 -9.58,11.5 -19.25,22.43 -28.93,34.5 -102.69,128.1 -172.81,250.31 -215.64,417.08 -8.68,33.81 -16.4,68.95 -21.83,104.88 -3.69,24.4 -7.89,98.55 -12.59,113.39z"/>
    <path class="fil19" d="M18849.61 12175.4c0.67,-14.61 34.66,-106.77 41.82,-128.94 41.83,-129.5 78.45,-261.3 119.31,-389.84 39.99,-125.83 85.16,-265.73 117.89,-394.29 5.49,-21.54 27.22,-126.53 33.83,-136.57l4.58 7.64c1.06,2.44 2.1,6.52 2.75,8.86l71.14 250.95c49.12,168.56 110.61,353.54 163.42,524.05 14.33,46.28 78.72,227.38 81.73,257.99l-636.47 0.15zm958.62 1003.44c53.13,160.55 23.56,134.35 197.05,134.31 110.27,-0.02 220.53,-0.05 330.8,-0.08 84.7,-0.02 120.56,13.34 95.25,-55.6 -14.75,-40.18 -28.37,-81.16 -42.83,-121.11 -117.39,-324.35 -229.11,-651.52 -346.42,-976.69l-259.67 -732.67c-83.7,-243.63 -176.19,-489.55 -259.56,-732.8 -10.58,-30.88 -11.73,-34.52 -49.7,-34.54l-575.33 0.2c-98.57,0.02 -81.54,-10.95 -86.96,81.43 -7.8,132.92 -61.02,259.07 -106.35,387.69 -143.85,408.18 -283.81,818.67 -426.51,1227.6l-298.81 860.49c-27.47,77.83 -37.82,96.83 29.78,96.57 110.24,-0.44 220.56,-0.08 330.81,-0.1 35.5,-0.01 136.97,7.56 156.8,-10.68 14.74,-13.55 35.47,-91.76 44.58,-119.42 12.98,-39.37 150.75,-474.31 161.49,-496.7l935.59 1.1 169.99 491z"/>
    <path class="fil19" d="M20716.66 13292.24c2.72,26.82 20.68,33.38 47.89,33.45l241.76 -0.11c56.92,-0.02 190.12,2.57 241.44,-0.14 28.92,-1.53 32.44,-18.61 32.64,-47.67 1.51,-214.56 -0.05,-429.75 -0.05,-644.38l0 -966.51c0,-69.99 3.49,-268.47 -0.18,-322.33 -2.26,-33.22 -16.79,-33.2 -49.42,-33.08l-402.77 0.12c-95.39,0.03 -111.89,-11.62 -111.8,47.55l0.04 1288.76c0,47.78 -2.64,613.75 0.45,644.34z"/>
    <path class="fil18" d="M18849.61 12175.4l636.47 -0.15c-3.01,-30.61 -67.4,-211.71 -81.73,-257.99 -52.81,-170.51 -114.3,-355.49 -163.42,-524.05l-71.14 -250.95c-0.65,-2.34 -1.69,-6.42 -2.75,-8.86l-4.58 -7.64c-6.61,10.04 -28.34,115.03 -33.83,136.57 -32.73,128.56 -77.9,268.46 -117.89,394.29 -40.86,128.54 -77.48,260.34 -119.31,389.84 -7.16,22.17 -41.15,114.33 -41.82,128.94z"/>
    <path class="fil19" d="M20980.56 10469.03c-100.04,7.31 -150.84,41.73 -214.52,100.43 -21.38,19.7 -48.2,67.77 -58.86,96.62 -16.08,43.49 -20.83,90.18 -18.33,140.89 2.3,46.73 14.04,87.84 31.19,125.24 55.51,121.05 174.64,172.85 306.47,168.05 45.43,-1.66 88.55,-14.13 123.5,-31.74 18.19,-9.17 32.84,-18.73 47.63,-30.06 80.24,-61.51 121.51,-157.27 117.85,-277.7 -5.35,-176.15 -141.5,-305.85 -334.93,-291.73z"/>
   </g>
   <g>
    <path class="fil20" d="M5553.91 4112.38c0,103.45 147.55,159.27 224.91,193.69 104.86,46.65 173.32,62.64 288.76,120.38 97.16,48.59 170.98,88.89 250.7,158.47 49.06,42.81 102.78,113.86 128.63,178.28 73.04,181.98 50.41,400.49 -58.52,560.1 -54.07,79.23 -132.26,146.62 -216.61,192.69 -42.07,22.98 -96.47,44.76 -144.58,59.72 -229.54,71.36 -503.02,61.3 -737.03,14.61 -55.44,-11.06 -101.34,-23.93 -151.69,-41.52 -40.94,-14.31 -114.59,-36.24 -114.59,-78.47l0 -440.34c0,-51.57 44.38,-16.54 55.32,-10.01 147.8,88.08 396.77,147.61 566.84,147.61 80.71,0 151.44,-0.45 226.54,-33.32 48.58,-21.27 87.54,-79.81 65.5,-140.68 -41.1,-113.46 -312.32,-180.46 -433.22,-239.78 -51.58,-25.31 -96.7,-47.09 -147.09,-77.45 -45.06,-27.16 -97.72,-60.07 -131.67,-92.94 -6.33,-6.11 -9.07,-7.31 -15.36,-12.94 -29.64,-26.55 -70.46,-76.96 -91.6,-107.44 -144.41,-208.16 -105.71,-489.4 36.82,-670.17 141.9,-179.97 391.34,-262.87 626.44,-262.87 145.22,0 225.54,1.95 375.48,25.22 46.74,7.25 90.77,18.43 132.8,31.94 49.53,15.93 93.99,24.23 93.99,70.67l0 417.62c0,31.96 -41.49,31.75 -61.59,21.86 -70.72,-34.85 -130.26,-60.62 -211.89,-78 -127.37,-27.12 -354.63,-65.34 -485.42,-12.42 -37.16,15.04 -71.87,53.19 -71.87,105.49zm-2704.9 -1167.61c0,-32.04 34.73,-24.78 64.1,-25.36l238.65 -5.81c103.34,-1.52 204.87,-6.95 309.61,-7.35 357.75,-1.36 610.53,-7.76 904.39,168.03 146.83,87.83 270.53,237.94 329.04,398.43 52.47,143.89 59.21,228.97 59.21,375.47 0,159.53 -47.55,325.99 -126.31,455.9 -19.54,32.22 -39.25,56.26 -60.97,83.97l-52.69 58.22c-170.72,170.72 -376.03,241.46 -631.27,274.72 -147.86,19.27 -259.61,13.17 -401.55,9.55 -39.25,-1 -56.77,1.42 -85.15,-1.69 0,238.64 0,477.27 0,715.91 0,96.79 13.75,129.87 -48.2,129.49l-449.07 -0.02c-26.56,0.03 -49.79,-0.77 -49.79,-30.04l0 -2599.42zm-308.06 -1539.76c-145.78,0 -291.73,38.59 -410.45,89.47 -346.91,148.68 -599.45,488.34 -636.81,871.15 -7.34,75.13 -5.56,149.34 -5.56,235.4l0 3267.02c0,354.94 -31.28,609.02 151.45,912.59 66.78,110.94 134.46,188.08 231.45,271.49 180.68,155.38 434.62,250.57 678.45,250.57l3934.64 0c141.8,0 293.7,-38.35 408.45,-88.59 359.3,-157.34 591.77,-478.96 638.36,-869.89 8.97,-75.22 6.01,-157.2 6.01,-240.37l0 -3264.19c0,-112.22 4.34,-393.69 -7.01,-486.37 -14.08,-114.88 -37.26,-196.2 -79.17,-298.27 -52.01,-126.7 -159.81,-280.66 -260.15,-367.99 -200.33,-174.35 -435.25,-282.02 -715.02,-282.02l-3934.64 0z"/>
    <path class="fil21" d="M3398.9 3441.93c-0.11,-42.2 -3.77,-36.33 13.78,-37.59 56.64,-4.07 88.53,-0.92 156.68,-2.32 69.68,-1.42 141.91,-3.18 209.53,3.15 110.46,10.34 240.63,51.52 306.56,117.19 42.21,42.05 60.73,62.5 88.66,127.11 23.26,53.8 31.51,115.88 30.81,165.46 -1.87,130.96 -31.3,230.02 -112.64,300.37 -35.91,31.07 -76.64,61.69 -132.19,83.84 -176.41,70.35 -374.13,63.12 -561.19,53.68l0 -810.89zm-549.89 -497.16l0 2599.42c0,29.27 23.23,30.07 49.79,30.04l449.07 0.02c61.95,0.38 48.2,-32.7 48.2,-129.49 0,-238.64 0,-477.27 0,-715.91 28.38,3.11 45.9,0.69 85.15,1.69 141.94,3.62 253.69,9.72 401.55,-9.55 255.24,-33.26 460.55,-104 631.27,-274.72l52.69 -58.22c21.72,-27.71 41.43,-51.75 60.97,-83.97 78.76,-129.91 126.31,-296.37 126.31,-455.9 0,-146.5 -6.74,-231.58 -59.21,-375.47 -58.51,-160.49 -182.21,-310.6 -329.04,-398.43 -293.86,-175.79 -546.64,-169.39 -904.39,-168.03 -104.74,0.4 -206.27,5.83 -309.61,7.35l-238.65 5.81c-29.37,0.58 -64.1,-6.68 -64.1,25.36z"/>
    <path class="fil21" d="M5553.91 4112.38c0,-52.3 34.71,-90.45 71.87,-105.49 130.79,-52.92 358.05,-14.7 485.42,12.42 81.63,17.38 141.17,43.15 211.89,78 20.1,9.89 61.59,10.1 61.59,-21.86l0 -417.62c0,-46.44 -44.46,-54.74 -93.99,-70.67 -42.03,-13.51 -86.06,-24.69 -132.8,-31.94 -149.94,-23.27 -230.26,-25.22 -375.48,-25.22 -235.1,0 -484.54,82.9 -626.44,262.87 -142.53,180.77 -181.23,462.01 -36.82,670.17 21.14,30.48 61.96,80.89 91.6,107.44 6.29,5.63 9.03,6.83 15.36,12.94 33.95,32.87 86.61,65.78 131.67,92.94 50.39,30.36 95.51,52.14 147.09,77.45 120.9,59.32 392.12,126.32 433.22,239.78 22.04,60.87 -16.92,119.41 -65.5,140.68 -75.1,32.87 -145.83,33.32 -226.54,33.32 -170.07,0 -419.04,-59.53 -566.84,-147.61 -10.94,-6.53 -55.32,-41.56 -55.32,10.01l0 440.34c0,42.23 73.65,64.16 114.59,78.47 50.35,17.59 96.25,30.46 151.69,41.52 234.01,46.69 507.49,56.75 737.03,-14.61 48.11,-14.96 102.51,-36.74 144.58,-59.72 84.35,-46.07 162.54,-113.46 216.61,-192.69 108.93,-159.61 131.56,-378.12 58.52,-560.1 -25.85,-64.42 -79.57,-135.47 -128.63,-178.28 -79.72,-69.58 -153.54,-109.88 -250.7,-158.47 -115.44,-57.74 -183.9,-73.73 -288.76,-120.38 -77.36,-34.42 -224.91,-90.24 -224.91,-193.69z"/>
    <path class="fil20" d="M3398.9 4252.82c187.06,9.44 384.78,16.67 561.19,-53.68 55.55,-22.15 96.28,-52.77 132.19,-83.84 81.34,-70.35 110.77,-169.41 112.64,-300.37 0.7,-49.58 -7.55,-111.66 -30.81,-165.46 -27.93,-64.61 -46.45,-85.06 -88.66,-127.11 -65.93,-65.67 -196.1,-106.85 -306.56,-117.19 -67.62,-6.33 -139.85,-4.57 -209.53,-3.15 -68.15,1.4 -100.04,-1.75 -156.68,2.32 -17.55,1.26 -13.89,-4.61 -13.78,37.59l0 810.89z"/>
   </g>
  </g>
 </g>
</svg>
