<?xml version="1.0" encoding="UTF-8"?>
<!DOCTYPE svg PUBLIC "-//W3C//DTD SVG 1.1//EN" "http://www.w3.org/Graphics/SVG/1.1/DTD/svg11.dtd">
<!-- Creator: CorelDRAW 2020 (64 Bit) -->
<svg xmlns="http://www.w3.org/2000/svg" xml:space="preserve" width="94.6031mm" height="126.876mm" version="1.1" style="shape-rendering:geometricPrecision; text-rendering:geometricPrecision; image-rendering:optimizeQuality; fill-rule:evenodd; clip-rule:evenodd"
viewBox="0 0 9454.76 12680.16"
 xmlns:xlink="http://www.w3.org/1999/xlink"
 xmlns:xodm="http://www.corel.com/coreldraw/odm/2003">
 <defs>
  <style type="text/css">
   <![CDATA[
    .str1 {stroke:black;stroke-width:19.99;stroke-miterlimit:22.9256}
    .str0 {stroke:#373435;stroke-width:7.62;stroke-miterlimit:22.9256}
    .fil9 {fill:none}
    .fil8 {fill:#FEFEFE}
    .fil4 {fill:#FEFEFE}
    .fil7 {fill:#373435}
    .fil0 {fill:#00A859}
    .fil6 {fill:black}
    .fil5 {fill:#14EA32}
    .fil3 {fill:#FEFEFE;fill-rule:nonzero}
    .fil1 {fill:white}
    .fil2 {fill:white;fill-rule:nonzero}
   ]]>
  </style>
    <clipPath id="id0">
     <path d="M5784.14 1998.17l-1583.75 0c-1060.87,0 -1928.86,867.99 -1928.86,1928.86l0 2001.26c0,1060.88 867.98,1928.86 1928.86,1928.86l2001.26 0c1060.88,0 1928.86,-867.98 1928.86,-1928.86l0 -1681.36 0 -2248.75 -2346.36 0z"/>
    </clipPath>
      <mask id="id1">
  <linearGradient id="id2" gradientUnits="userSpaceOnUse" x1="-327.74" y1="10450.53" x2="7546.91" y2="2575.88">
   <stop offset="0" style="stop-opacity:1; stop-color:white"/>
   <stop offset="1" style="stop-opacity:0; stop-color:white"/>
  </linearGradient>
       <rect style="fill:url(#id2)" x="2031.55" y="1767.28" width="6323.96" height="6323.96"/>
      </mask>
      <mask id="id3">
  <linearGradient id="id4" gradientUnits="userSpaceOnUse" x1="4975.75" y1="4921.47" x2="3247.67" y2="6649.55">
   <stop offset="0" style="stop-opacity:0.701961; stop-color:white"/>
   <stop offset="0.458824" style="stop-opacity:0.352941; stop-color:white"/>
   <stop offset="1" style="stop-opacity:0; stop-color:white"/>
  </linearGradient>
       <rect style="fill:url(#id4)" x="2271.52" y="3527.04" width="4508.06" height="4330.1"/>
      </mask>
      <clipPath id="id5">
       <path d="M6699.75 6272.21l-44 -249.76c47.29,-62.53 42.48,-152.6 -14.45,-209.53l-2559.85 -2559.85c-62.19,-62.19 -163.95,-62.19 -226.14,0l-547.96 547.96c-62.19,62.18 -62.19,163.94 0,226.14l2559.85 2559.85c56.93,56.93 147,61.74 209.55,14.45l249.74 44 373.26 -373.26z"/>
      </clipPath>
        <mask id="id6">
  <linearGradient id="id7" gradientUnits="userSpaceOnUse" x1="4542.99" y1="5828.4" x2="5471.14" y2="4900.25">
   <stop offset="0" style="stop-opacity:1; stop-color:white"/>
   <stop offset="1" style="stop-opacity:0; stop-color:white"/>
  </linearGradient>
         <rect style="fill:url(#id7)" x="2606.66" y="2534.05" width="5160.63" height="5160.63"/>
        </mask>
      <clipPath id="id8">
       <path d="M5784.14 1998.17l-1583.75 0c-1060.87,0 -1928.86,867.99 -1928.86,1928.86l0 2001.26c0,1060.88 867.98,1928.86 1928.86,1928.86l2001.26 0c1060.88,0 1928.86,-867.98 1928.86,-1928.86l0 -1681.36 0 -2248.75 -2346.36 0z"/>
      </clipPath>
      <clipPath id="id9">
       <path d="M6723.84 6408.92l-260.64 260.64 316.37 55.74 -55.74 -316.37z"/>
      </clipPath>
        <mask id="id10">
  <linearGradient id="id11" gradientUnits="userSpaceOnUse" x1="4542.99" y1="5828.4" x2="5471.14" y2="4900.25">
   <stop offset="0" style="stop-opacity:1; stop-color:white"/>
   <stop offset="1" style="stop-opacity:0; stop-color:white"/>
  </linearGradient>
         <rect style="fill:url(#id11)" x="2606.66" y="2534.05" width="5160.63" height="5160.63"/>
        </mask>
      <clipPath id="id12">
       <path d="M5784.14 1998.17l-1583.75 0c-1060.87,0 -1928.86,867.99 -1928.86,1928.86l0 2001.26c0,1060.88 867.98,1928.86 1928.86,1928.86l2001.26 0c1060.88,0 1928.86,-867.98 1928.86,-1928.86l0 -1681.36 0 -2248.75 -2346.36 0z"/>
      </clipPath>
 </defs>
 <g id="Camada_x0020_1">
  <metadata id="CorelCorpID_0Corel-Layer"/>
  <g id="_2415072782416">
   <polygon class="fil0 str0" points="934.71,640.5 9442.49,640.5 9442.49,12672.94 934.71,12672.94 "/>
   <polygon class="fil0 str0" points="8.52,7.23 934.71,640.5 934.71,12672.94 8.52,12039.66 "/>
   <polygon class="fil0 str0" points="8520.05,7.23 12.27,7.23 934.71,640.5 9442.49,640.5 "/>
   <path class="fil1" d="M5081.6 11954.39c40,-1.87 76.43,3.84 113.62,18.64 26.25,10.45 61.86,31.29 81.38,51.63 2.68,2.79 6.11,5.41 8.92,8.35 2.78,2.89 5.19,5.71 8.11,8.51 12.69,12.17 33.05,44.04 40.62,59.14 16.05,32.02 26.43,69.42 27.94,105.26 8.55,203.72 -192.41,332.6 -365.43,262.31 -35.21,-14.31 -53.48,-27.95 -81.49,-51.52 -21.79,-18.32 -44.76,-50.58 -57.54,-76.11 -17.38,-34.74 -25.13,-66.42 -28.03,-105.1 -3.89,-51.84 12.14,-114.53 41.27,-158.13 27.72,-41.49 59.49,-71.92 105.17,-95 32.7,-16.53 68.81,-26.25 105.46,-27.96zm-304.66 256.44l0 21.25 3.37 34.37c13.84,103.3 84.9,199.65 179.44,242.61 18.61,8.46 36.15,15.1 56.42,20.34 10.26,2.66 21.29,5.05 31.87,6.51 5.18,0.71 33.58,3.15 35.07,3.79l23.63 0c3.32,-1.07 21.72,-1.85 27.11,-2.48 54.18,-6.27 104.22,-26.21 148.57,-57.97 48.09,-34.43 80.94,-77.3 105.78,-130.87 28.44,-61.34 33.13,-136.56 17.96,-201.93 -26.85,-115.63 -120.61,-209.63 -236.43,-236.15 -70.53,-16.15 -135.62,-9.58 -201.98,18.27 -79.51,33.37 -142.21,102.96 -171.62,183.33 -8.85,24.21 -13.63,46.05 -16.86,71.34 -0.59,4.6 -0.87,9.07 -1.34,13.65 -0.45,4.34 -0.06,9.94 -0.99,13.95z"/>
   <path class="fil1" d="M4891.6 12084.74c-8.07,5.33 -24.98,45.53 -29.37,58.78 -1.14,3.45 1.53,5.98 3.43,9.46l26.46 45.75c7.01,12.25 13.97,24.89 21.28,36.92 7.34,12.09 13.94,24.81 21.27,36.93 7.24,11.96 14.41,24.71 21.28,36.9 10.19,18.1 22.15,37.56 32.05,55.59 2.21,4.03 8.31,15.42 10.84,18.28 2.17,-2.39 46.58,-79.97 48.76,-83.95 7.65,-13.95 16.04,-28.04 24.06,-41.85 4.08,-7.02 8.15,-14.01 12.16,-21.08 2.3,-4.04 9.78,-17.99 12.38,-20.54l96.88 167.55 21.44 -36.74c6.76,-12.41 14.24,-24.68 21.24,-37.01 13.97,-24.62 28.33,-49.33 42.61,-73.77 14.29,-24.47 27.97,-49.56 42.54,-73.84 1.85,-3.09 3.63,-6.21 5.4,-9.32 2.26,-4.01 4.62,-5.75 3.17,-10.17 -4.1,-12.49 -21.69,-52.91 -28.95,-57.81l-107.5 186.31 -96.98 -167.72c-2.73,2.38 -43.72,74.52 -48.76,83.72 -2.99,5.47 -45.18,79.75 -48.68,83.62l-107 -186.02z"/>
   <path class="fil2" d="M4132.83 12501.03l-775.05 0 0 -576.37 544.5 0 -179.01 181.73 409.56 394.64zm-667.91 -480.08l0 215.62 212.92 -215.62 -212.92 0zm0.68 383.79l417.02 0 -232.58 -222.41 -184.43 185.11 0 37.3zm1027.29 -152.57l220.38 199.35 -50.86 88.15 -261.06 -235.97 -96.96 52.22 0 145.1 -107.14 0 0 -599.42 561.45 206.81 -265.81 143.76zm-188.5 -1.36l230.54 -121.38 -230.54 -84.76 0 206.14zm1200.88 -326.16l168.85 375.66 214.27 -398.71 213.59 399.39 169.52 -376.34 117.98 0 -275.3 599.43 -225.8 -419.05 -225.81 419.05 -275.3 -599.43 117.98 0zm948.64 -23.05l461.09 403.45 0 -380.41 104.43 0 0 599.43 -461.1 -403.46 0 380.41 -104.42 0 0 -599.42z"/>
   <path class="fil1" d="M4264.27 90.63c37.53,-1.63 81.49,3.37 138.22,16.34 40.05,9.15 103.13,27.4 149.47,45.22 6.37,2.45 13.24,4.74 19.94,7.31 6.6,2.54 12.71,5.01 19.32,7.45 28.75,10.66 91.14,38.59 118.61,51.8 58.3,28.06 118,60.81 166.78,92.22 277.27,178.45 246.3,291.34 -19.45,229.77 -54.08,-12.53 -90.35,-24.49 -149.43,-45.12 -45.96,-16.06 -111.49,-44.31 -157.93,-66.67 -63.2,-30.43 -112.74,-58.19 -166.65,-92.06 -72.27,-45.41 -138.93,-100.33 -167.3,-138.52 -26.99,-36.34 -35.37,-62.99 -20.15,-83.22 10.9,-14.48 34.18,-23 68.57,-24.51zm33.58 224.64l28.03 18.62 48.7 30.1c150.08,90.49 348.24,174.89 499.45,212.52 29.75,7.41 56.05,13.22 83.24,17.82 13.77,2.33 27.94,4.42 40.44,5.7 6.13,0.62 37.75,2.76 40.07,3.32l23.64 0c1.91,-0.94 19.28,-1.62 23.86,-2.17 45.9,-5.49 69.63,-22.97 72.11,-50.78 2.68,-30.16 -21.02,-67.71 -66.84,-114.63 -52.48,-53.74 -146.99,-119.63 -248.39,-176.9 -179.37,-101.29 -397.11,-183.62 -547.92,-206.86 -91.83,-14.15 -148.25,-8.4 -177.88,16 -35.5,29.23 -6.41,90.19 70.19,160.6 23.07,21.21 47.12,40.35 77.22,62.49 5.49,4.03 11.11,7.95 16.68,11.96 5.28,3.79 13.06,8.7 17.41,12.21z"/>
   <path class="fil1" d="M4246.21 204.82c-1.03,4.67 35.08,39.89 48.16,51.49 3.4,3.02 9.4,5.23 15.9,8.29l86.82 40.09c23.16,10.72 46.78,21.79 69.97,32.33 23.29,10.59 46.65,21.73 69.98,32.35 23.01,10.47 46.99,21.64 69.95,32.32 34.06,15.85 71.67,32.89 105.37,48.69 7.53,3.53 28.64,13.5 34.95,16.01 -0.98,-2.09 -58.9,-70.05 -61.96,-73.54 -10.76,-12.22 -20.96,-24.57 -31.14,-36.65 -5.19,-6.16 -10.34,-12.28 -15.64,-18.47 -3.03,-3.54 -13.94,-15.76 -14.7,-17.99l317.88 146.77 -27.03 -32.19c-9.61,-10.87 -18.3,-21.62 -27.56,-32.41 -18.51,-21.57 -36.74,-43.21 -54.69,-64.61 -17.97,-21.44 -37.39,-43.42 -54.86,-64.69 -2.22,-2.7 -4.55,-5.43 -6.91,-8.17 -3.02,-3.51 -2.97,-5.04 -10.24,-8.9 -20.59,-10.95 -91.48,-46.35 -105.21,-50.64l138.25 163.2 -318.19 -146.92c0.41,2.09 54.56,65.28 61.66,73.35 4.22,4.79 60.01,69.85 61.61,73.25l-352.36 -162.95z"/>
   <path class="fil2" d="M4036.51 569.48l-775.05 0 -760.22 -504.88 544.5 0 60.68 159.19 930.08 345.7zm-1301.13 -420.53l284.41 188.88 -71.5 -188.88 -212.92 0zm506.89 336.18l417.03 0 -525.94 -194.82 59.72 162.15 49.19 32.66zm826.07 -133.64l483.32 174.63 65.42 77.22 -572.31 -206.71 -28.09 45.73 191.4 127.12 -107.14 0 -790.64 -525.08 834.24 181.16 -76.2 125.93zm-190.3 -1.19l70.45 -106.32 -342.34 -74.25 271.89 180.56zm770.68 -285.7l664.34 329.07 -311.63 -349.27 740.39 349.85 -326.86 -329.66 117.98 0 515.34 525.08 -778.53 -367.08 326.93 367.08 -1065.93 -525.08 117.98 0zm918.23 -20.2l993.26 353.42 -501.76 -333.22 104.43 0 790.64 525.08 -993.26 -353.42 501.76 333.22 -104.43 0 -790.64 -525.08z"/>
   <path class="fil1" d="M205.37 6279.07c-1.87,-41.22 3.84,-73.94 18.64,-101.5 10.45,-19.47 31.29,-41.53 51.63,-47.82 2.79,-0.86 5.41,-2.59 8.35,-3.51 2.89,-0.9 5.71,-1.47 8.51,-2.57 12.17,-4.79 44.04,-4.43 59.14,-2.18 32.02,4.77 69.42,18.69 105.26,40.49 203.72,123.87 332.6,408.61 262.31,535.93 -14.31,25.91 -27.95,35.31 -51.52,48.01 -18.32,9.87 -50.58,11.88 -76.11,8.07 -34.74,-5.21 -66.42,-18.06 -105.1,-40.3 -51.84,-29.8 -114.53,-86.59 -158.13,-144.06 -41.49,-54.68 -71.92,-106.24 -95,-166.92 -16.53,-43.44 -26.25,-85.88 -27.96,-123.64zm256.44 471.36l21.25 13.81 34.37 18.98c103.3,53.31 199.65,44.88 242.61,-21.75 8.46,-13.11 15.1,-26.32 20.34,-43.18 2.66,-8.54 5.05,-18.01 6.51,-27.64 0.71,-4.72 3.15,-31.54 3.79,-32.61l0 -23.64c-1.07,-4 -1.85,-22.92 -2.48,-28.71 -6.27,-58.25 -26.21,-121.27 -57.97,-186.26 -34.43,-70.47 -77.3,-131.19 -130.87,-190.85 -61.34,-68.32 -136.56,-121.91 -201.93,-149.22 -115.63,-48.32 -209.63,-15.66 -236.15,82.92 -16.15,60.02 -9.58,129.37 18.27,213.85 33.37,101.2 102.96,209.14 183.33,290.79 24.21,24.6 46.05,43.57 71.34,63.24 4.6,3.58 9.07,6.77 13.65,10.21 4.34,3.26 9.94,6.52 13.95,10.05z"/>
   <path class="fil1" d="M335.72 6553.81c5.33,11.52 45.53,54.57 58.78,67.58 3.45,3.39 5.98,2.35 9.46,2.72l45.75 3.29c12.25,0.95 24.89,2.2 36.92,2.72 12.09,0.52 24.81,2.18 36.93,2.73 11.96,0.54 24.71,1.65 36.9,2.71 18.1,1.58 37.56,2.27 55.59,4.09 4.03,0.41 15.42,1.72 18.28,1.04 -2.39,-3.72 -79.97,-98.56 -83.95,-103.33 -13.95,-16.72 -28.04,-34.27 -41.85,-51.26 -7.02,-8.63 -14.01,-17.26 -21.08,-25.86 -4.04,-4.93 -17.99,-21.48 -20.54,-25.73l167.55 12.03 -36.74 -45.31c-12.41,-14.82 -24.68,-30.29 -37.01,-45.3 -24.62,-29.96 -49.33,-60.39 -73.77,-90.56 -24.47,-30.2 -49.56,-60.2 -73.84,-90.54 -3.09,-3.86 -6.21,-7.67 -9.32,-11.46 -4.01,-4.86 -5.75,-8.35 -10.17,-9.77 -12.49,-4.03 -52.91,-12.71 -57.81,-8.62l186.31 228.61 -167.72 -12.04c2.38,4.27 74.52,92.17 83.72,103.19 5.47,6.54 79.75,97.01 83.62,103.03l-186.02 -13.92z"/>
   <path class="fil2" d="M752.01 7583.19l0 775.05 -576.37 -374.67 0 -544.5 181.73 297.15 394.64 -153.02zm-480.08 355.83l215.62 140.17 -215.62 -353.09 0 212.93zm383.79 248.8l0 -417.02 -222.41 88 185.11 304.77 37.3 24.25zm-152.57 -1126.47l199.35 -90.79 88.15 108.16 -235.97 107.67 52.22 130.91 145.1 94.32 0 107.14 -599.42 -389.66 206.81 -427.01 143.76 359.26zm-1.36 187.62l-121.38 -309.45 -84.76 175.45 206.14 134zm-326.16 -1412.9l375.66 75.36 -398.71 -473.46 399.39 46.03 -376.34 -414.16 0 -117.99 599.43 664.96 -419.05 -46.6 419.05 498.21 -599.43 -114.35 0 -117.99zm-23.05 -963.62l403.45 -198.82 -380.41 -247.28 0 -104.42 599.43 389.65 -403.46 198.82 380.41 247.28 0 104.43 -599.42 -389.66z"/>
   <path class="fil3" d="M2642.18 9098.49l122.99 37.78c-18.89,69.25 -50.36,120.65 -94.29,154.32 -43.92,33.53 -99.56,50.37 -167.06,50.37 -83.6,0 -152.27,-28.55 -206.15,-85.66 -53.74,-57.1 -80.68,-135.14 -80.68,-234.26 0,-104.69 27.09,-186.1 81.12,-244.08 54.03,-57.99 125.19,-86.98 213.32,-86.98 77.01,0 139.54,22.85 187.56,68.38 28.7,26.94 50.08,65.59 64.42,116.11l-125.63 29.87c-7.47,-32.51 -22.99,-58.28 -46.55,-77.16 -23.73,-18.89 -52.42,-28.26 -86.1,-28.26 -46.7,0 -84.63,16.69 -113.61,50.22 -29.14,33.39 -43.63,87.56 -43.63,162.52 0,79.36 14.35,136.02 42.89,169.7 28.7,33.82 65.89,50.66 111.72,50.66 33.82,0 62.95,-10.68 87.26,-32.21 24.31,-21.53 41.88,-55.2 52.42,-101.32zm205.72 -78.77c0,-64.13 9.66,-118.01 28.84,-161.65 14.2,-32.06 33.82,-60.91 58.57,-86.39 24.75,-25.48 51.83,-44.36 81.26,-56.81 39.24,-16.54 84.48,-24.9 135.73,-24.9 92.83,0 166.91,28.85 222.7,86.39 55.64,57.69 83.46,137.78 83.46,240.42 0,101.76 -27.67,181.41 -82.87,238.81 -55.21,57.54 -129.14,86.24 -221.53,86.24 -93.57,0 -168.09,-28.55 -223.29,-85.8 -55.2,-57.11 -82.87,-135.88 -82.87,-236.32zm130.89 -4.25c0,71.31 16.55,125.34 49.49,162.23 32.94,36.75 74.82,55.2 125.48,55.2 50.81,0 92.4,-18.3 125.05,-54.76 32.5,-36.61 48.75,-91.37 48.75,-164.43 0,-72.18 -15.81,-126.07 -47.58,-161.5 -31.63,-35.58 -73.65,-53.3 -126.22,-53.3 -52.41,0 -94.72,18.01 -126.8,53.89 -32.06,36.02 -48.17,90.19 -48.17,162.66zm578.79 314.95l0 -629.01 267.5 0c67.21,0 116.11,5.72 146.56,16.99 30.6,11.27 54.91,31.33 73.21,60.17 18.3,28.99 27.52,61.93 27.52,99.12 0,47.29 -13.76,86.24 -41.44,116.99 -27.67,30.74 -68.96,50.07 -124.01,58.13 27.37,15.96 49.92,33.53 67.64,52.71 17.86,19.18 41.88,53.3 72.04,102.2l76.72 122.7 -151.84 0 -91.07 -137.34c-32.65,-48.76 -55.06,-79.5 -67.21,-92.25 -12,-12.59 -24.75,-21.38 -38.21,-26.05 -13.62,-4.69 -35,-7.04 -64.28,-7.04l-25.76 0 0 262.68 -127.39 0zm127.39 -362.83l93.99 0c60.91,0 98.83,-2.63 114.06,-7.76 15.08,-5.13 27.08,-14.05 35.58,-26.64 8.63,-12.59 12.88,-28.41 12.88,-47.29 0,-21.24 -5.71,-38.22 -16.98,-51.4 -11.27,-13.03 -27.23,-21.23 -47.73,-24.6 -10.4,-1.46 -41.3,-2.2 -92.69,-2.2l-99.12 0 0 159.89zm507.04 362.83l0 -629.01 465.61 0 0 106.3 -338.22 0 0 139.69 314.51 0 0 106.3 -314.51 0 0 170.43 350.52 0 0 106.3 -477.91 0zm589.47 0l0 -623.73 127.39 0 0 517.44 315.38 0 0 106.3 -442.77 0zm761.37 -629.01l231.63 0c52.27,0 92.1,3.96 119.47,12 36.76,10.84 68.38,30.16 94.58,57.99 26.36,27.67 46.27,61.64 60.03,101.91 13.62,40.12 20.5,89.75 20.5,148.61 0,51.83 -6.44,96.34 -19.33,133.82 -15.66,45.83 -38.07,82.87 -67.2,111.13 -21.97,21.52 -51.69,38.21 -89.03,50.22 -27.96,8.92 -65.3,13.32 -112.15,13.32l-238.51 0 0 -629.01zm127.39 106.3l0 416.42 94.43 0c35.29,0 60.76,-2.05 76.44,-6.01 20.64,-5.13 37.63,-13.91 51.1,-26.2 13.61,-12.3 24.6,-32.51 33.09,-60.61 8.63,-28.11 12.88,-66.62 12.88,-115.23 0,-48.61 -4.25,-85.8 -12.88,-111.86 -8.5,-26.06 -20.51,-46.27 -35.88,-60.91 -15.37,-14.49 -34.85,-24.45 -58.57,-29.57 -17.57,-3.96 -52.27,-6.01 -103.81,-6.01l-56.81 0zm507.04 522.71l0 -629.01 267.5 0c67.21,0 116.11,5.72 146.56,16.99 30.6,11.27 54.91,31.33 73.21,60.17 18.3,28.99 27.52,61.93 27.52,99.12 0,47.29 -13.76,86.24 -41.44,116.99 -27.67,30.74 -68.96,50.07 -124.01,58.13 27.37,15.96 49.92,33.53 67.64,52.71 17.86,19.18 41.88,53.3 72.04,102.2l76.72 122.7 -151.84 0 -91.07 -137.34c-32.65,-48.76 -55.06,-79.5 -67.21,-92.25 -12,-12.59 -24.75,-21.38 -38.21,-26.05 -13.62,-4.69 -35,-7.04 -64.28,-7.04l-25.76 0 0 262.68 -127.39 0zm127.39 -362.83l93.99 0c60.91,0 98.83,-2.63 114.06,-7.76 15.08,-5.13 27.08,-14.05 35.58,-26.64 8.63,-12.59 12.88,-28.41 12.88,-47.29 0,-21.24 -5.71,-38.22 -16.98,-51.4 -11.27,-13.03 -27.23,-21.23 -47.73,-24.6 -10.4,-1.46 -41.3,-2.2 -92.69,-2.2l-99.12 0 0 159.89zm1073.68 362.83l-137.2 0 -54.32 -143.2 -252.28 0 -52.27 143.2 -134.7 0 244.23 -629.01 134.55 0 251.99 629.01zm-232.8 -249.49l-87.42 -232.8 -84.92 232.8 172.34 0zm338.52 249.49l-147.88 -629.01 130.89 0 93.57 432.08 114.79 -432.08 151.39 0 109.82 439.4 95.75 -439.4 127.83 0 -151.54 629.01 -136.02 0 -124.02 -470.29 -124.9 470.29 -139.68 0zm-2847.53 869.87l0 111.57 -422.55 0c4.54,-42.47 18.3,-82.58 41.14,-120.5 22.85,-37.93 68.09,-88.29 135.44,-151.1 54.32,-50.66 87.56,-85.07 99.85,-103.08 16.55,-24.9 24.9,-49.49 24.9,-73.95 0,-26.93 -7.18,-47.58 -21.67,-62.07 -14.35,-14.5 -34.26,-21.68 -59.6,-21.68 -25.19,0 -45.09,7.62 -60.03,22.85 -14.78,15.08 -23.28,40.27 -25.61,75.55l-120.36 -12c7.18,-66.47 29.57,-114.2 67.35,-143.2 37.78,-28.84 84.92,-43.33 141.59,-43.33 62.08,0 110.83,16.83 146.41,50.36 35.44,33.53 53.15,75.27 53.15,125.19 0,28.4 -5.12,55.35 -15.22,81.12 -10.1,25.61 -26.21,52.41 -48.32,80.52 -14.49,18.75 -41,45.54 -79.06,80.53 -38.22,34.99 -62.37,58.13 -72.48,69.7 -10.24,11.41 -18.45,22.69 -24.75,33.52l239.83 0zm285.22 -520.94c60.91,0 108.5,21.81 142.91,65.44 40.85,51.54 61.34,137.2 61.34,256.67 0,119.33 -20.64,205.13 -61.78,257.26 -34.12,43.04 -81.55,64.57 -142.47,64.57 -61.2,0 -110.55,-23.58 -148.02,-70.72 -37.49,-47.15 -56.23,-131.34 -56.23,-252.28 0,-118.74 20.65,-204.25 61.78,-256.38 34.12,-43.04 81.56,-64.56 142.47,-64.56zm0 100.14c-14.35,0 -27.23,4.69 -38.36,14.06 -11.27,9.22 -20.06,25.91 -26.21,50.07 -8.2,31.19 -12.29,83.9 -12.29,157.84 0,74.09 3.66,124.9 10.97,152.57 7.33,27.67 16.55,46.12 27.67,55.35 11.13,9.22 23.87,13.76 38.22,13.76 14.35,0 27.23,-4.69 38.51,-14.06 11.13,-9.22 19.92,-25.91 26.06,-50.07 8.2,-30.89 12.3,-83.46 12.3,-157.55 0,-73.94 -3.67,-124.75 -10.98,-152.42 -7.33,-27.67 -16.55,-46.26 -27.67,-55.49 -11.13,-9.37 -23.87,-14.06 -38.22,-14.06zm691.96 420.8l0 111.57 -422.55 0c4.54,-42.47 18.3,-82.58 41.14,-120.5 22.85,-37.93 68.09,-88.29 135.44,-151.1 54.32,-50.66 87.56,-85.07 99.85,-103.08 16.55,-24.9 24.9,-49.49 24.9,-73.95 0,-26.93 -7.18,-47.58 -21.67,-62.07 -14.35,-14.5 -34.26,-21.68 -59.6,-21.68 -25.19,0 -45.09,7.62 -60.03,22.85 -14.78,15.08 -23.28,40.27 -25.61,75.55l-120.36 -12c7.18,-66.47 29.57,-114.2 67.35,-143.2 37.78,-28.84 84.92,-43.33 141.59,-43.33 62.08,0 110.83,16.83 146.41,50.36 35.44,33.53 53.15,75.27 53.15,125.19 0,28.4 -5.12,55.35 -15.22,81.12 -10.1,25.61 -26.21,52.41 -48.32,80.52 -14.49,18.75 -41,45.54 -79.06,80.53 -38.22,34.99 -62.37,58.13 -72.48,69.7 -10.24,11.41 -18.45,22.69 -24.75,33.52l239.83 0zm77.45 -55.2l116.84 -14.2c3.67,29.87 13.62,52.71 29.87,68.53 16.25,15.81 35.87,23.72 58.86,23.72 24.75,0 45.54,-9.51 62.52,-28.4 16.84,-18.89 25.34,-44.36 25.34,-76.58 0,-30.31 -8.06,-54.47 -24.31,-72.19 -16.26,-17.72 -36.02,-26.64 -59.45,-26.64 -15.38,0 -33.68,3.07 -55.06,9.07l13.32 -97.8c32.51,0.87 57.25,-6.3 74.39,-21.38 17.13,-14.94 25.61,-35 25.61,-60.03 0,-21.23 -6.3,-38.07 -18.89,-50.81 -12.58,-12.59 -29.28,-18.89 -50.22,-18.89 -20.64,0 -38.21,7.18 -52.71,21.53 -14.64,14.35 -23.43,35.29 -26.64,62.81l-110.7 -18.89c7.77,-38.36 19.33,-68.96 35,-91.95 15.52,-22.85 37.34,-40.86 65.15,-54.03 27.82,-13.03 59.16,-19.62 93.71,-19.62 59.16,0 106.6,18.88 142.32,56.81 29.43,31.04 44.22,66.18 44.22,105.27 0,55.35 -30.16,99.71 -90.64,132.66 36.02,7.76 64.72,25.04 86.39,51.98 21.53,26.93 32.36,59.45 32.36,97.51 0,55.2 -20.21,102.34 -60.47,141.29 -40.27,38.95 -90.34,58.43 -150.37,58.43 -56.81,0 -103.95,-16.4 -141.29,-49.34 -37.49,-32.8 -59.16,-75.71 -65.16,-128.85z"/>
   <path class="fil3" d="M1311.74 894.78l-56.46 6.23c-1.35,-11.6 -4.96,-20.17 -10.75,-25.68 -5.81,-5.53 -13.3,-8.29 -22.58,-8.29 -12.31,0 -22.71,5.53 -31.2,16.56 -8.49,11.03 -13.79,34.03 -15.99,68.99 14.5,-17.13 32.48,-25.68 54.06,-25.68 24.27,0 45.14,9.26 62.47,27.8 17.34,18.61 25.97,42.53 25.97,71.89 0,31.13 -9.13,56.18 -27.38,75 -18.26,18.83 -41.68,28.23 -70.26,28.23 -30.64,0 -55.9,-11.95 -75.65,-35.87 -19.74,-23.92 -29.64,-63.04 -29.64,-117.53 0,-55.82 10.33,-96.08 30.92,-120.77 20.59,-24.7 47.33,-37.01 80.23,-37.01 23.07,0 42.18,6.51 57.32,19.53 15.14,12.94 24.77,31.84 28.93,56.61zm-132.02 127.22c0,18.96 4.39,33.61 13.08,43.93 8.7,10.33 18.61,15.5 29.86,15.5 10.75,0 19.74,-4.25 26.95,-12.67 7.15,-8.49 10.76,-22.36 10.76,-41.6 0,-19.82 -3.9,-34.32 -11.61,-43.58 -7.78,-9.2 -17.4,-13.8 -29,-13.8 -11.25,0 -20.66,4.39 -28.44,13.23 -7.72,8.77 -11.6,21.79 -11.6,38.99zm284.93 102.31l0 -61.13 -123.97 0 0 -50.73 131.46 -193.38 48.96 0 0 193.17 37.79 0 0 50.94 -37.79 0 0 61.13 -56.46 0zm0 -112.07l0 -103.8 -69.49 103.8 69.49 0zm135.07 -191.89l121.56 0c24.13,0 42.03,0.99 53.84,2.97 11.89,2.05 22.44,6.23 31.77,12.52 9.34,6.37 17.12,14.79 23.35,25.34 6.23,10.54 9.34,22.43 9.34,35.52 0,14.15 -3.82,27.23 -11.46,39.06 -7.65,11.88 -18.04,20.73 -31.13,26.67 18.47,5.45 32.62,14.64 42.6,27.66 9.9,13.02 14.86,28.3 14.86,45.92 0,13.86 -3.19,27.3 -9.62,40.4 -6.44,13.09 -15.21,23.57 -26.39,31.41 -11.1,7.79 -24.84,12.6 -41.18,14.44 -10.19,1.06 -34.88,1.77 -74.02,2.05l-103.51 0 0 -303.96zm61.55 50.52l0 70.05 40.19 0c23.85,0 38.71,-0.36 44.51,-1.07 10.46,-1.2 18.75,-4.81 24.76,-10.82 6.02,-6.02 8.99,-13.86 8.99,-23.63 0,-9.41 -2.62,-16.99 -7.79,-22.86 -5.17,-5.88 -12.88,-9.41 -23.07,-10.61 -6.09,-0.71 -23.57,-1.06 -52.36,-1.06l-35.24 0zm0 120.56l0 81.51 56.89 0c22.08,0 36.16,-0.64 42.11,-1.84 9.12,-1.7 16.55,-5.73 22.29,-12.17 5.73,-6.51 8.62,-15.07 8.62,-25.89 0,-9.19 -2.19,-16.91 -6.65,-23.28 -4.39,-6.37 -10.82,-11.03 -19.18,-13.94 -8.35,-2.9 -26.52,-4.39 -54.48,-4.39l-49.6 0zm244.6 -117.17l0 -53.91 58.17 0 0 53.91 -58.17 0zm0 250.05l0 -220.33 58.17 0 0 220.33 -58.17 0zm218.57 -220.33l0 46.27 -39.91 0 0 89.22c0,18.12 0.35,28.66 1.13,31.63 0.78,2.97 2.48,5.45 5.24,7.43 2.69,1.92 5.95,2.91 9.83,2.91 5.45,0 13.23,-1.84 23.49,-5.6l4.89 45.28c-13.51,5.81 -28.79,8.7 -45.92,8.7 -10.47,0 -19.88,-1.77 -28.3,-5.31 -8.42,-3.54 -14.57,-8.14 -18.46,-13.72 -3.97,-5.67 -6.66,-13.23 -8.22,-22.86 -1.2,-6.8 -1.84,-20.52 -1.84,-41.25l0 -96.44 -26.74 0 0 -46.27 26.74 0 0 -43.72 58.17 -34.39 0 78.11 39.91 0zm19.95 158.35l58.59 -8.91c2.48,11.25 7.5,19.81 15.14,25.61 7.58,5.88 18.26,8.77 31.91,8.77 15.07,0 26.39,-2.76 34.03,-8.28 5.1,-3.9 7.65,-9.13 7.65,-15.64 0,-4.39 -1.42,-8.07 -4.18,-10.96 -2.9,-2.76 -9.4,-5.38 -19.46,-7.72 -47.05,-10.4 -76.83,-19.88 -89.43,-28.44 -17.48,-11.96 -26.18,-28.51 -26.18,-49.67 0,-19.18 7.58,-35.24 22.65,-48.25 15.07,-13.02 38.42,-19.53 70.04,-19.53 30.14,0 52.58,4.95 67.22,14.78 14.65,9.9 24.77,24.49 30.28,43.8l-54.76 10.18c-2.34,-8.63 -6.87,-15.28 -13.45,-19.88 -6.58,-4.6 -15.99,-6.87 -28.22,-6.87 -15.43,0 -26.46,2.12 -33.19,6.44 -4.46,3.05 -6.65,7.01 -6.65,11.82 0,4.17 1.91,7.71 5.8,10.6 5.31,3.9 23.5,9.34 54.63,16.42 31.13,7.08 52.85,15.71 65.16,25.96 12.24,10.33 18.33,24.84 18.33,43.37 0,20.17 -8.43,37.57 -25.34,52.08 -16.84,14.5 -41.82,21.79 -74.93,21.79 -30,0 -53.78,-6.09 -71.32,-18.18 -17.48,-12.1 -28.94,-28.51 -34.32,-49.32z"/>
   <path class="fil4" d="M96.49 11665.7l0 130.71 0 196.04 -27.31 -18.72 0 -196.04 0 -130.71 0 -196.05 27.31 18.73 0 196.04zm15.92 -185.14l32.43 22.24 0 196.04 0 130.71 0 196.04 -32.43 -22.23 0 -196.05 0 -130.7 0 -196.05zm48.35 33.14l32.43 22.23 0 196.05 0 130.71 0 196.04 -32.43 -22.23 0 -196.05 0 -130.71 0 -196.04zm48.35 33.14l32.43 22.23 0 196.05 0 130.71 0 196.04 -32.43 -22.23 0 -196.05 0 -130.71 0 -196.04zm48.34 33.14l32.44 22.23 0 196.05 0 130.7 0 196.05 -32.44 -22.24 0 -196.04 0 -130.71 0 -196.04zm48.35 33.14l32.43 22.23 0 196.05 0 130.7 0 196.05 -32.43 -22.24 0 -196.04 0 -130.71 0 -196.04zm48.35 33.13l32.44 22.23 0 196.05 0 130.71 0 196.05 -32.44 -22.24 0 -196.04 0 -130.71 0 -196.05zm48.35 33.14l32.43 22.23 0 196.05 0 130.71 0 196.05 -32.43 -22.24 0 -196.04 0 -130.71 0 -196.05zm48.35 33.14l32.43 22.23 0 196.05 0 130.7 0 196.05 -32.43 -22.23 0 -196.05 0 -130.7 0 -196.05zm48.35 33.14l32.43 22.23 0 196.05 0 130.7 0 196.05 -32.43 -22.23 0 -196.05 0 -130.7 0 -196.05zm48.35 33.13l32.43 22.24 0 196.04 0 130.71 0 196.05 -32.43 -22.23 0 -196.05 0 -130.71 0 -196.05zm48.35 33.14l32.43 22.24 0 196.04 0 130.71 0 196.04 -32.43 -22.22 0 -196.05 0 -130.71 0 -196.05zm48.34 33.14l32.44 22.24 0 196.04 0 130.71 0 196.04 -32.44 -22.23 0 -196.05 0 -130.7 0 -196.05zm48.36 33.14l32.43 22.23 0 196.05 0 130.71 0 196.04 -32.43 -22.23 0 -196.05 0 -130.7 0 -196.05zm48.34 33.14l32.44 22.23 0 196.05 0 130.71 0 196.04 -32.44 -22.23 0 -196.05 0 -130.71 0 -196.04zm48.35 33.14l32.43 22.23 0 196.05 0 130.7 0 196.05 -32.43 -22.23 0 -196.05 0 -130.71 0 -196.04zm48.35 33.14l28.42 19.48 0 196.04 0 130.71 0 196.05 -28.42 -19.49 0 -196.04 0 -130.71 0 -196.04z"/>
   <polygon class="fil4" points="8796.6,920.05 8793.11,1198.87 9169.69,1199.75 9170.45,866.04 "/>
   <polygon class="fil4" points="9169.38,1566.01 9170.29,1237.84 8794.38,1237.06 8793.69,1507.23 "/>
   <polygon class="fil4" points="8474.66,966.38 8475.47,1197.95 8758.23,1197.96 8757.89,927.18 "/>
   <polygon class="fil4" points="8755.63,1505.22 8756.46,1234.87 8474.98,1233.12 8474.86,1462.58 "/>
   <path class="fil3" d="M2915.94 1345.78l55.38 0 0 31.14c19.85,-23.96 43.51,-35.97 70.98,-35.97 14.58,0 27.25,3 37.95,9 10.77,6.01 19.56,15.09 26.37,27.25 10.03,-12.16 20.88,-21.25 32.45,-27.25 11.57,-6.01 23.96,-9 37.14,-9 16.7,0 30.84,3.37 42.49,10.17 11.57,6.82 20.22,16.78 25.93,29.96 4.18,9.67 6.23,25.43 6.23,47.18l0 145.62 -60.21 0 0 -130.17c0,-22.64 -2.05,-37.21 -6.23,-43.73 -5.57,-8.56 -14.21,-12.89 -25.78,-12.89 -8.43,0 -16.41,2.57 -23.89,7.7 -7.4,5.2 -12.81,12.74 -16.11,22.64 -3.3,9.96 -4.91,25.63 -4.91,47.1l0 109.37 -60.21 0 0 -124.83c0,-22.12 -1.1,-36.48 -3.23,-42.85 -2.12,-6.45 -5.42,-11.27 -9.96,-14.43 -4.47,-3.15 -10.61,-4.69 -18.31,-4.69 -9.3,0 -17.65,2.5 -25.06,7.48 -7.47,5.06 -12.74,12.23 -15.97,21.69 -3.22,9.44 -4.83,25.13 -4.83,46.95l0 110.69 -60.21 0 0 -228.12zm440.03 70.33l-54.5 -9.67c6.16,-22.27 16.77,-38.75 31.79,-49.44 15.02,-10.69 37.36,-16.04 66.95,-16.04 26.88,0 46.96,3.15 60.14,9.52 13.11,6.37 22.42,14.42 27.76,24.25 5.35,9.81 8.06,27.76 8.06,53.99l-0.88 70.32c0,20 0.95,34.8 2.86,44.32 1.91,9.51 5.5,19.7 10.77,30.54l-59.77 0c-1.54,-3.96 -3.52,-9.81 -5.8,-17.58 -0.95,-3.59 -1.68,-5.94 -2.12,-7.04 -10.25,10.11 -21.25,17.66 -32.96,22.71 -11.72,5.06 -24.18,7.63 -37.44,7.63 -23.37,0 -41.83,-6.38 -55.31,-19.12 -13.47,-12.67 -20.22,-28.79 -20.22,-48.28 0,-12.81 3.08,-24.32 9.23,-34.43 6.15,-10.03 14.72,-17.8 25.85,-23.15 11.06,-5.35 27.03,-10.03 47.91,-14.06 28.12,-5.28 47.68,-10.25 58.53,-14.8l0 -6.08c0,-11.72 -2.86,-20.07 -8.56,-25.13 -5.79,-4.98 -16.63,-7.48 -32.53,-7.48 -10.76,0 -19.12,2.13 -25.13,6.45 -6.08,4.25 -10.91,11.79 -14.65,22.57zm80.87 48.78c-7.69,2.57 -19.93,5.65 -36.7,9.23 -16.7,3.59 -27.69,7.11 -32.82,10.47 -7.84,5.65 -11.79,12.67 -11.79,21.25 0,8.5 3.15,15.75 9.45,21.9 6.3,6.16 14.28,9.23 24.03,9.23 10.84,0 21.24,-3.59 31.13,-10.69 7.26,-5.5 12.08,-12.09 14.36,-20 1.53,-5.13 2.34,-14.95 2.34,-29.37l0 -12.02zm89.74 -119.11l64.17 0 54.72 161.83 53.4 -161.83 62.41 0 -80.43 219.54 -14.5 39.64c-5.35,13.25 -10.4,23.37 -15.24,30.4 -4.76,6.96 -10.32,12.67 -16.55,16.99 -6.23,4.4 -13.92,7.77 -23.08,10.18 -9.08,2.42 -19.41,3.66 -30.91,3.66 -11.57,0 -23.01,-1.24 -34.21,-3.66l-5.28 -47.03c9.45,1.83 18.02,2.79 25.64,2.79 14.06,0 24.47,-4.11 31.2,-12.38 6.74,-8.28 11.94,-18.83 15.53,-31.57l-86.88 -228.56zm472.11 67.69l-59.34 10.55c-1.97,-11.8 -6.52,-20.66 -13.62,-26.66 -7.11,-5.94 -16.26,-8.94 -27.54,-8.94 -15.01,0 -27.02,5.21 -35.97,15.61 -8.93,10.39 -13.4,27.75 -13.4,52.15 0,27.1 4.54,46.22 13.62,57.44 9.08,11.2 21.25,16.77 36.48,16.77 11.43,0 20.81,-3.3 28.06,-9.81 7.33,-6.52 12.45,-17.73 15.45,-33.7l59.34 10.11c-6.15,27.24 -17.94,47.83 -35.38,61.75 -17.43,13.91 -40.81,20.88 -70.18,20.88 -33.25,0 -59.84,-10.55 -79.62,-31.57 -19.85,-21.1 -29.74,-50.26 -29.74,-87.54 0,-37.73 9.96,-67.03 29.81,-88.06 19.86,-21.02 46.74,-31.49 80.65,-31.49 27.69,0 49.74,6.01 66.15,17.94 16.33,11.94 28.05,30.11 35.23,54.58zm31.72 43.58c0,-20.07 4.91,-39.49 14.8,-58.24 9.88,-18.83 23.88,-33.11 41.98,-42.99 18.09,-9.89 38.24,-14.87 60.57,-14.87 34.51,0 62.7,11.2 84.76,33.62 22.05,22.49 33.03,50.76 33.03,85.05 0,34.57 -11.13,63.21 -33.33,85.92 -22.27,22.72 -50.25,34.07 -84.02,34.07 -20.88,0 -40.8,-4.77 -59.77,-14.21 -18.9,-9.45 -33.33,-23.3 -43.21,-41.61 -9.89,-18.25 -14.8,-40.52 -14.8,-66.74zm61.97 3.23c0,22.64 5.35,40 16.04,52.01 10.77,12.08 23.96,18.09 39.71,18.09 15.67,0 28.86,-6.01 39.49,-18.09 10.61,-12.01 15.96,-29.52 15.96,-52.45 0,-22.35 -5.35,-39.56 -15.96,-51.57 -10.62,-12.09 -23.82,-18.1 -39.49,-18.1 -15.75,0 -28.93,6.01 -39.71,18.1 -10.69,12.01 -16.04,29.37 -16.04,52.01zm428.02 113.61l-60.21 0 0 -116.25c0,-24.62 -1.32,-40.51 -3.88,-47.69 -2.64,-7.25 -6.82,-12.81 -12.67,-16.85 -5.87,-4.03 -12.89,-6.01 -21.1,-6.01 -10.55,0 -20,2.86 -28.35,8.57 -8.43,5.72 -14.14,13.33 -17.21,22.71 -3.16,9.45 -4.7,26.88 -4.7,52.38l0 103.14 -60.21 0 0 -228.12 55.83 0 0 33.48c20,-25.57 45.12,-38.31 75.53,-38.31 13.33,0 25.57,2.42 36.62,7.18 11.13,4.84 19.49,10.91 25.13,18.31 5.72,7.48 9.67,15.9 11.87,25.35 2.27,9.45 3.37,22.94 3.37,40.52l0 141.6zm58.39 0l0 -314.7 60.21 0 0 113.54c18.6,-21.18 40.58,-31.79 66.07,-31.79 27.76,0 50.69,10.03 68.86,30.17 18.17,20.15 27.24,49.08 27.24,86.81 0,38.98 -9.22,69.01 -27.76,90.11 -18.53,21.02 -41.09,31.57 -67.53,31.57 -13.04,0 -25.86,-3.37 -38.54,-10.03 -12.67,-6.75 -23.59,-16.41 -32.74,-29.16l0 33.48 -55.82 0zm59.34 -118.45c0,23.66 3.73,41.25 11.2,52.52 10.47,16.12 24.32,24.18 41.69,24.18 13.33,0 24.69,-5.72 34.13,-17.14 9.37,-11.42 14.07,-29.45 14.07,-53.99 0,-26.15 -4.77,-44.97 -14.21,-56.56 -9.45,-11.57 -21.54,-17.36 -36.34,-17.36 -14.5,0 -26.51,5.65 -36.11,16.93 -9.6,11.27 -14.43,28.41 -14.43,51.42zm269.35 118.45l-60.21 0 0 -228.12 55.82 0 0 32.38c9.59,-15.31 18.24,-25.35 25.92,-30.1 7.7,-4.77 16.41,-7.11 26.15,-7.11 13.77,0 27.03,3.81 39.78,11.35l-18.68 52.59c-10.18,-6.59 -19.63,-9.88 -28.34,-9.88 -8.51,0 -15.68,2.35 -21.54,6.96 -5.87,4.69 -10.48,13.04 -13.85,25.21 -3.37,12.15 -5.05,37.65 -5.05,76.41l0 70.32zm99.4 -116.84c0,-20.07 4.91,-39.49 14.8,-58.24 9.88,-18.83 23.88,-33.11 41.98,-42.99 18.09,-9.89 38.24,-14.87 60.57,-14.87 34.51,0 62.7,11.2 84.76,33.62 22.05,22.49 33.03,50.76 33.03,85.05 0,34.57 -11.13,63.21 -33.33,85.92 -22.27,22.72 -50.25,34.07 -84.02,34.07 -20.88,0 -40.8,-4.77 -59.77,-14.21 -18.9,-9.45 -33.33,-23.3 -43.21,-41.61 -9.89,-18.25 -14.8,-40.52 -14.8,-66.74zm61.97 3.23c0,22.64 5.35,40 16.04,52.01 10.77,12.08 23.96,18.09 39.71,18.09 15.67,0 28.86,-6.01 39.49,-18.09 10.61,-12.01 15.96,-29.52 15.96,-52.45 0,-22.35 -5.35,-39.56 -15.96,-51.57 -10.62,-12.09 -23.82,-18.1 -39.49,-18.1 -15.75,0 -28.93,6.01 -39.71,18.1 -10.69,12.01 -16.04,29.37 -16.04,52.01zm262.76 113.61l-72.08 -228.12 58.61 0 42.7 149.51 39.34 -149.51 58.17 0 37.87 149.51 43.58 -149.51 59.49 0 -73.26 228.12 -57.87 0 -39.2 -146.72 -38.68 146.72 -58.68 0zm507.14 0l-60.21 0 0 -116.25c0,-24.62 -1.32,-40.51 -3.88,-47.69 -2.64,-7.25 -6.82,-12.81 -12.67,-16.85 -5.87,-4.03 -12.89,-6.01 -21.1,-6.01 -10.55,0 -20,2.86 -28.35,8.57 -8.43,5.72 -14.14,13.33 -17.21,22.71 -3.16,9.45 -4.7,26.88 -4.7,52.38l0 103.14 -60.21 0 0 -228.12 55.83 0 0 33.48c20,-25.57 45.12,-38.31 75.53,-38.31 13.33,0 25.57,2.42 36.62,7.18 11.13,4.84 19.49,10.91 25.13,18.31 5.72,7.48 9.67,15.9 11.87,25.35 2.27,9.45 3.37,22.94 3.37,40.52l0 141.6zm60.57 0l0 -60.21 60.21 0 0 60.21 -60.21 0zm321.22 -160.43l-59.34 10.55c-1.97,-11.8 -6.52,-20.66 -13.62,-26.66 -7.11,-5.94 -16.26,-8.94 -27.54,-8.94 -15.01,0 -27.02,5.21 -35.97,15.61 -8.93,10.39 -13.4,27.75 -13.4,52.15 0,27.1 4.54,46.22 13.62,57.44 9.08,11.2 21.25,16.77 36.48,16.77 11.43,0 20.81,-3.3 28.06,-9.81 7.33,-6.52 12.45,-17.73 15.45,-33.7l59.34 10.11c-6.15,27.24 -17.94,47.83 -35.38,61.75 -17.43,13.91 -40.81,20.88 -70.18,20.88 -33.25,0 -59.84,-10.55 -79.62,-31.57 -19.85,-21.1 -29.74,-50.26 -29.74,-87.54 0,-37.73 9.96,-67.03 29.81,-88.06 19.86,-21.02 46.74,-31.49 80.65,-31.49 27.69,0 49.74,6.01 66.15,17.94 16.33,11.94 28.05,30.11 35.23,54.58zm31.72 43.58c0,-20.07 4.91,-39.49 14.8,-58.24 9.88,-18.83 23.88,-33.11 41.98,-42.99 18.09,-9.89 38.24,-14.87 60.57,-14.87 34.51,0 62.7,11.2 84.76,33.62 22.05,22.49 33.03,50.76 33.03,85.05 0,34.57 -11.13,63.21 -33.33,85.92 -22.27,22.72 -50.25,34.07 -84.02,34.07 -20.88,0 -40.8,-4.77 -59.77,-14.21 -18.9,-9.45 -33.33,-23.3 -43.21,-41.61 -9.89,-18.25 -14.8,-40.52 -14.8,-66.74zm61.97 3.23c0,22.64 5.35,40 16.04,52.01 10.77,12.08 23.96,18.09 39.71,18.09 15.67,0 28.86,-6.01 39.49,-18.09 10.61,-12.01 15.96,-29.52 15.96,-52.45 0,-22.35 -5.35,-39.56 -15.96,-51.57 -10.62,-12.09 -23.82,-18.1 -39.49,-18.1 -15.75,0 -28.93,6.01 -39.71,18.1 -10.69,12.01 -16.04,29.37 -16.04,52.01zm216.17 -114.5l55.38 0 0 31.14c19.85,-23.96 43.51,-35.97 70.98,-35.97 14.58,0 27.25,3 37.95,9 10.77,6.01 19.56,15.09 26.37,27.25 10.03,-12.16 20.88,-21.25 32.45,-27.25 11.57,-6.01 23.96,-9 37.14,-9 16.7,0 30.84,3.37 42.49,10.17 11.57,6.82 20.22,16.78 25.93,29.96 4.18,9.67 6.23,25.43 6.23,47.18l0 145.62 -60.21 0 0 -130.17c0,-22.64 -2.05,-37.21 -6.23,-43.73 -5.57,-8.56 -14.21,-12.89 -25.78,-12.89 -8.43,0 -16.41,2.57 -23.89,7.7 -7.4,5.2 -12.81,12.74 -16.11,22.64 -3.3,9.96 -4.91,25.63 -4.91,47.1l0 109.37 -60.21 0 0 -124.83c0,-22.12 -1.1,-36.48 -3.23,-42.85 -2.12,-6.45 -5.42,-11.27 -9.96,-14.43 -4.47,-3.15 -10.61,-4.69 -18.31,-4.69 -9.3,0 -17.65,2.5 -25.06,7.48 -7.47,5.06 -12.74,12.23 -15.97,21.69 -3.22,9.44 -4.83,25.13 -4.83,46.95l0 110.69 -60.21 0 0 -228.12zm394.76 228.12l0 -60.21 60.21 0 0 60.21 -60.21 0zm119.93 0l0 -314.7 60.21 0 0 113.54c18.6,-21.18 40.58,-31.79 66.07,-31.79 27.76,0 50.69,10.03 68.86,30.17 18.17,20.15 27.24,49.08 27.24,86.81 0,38.98 -9.22,69.01 -27.76,90.11 -18.53,21.02 -41.09,31.57 -67.53,31.57 -13.04,0 -25.86,-3.37 -38.54,-10.03 -12.67,-6.75 -23.59,-16.41 -32.74,-29.16l0 33.48 -55.82 0zm59.34 -118.45c0,23.66 3.73,41.25 11.2,52.52 10.47,16.12 24.32,24.18 41.69,24.18 13.33,0 24.69,-5.72 34.13,-17.14 9.37,-11.42 14.07,-29.45 14.07,-53.99 0,-26.15 -4.77,-44.97 -14.21,-56.56 -9.45,-11.57 -21.54,-17.36 -36.34,-17.36 -14.5,0 -26.51,5.65 -36.11,16.93 -9.6,11.27 -14.43,28.41 -14.43,51.42zm269.35 118.45l-60.21 0 0 -228.12 55.82 0 0 32.38c9.59,-15.31 18.24,-25.35 25.92,-30.1 7.7,-4.77 16.41,-7.11 26.15,-7.11 13.77,0 27.03,3.81 39.78,11.35l-18.68 52.59c-10.18,-6.59 -19.63,-9.88 -28.34,-9.88 -8.51,0 -15.68,2.35 -21.54,6.96 -5.87,4.69 -10.48,13.04 -13.85,25.21 -3.37,12.15 -5.05,37.65 -5.05,76.41l0 70.32z"/>
   <path class="fil5" d="M5784.14 1998.17l-1583.75 0c-1060.87,0 -1928.86,867.99 -1928.86,1928.86l0 2001.26c0,1060.88 867.98,1928.86 1928.86,1928.86l2001.26 0c1060.88,0 1928.86,-867.98 1928.86,-1928.86l0 -1681.36 0 -2248.75 -2346.36 0z"/>
   <g style="clip-path:url(#id0)">
    <g>
     <polygon id="1" class="fil6 str1" style="mask:url(#id1)" points="2041.54,1777.28 8345.51,1777.28 8345.51,8081.25 2041.54,8081.25 "/>
     <path class="fil7" style="mask:url(#id3)" d="M3581.32 3527.04l3118.43 2745.17 24.09 136.71 55.74 316.37 -1131.85 1131.85 -1447.34 0c-1060.88,0 -1928.86,-867.98 -1928.86,-1928.86l0 -1091.45 1309.79 -1309.79z"/>
     <g>
      <path class="fil8" d="M6699.75 6272.21l-44 -249.76c47.29,-62.53 42.48,-152.6 -14.45,-209.53l-2559.85 -2559.85c-62.19,-62.19 -163.95,-62.19 -226.14,0l-547.96 547.96c-62.19,62.18 -62.19,163.94 0,226.14l2559.85 2559.85c56.93,56.93 147,61.74 209.55,14.45l249.74 44 373.26 -373.26z"/>
     </g>
     <g style="clip-path:url(#id5)">
      <g>
       <polygon id="1" class="fil6" style="mask:url(#id6)" points="3549.04,2534.05 7767.29,6752.31 6824.91,7694.69 2606.66,3476.43 "/>
      </g>
     </g>
     <g style="clip-path:url(#id8)">
      <path class="fil9" d="M6699.75 6272.21l-44 -249.76c47.29,-62.53 42.48,-152.6 -14.45,-209.53l-2559.85 -2559.85c-62.19,-62.19 -163.95,-62.19 -226.14,0l-547.96 547.96c-62.19,62.18 -62.19,163.94 0,226.14l2559.85 2559.85c56.93,56.93 147,61.74 209.55,14.45l249.74 44 373.26 -373.26z"/>
      <polygon class="fil8" points="6723.84,6408.92 6463.2,6669.56 6779.57,6725.29 "/>
     </g>
     <g style="clip-path:url(#id9)">
      <g>
       <polygon id="1" class="fil6" style="mask:url(#id10)" points="3549.04,2534.05 7767.29,6752.31 6824.91,7694.69 2606.66,3476.43 "/>
      </g>
     </g>
     <g style="clip-path:url(#id12)">
      <polygon class="fil9" points="6723.84,6408.92 6463.2,6669.56 6779.57,6725.29 "/>
     </g>
    </g>
   </g>
   <path class="fil9" d="M5784.14 1998.17l-1583.75 0c-1060.87,0 -1928.86,867.99 -1928.86,1928.86l0 2001.26c0,1060.88 867.98,1928.86 1928.86,1928.86l2001.26 0c1060.88,0 1928.86,-867.98 1928.86,-1928.86l0 -1681.36 0 -2248.75 -2346.36 0z"/>
  </g>
 </g>
</svg>
