<?xml version="1.0" encoding="UTF-8"?>
<!DOCTYPE svg PUBLIC "-//W3C//DTD SVG 1.1//EN" "http://www.w3.org/Graphics/SVG/1.1/DTD/svg11.dtd">
<!-- Creator: CorelDRAW 2020 (64 Bit) -->
<svg xmlns="http://www.w3.org/2000/svg" xml:space="preserve" width="242.147mm" height="242.147mm" version="1.1" style="shape-rendering:geometricPrecision; text-rendering:geometricPrecision; image-rendering:optimizeQuality; fill-rule:evenodd; clip-rule:evenodd"
viewBox="0 0 2159.98 2159.98"
 xmlns:xlink="http://www.w3.org/1999/xlink"
 xmlns:xodm="http://www.corel.com/coreldraw/odm/2003">
 <defs>
  <style type="text/css">
   <![CDATA[
    .fil3 {fill:black}
    .fil1 {fill:blue}
    .fil2 {fill:white}
    .fil0 {fill:white}
   ]]>
  </style>
 </defs>
 <g id="Camada_x0020_1">
  <metadata id="CorelCorpID_0Corel-Layer"/>
  <g id="_1930880095904">
   <rect class="fil0" x="-0" y="-0" width="2159.98" height="2159.98"/>
   <path class="fil1" d="M607.95 386c1.55,44.15 12.02,101.77 17.59,147.03 4.71,38.29 -1.04,30.64 -23.74,52.5 -13.69,13.19 -23.05,26.06 -41.64,42.47l-174.14 -20.57c-11.96,12.92 -40.88,69.13 -55.78,93.39 -9.15,14.91 -6.28,16.67 4.78,29.96 13.75,16.52 27.69,36.11 42.24,55.82 46.04,62.37 55.48,58.16 45.69,88.4 -31.9,98.51 15.96,58.45 -125.37,119.44 -56.69,24.46 -56.01,15.47 -56.01,42.09l0.4 105.73c35.31,14.36 67.71,28.82 103.35,43.96 74.26,31.53 52.53,8.14 71.55,77.88 13.92,51.02 21.55,26.36 -29.19,95.4l-64.28 84.33c3.26,11.49 53.25,98.7 62.55,108.76 45.98,-3.66 100,-11.74 146.83,-18.08 38.51,-5.21 32.45,2.38 52.64,23.85 14.12,15.01 28.79,25.81 42.63,41.61l-20.7 174.12c1.22,0.6 2.04,0.62 2.31,1.57l27.21 17.12c11.13,6.32 20.03,11.19 31.21,17.82 10.11,6 19.51,11.23 29.33,16.9 15.53,8.98 16.23,11.15 30.26,0.07 35.61,-28.11 71.41,-53.04 108.48,-82.14 9.41,-7.39 14.98,-15.87 28.53,-11.84l75.2 20.15c10.68,2.93 8.68,1.14 13.36,11.15 2.4,5.13 4.08,10.75 6.99,17.29l57.34 136.13 124.41 -0.17 65.57 -155.3c6.09,-11.2 32.52,-13.02 56.53,-19.61 9.96,-2.73 18.55,-5.43 27.42,-8.36 21.45,-7.08 24.94,6.71 68.06,37.49l84.49 64.06c9.29,-2.48 102.51,-56.01 108.39,-62.24l-21.27 -174.11c15.52,-15.64 28.13,-25.49 42.06,-40.43 30.8,-33.02 21.92,-29.34 53.81,-25.06 37.02,4.97 117.03,18.69 150.32,17.16 5.78,-16.09 24.74,-44.93 34.18,-61.41 26.05,-45.49 29.62,-40.52 14.66,-59.38 -27.96,-35.25 -54.76,-72.6 -82.25,-108.4 -7.62,-9.93 -14.54,-13.64 -9.81,-28.97 35.02,-113.42 -19.93,-61.35 183.77,-151.62l0.48 -124.2 -134.3 -56.47c-37.72,-17 -24.61,-3.84 -38.55,-56.47 -14.85,-56.09 -19.35,-43.38 -1.35,-66.99 27.41,-35.96 54.41,-72.66 82.13,-108.52 14.77,-19.1 9.88,-16.61 -14.79,-59.4 -10.3,-17.86 -24.46,-49.18 -37.4,-61.84l-174.11 20.76c-15.52,-14.35 -25.95,-28.06 -40.37,-41.96 -7.31,-7.05 -14.44,-12.32 -21.31,-19.48 -10.35,-10.78 -6.09,-17.46 -3.89,-34.4 3.33,-25.65 19.84,-132.48 16.13,-149.7 -19.27,-11.89 -91.33,-55.4 -105.8,-59.31l-103.75 78.05c-8.98,6.95 -17.03,12.93 -26.33,20 -13.71,10.42 -13.43,6.1 -31.63,0.47 -24.99,-7.73 -49.44,-12.39 -73.33,-18.72l-67.52 -161.66 -108.44 -0.43c-22.57,-0.02 -17.36,3.14 -24.8,21.55l-58.45 137.44c-5.42,6.64 -55.62,15.98 -75.55,22.31 -18.05,5.74 -18.26,7.95 -32.67,-3.3 -37.7,-29.41 -75.12,-54.71 -111.55,-84.69 -20.15,-16.58 -18.13,-10.98 -60.86,13.54 -18.22,10.46 -47.34,23.27 -61.95,37.46z"/>
   <path class="fil2" d="M1032.09 486.41c-333.34,29.58 -572.48,314.95 -546,643.52 24.87,308.67 300.51,574.57 643.12,544.12 166.62,-14.81 291.27,-84.46 396.96,-199.57 92.06,-100.27 160.22,-255.82 147.78,-443.37 -20.46,-308.53 -303.15,-574.76 -641.86,-544.7z"/>
   <path class="fil3" d="M661.82 709.91c14.14,6.74 79.14,20.92 102.65,27.64 14.94,4.27 15.55,7.6 17.62,24.68 3.37,27.77 12.09,51.48 -2.92,71.51 -9.21,12.3 -26.51,39.52 -39.35,48.3l-122.5 -30.67c5.89,46.84 49.42,87.49 86.12,101.9 60.44,23.74 106.42,-10.06 157.28,33.18l295.24 322.52c4.35,5.1 6.42,8.82 10.95,13.65l57.08 62.65c33.27,31.47 61.8,81.11 100.55,90 56.62,12.99 104.01,-30.08 100.72,-84.54 -3.06,-50.68 -51.43,-72.78 -82.43,-105.28l-336.55 -305.74c-22.95,-22.57 -39.06,-35.79 -58.14,-61.6 -11.8,-15.96 -24.94,-39.39 -32.97,-62.25 -17.05,-48.54 -2.14,-136.38 -109.39,-176.54 -48.3,-18.09 -123.2,-0.25 -143.94,30.6z"/>
   <path class="fil3" d="M1065.24 737.99l6.87 2.03c0.72,0.05 1.57,0.16 2.37,0.16 2.3,0.01 9.37,-1.75 11.64,-2.35 7.91,-2.11 11.89,-3.03 19.85,-4.48 48.83,-8.89 91.44,-8.11 138.24,8.47 17.07,6.04 57.94,25.41 58.51,41.72 0.53,14.94 -37.96,38.94 -45.73,57.03 5.15,15.16 29.82,34.81 41.08,46.09 10.03,10.05 33.37,37.29 46.01,41.46 13.69,0.01 51.87,-71.08 112.42,-28.48 5.87,4.13 15.34,14.29 19.03,21.67 14.43,28.88 -12.61,14.4 26.7,55.11 22.36,23.15 25.41,6.74 67.7,-35.23 40.05,-39.74 45.77,-35.64 12.82,-67.11 -9.69,-9.25 -11.99,-9.22 -27.57,-13.26 -22.5,-5.84 -39.21,-20.41 -47.9,-36.5 -22.77,-42.15 16.02,-34.31 -68.63,-97.28 -106.92,-79.52 -239.41,-65.13 -353.25,-9.1 -11.55,5.68 -22.55,7.9 -20.16,20.06z"/>
   <path class="fil3" d="M1046.45 1221.63c-5.53,-8.72 -10.79,-14.61 -19.64,-22.95 -8.21,-7.73 -12.63,-14.96 -20.07,-23.55 -7.39,-8.54 -13.78,-13.37 -21.12,-22.43 -6.75,-8.32 -14.3,-15.34 -21.72,-22.5l-75.53 82.05c-25.61,24.19 -43.97,48.72 -77.97,79.93 -141.95,130.33 -154.6,92.39 -91.14,154.24 14.65,14.28 80.04,55.89 112.4,38.7 13.09,-6.95 20.3,-39.84 27.19,-52.03 10.37,-18.34 21.53,-34.39 32.46,-49.2 24.08,-32.65 48.1,-58.26 73.27,-84.54 19.73,-20.59 60.36,-54.07 81.88,-77.73z"/>
   <path class="fil0" d="M926.83 956.15c-31.6,7.31 -23.32,33.47 0.04,56.62 17.47,17.32 32.66,33.26 49.75,51.03 63.75,66.28 131.61,129.78 197.92,199.43 16.6,17.43 31.49,32.4 48.38,49.59 10.76,10.95 35.95,44.87 57.52,41.06 13.3,-2.35 22.18,-13.35 20.59,-28.61 -1.68,-16.14 -60.19,-67.2 -71.18,-79.24 -31.51,-34.49 -65.03,-66.99 -97.98,-100.72 -29.97,-30.67 -67.58,-65.96 -99.9,-98.78 -16.83,-17.09 -31.24,-32.82 -48.21,-49.78 -10.89,-10.88 -35.86,-45.47 -56.93,-40.6z"/>
   <path class="fil3" d="M1078.57 1014.76c8.66,11.33 10.87,12.28 21.43,20.92 17.2,14.07 46.1,44.91 69.87,62.93l154.03 -160.06c-6.82,-10.02 -68.56,-71.77 -77.81,-77.38 -20.54,14.08 -62.51,56.79 -85.64,76.15l-81.87 77.44z"/>
   <path class="fil0" d="M1333.78 1359.8c-46.52,12.49 -29.08,80.34 18.06,68.74 41.46,-10.2 28.59,-81.27 -18.06,-68.74z"/>
  </g>
 </g>
</svg>
