<?xml version="1.0" encoding="UTF-8"?>
<!DOCTYPE svg PUBLIC "-//W3C//DTD SVG 1.1//EN" "http://www.w3.org/Graphics/SVG/1.1/DTD/svg11.dtd">
<!-- Creator: CorelDRAW 2020 (64 Bit) -->
<svg xmlns="http://www.w3.org/2000/svg" xml:space="preserve" width="178.231mm" height="178.231mm" version="1.1" style="shape-rendering:geometricPrecision; text-rendering:geometricPrecision; image-rendering:optimizeQuality; fill-rule:evenodd; clip-rule:evenodd"
viewBox="0 0 17835.99 17835.99"
 xmlns:xlink="http://www.w3.org/1999/xlink"
 xmlns:xodm="http://www.corel.com/coreldraw/odm/2003">
 <defs>
  <style type="text/css">
   <![CDATA[
    .fil1 {fill:black}
    .fil0 {fill:#1A1A1A}
   ]]>
  </style>
 </defs>
 <g id="Camada_x0020_1">
  <metadata id="CorelCorpID_0Corel-Layer"/>
  <g id="_1424309128560">
   <polygon class="fil0" points="-0,0 17835.99,0 17835.99,17835.99 -0,17835.99 "/>
   <polygon class="fil1" points="-0,17476.97 360.7,17476.97 360.7,17835.99 -0,17835.99 "/>
   <polygon class="fil1" points="-0,14485.72 359.87,14485.72 359.87,15980.85 -0,15980.85 "/>
   <rect class="fil1" x="360.76" y="15981.81" width="1495.13" height="1495.13"/>
   <polygon class="fil1" points="1856.78,17477.89 3351.91,17477.89 3351.91,17835.99 1856.78,17835.99 "/>
   <polygon class="fil1" points="-0,11494.47 359.04,11494.47 359.04,12989.59 -0,12989.59 "/>
   <rect class="fil1" x="359.93" y="12990.55" width="1495.13" height="1495.13"/>
   <rect class="fil1" x="1855.95" y="14486.64" width="1495.13" height="1495.13"/>
   <rect class="fil1" x="3351.97" y="15982.72" width="1495.13" height="1495.13"/>
   <polygon class="fil1" points="4847.99,17478.81 6343.11,17478.81 6343.11,17835.99 4847.99,17835.99 "/>
   <polygon class="fil1" points="-0,8503.22 358.21,8503.22 358.21,9998.34 -0,9998.34 "/>
   <rect class="fil1" x="359.1" y="9999.3" width="1495.13" height="1495.13"/>
   <rect class="fil1" x="1855.12" y="11495.39" width="1495.13" height="1495.13"/>
   <rect class="fil1" x="3351.14" y="12991.47" width="1495.13" height="1495.13"/>
   <rect class="fil1" x="4847.16" y="14487.56" width="1495.13" height="1495.13"/>
   <rect class="fil1" x="6343.17" y="15983.64" width="1495.13" height="1495.13"/>
   <polygon class="fil1" points="7839.2,17479.73 9334.32,17479.73 9334.32,17835.99 7839.2,17835.99 "/>
   <polygon class="fil1" points="-0,5511.96 357.38,5511.96 357.38,7007.09 -0,7007.09 "/>
   <rect class="fil1" x="358.27" y="7008.05" width="1495.13" height="1495.13"/>
   <rect class="fil1" x="1854.29" y="8504.13" width="1495.13" height="1495.13"/>
   <rect class="fil1" x="3350.31" y="10000.22" width="1495.13" height="1495.13"/>
   <rect class="fil1" x="4846.33" y="11496.3" width="1495.13" height="1495.13"/>
   <rect class="fil1" x="6342.34" y="12992.39" width="1495.13" height="1495.13"/>
   <rect class="fil1" x="7838.36" y="14488.47" width="1495.13" height="1495.13"/>
   <rect class="fil1" x="9334.38" y="15984.56" width="1495.13" height="1495.13"/>
   <polygon class="fil1" points="10830.39,17480.64 12325.53,17480.64 12325.53,17835.99 10830.39,17835.99 "/>
   <polygon class="fil1" points="-0,2520.72 356.55,2520.72 356.55,4015.84 -0,4015.84 "/>
   <rect class="fil1" x="357.44" y="4016.8" width="1495.13" height="1495.13"/>
   <rect class="fil1" x="1853.46" y="5512.88" width="1495.13" height="1495.13"/>
   <rect class="fil1" x="3349.48" y="7008.97" width="1495.13" height="1495.13"/>
   <rect class="fil1" x="4845.49" y="8505.05" width="1495.13" height="1495.13"/>
   <rect class="fil1" x="6341.51" y="10001.14" width="1495.13" height="1495.13"/>
   <rect class="fil1" x="7837.53" y="11497.22" width="1495.13" height="1495.13"/>
   <rect class="fil1" x="9333.55" y="12993.31" width="1495.13" height="1495.13"/>
   <rect class="fil1" x="10829.57" y="14489.39" width="1495.13" height="1495.13"/>
   <rect class="fil1" x="12325.59" y="15985.48" width="1495.13" height="1495.13"/>
   <polygon class="fil1" points="13821.6,17481.56 15316.73,17481.56 15316.73,17835.99 13821.6,17835.99 "/>
   <polygon class="fil1" points="355.72,0 355.72,1024.58 -0,1024.58 -0,0 "/>
   <rect class="fil1" x="356.61" y="1025.55" width="1495.13" height="1495.13"/>
   <rect class="fil1" x="1852.63" y="2521.63" width="1495.13" height="1495.13"/>
   <rect class="fil1" x="3348.64" y="4017.72" width="1495.13" height="1495.13"/>
   <rect class="fil1" x="4844.66" y="5513.8" width="1495.13" height="1495.13"/>
   <rect class="fil1" x="6340.68" y="7009.89" width="1495.13" height="1495.13"/>
   <rect class="fil1" x="7836.7" y="8505.97" width="1495.13" height="1495.13"/>
   <rect class="fil1" x="9332.72" y="10002.06" width="1495.13" height="1495.13"/>
   <rect class="fil1" x="10828.74" y="11498.14" width="1495.13" height="1495.13"/>
   <rect class="fil1" x="12324.76" y="12994.23" width="1495.13" height="1495.13"/>
   <rect class="fil1" x="13820.77" y="14490.31" width="1495.13" height="1495.13"/>
   <rect class="fil1" x="15316.79" y="15986.4" width="1495.13" height="1495.13"/>
   <polygon class="fil1" points="16812.81,17482.48 17835.99,17482.48 17835.99,17835.99 16812.81,17835.99 "/>
   <polygon class="fil1" points="3346.92,0 3346.92,1025.5 1851.79,1025.5 1851.79,0 "/>
   <rect class="fil1" x="3347.81" y="1026.46" width="1495.13" height="1495.13"/>
   <rect class="fil1" x="4843.83" y="2522.55" width="1495.13" height="1495.13"/>
   <rect class="fil1" x="6339.85" y="4018.63" width="1495.13" height="1495.13"/>
   <rect class="fil1" x="7835.87" y="5514.72" width="1495.13" height="1495.13"/>
   <rect class="fil1" x="9331.89" y="7010.8" width="1495.13" height="1495.13"/>
   <rect class="fil1" x="10827.91" y="8506.89" width="1495.13" height="1495.13"/>
   <rect class="fil1" x="12323.93" y="10002.97" width="1495.13" height="1495.13"/>
   <rect class="fil1" x="13819.94" y="11499.06" width="1495.13" height="1495.13"/>
   <rect class="fil1" x="15315.96" y="12995.14" width="1495.13" height="1495.13"/>
   <polygon class="fil1" points="16811.98,14491.23 17835.99,14491.23 17835.99,15986.36 16811.98,15986.36 "/>
   <polygon class="fil1" points="6338.13,0 6338.13,1026.42 4843,1026.42 4843,0 "/>
   <rect class="fil1" x="6339.02" y="1027.38" width="1495.13" height="1495.13"/>
   <rect class="fil1" x="7835.04" y="2523.47" width="1495.13" height="1495.13"/>
   <rect class="fil1" x="9331.06" y="4019.55" width="1495.13" height="1495.13"/>
   <rect class="fil1" x="10827.08" y="5515.64" width="1495.13" height="1495.13"/>
   <rect class="fil1" x="12323.09" y="7011.72" width="1495.13" height="1495.13"/>
   <rect class="fil1" x="13819.11" y="8507.81" width="1495.13" height="1495.13"/>
   <rect class="fil1" x="15315.13" y="10003.89" width="1495.13" height="1495.13"/>
   <polygon class="fil1" points="16811.15,11499.98 17835.99,11499.98 17835.99,12995.1 16811.15,12995.1 "/>
   <polygon class="fil1" points="9329.34,0 9329.34,1027.34 7834.2,1027.34 7834.2,0 "/>
   <rect class="fil1" x="9330.23" y="1028.3" width="1495.13" height="1495.13"/>
   <rect class="fil1" x="10826.24" y="2524.39" width="1495.13" height="1495.13"/>
   <rect class="fil1" x="12322.26" y="4020.47" width="1495.13" height="1495.13"/>
   <rect class="fil1" x="13818.28" y="5516.56" width="1495.13" height="1495.13"/>
   <rect class="fil1" x="15314.3" y="7012.64" width="1495.13" height="1495.13"/>
   <polygon class="fil1" points="16810.32,8508.72 17835.99,8508.72 17835.99,10003.85 16810.32,10003.85 "/>
   <polygon class="fil1" points="12320.53,0 12320.53,1028.25 10825.41,1028.25 10825.41,0 "/>
   <rect class="fil1" x="12321.43" y="1029.22" width="1495.13" height="1495.13"/>
   <rect class="fil1" x="13817.45" y="2525.3" width="1495.13" height="1495.13"/>
   <rect class="fil1" x="15313.47" y="4021.39" width="1495.13" height="1495.13"/>
   <polygon class="fil1" points="16809.49,5517.48 17835.99,5517.48 17835.99,7012.6 16809.49,7012.6 "/>
   <polygon class="fil1" points="15311.74,0 15311.74,1029.18 13816.62,1029.18 13816.62,0 "/>
   <rect class="fil1" x="15312.64" y="1030.14" width="1495.13" height="1495.13"/>
   <polygon class="fil1" points="16808.66,2526.22 17835.99,2526.22 17835.99,4021.34 16808.66,4021.34 "/>
   <polygon class="fil1" points="17835.99,1030.1 16807.82,1030.1 16807.82,0 17835.99,0 "/>
  </g>
 </g>
</svg>
