<?xml version="1.0" encoding="UTF-8"?>
<!DOCTYPE svg PUBLIC "-//W3C//DTD SVG 1.1//EN" "http://www.w3.org/Graphics/SVG/1.1/DTD/svg11.dtd">
<!-- Creator: CorelDRAW 2020 (64 Bit) -->
<svg xmlns="http://www.w3.org/2000/svg" xml:space="preserve" width="38.145mm" height="38.145mm" version="1.1" style="shape-rendering:geometricPrecision; text-rendering:geometricPrecision; image-rendering:optimizeQuality; fill-rule:evenodd; clip-rule:evenodd"
viewBox="0 0 3807.87 3807.87"
 xmlns:xlink="http://www.w3.org/1999/xlink"
 xmlns:xodm="http://www.corel.com/coreldraw/odm/2003">
 <defs>
  <style type="text/css">
   <![CDATA[
    .fil0 {fill:#201E1E}
    .fil1 {fill:white}
   ]]>
  </style>
 </defs>
 <g id="Camada_x0020_1">
  <metadata id="CorelCorpID_0Corel-Layer"/>
  <g id="_2415701509296">
   <circle class="fil0" cx="1903.94" cy="1903.94" r="1903.94"/>
   <g>
    <path class="fil1" d="M1846.16 819.47c162.89,-7.61 311.29,15.63 462.78,75.95 106.93,42.58 251.95,127.43 331.44,210.26 10.91,11.38 24.88,22.03 36.38,34 11.31,11.78 21.12,23.25 32.98,34.63 51.72,49.57 134.63,179.38 165.44,240.85 65.39,130.44 107.66,282.75 113.79,428.74 34.87,829.74 -783.64,1354.65 -1488.33,1068.33 -143.41,-58.26 -217.82,-113.85 -331.91,-209.8 -88.77,-74.65 -182.35,-206.05 -234.36,-309.99 -70.8,-141.49 -102.33,-270.55 -114.15,-428.04 -15.85,-211.15 49.44,-466.51 168.07,-644.05 112.89,-168.97 242.29,-292.92 428.32,-386.96 133.21,-67.31 280.27,-106.93 429.54,-113.92zm-1240.9 1044.48l0 86.56 13.72 139.98c56.38,420.72 345.82,813.18 730.9,988.14 75.79,34.43 147.2,61.48 229.78,82.84 41.82,10.81 86.7,20.55 129.79,26.47 21.1,2.89 136.79,12.84 142.84,15.43l96.25 0c13.5,-4.33 88.46,-7.53 110.43,-10.07 220.65,-25.54 424.48,-106.79 605.14,-236.12 195.87,-140.24 329.67,-314.84 430.81,-533.02 115.85,-249.86 134.96,-556.22 73.13,-822.47 -109.36,-470.97 -491.23,-853.79 -962.97,-961.84 -287.24,-65.79 -552.35,-39.05 -822.65,74.41 -323.85,135.92 -579.21,419.34 -699,746.71 -36.07,98.57 -55.5,187.56 -68.68,290.53 -2.4,18.74 -3.52,36.97 -5.45,55.63 -1.81,17.65 -0.23,40.49 -4.03,56.81z"/>
    <path class="fil1" d="M1072.29 1350.42c-32.84,21.7 -101.71,185.44 -119.63,239.4 -4.66,14.04 6.22,24.32 13.96,38.52l107.78 186.38c28.53,49.88 56.92,101.32 86.68,150.36 29.88,49.24 56.76,101.01 86.63,150.4 29.46,48.71 58.68,100.61 86.67,150.31 41.5,73.69 90.17,152.93 130.52,226.41 9.01,16.39 33.84,62.78 44.17,74.43 8.83,-9.71 189.7,-325.71 198.58,-341.91 31.15,-56.85 65.35,-114.23 97.98,-170.44 16.6,-28.59 33.18,-57.08 49.55,-85.85 9.36,-16.46 39.84,-73.27 50.43,-83.65l394.6 682.44 87.29 -149.65c27.51,-50.56 58.04,-100.51 86.53,-150.73 56.88,-100.27 115.38,-200.9 173.54,-300.43 58.24,-99.66 113.97,-201.88 173.26,-300.78 7.54,-12.56 14.79,-25.25 21.98,-37.97 9.19,-16.3 18.8,-23.4 12.89,-41.41 -16.68,-50.91 -88.3,-215.52 -117.91,-235.47l-437.83 758.85 -394.99 -683.12c-11.11,9.69 -178.11,303.5 -198.61,341.01 -12.18,22.27 -184.01,324.81 -198.27,340.59l-435.79 -757.67z"/>
   </g>
  </g>
 </g>
</svg>
