<?xml version="1.0" encoding="UTF-8"?>
<!DOCTYPE svg PUBLIC "-//W3C//DTD SVG 1.1//EN" "http://www.w3.org/Graphics/SVG/1.1/DTD/svg11.dtd">
<!-- Creator: CorelDRAW 2020 (64 Bit) -->
<svg xmlns="http://www.w3.org/2000/svg" xml:space="preserve" width="41.359mm" height="41.319mm" version="1.1" style="shape-rendering:geometricPrecision; text-rendering:geometricPrecision; image-rendering:optimizeQuality; fill-rule:evenodd; clip-rule:evenodd"
viewBox="0 0 4135.9 4131.9"
 xmlns:xlink="http://www.w3.org/1999/xlink"
 xmlns:xodm="http://www.corel.com/coreldraw/odm/2003">
 <defs>
  <style type="text/css">
   <![CDATA[
    .fil0 {fill:white}
   ]]>
  </style>
 </defs>
 <g id="Camada_x0020_1">
  <metadata id="CorelCorpID_0Corel-Layer"/>
  <g id="_2354920980000">
   <path class="fil0" d="M3742.34 2912.47c-4.39,95.44 -15.88,180.61 -37.66,270.74 -13.1,54.22 -59.16,183.59 -91.89,217.37 -28.79,57.53 -74.77,92.97 -110.08,134.88 -14.57,10.6 -19.09,18.15 -32.43,29.25 -12.3,10.25 -21.28,17.05 -34.31,26.06 -24.11,16.67 -48.59,36.33 -78.1,47.79 -17.9,10.77 -36.69,18.7 -58.62,28.13 -12.24,5.27 -56.43,20.26 -62.65,25.19l-152.79 35.19c-40.38,7.48 -146.84,24.57 -184.71,14.98l-237.42 12.59c-82.81,1 -166.1,1.1 -248.82,2.79 -284.41,1.7 -1115.63,13.46 -1378.76,-30.86 -64.38,-10.84 -129.31,-27.19 -186.73,-49.69 -38.94,-15.25 -137.12,-57.16 -152.61,-84.47 -14.58,-2.12 -58.62,-39.78 -71.95,-52.4 -12.9,-12.22 -15.55,-18.11 -32.15,-32.48 -14.05,-12.17 -18.94,-22.14 -30.09,-35.06 -30.18,-34.96 -83.86,-106.66 -99.04,-164.59 -18.5,-22.82 -47.29,-133.73 -55.53,-171.84 -14.15,-65.45 -22.13,-137.16 -26.1,-207.3l-8.03 -231.33 -4.35 -201.23 -1 -198.73 -0.23 -226.69 0.31 -208.7 0.89 -213.47 6.9 -324.26c3.02,-114.69 10.74,-263.41 38.55,-360.49 37.12,-189.69 159.47,-344.45 272.11,-425.39 141.57,-101.74 328.24,-143.94 540.74,-155.07 449.89,-23.55 925.89,-10.94 1371.98,-9.1 99.08,2.98 203.8,5.37 296.64,9.76 211.84,10.04 413.25,48.03 578.62,185.2 8.25,6.85 12.58,9.45 20.76,16.68 4.12,3.64 5.65,5.26 9.82,9.04 16.22,14.73 34.07,29.13 43.93,49 22.43,18.86 43.86,51.62 61.02,77.21 142.62,212.62 145.51,561.35 144.78,816.51 -1.51,230.81 2.25,463.69 1.92,695.13 -0.16,114.81 -0.87,228.28 -1.8,342.81 -0.85,104.55 0.24,236.26 -11.12,336.85zm-2847.22 -2861.69c-24.2,9.02 -60.64,15.37 -86.27,23.02l-159.06 58.6c-25.1,11.13 -49.46,25.71 -73.6,33.6 -33.41,32.71 -187.92,90.83 -350.79,315.87 -15.26,21.08 -29.6,42.46 -44.19,66.96 -11.48,19.28 -24.74,49.78 -37.69,67.39 -9.65,29.74 -27.99,61.56 -40.78,95.05 -12.85,33.66 -23.92,64.07 -34.85,99.69 -21.12,68.88 -35.64,146.19 -46.12,221.67 -15.8,117.06 -17.57,233.18 -22.73,351.72l-4.67 297.25 -0.7 227.45 -0.06 235.09 0.38 227.06 1.32 177.11 4.07 207.64c3.17,108.25 6.51,208.55 18.92,314.86 9.67,70.85 20.4,140.79 37.98,206.36 17.5,65.25 40.43,118.94 64,187.31 13.02,21.39 26.75,55.71 41.49,82.73 16.93,31.03 31.5,55.78 46.98,77.98 18.4,26.38 33.29,48.39 53.1,72.34 19.33,23.36 47.93,48.72 57.27,70.59l164.89 137.83c70.77,50.33 182.3,97.75 195.09,107.32 155.61,44.41 163.01,66.63 361.36,91.56 315.64,39.69 998.3,23.1 1334.79,26.08l539.65 -12.07c57.26,-2.72 113.48,-7.59 169.29,-14.37 58.22,-7.08 101.85,-16.41 156.96,-28.01 16.41,-3.5 21.73,-4.25 36.96,-8.75 14.14,-4.18 26.74,-8.16 41.61,-11.28 13.22,-6.13 96.67,-32.27 140.67,-52.27 18.04,-8.2 28.82,-13.3 46.63,-20.74 12.55,-8.68 27.15,-13.32 38.08,-19.44 15.75,-8.81 23.1,-14.52 39.53,-22 12,-11.21 35.23,-23.53 52.16,-35.26 17.39,-12.06 36.77,-29.94 54.26,-39.15 18.11,-20.67 35.56,-29.15 55.43,-50.45 10.66,-11.44 16.81,-15.69 25.7,-24.44 10.52,-10.37 17.35,-19.29 28.4,-27.15 9.03,-15.99 18.74,-19.01 30.78,-34.11 8.69,-10.9 19.73,-23.12 29.66,-35.21 70.12,-85.37 96.61,-149.23 147.59,-249.88 27.69,-79.66 50.53,-138.28 70.16,-227.89 19.44,-88.78 28.33,-169.95 34.2,-262.97 11.59,-183.71 14.09,-383.45 14.39,-574.4 0.63,-390.43 9.02,-788.45 -12,-1167.43 -10.79,-155.17 -13.63,-187.42 -40.93,-319.25l-56.25 -184.43c-11.6,-30.23 -22.62,-53.57 -36.33,-84.3 -23.23,-52.03 -81.49,-134.91 -86.22,-149.32 -18.68,-16.12 -74.44,-95.14 -134.59,-148.61 -169.06,-150.3 -302.38,-228.68 -560.24,-282.08 -116.66,-17.32 -205.28,-29.7 -327.39,-34.83 -115.6,-4.86 -229.53,-8.12 -345.67,-9.16 -238,-2.13 -476.04,-1.7 -714.06,-1.47 -159.04,3.65 -317.5,-0.06 -477.81,6.89 -76.92,3.34 -153.88,5.27 -230.24,12.71 -75.59,7.36 -138.59,20.1 -210.51,30.99z"/>
   <path class="fil0" d="M2734.28 2193.6c4.15,54.88 -47.08,161.21 -71.34,206.79 -24.87,46.72 -91.05,138.71 -123.22,156.23 -13.91,23.92 -121.58,108.78 -167.73,122.18 -30.56,22.86 -102.63,44.42 -144.77,54.96 -59.1,14.78 -122.21,21.66 -185.26,19.87 -83.07,-2.27 -160.14,-18.92 -230.12,-45.89 -46.52,-17.93 -150.81,-72.24 -173.14,-100.42 -15.33,-7.34 -53.75,-42.12 -65.97,-54.13 -18.63,-18.31 -38.46,-42.81 -55.64,-64.38 -30.68,-38.49 -66.02,-94.52 -89.57,-153.19 -31.09,-59.7 -48.01,-147.1 -53.92,-223.91 -5.55,-71.85 3.17,-166.44 23.64,-229.46 16.24,-72.91 72.04,-180.71 109.85,-224.38 36.02,-54.1 38.36,-48.49 67,-77.4 5.83,-5.89 8.94,-11.37 14.85,-17.68 6.02,-6.41 7.95,-7.53 14.89,-12.77 65.28,-49.21 81.53,-69.32 165.3,-107.7 183.43,-84.04 394.57,-89.43 584.77,0.46 15.65,7.39 26.57,13.54 40.1,20.49l89.47 58.72c7.8,5.99 12.17,9.16 18.1,14.24 75.95,65.1 176.68,184.62 201.37,284.2 17.43,22.83 39.04,133.74 42.92,172.22 4.02,39.84 9.83,175.06 -11.58,200.95zm-1444.42 -859.84l-60.8 72.99c-63.17,77.65 -93.33,135.96 -135.14,221.39l-13.59 20.7c-0.18,20.1 -24.77,73.21 -33.01,99.8 -11.4,36.84 -18.09,72.08 -27.6,108.57 -12.45,72.46 -17.9,129.52 -20.34,204.29 0.03,37.64 1.63,74.34 5.38,111.44 3.25,32.19 13.55,74.31 14.11,103.7 11.07,27.93 20.71,82.15 29.93,110.24 12.13,36.96 27.79,70.49 39.09,105.2 17.59,31.36 28.74,59.37 44.92,88.51 16.27,29.27 33.43,54.04 51.38,84.44 11.43,12.14 56.15,74.65 97.26,118.97l108.73 107.15c44.85,17.17 286.6,256.36 720.43,233.81 45.96,-2.39 79.43,-6.02 126.03,-13.29l122.42 -28.32c6.32,-1.69 14.4,-3.8 17.67,-4.75 10.23,-2.98 14.44,-4.66 24.94,-7.31 19.18,-10.14 53.67,-20.05 74.17,-28.86 27.94,-12.01 49.79,-23.55 76.2,-35.87 15.88,-10.4 31.12,-16.6 47.06,-26.07l136.74 -94.74 91.33 -84.53c26.46,-26.46 51.1,-61.83 70.17,-83.2 9.55,-10.7 0.03,-5.72 10.05,-8.01 23.72,-51.02 76.03,-97.95 141.53,-256.7 13.05,-31.61 20.85,-66.66 34.2,-98.98 35.63,-177.48 57.72,-308.88 19.93,-492.58 -2.34,-11.37 -4.67,-20.46 -7.37,-32.18 -20.64,-70.31 -29.81,-121.99 -66.52,-199.93 -26.06,-55.31 -60.15,-117.4 -95.74,-168.62l-45.84 -60.48c-23.21,-31.93 -48.61,-56.2 -75.2,-82.51 -10.11,-10.02 -19.35,-14.42 -20.92,-25.79 -36.78,-25.02 -83.19,-70.58 -151.95,-115.98 -305.39,-201.64 -708.69,-227.21 -1042.3,-64.7 -63.7,31.03 -111.17,61.91 -164.97,99.8 -24.43,17.21 -54.97,42.18 -73.72,60.01 -14.12,13.42 -56.05,54.06 -68.66,62.39z"/>
   <path class="fil0" d="M2971.39 1123.07c21.62,10.32 60.38,76.4 167.82,86.42 83.32,7.76 152.1,-27.06 195.56,-64.75 76.78,-66.58 96.7,-195.5 54.68,-287.74 -25.69,-56.42 -48.64,-56.86 -50.92,-74.65 -49.84,-32.27 -89.7,-67.79 -176.02,-66.91 -130.26,1.32 -237.95,106.07 -245.38,229.43 -6.5,107.74 41.91,146.12 54.26,178.2z"/>
  </g>
 </g>
</svg>
