<?xml version="1.0" encoding="UTF-8"?>
<!DOCTYPE svg PUBLIC "-//W3C//DTD SVG 1.1//EN" "http://www.w3.org/Graphics/SVG/1.1/DTD/svg11.dtd">
<!-- Creator: CorelDRAW 2020 (64 Bit) -->
<svg xmlns="http://www.w3.org/2000/svg" xml:space="preserve" width="213.767mm" height="213.767mm" version="1.1" style="shape-rendering:geometricPrecision; text-rendering:geometricPrecision; image-rendering:optimizeQuality; fill-rule:evenodd; clip-rule:evenodd"
viewBox="0 0 2008.79 2008.79"
 xmlns:xlink="http://www.w3.org/1999/xlink"
 xmlns:xodm="http://www.corel.com/coreldraw/odm/2003">
 <defs>
  <style type="text/css">
   <![CDATA[
    .fil0 {fill:#FEFEFE}
    .fil2 {fill:black}
    .fil1 {fill:#009933}
    .fil3 {fill:white}
   ]]>
  </style>
 </defs>
 <g id="Camada_x0020_1">
  <metadata id="CorelCorpID_0Corel-Layer"/>
  <g id="_1507444876864">
   <polygon class="fil0" points="-0,0 2008.79,0 2008.79,2008.79 -0,2008.79 "/>
   <rect class="fil1" x="423.23" y="423.23" width="1162.33" height="1162.33" rx="310.83" ry="310.83"/>
   <path class="fil2" d="M928.84 692.88l0 381.36c-1.06,0.08 -2.13,0.12 -3.21,0.12 -20.74,0 -38.01,-15.07 -41.76,-35.01l0 -135.78c0,-42.54 -34.81,-77.35 -77.35,-77.35 -42.55,0 -77.35,34.81 -77.35,77.35l0 152.91c0,0.45 0,0.91 0.01,1.36 0,79.8 86.43,146 199.67,158.45l0 155.71c-77.09,4.15 -131.69,14.48 -131.69,26.55 0,14.29 76.48,26.13 176.22,28.19 1.84,0.21 3.71,0.32 5.61,0.32l25.41 0 29.01 0c2.18,0 4.34,-0.14 6.45,-0.42 97.56,-2.31 171.78,-14.01 171.78,-28.09 0,-11.89 -52.91,-22.08 -128.09,-26.35l0 -285.6c90,-10.9 162.45,-55.83 186.96,-114.3 5.82,-10.85 9.12,-23.23 9.12,-36.34l0 -152.91c0,-42.55 -34.81,-77.35 -77.35,-77.35 -42.55,0 -77.35,34.81 -77.35,77.35l0 118.16c0.01,0.38 0.02,0.76 0.02,1.14 0,0.38 -0.01,0.76 -0.02,1.14 -0.58,22.93 -18.79,41.4 -41.38,42l0 -252.61c0,-27.58 -22.56,-50.14 -50.14,-50.14l-54.42 0c-27.58,0 -50.14,22.56 -50.14,50.14z"/>
   <path class="fil3" d="M1045.3 699.89c0,-22.07 -17.48,-40.05 -39.35,-40.87 4.53,5.32 7.27,12.22 7.27,19.75 0,16.83 -13.65,30.48 -30.48,30.48 -7.26,0 -13.93,-2.54 -19.17,-6.78 1.33,21.39 19.1,38.33 40.82,38.33 22.59,0 40.9,-18.31 40.9,-40.91z"/>
   <path class="fil3" d="M1004.39 766.46c-36.77,0 -66.57,-29.8 -66.57,-66.57 0,-36.77 29.8,-66.57 66.57,-66.57 36.77,0 66.57,29.8 66.57,66.57 0,36.77 -29.8,66.57 -66.57,66.57zm0 -140.89c-41.05,0 -74.32,33.28 -74.32,74.32 0,41.05 33.28,74.32 74.32,74.32 41.05,0 74.32,-33.28 74.32,-74.32 0,-41.05 -33.28,-74.32 -74.32,-74.32z"/>
   <path class="fil3" d="M1004.39 784.9c-46.95,0 -85.02,-38.06 -85.02,-85.02 0,-46.95 38.06,-85.02 85.02,-85.02 46.95,0 85.02,38.06 85.02,85.02 0,46.95 -38.06,85.02 -85.02,85.02zm0 -203.19c-65.26,0 -118.17,52.91 -118.17,118.17 0,65.26 52.91,118.17 118.17,118.17 65.26,0 118.17,-52.91 118.17,-118.17 0,-65.26 -52.91,-118.17 -118.17,-118.17z"/>
   <path class="fil2" d="M937.82 699.89c0,36.77 29.8,66.57 66.57,66.57 36.77,0 66.57,-29.8 66.57,-66.57 0,-36.77 -29.8,-66.57 -66.57,-66.57 -36.77,0 -66.57,29.8 -66.57,66.57zm107.48 0c0,22.59 -18.31,40.91 -40.91,40.91 -21.73,0 -39.49,-16.94 -40.82,-38.33 5.24,4.24 11.9,6.78 19.17,6.78 16.83,0 30.48,-13.65 30.48,-30.48 0,-7.54 -2.74,-14.43 -7.27,-19.75 21.87,0.82 39.35,18.8 39.35,40.87z"/>
   <path class="fil2" d="M1078.72 699.89c0,41.05 -33.28,74.32 -74.32,74.32 -41.05,0 -74.32,-33.28 -74.32,-74.32 0,-41.05 33.28,-74.32 74.32,-74.32 41.05,0 74.32,33.28 74.32,74.32zm-159.34 0c0,46.95 38.06,85.02 85.02,85.02 46.95,0 85.02,-38.06 85.02,-85.02 0,-46.95 -38.06,-85.02 -85.02,-85.02 -46.95,0 -85.02,38.06 -85.02,85.02z"/>
  </g>
 </g>
</svg>
