<?xml version="1.0" encoding="UTF-8"?>
<!DOCTYPE svg PUBLIC "-//W3C//DTD SVG 1.1//EN" "http://www.w3.org/Graphics/SVG/1.1/DTD/svg11.dtd">
<!-- Creator: CorelDRAW 2020 (64 Bit) -->
<svg xmlns="http://www.w3.org/2000/svg" xml:space="preserve" width="191.297mm" height="191.297mm" version="1.1" style="shape-rendering:geometricPrecision; text-rendering:geometricPrecision; image-rendering:optimizeQuality; fill-rule:evenodd; clip-rule:evenodd"
viewBox="0 0 1320.54 1320.54"
 xmlns:xlink="http://www.w3.org/1999/xlink"
 xmlns:xodm="http://www.corel.com/coreldraw/odm/2003">
 <defs>
  <style type="text/css">
   <![CDATA[
    .fil1 {fill:black}
    .fil0 {fill:#009933}
    .fil2 {fill:white}
   ]]>
  </style>
 </defs>
 <g id="Camada_x0020_1">
  <metadata id="CorelCorpID_0Corel-Layer"/>
  <g id="_1496744869616">
   <rect class="fil0" x="-0" y="-0" width="1320.54" height="1320.54" rx="353.14" ry="353.14"/>
   <path class="fil1" d="M574.43 306.36l0 433.27c-1.2,0.09 -2.42,0.14 -3.65,0.14 -23.56,0 -43.18,-17.12 -47.45,-39.77l0 -154.26c0,-48.33 -39.55,-87.88 -87.88,-87.88 -48.34,0 -87.88,39.55 -87.88,87.88l0 173.72c0,0.51 0,1.03 0.01,1.54 0,90.66 98.19,165.87 226.85,180.02l0 176.9c-87.59,4.72 -149.62,16.45 -149.62,30.17 0,16.24 86.89,29.69 200.21,32.03 2.09,0.24 4.22,0.36 6.37,0.36l28.87 0 32.96 0c2.48,0 4.93,-0.16 7.33,-0.47 110.84,-2.63 195.17,-15.92 195.17,-31.92 0,-13.51 -60.11,-25.08 -145.53,-29.94l0 -324.48c102.25,-12.38 184.56,-63.43 212.41,-129.86 6.61,-12.33 10.37,-26.39 10.37,-41.28l0 -173.72c0,-48.34 -39.55,-87.88 -87.88,-87.88 -48.34,0 -87.88,39.55 -87.88,87.88l0 134.25c0.01,0.43 0.02,0.86 0.02,1.29 0,0.43 -0.01,0.86 -0.02,1.29 -0.66,26.05 -21.35,47.04 -47.01,47.72l0 -287c0,-31.33 -25.64,-56.97 -56.97,-56.97l-61.83 0c-31.33,0 -56.97,25.64 -56.97,56.97z"/>
   <g>
    <path class="fil2" d="M706.74 314.31c0,-25.07 -19.86,-45.51 -44.71,-46.44 5.15,6.04 8.26,13.88 8.26,22.44 0,19.12 -15.5,34.63 -34.63,34.63 -8.25,0 -15.83,-2.89 -21.78,-7.71 1.51,24.3 21.7,43.55 46.38,43.55 25.67,0 46.47,-20.81 46.47,-46.47z"/>
    <path class="fil2" d="M660.27 389.95c-41.77,0 -75.63,-33.86 -75.63,-75.63 0,-41.77 33.86,-75.63 75.63,-75.63 41.77,0 75.63,33.86 75.63,75.63 0,41.77 -33.86,75.63 -75.63,75.63zm0 -160.07c-46.64,0 -84.44,37.8 -84.44,84.44 0,46.64 37.8,84.44 84.44,84.44 46.64,0 84.44,-37.8 84.44,-84.44 0,-46.64 -37.8,-84.44 -84.44,-84.44z"/>
    <path class="fil2" d="M660.27 410.9c-53.35,0 -96.59,-43.24 -96.59,-96.59 0,-53.35 43.24,-96.59 96.59,-96.59 53.35,0 96.59,43.24 96.59,96.59 0,53.35 -43.24,96.59 -96.59,96.59zm0 -230.84c-74.15,0 -134.25,60.11 -134.25,134.25 0,74.15 60.11,134.25 134.25,134.25 74.15,0 134.25,-60.11 134.25,-134.25 0,-74.15 -60.11,-134.25 -134.25,-134.25z"/>
   </g>
   <path class="fil1" d="M584.64 314.31c0,41.77 33.86,75.63 75.63,75.63 41.77,0 75.63,-33.86 75.63,-75.63 0,-41.77 -33.86,-75.63 -75.63,-75.63 -41.77,0 -75.63,33.86 -75.63,75.63zm122.1 0c0,25.67 -20.81,46.47 -46.47,46.47 -24.68,0 -44.87,-19.24 -46.38,-43.55 5.95,4.82 13.52,7.71 21.78,7.71 19.12,0 34.63,-15.5 34.63,-34.63 0,-8.56 -3.11,-16.4 -8.26,-22.44 24.85,0.93 44.71,21.36 44.71,46.44z"/>
   <path class="fil1" d="M744.71 314.31c0,46.64 -37.8,84.44 -84.44,84.44 -46.63,0 -84.44,-37.8 -84.44,-84.44 0,-46.63 37.8,-84.44 84.44,-84.44 46.64,0 84.44,37.8 84.44,84.44zm-181.03 0c0,53.35 43.24,96.59 96.59,96.59 53.35,0 96.59,-43.24 96.59,-96.59 0,-53.34 -43.24,-96.59 -96.59,-96.59 -53.34,0 -96.59,43.24 -96.59,96.59z"/>
  </g>
 </g>
</svg>
