<?xml version="1.0" encoding="UTF-8"?>
<!DOCTYPE svg PUBLIC "-//W3C//DTD SVG 1.1//EN" "http://www.w3.org/Graphics/SVG/1.1/DTD/svg11.dtd">
<!-- Creator: CorelDRAW 2020 (64 Bit) -->
<svg xmlns="http://www.w3.org/2000/svg" xml:space="preserve" width="210mm" height="36.594mm" version="1.1" style="shape-rendering:geometricPrecision; text-rendering:geometricPrecision; image-rendering:optimizeQuality; fill-rule:evenodd; clip-rule:evenodd"
viewBox="0 0 21000 3659.4"
 xmlns:xlink="http://www.w3.org/1999/xlink"
 xmlns:xodm="http://www.corel.com/coreldraw/odm/2003">
 <defs>
  <style type="text/css">
   <![CDATA[
    .fil0 {fill:white}
    .fil1 {fill:white;fill-rule:nonzero}
   ]]>
  </style>
 </defs>
 <g id="Camada_x0020_1">
  <metadata id="CorelCorpID_0Corel-Layer"/>
  <g id="_2354917241792">
   <g>
    <path class="fil0" d="M9879.21 310.25c229.37,-10.73 438.33,22.01 651.65,106.94 150.58,59.95 354.77,179.43 466.7,296.07 15.38,16.02 35.03,31.01 51.24,47.88 15.92,16.57 29.73,32.73 46.44,48.75 72.83,69.81 189.56,252.59 232.95,339.14 92.07,183.69 151.6,398.14 160.24,603.72 49.09,1168.34 -1103.45,1907.48 -2095.73,1504.32 -201.93,-82.05 -306.71,-160.32 -467.36,-295.43 -124.99,-105.12 -256.76,-290.14 -330,-436.51 -99.7,-199.23 -144.1,-380.94 -160.74,-602.72 -22.32,-297.32 69.62,-656.9 236.65,-906.88 158.97,-237.93 341.17,-412.46 603.13,-544.87 187.56,-94.8 394.66,-150.59 604.83,-160.41zm-1747.3 1470.73l0 121.87 19.31 197.11c79.39,592.42 486.94,1145.04 1029.18,1391.39 106.72,48.48 207.28,86.57 323.54,116.64 58.89,15.23 122.09,28.95 182.78,37.28 29.71,4.09 192.61,18.08 201.13,21.73l135.53 0c19,-6.1 124.55,-10.59 155.49,-14.17 310.69,-35.96 597.72,-150.38 852.09,-332.49 275.81,-197.46 464.2,-443.32 606.64,-750.54 163.11,-351.83 190.02,-783.22 102.97,-1158.11 -153.99,-663.18 -691.71,-1202.24 -1355.96,-1354.37 -404.47,-92.63 -777.76,-54.98 -1158.38,104.78 -456.01,191.39 -815.58,590.48 -984.26,1051.44 -50.79,138.8 -78.16,264.11 -96.71,409.11 -3.38,26.38 -4.96,52.05 -7.67,78.33 -2.55,24.86 -0.32,57.01 -5.68,80z"/>
    <path class="fil0" d="M8789.54 1057.87c-46.24,30.56 -143.22,261.11 -168.45,337.09 -6.57,19.78 8.76,34.25 19.64,54.25l151.78 262.44c40.18,70.24 80.15,142.67 122.05,211.72 42.07,69.33 79.92,142.24 121.98,211.77 41.49,68.59 82.63,141.68 122.03,211.65 58.45,103.77 126.98,215.35 183.81,318.8 12.68,23.08 47.64,88.4 62.18,104.81 12.45,-13.68 267.13,-458.64 279.63,-481.45 43.87,-80.05 92.01,-160.85 137.97,-240 23.37,-40.27 46.72,-80.38 69.77,-120.89 13.19,-23.18 56.11,-103.17 71.02,-117.79l555.65 960.94 122.91 -210.72c38.74,-71.19 81.72,-141.52 121.83,-212.24 80.1,-141.18 162.47,-282.89 244.37,-423.03 82,-140.33 160.48,-284.27 243.96,-423.52 10.61,-17.69 20.83,-35.55 30.95,-53.47 12.95,-22.95 26.46,-32.96 18.16,-58.31 -23.5,-71.69 -124.34,-303.48 -166.05,-331.57l-616.51 1068.53 -556.19 -961.89c-15.63,13.65 -250.79,427.37 -279.67,480.17 -17.14,31.35 -259.1,457.38 -279.18,479.58l-613.64 -1066.87z"/>
   </g>
   <path class="fil1" d="M4437.87 3445.32l-4445 0 0 -3305.55 3122.78 0 -1026.67 1042.22 2348.89 2263.33zm-3830.56 -2753.33l0 1236.67 1221.12 -1236.67 -1221.12 0zm3.89 2201.11l2391.67 0 -1333.89 -1275.55 -1057.78 1061.66 0 213.89zm5891.67 -875l1263.89 1143.33 -291.67 505.56 -1497.22 -1353.33 -556.11 299.44 0 832.22 -614.44 0 0 -3437.77 3220 1186.11 -1524.45 824.44zm-1081.11 -7.78l1322.22 -696.11 -1322.22 -486.11 0 1182.22zm6887.22 -1870.55l968.33 2154.44 1228.89 -2286.66 1225 2290.55 972.23 -2158.33 676.66 0 -1578.89 3437.77 -1295 -2403.33 -1295 2403.33 -1578.88 -3437.77 676.66 0zm5440.56 -132.22l2644.44 2313.88 0 -2181.66 598.89 0 0 3437.77 -2644.44 -2313.88 0 2181.66 -598.89 0 0 -3437.77z"/>
  </g>
 </g>
</svg>
