<?xml version="1.0" encoding="UTF-8"?>
<!DOCTYPE svg PUBLIC "-//W3C//DTD SVG 1.1//EN" "http://www.w3.org/Graphics/SVG/1.1/DTD/svg11.dtd">
<!-- Creator: CorelDRAW 2020 (64 Bit) -->
<svg xmlns="http://www.w3.org/2000/svg" xml:space="preserve" width="242.147mm" height="242.147mm" version="1.1" style="shape-rendering:geometricPrecision; text-rendering:geometricPrecision; image-rendering:optimizeQuality; fill-rule:evenodd; clip-rule:evenodd"
viewBox="0 0 24214.7 24214.7"
 xmlns:xlink="http://www.w3.org/1999/xlink"
 xmlns:xodm="http://www.corel.com/coreldraw/odm/2003">
 <defs>
  <style type="text/css">
   <![CDATA[
    .str0 {stroke:#373435;stroke-width:20;stroke-miterlimit:22.9256}
    .fil0 {fill:#FEFEFE}
    .fil14 {fill:#282829}
    .fil3 {fill:#020202}
    .fil16 {fill:#0D0C0D}
    .fil8 {fill:#1C2227}
    .fil9 {fill:#2E374E}
    .fil13 {fill:#2F2F30}
    .fil11 {fill:#575758}
    .fil12 {fill:#5F2023}
    .fil18 {fill:#6E7070}
    .fil7 {fill:#7A7C83}
    .fil10 {fill:#903939}
    .fil1 {fill:#9BBFE4}
    .fil6 {fill:#B4D5B2}
    .fil17 {fill:#CECECE}
    .fil4 {fill:#D1D0D1}
    .fil5 {fill:#E86A67}
    .fil15 {fill:#F9FAF9}
    .fil2 {fill:white}
   ]]>
  </style>
 </defs>
 <g id="Camada_x0020_1">
  <metadata id="CorelCorpID_0Corel-Layer"/>
  <g id="_2352320283056">
   <rect class="fil0 str0" x="0.01" y="0.01" width="24214.68" height="24214.68"/>
   <g>
    <g>
     <path class="fil1" d="M8537.07 9265.71l-9.42 15.08 9.42 -15.08 43.47 7.98c14.84,-14.91 -17.35,-31.91 53.28,-15.07 78.91,18.82 28.17,15.74 3.8,25.89 0,30.44 -8.24,26.21 19.69,18.88l-5.91 -0.3 5.91 0.3c38.87,-36.71 21.8,-29.85 91.51,-9.44l1190.95 339.16c1148.22,339.61 2327.6,658.67 3468.55,1009.2 78.46,24.1 249.82,35.43 269.22,124.65 -34.05,78.67 -224.19,94.21 -306.74,118.45 -112.11,32.91 -226.42,59.34 -339.22,90.26 -657.97,180.4 -1354.97,347.27 -2013.28,522.01 -445.74,118.32 -901.61,228.3 -1350.65,342.61 -447.6,113.95 -902.04,238.19 -1350.49,344.78 -118.61,28.18 -513.47,-150.19 -645.86,-201.76 -202.6,-78.9 -412.14,-147.41 -615.43,-225.12 -406.58,-155.41 -832.91,-308 -1245.07,-450.15 -418.43,-144.3 -834.59,-301.65 -1253.47,-440.24 -114.6,-37.92 -1228.35,-416.98 -1235.86,-457.16 17.33,-84.52 171.78,-88.28 248.05,-106.28l845.82 -202.02c410.63,-91.45 3268.73,-781.49 3413.65,-772.63 64.75,-64.83 385.76,-75.39 492.53,-135.44l-1.3 -106.83c-78.55,10.77 -202.34,41.65 -277.14,66.78 -329.6,110.72 -89.47,169.68 -762.48,-60.03 -261.43,-89.23 -253.36,-43.6 -502.21,50.31 -163.37,61.64 -323.47,129.05 -484.75,188.73 -367.16,135.85 -767.64,172.93 -1160.3,202.6 -1059.51,80.07 -2259.87,220.03 -2827.07,1241.87 -178.43,321.45 -241.12,765.02 -153.94,1128.81 60.98,254.38 337.04,694.58 548.57,805.1 132.76,-269.11 210.83,-513.93 431.65,-721.98 246.09,-231.86 556.72,-255.63 839.06,-54.64 555.74,395.62 472.5,989.77 749.21,1552.04 270.69,550.07 869.34,778.66 1463.84,854.67 486.45,62.19 898.5,-149 1365.78,367.39 56.49,62.42 188.5,274.81 200.24,357.87 76.74,73.93 194.7,507.52 244.95,637.36l27.65 -14.28c-0.17,-126.5 214.44,-480 308.84,-567.84 69.01,-64.23 140.2,-163.81 220.36,-220.22 79.3,-55.81 181.57,-140.2 271.48,-179.61 166.27,-138.03 660.47,-273.36 882.27,-308.23 1074.61,-168.93 2039.07,200.82 3013.11,-583.19 54.65,-44 103.56,-104.32 153.67,-148.53 441.5,-389.45 588.75,-583.78 1191.35,-903.71 278.36,-147.79 606.79,-257.28 926.04,-267.26 267.61,-8.37 500.97,41.17 730.22,173.91 50.38,29.17 142.3,102.07 183.93,114.41 5.86,-442.3 129.97,-773.74 -8.48,-1378.92 -119.45,-522.14 -597.74,-932.97 -1040.15,-1178.33 -1184.78,-657.11 -2785.97,-551.23 -4142.99,-1011.18 -559.89,-189.77 -590.05,-264.88 -1029.23,-445.8 -119.52,-49.23 -170.21,-10.96 -293.1,20.75 -152.7,39.41 -813.7,201.46 -868.64,232.64 -3.65,42.14 5.25,88.53 9.13,132.11 6.87,77.21 8.53,59.72 48.67,78.89l-42.69 15.78z"/>
     <path class="fil2" d="M15045.88 4965.4c17.13,-22.58 -21.5,-25.56 36.55,-18.21 71.71,4.48 171.47,-39.85 247.48,-55.31 299.31,-39.14 1617.14,-450.99 1886.21,-451.62 105.33,253.48 543.92,1784.49 632.14,2079.35l636.15 2064.92c-60.55,42.19 -2208.59,665.91 -2270.52,660.22 -63.34,-60.19 -528.38,-1696.07 -591.31,-1918.11 -62.97,-222.19 -549.83,-1877.69 -545.51,-1954.26 -48.66,-63.71 -69.6,-195.48 -89.27,-280.87 -34.01,0 -26.91,7.53 -16.66,-25.92l-2.88 -77.66 77.62 -22.53zm-6890.04 1225.39l-42 19.58c-62.32,6.13 -205.09,32.04 -246.76,67.16 -34.17,67.34 163.29,1341.59 185.43,1535.86 79.15,15.68 1425.82,-382.05 1631.53,-435.38 506.4,-131.29 4847.75,-1244.41 4946.61,-1322.2 -38.93,-203.58 -391.65,-1248.52 -362.62,-1334.43 36.44,155.53 331.86,1050.12 405.54,1279.43 136.77,425.59 268.4,852.59 401.62,1279.82 194.01,622.2 410.75,1309.51 585.8,1937.12 56.76,203.51 151.21,467.56 188.19,667.2 110.48,0.86 1447.2,-386.58 1669.03,-447.57 351.73,-96.69 1365.55,-375.1 1656.04,-478.61l-816.13 -2549.32c-143.75,-419.01 -266.4,-855.12 -401.23,-1279.38 -57.07,-179.59 -363.77,-1215.19 -405.12,-1288.1 -102.36,-0.45 -1438.34,307.49 -1662.73,355.13 -195.73,41.55 -1612.94,330.12 -1668.88,370.79l-3.52 40.34c-145.66,8.16 -1258.2,336.1 -1513.77,400.55 -995.77,251.14 -2019.87,534.31 -3021.01,796.08 -125.68,32.86 -1429.69,376.89 -1526.02,385.93z"/>
     <path class="fil2" d="M8073.19 6198.35c28.92,-24.64 40.4,-23.06 82.57,-33.55 129.2,-13.86 426.75,-117.24 569.65,-157.56 190.9,-53.87 380.66,-105.21 570.45,-160.49 378.33,-110.22 762.56,-214.9 1143.02,-317.64 763.64,-206.21 1529.53,-430.76 2293.75,-628.18 385.22,-99.53 769.4,-209.8 1154.98,-306.29 784.74,-196.39 1597.94,-351.07 2372.61,-549.37 267.93,-68.58 933.07,-239.57 1173.23,-285 -52.1,-49.08 -659.97,-198.19 -728.07,-217.38l-1467.59 -407.36c-201.17,-54.5 -173.62,-48.75 -377.16,6.64 -1098.78,298.98 -2256.91,565.14 -3369.81,859.57 -1474.77,390.16 -3021.75,746.79 -4507.24,1116.15 -205.71,51.15 -1433.24,322.78 -1509.12,368.64l2259.88 770.85c112.62,37.24 225.18,-50.45 338.85,-59.03z"/>
     <path class="fil3" d="M6074.99 15045.68l14.65 -656.05c131.5,8.57 242.78,28.07 384.25,25.56 132.86,-2.36 283.61,-22.6 413.51,-14.83 214.94,12.86 405.15,127.3 559.99,259.63l-1372.4 385.69zm-3654.67 -2430.36c86.57,44.65 251.14,259.22 346.18,272.87 110.21,-353.18 319.89,-855.6 691.59,-973.66 225.46,-71.62 447.16,75.68 601.84,208.26 395.82,339.28 346.28,1231.91 804.36,1703.04 280.27,288.25 563.82,409.42 951.78,509.86 30.64,7.93 60.59,15.41 92.05,20.44 52.38,8.4 49.28,-2.32 79.48,31.61 21.28,33.61 18.31,515.8 20.98,604.58l-1819.29 -628.65c-298.26,-97.84 -594.92,-219.68 -891.88,-321.39 -147.65,-50.57 -294.57,-110.83 -441.68,-164.49 -131.03,-47.8 -325.01,-136 -452.5,-167.16l17.09 -1095.31zm12003.85 112.17c82.38,-66.85 225.08,-96.79 334.97,-98.71 -64.77,54.37 -241.64,94.22 -334.97,98.71zm523.24 -2497.72l4222.04 -1180.36 14.52 2340.17c-68.79,39.1 -1376.39,392.95 -1568.73,446.25 -345.22,95.65 -1309.82,385.32 -1578.12,438.7 0.41,-425.38 -8.43,-938.76 -264.46,-1294.95 -135.63,-188.7 -192.46,-275.13 -368.74,-417.15 -74.92,-60.37 -133.39,-111.31 -215.26,-170.2 -57.16,-41.12 -208.65,-120.63 -241.25,-162.46zm-6431.74 43.16c-15.8,35.19 -18.75,39 -54.16,54.8 -12.05,-69.44 -16.13,-32.65 10.25,-80.46l11.93 -192.23c119.96,21.52 58.17,149.87 31.98,217.89zm512.69 46.04c17.99,79.2 397.43,345.55 411.54,546.94l-69.07 38.6c-73.36,-42.6 -178.04,-283.59 -267.61,-340.95 20.27,220.77 116.61,206.26 173.88,334.09 -296.77,-49.6 -243.01,-459.18 -292.16,-559.26 -44.05,453.4 86.12,450.5 154.26,589.28 -243.55,7.12 -541.88,-17.09 -704.64,-213.36 -1.22,-64.64 13.63,-160.54 17.5,-232.31 7.42,-137.63 6.63,-88.54 82.22,-174.59 39.3,-44.74 79.88,-108.77 77.8,-171.92 -3.24,-98.19 -55.84,-109.21 -117.98,-145.4l11.72 -289.57c138.13,-100.13 347.04,-7.96 491.8,34.21 489.28,142.52 982.16,265.66 1468.2,419.78 315.67,100.1 645.93,193.4 965.06,287.95 299.59,88.77 668.83,189.26 947.25,293.95 -29.08,20.88 -2119.34,561.73 -2252.21,575.01 -65.43,-68.54 -76.43,-138.6 -241.69,-272.53 -112.29,-90.99 -234.49,-134.94 -380.33,-142.02 0.31,-146.45 -88.56,-251.69 -181.15,-344.15 -64.8,-64.72 -210.56,-191.25 -294.39,-233.75zm-299.9 -964.36c35.77,77.19 42.1,139.36 39.95,226.28l-258.99 47.57 21.23 -248.83 197.81 -25.02zm-200.81 -73.82l9.42 -15.08 42.69 -15.78c-40.14,-19.17 -41.8,-1.68 -48.67,-78.89 -3.88,-43.58 -12.78,-89.97 -9.13,-132.11 54.94,-31.18 715.94,-193.23 868.64,-232.64 122.89,-31.71 173.58,-69.98 293.1,-20.75 439.18,180.92 469.34,256.03 1029.23,445.8 1357.02,459.95 2958.21,354.07 4142.99,1011.18 442.41,245.36 920.7,656.19 1040.15,1178.33 138.45,605.18 14.34,936.62 8.48,1378.92 -41.63,-12.34 -133.55,-85.24 -183.93,-114.41 -229.25,-132.74 -462.61,-182.28 -730.22,-173.91 -319.25,9.98 -647.68,119.47 -926.04,267.26 -602.6,319.93 -749.85,514.26 -1191.35,903.71 -50.11,44.21 -99.02,104.53 -153.67,148.53 -974.04,784.01 -1938.5,414.26 -3013.11,583.19 -221.8,34.87 -716,170.2 -882.27,308.23l-72.83 56.06 48.37 -5.56c21.76,-2.06 349.93,-156.39 421.37,-181.28 1175.93,-409.61 2452.52,219.22 3546.31,-685.22 114.35,-94.55 209.3,-194.53 314.21,-291.54 100.62,-93.04 214.18,-188.69 322.74,-283.56 159.87,-139.71 520.89,-389.41 726.67,-472.27 82.67,-33.29 896.47,-254.32 955.94,-254.6 506.51,-2.29 796.91,325.89 854.86,348.43 83.86,-43.59 36.02,-54.57 56.92,-295.36 32.86,-378.49 27.13,-322.5 139.9,-353.52 517.45,-142.37 3079.26,-838.21 3101.53,-869.89 25.17,-35.8 41.91,-2416.16 26.29,-2469 -9.26,-31.31 -33.94,-51.48 -50.34,-105.35l-201.41 -667.09c-87.76,-299.46 -181.73,-598.58 -272.86,-897.74 -182.27,-598.38 -362.89,-1197.15 -550.47,-1792.93 -46.4,-147.37 -518.09,-1676.25 -564.92,-1776.13 -93.31,-5.89 -90.69,15.51 -192.29,-16.56l-1732.11 -500.25c-172.35,-49.8 -474.83,-112.59 -614.68,-203.39 -42.76,-12.73 -1093.42,265.26 -1236.15,297.59 -404.73,91.66 -819.25,205.98 -1223.16,307.43 -818.06,205.5 -1635.66,400.61 -2453.53,605.55 -815.2,204.27 -1632.21,416.44 -2446.93,612.3l-2281.72 585.21c-59.74,15.9 -107.69,12.04 -153.87,25.35 -45.32,55.33 -272.89,1046.39 -312.01,1204.33 -25.64,103.49 -49.52,206.6 -76.74,309.37 -36.81,139 -61.1,163.07 -15.92,304.04 60.71,189.39 125.35,379.05 190.08,568.91 234.03,686.52 106.32,592.24 440.86,702.05 93.2,30.59 187.82,63.57 281.17,91.49 140.58,42.03 1086.51,336.36 1131.81,375.67 -311.48,94.01 -607.09,251.41 -926.86,325.51 -905.29,209.77 -2195.67,44.91 -3091.82,656.87 -264.63,180.71 -464.71,341.51 -634.48,620.16 -185.02,303.64 -279.65,625.13 -277.59,985.08 3.27,572.28 310.43,838.47 324.57,937.33 16.75,117.14 9.3,982.29 19.64,1217.21 138.09,103.89 857.24,266.58 951.06,358.06 102.39,-3.51 2140.07,797.19 2577.93,954.59 96.71,34.76 166.39,91.66 258.35,50.26 85.43,-38.46 1290.37,-373.78 1361.86,-384.86 58.8,51.54 90.56,99.44 131.49,167.69 23.34,38.92 85.27,165.45 104.87,186.44 3.1,4.36 11.35,2.77 12.57,10 1.05,6.19 13.57,17.48 14.03,22.05l-5.99 -34.34c-11.74,-83.06 -143.75,-295.45 -200.24,-357.87 -467.28,-516.39 -879.33,-305.2 -1365.78,-367.39 -594.5,-76.01 -1193.15,-304.6 -1463.84,-854.67 -276.71,-562.27 -193.47,-1156.42 -749.21,-1552.04 -282.34,-200.99 -592.97,-177.22 -839.06,54.64 -220.82,208.05 -298.89,452.87 -431.65,721.98 -211.53,-110.52 -487.59,-550.72 -548.57,-805.1 -87.18,-363.79 -24.49,-807.36 153.94,-1128.81 567.2,-1021.84 1767.56,-1161.8 2827.07,-1241.87 392.66,-29.67 793.14,-66.75 1160.3,-202.6 161.28,-59.68 321.38,-127.09 484.75,-188.73 248.85,-93.91 240.78,-139.54 502.21,-50.31 673.01,229.71 432.88,170.75 762.48,60.03 74.8,-25.13 198.59,-56.01 277.14,-66.78l1.3 106.83c9.1,69.62 23.46,136.87 4.75,204.31l-8.74 75.73 -63.02 24.87c-134.93,-172.81 -233.98,-92.32 -306.12,69.69l-2195.74 547.81c-217.74,56.5 -521.32,151.54 -733.86,184.37l-30.3 20.61 27.48 2.55 2915.34 -654.79 56.29 -85.1c73.57,-223.97 273.27,-116.41 273.32,37.24 0.33,-0.1 34.01,-9.67 35.23,-9.78 61.41,-5.81 4.78,-3.3 34.3,6.5 27.18,-9.86 19.03,-11.18 10.72,16.92 -10.63,111.15 29.1,281.45 12.75,376.54 -7.8,45.38 -45.08,86.69 -59.92,136.65 -13.27,44.66 -20.61,122.19 -38.06,147.25 -71.31,-178.49 -128.7,-432.55 -376.3,-434.09 -110.5,-0.69 -235,43.84 -162.29,174.05 60.21,107.8 152.44,158.83 195.21,226.85 -102.12,-23.93 -206.67,-69.97 -315.46,-23.89 -82.62,34.99 -163.66,132.88 -158.36,227.13 12.1,214.72 457.05,123.13 593.37,110.13l58.52 -25.7 -86.6 -2.58c-130.47,2.32 -422.47,61.19 -506.56,-56.34 -24.49,-188.53 163.18,-244.22 318.29,-210.37 156.35,34.13 249.3,120.26 384.14,172.72 -38.71,-58.64 -483.59,-381.22 -450.3,-490.5 93.49,-123.5 276.58,-23.64 350.05,76.53 65.1,88.74 145.48,270.64 150.59,379.22 4.44,3.6 17.8,-1.88 23.42,16.71l22.88 -39.05c-6.87,-82.43 17.29,-214.74 67.1,-275.62l18.98 300.74 20.81 153.53 6.55 98.72c10.52,40.57 15.1,26.63 -31.69,26.63l-14.89 -39.17 4.63 22.48c27.41,117.63 221.66,228.07 335.36,267.69 460.19,160.37 723.23,-75.54 1072.71,85.39 110.48,50.86 288.2,181.95 323.64,286.21 -159.81,55.71 -1147.36,296.92 -1411.92,367.12 -460.39,122.19 -346.75,135.71 -692.61,11.01 -219.84,-79.27 -440.66,-158.41 -661.38,-233.72l-2591.36 -896.09c-68.15,-15.98 -29.55,-5.2 -44.96,7.6 90.11,6.18 790.77,292.48 942.6,348.71 312.64,115.79 628.42,234.33 938.62,356.77l1412.4 531.14c265.17,97.62 216.67,115.02 495.1,41.43 198.65,-52.5 3970.76,-1035.99 4056.77,-1108.83 -43.13,-58.64 -807.85,-257.36 -930.68,-292.63 -172.82,-49.63 -2784.28,-822.21 -2810.5,-875.26l-31.83 -249.27 1154.43 358.94c378.68,126.36 775.76,237.39 1157.38,356.71 382.97,119.76 766.25,236.32 1149.39,354.09 376.2,115.62 795.88,222.97 1161.13,354.39l-4460.4 1205.32c-181.41,48.93 -467.64,145.91 -640.29,174.14 -87.42,14.3 -1043.98,-348.16 -1205.58,-406.09 -225.04,-80.68 -3465.94,-1264.8 -3543.29,-1314.61 100.59,-55.19 894.5,-218.42 1073.18,-262.11l3222.36 -803.52c17.19,-23.09 -21.07,-28.47 43.02,-15.26l-52.33 -3.33c-144.92,-8.86 -3003.02,681.18 -3413.65,772.63l-845.82 202.02c-76.27,18 -230.72,21.76 -248.05,106.28 7.51,40.18 1121.26,419.24 1235.86,457.16 418.88,138.59 835.04,295.94 1253.47,440.24 412.16,142.15 838.49,294.74 1245.07,450.15 203.29,77.71 412.83,146.22 615.43,225.12 132.39,51.57 527.25,229.94 645.86,201.76 448.45,-106.59 902.89,-230.83 1350.49,-344.78 449.04,-114.31 904.91,-224.29 1350.65,-342.61 658.31,-174.74 1355.31,-341.61 2013.28,-522.01 112.8,-30.92 227.11,-57.35 339.22,-90.26 82.55,-24.24 272.69,-39.78 306.74,-118.45 -19.4,-89.22 -190.76,-100.55 -269.22,-124.65 -1140.95,-350.53 -2320.33,-669.59 -3468.55,-1009.2l-1190.95 -339.16c-69.71,-20.41 -52.64,-27.27 -91.51,9.44l-5.91 -0.3 -123.47 26.4 -0.28 -48.7zm52.89 -7.1l57.08 10.82c24.37,-10.15 75.11,-7.07 -3.8,-25.89 -70.63,-16.84 -38.44,0.16 -53.28,15.07zm-3899.99 1282.88l-5.16 6.51 -6.76 -1.86 11.92 -4.65zm10939.35 -668.88l61.42 30.5 -39.15 16.23c-180.64,6.34 -781.24,247.21 -869.42,213.68 -82.38,-31.33 -176.81,-78.05 -259.12,-114.2 -337,-147.97 -796,-262.08 -1163.62,-324.1 -410.64,-69.28 -2225.98,-329.17 -2486.52,-488.95 64.69,-37.39 1047.06,-276.67 1205.25,-312.79 95.48,-21.8 474.27,107.42 591.17,140.83l1785.57 502.37c313.1,88.4 907.24,276.88 1174.42,336.43zm-3161.77 -1884.47c423.03,-108.45 843.02,-222.82 1265.17,-334.71 249.92,-66.23 1073.81,-287.64 1281.17,-307.94 46.38,67.91 338.22,1098.05 389.18,1269.43l295.18 945.53c27.35,90.88 81.93,224.38 98.26,311.71 -100.6,-6.43 -355.82,-91.59 -465.33,-124.29 -895.77,-267.5 -1801.96,-567.52 -2705.7,-807.45 -119.59,-31.75 -365.18,-75.61 -456.78,-130.9l298.85 -821.38zm-2742.08 726.6c24.88,-15.85 2570.74,-694.19 2691.69,-701.98l-317.3 805.96c-81.89,50.36 -1083.83,264.7 -1271.11,314.03 -151.58,39.93 -173.1,12.75 -310.42,-43.19 -123,-50.09 -725.22,-323.46 -792.86,-374.82zm-1820.25 440.51l-44.02 16.92c1.42,-50.4 -10.09,-22.22 15.81,-55.82l189.55 -1213.19c51.57,-44.48 1461.75,-399.72 1651.2,-447.5 1061.88,-267.82 2201.13,-631.53 3275.7,-913.24l1243.71 -328.31c102.57,-27.07 327.64,-96.8 420.15,-102.71 36.07,72.6 326.18,1088.29 319.62,1117.76 -74.02,36.37 -354.31,85.25 -457.15,108.9 -474.8,109.18 -895.88,248.01 -1343.13,352.92 -584.28,137.05 -1177.4,331.57 -1760.66,484.98l-3510.78 979.29zm-2528.74 -808.83c-72.71,-172.21 -261.67,-782.62 -338.32,-1024.77 -62.96,-198.93 -72.38,-140.46 -23.62,-350.43l346.41 -1389.6c13.21,-43.19 11.07,-26.85 19.77,-40.16 131.93,21.57 2345.89,756.55 2377.98,780.16l188.36 1414.06c28.92,232.32 -37.4,471.19 -73.26,702.22 -34.89,224.76 -78.32,455.28 -108.13,683.58l-2389.19 -775.06zm2746.78 -2151.13c-16.93,-15.86 20.54,-17.32 -40.65,-12.02 -113.67,8.58 -226.23,96.27 -338.85,59.03l-2259.88 -770.85c75.88,-45.86 1303.41,-317.49 1509.12,-368.64 1485.49,-369.36 3032.47,-725.99 4507.24,-1116.15 1112.9,-294.43 2271.03,-560.59 3369.81,-859.57 203.54,-55.39 175.99,-61.14 377.16,-6.64l1467.59 407.36c68.1,19.19 675.97,168.3 728.07,217.38 -240.16,45.43 -905.3,216.42 -1173.23,285 -774.67,198.3 -1587.87,352.98 -2372.61,549.37 -385.58,96.49 -769.76,206.76 -1154.98,306.29 -764.22,197.42 -1530.11,421.97 -2293.75,628.18 -380.46,102.74 -764.69,207.42 -1143.02,317.64 -189.79,55.28 -379.55,106.62 -570.45,160.49 -142.9,40.32 -440.45,143.7 -569.65,157.56l-42.94 28.71 43.02 -2.72c96.33,-9.04 1400.34,-353.07 1526.02,-385.93 1001.14,-261.77 2025.24,-544.94 3021.01,-796.08 255.57,-64.45 1368.11,-392.39 1513.77,-400.55l3.52 -40.34c55.94,-40.67 1473.15,-329.24 1668.88,-370.79 224.39,-47.64 1560.37,-355.58 1662.73,-355.13 41.35,72.91 348.05,1108.51 405.12,1288.1 134.83,424.26 257.48,860.37 401.23,1279.38l816.13 2549.32c-290.49,103.51 -1304.31,381.92 -1656.04,478.61 -221.83,60.99 -1558.55,448.43 -1669.03,447.57 -36.98,-199.64 -131.43,-463.69 -188.19,-667.2 -175.05,-627.61 -391.79,-1314.92 -585.8,-1937.12 -133.22,-427.23 -264.85,-854.23 -401.62,-1279.82 -73.68,-229.31 -369.1,-1123.9 -405.54,-1279.43 -29.03,85.91 323.69,1130.85 362.62,1334.43 -98.86,77.79 -4440.21,1190.91 -4946.61,1322.2 -205.71,53.33 -1552.38,451.06 -1631.53,435.38 -22.14,-194.27 -219.6,-1468.52 -185.43,-1535.86 41.67,-35.12 184.44,-61.03 246.76,-67.16z"/>
     <path class="fil4" d="M16475.19 6457.15c11.98,237.47 -31.01,307.89 112.06,524.1 61.97,93.63 226.29,254.81 316.88,312.09 -32.42,-262.8 220.55,-505.51 330.75,-540.68 52.68,82.81 60.73,284.54 62.88,392.32 3.53,177.16 -5.39,226.7 -100.99,358.93 187.08,137.96 269.04,521.49 199.24,737.34 -34.49,-295.96 -21.85,-539.07 -311.5,-723.62 -327.15,-208.43 -828.88,-610.06 -609.32,-1060.48zm159.96 -15.73c-93.21,-3.91 -241.21,-33.99 -303.62,-101.16 -128.43,-29.54 -487.73,-274.27 -485.59,-421.94 1.77,-122.52 189.73,-175.4 291.56,-139.79 155.33,54.34 148.12,139.35 232.07,227.6 -6.49,-115.28 -75.64,-326.49 44.64,-399.23 133.31,-37.32 255.09,100.68 278.32,221.98 23.68,123.58 -33.33,315.65 -88.33,422.73 129.9,-65.53 122.48,-170.32 335.37,-154.98 0.05,0.07 155.14,147.32 26.58,268.04 -81.9,76.91 -225.44,71.73 -331,76.75zm-1263.07 -1535.28c-38.25,34.97 -84.94,32.72 -139.37,42.47 -60.39,10.82 -119.68,46.46 -150.28,-1.42 -58.05,-7.35 -19.42,-4.37 -36.55,18.21l43.83 14.31 -101.09 15.48c-0.11,3.54 -0.97,38.97 -1.27,40.46 -7.24,36.91 5.53,1.86 -16.21,29.94 -10.25,33.45 -17.35,25.92 16.66,25.92 22.25,-37.36 -3.84,-37.15 18.91,-5.35l94.36 302.26c107.85,300.11 194.14,617.64 298.77,921.26 252.74,733.44 486.38,1576.52 728.33,2328.91 44.74,139.13 114.59,342.91 140.2,481.72l2149.96 -572.9c-3.33,-79.28 -254.29,-860.92 -297.16,-1005.13 -195.99,-659.21 -434.69,-1337.94 -649.02,-1996.7 -103.87,-319.24 -236.48,-684.12 -315.66,-1006.12 -123.81,9.37 -314.49,68.89 -444.88,95.54 -148.13,30.28 -294.86,64.9 -442.68,96.08 -150.71,31.78 -795.87,182.69 -896.85,175.06z"/>
     <path class="fil2" d="M7867.59 9131.43l-5.59 41.27 33.8 -2.37 3510.78 -979.29c583.26,-153.41 1176.38,-347.93 1760.66,-484.98 447.25,-104.91 868.33,-243.74 1343.13,-352.92 102.84,-23.65 383.13,-72.53 457.15,-108.9 6.56,-29.47 -283.55,-1045.16 -319.62,-1117.76 -92.51,5.91 -317.58,75.64 -420.15,102.71l-1243.71 328.31c-1074.57,281.71 -2213.82,645.42 -3275.7,913.24 -189.45,47.78 -1599.63,403.02 -1651.2,447.5l-189.55 1213.19z"/>
     <path class="fil2" d="M14947.41 10229.77c32.6,41.83 184.09,121.34 241.25,162.46 81.87,58.89 140.34,109.83 215.26,170.2 176.28,142.02 233.11,228.45 368.74,417.15 256.03,356.19 264.87,869.57 264.46,1294.95 268.3,-53.38 1232.9,-343.05 1578.12,-438.7 192.34,-53.3 1499.94,-407.15 1568.73,-446.25l-14.52 -2340.17 -4222.04 1180.36z"/>
     <path class="fil2" d="M5367.06 8361.5l2389.19 775.06c29.81,-228.3 73.24,-458.82 108.13,-683.58 35.86,-231.03 102.18,-469.9 73.26,-702.22l-188.36 -1414.06c-32.09,-23.61 -2246.05,-758.59 -2377.98,-780.16 -8.7,13.31 -6.56,-3.03 -19.77,40.16l-346.41 1389.6c-48.76,209.97 -39.34,151.5 23.62,350.43 76.65,242.15 265.61,852.56 338.32,1024.77z"/>
     <path class="fil2" d="M12458.13 8003.22l-298.85 821.38c91.6,55.29 337.19,99.15 456.78,130.9 903.74,239.93 1809.93,539.95 2705.7,807.45 109.51,32.7 364.73,117.86 465.33,124.29 -16.33,-87.33 -70.91,-220.83 -98.26,-311.71l-295.18 -945.53c-50.96,-171.38 -342.8,-1201.52 -389.18,-1269.43 -207.36,20.3 -1031.25,241.71 -1281.17,307.94 -422.15,111.89 -842.14,226.26 -1265.17,334.71z"/>
     <path class="fil1" d="M7931.31 9669.42l-2915.34 654.79c-38.25,32.62 -382.55,101.14 -391.09,101.24 -47.09,0.56 -16.72,22.49 -41.26,-17.18l41.55 -12.99 -41.55 12.99 -38.78 11.25 -69.47 45.08c63.48,24.47 163.86,43.59 205.18,91.97l-11.92 4.65c0,33.8 -7.1,24.63 28.88,17.76 15.41,-12.8 -23.19,-23.58 44.96,-7.6l2591.36 896.09c220.72,75.31 441.54,154.45 661.38,233.72 345.86,124.7 232.22,111.18 692.61,-11.01 264.56,-70.2 1252.11,-311.41 1411.92,-367.12 -35.44,-104.26 -213.16,-235.35 -323.64,-286.21 -349.48,-160.93 -612.52,74.98 -1072.71,-85.39 -113.7,-39.62 -307.95,-150.06 -335.36,-267.69 -39.29,-32.47 -62.45,-85.41 -74.16,-135.18 24.37,21.29 38.62,39.5 57.39,65.95 41.72,58.81 15.83,37.1 58.72,59.29l-6.55 -98.72 -14.08 -107.56c-51.81,1.44 -101.78,41.87 -155.97,58.98l-3.54 3.93 -197.73 45.36c-136.32,13 -581.27,104.59 -593.37,-110.13 -5.3,-94.25 75.74,-192.14 158.36,-227.13 108.79,-46.08 213.34,-0.04 315.46,23.89 -42.77,-68.02 -135,-119.05 -195.21,-226.85 -72.71,-130.21 51.79,-174.74 162.29,-174.05 247.6,1.54 304.99,255.6 376.3,434.09 17.45,-25.06 24.79,-102.59 38.06,-147.25 14.84,-49.96 52.12,-91.27 59.92,-136.65 16.35,-95.09 -23.38,-265.39 -12.75,-376.54 -20.7,0 -15.57,4.46 -10.72,-16.92l-45.24 12.65c-44.97,66.94 -41.68,148.47 -146.18,156.11 -89.26,6.53 -122.28,-59.02 -166.62,-116.66l-41.1 -0.96z"/>
     <path class="fil2" d="M2403.23 13710.63c127.49,31.16 321.47,119.36 452.5,167.16 147.11,53.66 294.03,113.92 441.68,164.49 296.96,101.71 593.62,223.55 891.88,321.39l1819.29 628.65c-2.67,-88.78 0.3,-570.97 -20.98,-604.58 -30.2,-33.93 -27.1,-23.21 -79.48,-31.61 -31.46,-5.03 -61.41,-12.51 -92.05,-20.44 -387.96,-100.44 -671.51,-221.61 -951.78,-509.86 -458.08,-471.13 -408.54,-1363.76 -804.36,-1703.04 -154.68,-132.58 -376.38,-279.88 -601.84,-208.26 -371.7,118.06 -581.38,620.48 -691.59,973.66 -95.04,-13.65 -259.61,-228.22 -346.18,-272.87l-17.09 1095.31z"/>
     <path class="fil2" d="M7881.32 9333.04l-43.02 15.26 -3222.36 803.52c-178.68,43.69 -972.59,206.92 -1073.18,262.11 77.35,49.81 3318.25,1233.93 3543.29,1314.61 161.6,57.93 1118.16,420.39 1205.58,406.09 172.65,-28.23 458.88,-125.21 640.29,-174.14l4460.4 -1205.32c-365.25,-131.42 -784.93,-238.77 -1161.13,-354.39 -383.14,-117.77 -766.42,-234.33 -1149.39,-354.09 -381.62,-119.32 -778.7,-230.35 -1157.38,-356.71l-1154.43 -358.94 31.83 249.27c26.22,53.05 2637.68,825.63 2810.5,875.26 122.83,35.27 887.55,233.99 930.68,292.63 -86.01,72.84 -3858.12,1056.33 -4056.77,1108.83 -278.43,73.59 -229.93,56.19 -495.1,-41.43l-1412.4 -531.14c-310.2,-122.44 -625.98,-240.98 -938.62,-356.77 -151.83,-56.23 -852.49,-342.53 -942.6,-348.71 -35.98,6.87 -28.88,16.04 -28.88,-17.76l6.76 1.86 -261.08 -108.69 130.53 -34.87 38.78 -11.25 41.55 -12.99 393.62 -94.23c212.54,-32.83 516.12,-127.87 733.86,-184.37l2195.74 -547.81c72.14,-162.01 171.19,-242.5 306.12,-69.69l63.02 -24.87 8.74 -75.73c-25.45,-30.4 -15.3,-121.68 -16.63,-168.11 -113.85,22.51 -325.4,109.59 -428.32,102.57z"/>
     <path class="fil1" d="M8984.94 10338.39l15.45 -35.05 27.97 15.63c83.83,42.5 229.59,169.03 294.39,233.75 92.59,92.46 181.46,197.7 181.15,344.15 145.84,7.08 268.04,51.03 380.33,142.02 165.26,133.93 176.26,203.99 241.69,272.53 132.87,-13.28 2223.13,-554.13 2252.21,-575.01 -278.42,-104.69 -647.66,-205.18 -947.25,-293.95 -319.13,-94.55 -649.39,-187.85 -965.06,-287.95 -486.04,-154.12 -978.92,-277.26 -1468.2,-419.78 -144.76,-42.17 -353.67,-134.34 -491.8,-34.21l-11.72 289.57c62.14,36.19 114.74,47.21 117.98,145.4 2.08,63.15 -38.5,127.18 -77.8,171.92 -75.59,86.05 -74.8,36.96 -82.22,174.59 -3.87,71.77 -18.72,167.67 -17.5,232.31 162.76,196.27 461.09,220.48 704.64,213.36 -68.14,-138.78 -198.31,-135.88 -154.26,-589.28z"/>
     <path class="fil2" d="M15642.17 9934.42l9.53 -27.85 -31.8 -18.88c-267.18,-59.55 -861.32,-248.03 -1174.42,-336.43l-1785.57 -502.37c-116.9,-33.41 -495.69,-162.63 -591.17,-140.83 -158.19,36.12 -1140.56,275.4 -1205.25,312.79 260.54,159.78 2075.88,419.67 2486.52,488.95 367.62,62.02 826.62,176.13 1163.62,324.1 82.31,36.15 176.74,82.87 259.12,114.2 88.18,33.53 688.78,-207.34 869.42,-213.68z"/>
     <path class="fil2" d="M9716.05 8729.82c67.64,51.36 669.86,324.73 792.86,374.82 137.32,55.94 158.84,83.12 310.42,43.19 187.28,-49.33 1189.22,-263.67 1271.11,-314.03l317.3 -805.96c-120.95,7.79 -2666.81,686.13 -2691.69,701.98z"/>
     <path class="fil3" d="M15329.91 4891.88l42.17 14.26c100.98,7.63 746.14,-143.28 896.85,-175.06 147.82,-31.18 294.55,-65.8 442.68,-96.08 130.39,-26.65 321.07,-86.17 444.88,-95.54 79.18,322 211.79,686.88 315.66,1006.12 214.33,658.76 453.03,1337.49 649.02,1996.7 42.87,144.21 293.83,925.85 297.16,1005.13l-2149.96 572.9c-25.61,-138.81 -95.46,-342.59 -140.2,-481.72 -241.95,-752.39 -475.59,-1595.47 -728.33,-2328.91 -104.63,-303.62 -190.92,-621.15 -298.77,-921.26 -22.93,-26.14 -25.04,34.92 -17.64,-33.38l-6.36 17.34c-4.32,76.57 482.54,1732.07 545.51,1954.26 62.93,222.04 527.97,1857.92 591.31,1918.11 61.93,5.69 2209.97,-618.03 2270.52,-660.22l-636.15 -2064.92c-88.22,-294.86 -526.81,-1825.87 -632.14,-2079.35 -269.07,0.63 -1586.9,412.48 -1886.21,451.62z"/>
     <path class="fil2" d="M7447.39 14659.99c-154.84,-132.33 -345.05,-246.77 -559.99,-259.63 -129.9,-7.77 -280.65,12.47 -413.51,14.83 -141.47,2.51 -252.75,-16.99 -384.25,-25.56l-14.65 656.05 1372.4 -385.69z"/>
     <path class="fil5" d="M8004.03 10547.54c43.08,-24.32 185.07,-61.47 225.81,-17.08l3.54 -3.93 -22.98 -26.7c56.99,-16.88 37.81,-4.76 39.84,-81.03 -5.11,-108.58 -85.49,-290.48 -150.59,-379.22 -73.47,-100.17 -256.56,-200.03 -350.05,-76.53 -33.29,109.28 411.59,431.86 450.3,490.5 -134.84,-52.46 -227.79,-138.59 -384.14,-172.72 -155.11,-33.85 -342.78,21.84 -318.29,210.37 84.09,117.53 376.09,58.66 506.56,56.34z"/>
     <path class="fil3" d="M17042 7378.45c-115.94,-93.45 -91.86,-225.83 -27.93,-346.09 45.73,-86.04 142.08,-242.8 228.02,-265.53 0.7,183.53 29.85,510.08 -62.37,664.61 -184.15,21.81 -32.27,-127.97 -16.66,-447.81 -107.24,67.65 -106.04,282.27 -121.06,394.82zm-566.81 -921.3c-219.56,450.42 282.17,852.05 609.32,1060.48 289.65,184.55 277.01,427.66 311.5,723.62 69.8,-215.85 -12.16,-599.38 -199.24,-737.34 95.6,-132.23 104.52,-181.77 100.99,-358.93 -2.15,-107.78 -10.2,-309.51 -62.88,-392.32 -110.2,35.17 -363.17,277.88 -330.75,540.68 -90.59,-57.28 -254.91,-218.46 -316.88,-312.09 -143.07,-216.21 -100.08,-286.63 -112.06,-524.1z"/>
     <path class="fil3" d="M16331.53 6340.26l27.43 13.4 14.57 -12.1 -42.77 -20.88c-123.86,-74.37 -462.22,-279.65 -423.05,-436.44 91.57,-97.41 228.47,-75.88 319.44,10.34 76.62,72.61 132.13,167.74 168.53,269.65l44.78 50.49 -5 -49.85c-2.45,-124.8 -90.02,-401.94 -4.41,-499.98 144.23,-42.74 225.39,155.74 217.94,281.31 -11.94,201.26 -95.9,322.65 -111.17,385.31l2.3 26.21 96.39 -82.36c84.72,-69.4 167.88,-139.07 284.21,-120.27 37.63,56.29 40.94,64.38 36.8,133.72 -52.61,81.87 -167.43,116.16 -260.86,107.11 -20.15,33.2 -100.34,26.86 -140.09,30.62 34.03,-18.59 50.18,-4.48 78.58,14.88 105.56,-5.02 249.1,0.16 331,-76.75 128.56,-120.72 -26.53,-267.97 -26.58,-268.04 -212.89,-15.34 -205.47,89.45 -335.37,154.98 55,-107.08 112.01,-299.15 88.33,-422.73 -23.23,-121.3 -145.01,-259.3 -278.32,-221.98 -120.28,72.74 -51.13,283.95 -44.64,399.23 -83.95,-88.25 -76.74,-173.26 -232.07,-227.6 -101.83,-35.61 -289.79,17.27 -291.56,139.79 -2.14,147.67 357.16,392.4 485.59,421.94z"/>
     <path class="fil5" d="M16330.76 6320.68l122.71 53.89c16.77,-15.62 6.45,4.74 9.24,-34.81l-67.03 -175.53c-36.4,-101.91 -91.91,-197.04 -168.53,-269.65 -90.97,-86.22 -227.87,-107.75 -319.44,-10.34 -39.17,156.79 299.19,362.07 423.05,436.44z"/>
     <path class="fil5" d="M16435.46 6164.87c31.27,41.14 40.18,115.86 37.51,170.56l31.21 30.43 33.64 -34.35c15.27,-62.66 99.23,-184.05 111.17,-385.31 7.45,-125.57 -73.71,-324.05 -217.94,-281.31 -85.61,98.04 1.96,375.18 4.41,499.98z"/>
     <path class="fil6" d="M17042 7378.45c15.02,-112.55 13.82,-327.17 121.06,-394.82 -15.61,319.84 -167.49,469.62 16.66,447.81 92.22,-154.53 63.07,-481.08 62.37,-664.61 -85.94,22.73 -182.29,179.49 -228.02,265.53 -63.93,120.26 -88.01,252.64 27.93,346.09z"/>
     <path class="fil6" d="M8984.94 10338.39c49.15,100.08 -4.61,509.66 292.16,559.26 -57.27,-127.83 -153.61,-113.32 -173.88,-334.09 89.57,57.36 194.25,298.35 267.61,340.95l69.07 -38.6c-14.11,-201.39 -393.55,-467.74 -411.54,-546.94l-27.97 -15.63 -15.45 35.05z"/>
     <path class="fil5" d="M16636.51 6275.36l-106.65 124.9 166.8 -4.34c93.43,9.05 208.25,-25.24 260.86,-107.11 4.14,-69.34 0.83,-77.43 -36.8,-133.72 -116.33,-18.8 -199.49,50.87 -284.21,120.27z"/>
     <path class="fil7" d="M7987.6 9584.32c4.43,91.02 21.34,158.41 126.85,157.8 95.1,-0.55 111.82,-51.18 146.47,-120.56 -0.05,-153.65 -199.75,-261.21 -273.32,-37.24z"/>
     <path class="fil7" d="M8530.65 9379.63l-21.23 248.83 258.99 -47.57c2.15,-86.92 -4.18,-149.09 -39.95,-226.28l-197.81 25.02z"/>
     <path class="fil8" d="M8823.96 14722.37c-89.91,39.41 -192.18,123.8 -271.48,179.61 -80.16,56.41 -151.35,155.99 -220.36,220.22 -94.4,87.84 -309.01,441.34 -308.84,567.84l7.19 -0.64c29.85,-42.29 95.14,-209.68 135.33,-278.9 101.83,-175.39 241.77,-335.45 398.66,-456.03 49.68,-38.19 209.91,-148.8 235.04,-181.6l-48.37 5.56 72.83 -56.06zm-827.52 1018.52l-5.81 3.63 23.8 -36.54c0.82,67.35 9.5,15.43 -17.99,32.91z"/>
     <path class="fil9" d="M7730.07 15069.25c25.57,79.59 224.34,629.49 266.37,671.64 27.49,-17.48 18.81,34.44 17.99,-32.91l-23.8 36.54c17.97,29.9 -19.43,29.82 19.19,23.33l20.65 -78.45 -7.19 0.64 -27.65 14.28c-50.25,-129.84 -168.21,-563.43 -244.95,-637.36l5.99 34.34c-0.46,-4.57 -12.98,-15.86 -14.03,-22.05 -1.22,-7.23 -9.47,-5.64 -12.57,-10z"/>
     <path class="fil5" d="M8296.54 10396.46l-7.04 72.87c60,-14.71 47.27,-17.18 93.12,-47.75l-18.98 -300.74c-49.81,60.88 -73.97,193.19 -67.1,275.62z"/>
     <path class="fil9" d="M7828.99 9329.71l52.33 3.33c-64.09,-13.21 -25.83,-7.83 -43.02,15.26l43.02 -15.26c102.92,7.02 314.47,-80.06 428.32,-102.57 1.33,46.43 -8.82,137.71 16.63,168.11 18.71,-67.44 4.35,-134.69 -4.75,-204.31 -106.77,60.05 -427.78,70.61 -492.53,135.44z"/>
     <path class="fil7" d="M4625.17 10395.28l-41.55 12.99c24.54,39.67 -5.83,17.74 41.26,17.18 8.54,-0.1 352.84,-68.62 391.09,-101.24l-27.48 -2.55 30.3 -20.61 -393.62 94.23zm-80.33 24.24l-130.53 34.87 261.08 108.69 5.16 -6.51c-41.32,-48.38 -141.7,-67.5 -205.18,-91.97l69.47 -45.08z"/>
     <path class="fil9" d="M15082.43 4947.19c30.6,47.88 89.89,12.24 150.28,1.42 54.43,-9.75 101.12,-7.5 139.37,-42.47l-42.17 -14.26c-76.01,15.46 -175.77,59.79 -247.48,55.31zm-36.55 18.21l-77.62 22.53 2.88 77.66c21.74,-28.08 8.97,6.97 16.21,-29.94 0.3,-1.49 1.16,-36.92 1.27,-40.46l101.09 -15.48 -43.83 -14.31zm31.19 406.98l6.36 -17.34c-7.4,68.3 -5.29,7.24 17.64,33.38l-94.36 -302.26c-22.75,-31.8 3.34,-32.01 -18.91,5.35 19.67,85.39 40.61,217.16 89.27,280.87z"/>
     <path class="fil8" d="M7931.31 9669.42l41.1 0.96c44.34,57.64 77.36,123.19 166.62,116.66 104.5,-7.64 101.21,-89.17 146.18,-156.11l45.24 -12.65c-4.85,21.38 -9.98,16.92 10.72,16.92 8.31,-28.1 16.46,-26.78 -10.72,-16.92 -29.52,-9.8 27.11,-12.31 -34.3,-6.5 -1.22,0.11 -34.9,9.68 -35.23,9.78 -34.65,69.38 -51.37,120.01 -146.47,120.56 -105.51,0.61 -122.42,-66.78 -126.85,-157.8l-56.29 85.1z"/>
     <path class="fil10" d="M16331.53 6340.26c62.41,67.17 210.41,97.25 303.62,101.16 -28.4,-19.36 -44.55,-33.47 -78.58,-14.88 39.75,-3.76 119.94,2.58 140.09,-30.62l-166.8 4.34 106.65 -124.9 -96.39 82.36 -2.3 -26.21 -33.64 34.35 -31.21 -30.43 -10.26 4.33c-2.79,39.55 7.53,19.19 -9.24,34.81l-122.71 -53.89 42.77 20.88 -14.57 12.1 -27.43 -13.4z"/>
     <path class="fil5" d="M8471.76 10247.27l1.29 58.45 42.62 -32.79c26.19,-68.02 87.98,-196.37 -31.98,-217.89l-11.93 192.23z"/>
     <path class="fil10" d="M8250.24 10418.8c-2.03,76.27 17.15,64.15 -39.84,81.03l22.98 26.7c54.19,-17.11 104.16,-57.54 155.97,-58.98l14.08 107.56 -20.81 -153.53c-45.85,30.57 -33.12,33.04 -93.12,47.75l7.04 -72.87 -22.88 39.05c-5.62,-18.59 -18.98,-13.11 -23.42,-16.71zm-246.21 128.74l86.6 2.58 -58.52 25.7 197.73 -45.36c-40.74,-44.39 -182.73,-7.24 -225.81,17.08z"/>
     <path class="fil11" d="M14424.17 12727.49c93.33,-4.49 270.2,-44.34 334.97,-98.71 -109.89,1.92 -252.59,31.86 -334.97,98.71z"/>
     <path class="fil12" d="M16462.71 6339.76l10.26 -4.33c2.67,-54.7 -6.24,-129.42 -37.51,-170.56l5 49.85 -44.78 -50.49 67.03 175.53z"/>
     <path class="fil9" d="M8368.03 10683.77l-4.63 -22.48 14.89 39.17c46.79,0 42.21,13.94 31.69,-26.63 -42.89,-22.19 -17,-0.48 -58.72,-59.29 -18.77,-26.45 -33.02,-44.66 -57.39,-65.95 11.71,49.77 34.87,102.71 74.16,135.18z"/>
     <path class="fil2" d="M8527.65 9280.79l0.28 48.7 123.47 -26.4 5.91 0.3c-27.93,7.33 -19.69,11.56 -19.69,-18.88l-57.08 -10.82 -43.47 -7.98 -9.42 15.08z"/>
     <path class="fil12" d="M8515.67 10272.93l-42.62 32.79 -1.29 -58.45c-26.38,47.81 -22.3,11.02 -10.25,80.46 35.41,-15.8 38.36,-19.61 54.16,-54.8z"/>
     <path class="fil7" d="M8073.19 6198.35c61.19,-5.3 23.72,-3.84 40.65,12.02l42 -19.58 -43.02 2.72 42.94 -28.71c-42.17,10.49 -53.65,8.91 -82.57,33.55z"/>
     <path class="fil7" d="M7895.8 9170.33l-33.8 2.37 5.59 -41.27c-25.9,33.6 -14.39,5.42 -15.81,55.82l44.02 -16.92z"/>
     <polygon class="fil7" points="15642.17,9934.42 15681.32,9918.19 15619.9,9887.69 15651.7,9906.57 "/>
    </g>
    <g>
     <path class="fil13" d="M11210.29 13290.27c30.05,11.15 28.19,17.78 13.98,-11.79 27.91,10.45 25.42,17.28 15.93,-11.07 25.47,8.94 21.96,17.06 22.04,-5.59 10.11,21 22.59,-8.99 -13.27,38.76 -1.51,2.03 -4.41,4.98 -6.09,7.05l-35.42 44.06c-27.55,38.36 -42.92,70.03 -54.12,116.85 -25.65,107.23 21.82,830 25.49,971.13 5.7,219.2 16.31,433.48 24.67,652.82l55.94 1306.77c8.13,205 8.57,457.46 32.72,653.6 23.65,192.13 11.9,448.24 21.38,653.45l22.25 488.77c1.04,37.62 6.02,50.38 10.63,83.57 9.69,69.85 0.08,60.52 -16.32,78.33 4.64,-19.2 8.7,-14.69 -10.69,-14.69 -3.62,21.48 -9.37,18.67 10.69,14.69 15.22,22.23 -9.24,4.82 21.84,17.8 37.18,15.51 76.59,2.41 111.75,-11.37l597.51 -340.35c365.52,-223.95 820.87,-460.27 1190.49,-694.44l956.44 -543.6c157.15,-107.22 313.09,-180.13 470.05,-275.33l2615.29 -1515.82c430.85,-247.81 385.39,-163.87 396.24,-737.79 9.5,-502.37 -1.32,-1012.54 -1.5,-1516l-6.14 -2247.87c-1.75,-108.6 25.58,-270.24 -75.93,-289.95 -85.46,-16.6 -395.49,151.31 -517.06,209.6l-1779.05 874.29c-163.48,86.11 -336.9,146.17 -510.26,236.25 -315.81,164.1 -705,336.66 -1002.4,498.61 -49.79,27.11 -80.44,28.03 -131.39,52.8 -44.1,21.44 -70.98,46.49 -123.95,69.72 -93.58,41.01 -180.2,84.45 -261.57,120.05 -69.76,30.52 -161.11,83.62 -243.49,121.15 -317.06,144.46 -706.37,358.33 -1019.8,495.85 -119.07,52.23 -736.98,357.14 -754.93,381.24l-22.04 5.59c-22.86,-5.66 -19.19,-11.26 -15.93,11.07 -19.92,-3.26 -15.85,-7.82 -13.98,11.79 -19.95,-1.7 -15,-5.85 -12.46,14.71l-7.76 19.25 -7.79 14.99 7.79 -14.99c33.16,9.85 22.98,10.77 7.76,-19.25 32.58,10.92 28.32,15.73 12.46,-14.71z"/>
     <g>
      <path class="fil14" d="M15841.53 16047.94c-5.91,-3.04 -12.66,-6.45 -21.49,-11.53l-3.66 -2.11 -104.98 -98.56 50.63 -21.96c24.44,-10.59 49.98,-25.04 73.46,-37.72 44.6,-24.09 88.88,-48.82 133.08,-73.63 121.1,-67.99 241.62,-137.11 362.02,-206.35 187.03,-107.58 373.25,-217.03 560.69,-323.82 188.1,-107.17 375.96,-214.58 561.69,-325.85 178.55,-106.97 411.24,-189.34 422.17,-433.17l1.04 -23.07 21.34 -8.83c5.42,-2.24 10.94,-4.59 16.18,-7.24 0.84,-0.43 1.67,-0.88 2.5,-1.33 14.81,-8.11 33.76,-6.5 45.95,7.69 3.44,3.99 5.83,8.52 7.23,13.26l6.83 4.72 0.01 19.01c0.02,36.65 -4.47,71.52 -14.1,106.86 -6.9,25.32 -16.34,49.42 -24.04,74.4 -3.19,10.35 -5.81,20.43 -7.66,30.62 95.18,11.65 175.49,41.47 261.5,89.99 56.7,31.99 110.85,68.22 167.73,99.98 136.82,76.37 272.72,154.3 407.59,234.07 670.17,396.33 1352.48,771.62 2023.35,1166.75 133.17,78.43 270.35,150.21 401.75,231.62 131.43,81.43 268.02,154.08 400.55,233.64 134.25,80.6 272,155.12 408.66,231.49 71.64,40.04 214.03,116.84 212.87,213.6 -0.8,66.19 -67.62,127.55 -111.74,170.52 -25.08,24.44 -50.11,40.72 -81.25,56.18 -23.62,11.73 -45.97,21.87 -67.9,36.91 -51.42,35.25 -93.61,72.61 -154.82,91.6 -156.21,48.46 -279.97,173.13 -424.29,247.98l-1335.14 767.16c-18.35,12.69 -31.39,19.91 -51.5,30.03 -2.95,1.48 -6.04,2.72 -8.11,3.76l-68.28 36.97 -0.84 0.41c-97.49,46.45 -180.47,118.19 -278.26,165.7 -10.47,5.08 -21.36,10.37 -32.67,13.47 -5.36,3.32 -11.08,7.62 -16.09,11.09 -57.91,40.06 -111.96,70.67 -176.13,99.07 -46.37,20.52 -90.17,40.06 -134.97,65.05l-248.64 135.33 -0.89 0.42c-13.36,6.36 -28.71,18.39 -41.21,26.72l-0.89 0.59 -197.68 115.64c-42.22,31.19 -88.62,59.67 -133.47,86.85 -59.15,35.85 -119.15,70.43 -179.34,104.51 -96.7,54.77 -194.16,108.1 -291.71,161.34 -79.43,43.34 -153.14,91.53 -229.15,140.2 -91.94,58.87 -180.4,108.04 -280.98,151.31 -34.11,14.67 -70.73,36.66 -102.63,55.77 -31.93,19.12 -65.82,39.78 -95.66,62 -38.19,28.44 -80.06,54.79 -120.31,80.25 -56.13,35.5 -112.89,70.12 -169.82,104.32 -97.77,58.75 -198.48,119.64 -298.82,172.81l-415.45 227.07c-63.69,33.43 -124.4,69.84 -184.27,109.63 -37.11,24.65 -75.76,53.1 -115.09,73.72 -17.64,9.24 -36.27,15.03 -53.43,24.14l-450.2 267.66 -0.45 0.26c-88.26,49.09 -194.09,101.34 -297.68,75.97 -65.76,-16.1 -136.68,-63.43 -199.01,-92.77 -73.4,-34.55 -133.42,-86.58 -205.16,-121.86 -36.47,-17.93 -69.58,-36.46 -103.72,-58.46 -61.3,-39.53 -121.73,-80.33 -183.38,-119.35 -63.72,-40.32 -133.72,-83.57 -203.11,-113.09 -113.52,-48.27 -213.76,-108.03 -317.41,-174.17 -33.04,-21.08 -70.61,-31.36 -104.46,-52.44 -96.09,-59.83 -191.87,-124.36 -296.79,-167.9 -110.2,-45.73 -210.48,-113.99 -309.7,-179.42l-711.5 -398.68c-36.05,-20.2 -66.89,-45.25 -103.92,-64.33l-1.27 -0.68 -500.05 -283.33c-18.23,-9.18 -32.56,-19.24 -49.44,-30.21l-551.17 -322.44c-150.76,-75.64 -323.3,-109.35 -378.16,-294.77 -4.87,-16.45 -10.41,-48.27 -18.3,-62.41 -1.52,-2.73 -3.1,-5.72 -4.72,-8.67 -10.29,-5.17 -19.32,-13.5 -27.71,-21.67 -99.64,-96.92 -60.25,-317.98 -64.21,-445.36 -6.23,-200.99 -22.98,-400.66 -24.01,-602.01 -2.1,-409.98 -50.88,-818.39 -51.52,-1228.61 -0.64,-410.1 -54.85,-818.92 -46.8,-1229.26 1.96,-100.23 10.51,-213.8 -3.68,-312.61 -21.08,-146.78 -28.41,-303.09 -35.43,-451.3 -7.1,-149.88 -11.82,-299.91 -15.54,-449.9 -2.63,-106.39 12.38,-217.72 2.23,-322.91 -10.61,-109.74 -30.88,-186.82 28.14,-289.66 96.4,-167.96 197.2,-209.8 363.43,-293.14l431.03 -208.58c137.5,-78.38 283.66,-139.48 422.03,-215.76l0.77 -0.42 2142.6 -1049.1 1.06 -0.44c84.68,-34.99 170.11,-77.42 252.76,-117.13 131.38,-63.13 262.26,-127.4 392.9,-192.06 126.7,-62.71 253.19,-125.86 379.36,-189.63 83.74,-42.32 168.09,-84.63 250.81,-128.94 71.63,-38.36 148.37,-67.41 219.12,-107 69.15,-38.68 138.91,-74.59 210.19,-107.81l1273.48 -619.37c143.57,-69.84 285.88,-142.19 429.97,-211 20.19,-9.64 39.95,-20.02 60.41,-29.11 68.72,-30.54 139.55,-42.27 198.86,15 64.57,62.34 60.78,218.99 15.91,291.64l-74.02 119.84 6.92 -140.68c1.92,-39.07 7,-163.4 -35.46,-187.39 -36.21,-20.45 -125.35,19.78 -158.52,34.83 -49.11,22.26 -97.3,47.42 -145.17,72.23 -60.34,31.27 -120.59,62.61 -181.6,92.57l-3409.41 1674.21c-648.85,318.62 -1295.03,642.72 -1946.96,955.04 -160.97,77.12 -321.57,155.13 -480.46,236.47 -130.1,66.6 -367.52,146.88 -459.23,253.99 -32.78,38.3 -56.14,80.84 -70.98,129 -20.48,66.44 -23.26,138.05 -21.56,207.09 2.03,82.63 10.12,165.23 13.43,247.88l140.15 3501.15c9.1,227.25 18.26,454.49 26.99,681.75 2.83,73.55 4.97,147.12 7.71,220.67 1.94,52.28 3.95,105.16 8.95,157.24 2.35,24.5 10.67,110.92 36.1,124.73 19.37,10.5 68.59,-10.94 86.02,-18.82 73.59,-33.28 149.13,-80.91 219.13,-122.79l697.18 -400.13c305.63,-179.35 610.34,-360.78 920.52,-530.51l919.16 -530.43c49.61,-31.33 102.6,-46.16 156.27,-14.98 10.09,5.87 19.38,12.8 28.46,20.1 17.5,14.06 35.83,33.9 59.73,31.42l1500.26 -868.27c18.99,-10.61 37.93,-21.09 56.43,-32.51 4.03,-2.49 8.08,-5.05 11.94,-7.52zm1380.75 -469.9c57.95,47.76 217.65,130.89 259.42,152.58 67.91,35.26 78.61,26.88 141.31,-12.23l611.42 -357.71 0.56 -0.3c19.05,-10.27 101.45,-49.93 122.29,-70.43 -39.84,-41.24 -223.34,-136.46 -269.71,-159.8 -19.87,-9.99 -40.84,-17.14 -63.36,-15.57 -30.3,2.11 -62.58,20.28 -88.12,35.55 -49.63,29.64 -97.36,62.39 -147.26,91.99 -97.45,57.8 -198.28,111.8 -296.64,168.37 -64.66,37.19 -129.5,74.98 -192.43,115.04 -15.42,9.81 -52.43,33.06 -77.48,52.51zm990.87 13.64c29.51,35.24 102.46,63.54 136.61,82.76 34.89,19.65 144.53,91.18 179.56,92.86 45.72,2.17 243.78,-123.55 333.12,-174.94 -27.77,-40.33 -97.58,-63.21 -135.43,-85.23 -42.66,-24.83 -86.12,-52.24 -129.96,-74.66 -17.25,-8.82 -40.46,-20.02 -60.37,-19.4 -18.27,0.58 -38.75,11.02 -54.48,19.51 -37.31,20.15 -73.98,44 -110.51,65.75 -28.48,16.95 -124.32,62.27 -158.54,93.35zm1166.85 285.15c-36.79,-25.88 -96.22,-59.69 -117.21,-71.86 -49.2,-28.54 -99.07,-55.75 -148.42,-83.97 -65.82,-37.63 -65.08,-26.42 -127.31,12.51 -50.98,31.9 -104.54,61.7 -156.8,91.49 -77.28,44.06 -154.71,87.85 -231.91,132.07 -86.74,49.67 -173.64,99.7 -258.82,152.01 -18.08,11.1 -71.53,43.21 -104.91,67.52 36.52,25.63 96.65,60.01 116.54,71.54 49.77,28.84 100.1,56.55 150.52,84.25 17.77,9.76 36.52,16.58 57.06,15.51 30.92,-1.6 65.36,-21.69 91.26,-37.32 51.55,-31.12 100.65,-64.23 153.48,-93.73 102.37,-57.16 204.58,-114.49 305.99,-173.38 66.06,-38.37 132.17,-77.29 196.72,-118.14 14.9,-9.43 48.54,-30.15 73.81,-48.5zm-1679.51 20.19c70.49,51.54 279.74,169.86 317.18,171.91 39,-1.57 242.13,-117.17 309.53,-170.42 -63.92,-50.88 -269.16,-161.6 -313.18,-173 -47.1,2.9 -254.75,115.63 -313.53,171.51zm-1046.18 8.94c52.32,29.68 104.27,59.72 157.24,88.44 29.23,15.87 145.95,79.59 174.31,82.23 38.47,0.22 131.88,-64.27 167,-84.83 39.54,-23.14 107.6,-47.02 141.24,-84.69 -63.6,-50.18 -283.19,-170.22 -321.91,-175.56 -44.93,-0.2 -134.54,65.05 -174.46,88.21 -30.87,17.91 -61.43,35.75 -92.92,52.58 -9.49,5.06 -39.3,18.08 -48.26,24.51 -0.78,2.17 -1.54,5.43 -2.24,9.11zm3253.79 267.99c-73.24,-38.93 -142.59,-80.49 -214.03,-123.53 -29.53,-17.79 -75.61,-47.09 -110.81,-49.39 -36.84,-2.42 -82.76,23.4 -113.59,40.9 -88.25,50.08 -175.03,108.1 -261.82,161.22 -44.51,27.24 -92.41,52.58 -138.02,78.12 -79.32,44.41 -158.56,88.94 -237.38,134.23 -78.69,45.22 -157.56,91.09 -234.35,139.48 -16,10.09 -63.95,40.01 -93.97,62.86 78.79,52.5 279.03,165.14 321.5,175.52 15.7,-5.32 41.75,-19.92 54.86,-26.79 41.27,-21.64 82.07,-44.49 122.65,-67.4 114.83,-64.81 228.73,-131.49 342.47,-198.21 101.77,-59.7 203.36,-119.69 305.1,-179.44 66.29,-38.93 132.95,-78.86 200.3,-115.87 10.67,-5.86 39.94,-20.72 57.09,-31.7zm-3768.46 32.02c72.57,48.06 150.83,100.26 227.28,137.95 35.08,17.29 78.24,35.8 118.3,29.46 45.24,-7.17 108.94,-52.33 147.84,-76.43 32.17,-19.93 65.56,-36.22 98.28,-54.86 15.01,-8.55 33.43,-19.61 45.97,-33.24 -65.13,-50.88 -287.03,-169.71 -326.34,-174.5 -41.17,0.77 -217.13,115.93 -265.03,141.9 -25.85,14.03 -37.89,15.07 -46.3,29.72zm1036.44 -9.38c36.62,34.57 117.75,70.58 154.94,91.27 37.6,20.92 75.12,43.9 113.3,63.5 15.94,8.18 36.85,18.39 55.16,18.7 18.95,0.34 40.38,-9.98 56.78,-18.45 40.65,-21 81,-47.04 120.3,-70.62 33.08,-19.84 97.77,-47.6 130.7,-80.97 -77.18,-51.47 -279.87,-166.92 -313.89,-171.13 -43.17,2.76 -258.96,124.16 -299.02,154.68 -6.15,4.69 -12.08,8.99 -18.27,13.02zm548.89 268.76c1.6,2.39 3.39,4.68 5.43,6.87 11.05,11.86 30.02,21.4 44.28,28.77 31.43,16.25 61.94,31.8 92.24,50.32 39.05,23.85 148.5,97.09 196.34,91.94 18.48,-1.99 38.43,-12.82 54.33,-21.87 34,-19.33 67.04,-40.84 100.94,-60.54 38.89,-22.59 104.01,-52.05 143.1,-85.39 -59.28,-51.88 -266.54,-162.5 -314.44,-177.92 -47.1,1.83 -254.82,127.68 -300.63,155.85 -6.63,4.08 -13.93,8.46 -21.59,11.97zm2707.46 18.33c-62.62,-54.68 -261.15,-162.89 -306.78,-177.76 -48.81,-4.49 -134.51,57.94 -176.43,79.9 -30.14,15.79 -57.83,35.65 -86.77,53.43 -12.47,7.66 -25.12,14.1 -38.32,20.37 -6.69,3.18 -14.5,6.59 -20.58,10.85 -1.98,1.38 -3.75,2.95 -5.36,4.66 32.76,30.96 108.1,64.03 139.41,81.59 32.91,18.45 145.75,90.66 176.75,93.87 42.72,4.43 240.27,-110.57 318.08,-166.91zm-3771.98 16.83c36.6,30.47 119.38,70.03 149.27,87.53 34.01,19.92 137.9,86.69 174.25,86.05 38.29,-2.21 220.97,-117.44 263.31,-142.85 12.3,-7.39 24.7,-13.93 37.55,-20.27 2.95,-1.46 9.37,-4.29 12.25,-6.41 0.43,-0.75 0.87,-1.74 1.33,-2.9 -50.99,-29.71 -102.7,-58.67 -154.43,-86.85 -36.91,-20.1 -74.2,-40.01 -112.02,-58.36 -13.4,-6.51 -48.69,-24.15 -61.64,-26.2 -42.14,-1.47 -129,62.19 -166.04,83.99 -35.71,21 -110.75,50.47 -143.83,86.27zm-1032.95 7.41c32.43,32.95 103.21,63.44 134.88,81.76 41.89,24.24 84.79,51.04 127.96,72.68 17.3,8.67 40.06,19.34 59.92,18.67 18.85,-0.64 40.16,-11.49 56.43,-20.18 38.79,-20.72 76.84,-44.84 115.05,-66.86 33.73,-19.44 102.38,-48.43 135.1,-82.84 -71.73,-51.89 -274.84,-169.31 -310.97,-174.32 -41.36,-2.06 -253.51,118.26 -318.37,171.09zm3406.11 415.08c48.28,40.78 179.09,105.65 215.41,126.31 24.88,14.14 91.45,54.84 121.43,51.18 13.76,-1.68 30.06,-11.16 41.79,-18.05 29.04,-17.04 57.16,-35.27 86.48,-52.02 85.56,-48.84 171.24,-97.28 255.52,-148.34 35.97,-21.81 163.76,-86.41 212.77,-127.57 -53.37,-41.63 -174.89,-101.33 -217.65,-125.58 -30.12,-17.09 -81.76,-48 -117.55,-47.3 -35.11,0.67 -83.52,32.01 -112.39,49.87 -89.88,55.6 -177.07,111.73 -269.11,164.3 -41.38,23.64 -81.7,49.07 -122.94,72.96 -19.47,11.28 -67.04,33.73 -93.76,54.24zm-1187.24 -143.77c-60.05,-51.67 -273.73,-166.76 -319.63,-179.94 -41.76,-1.78 -131.13,61.88 -165.99,83.17 -34.33,20.96 -114.34,54.86 -151.17,87.18 10.35,11.5 25.43,21.27 36.34,27.95 34.13,20.91 71.13,38.16 105.91,58.35 41.04,23.82 83.35,50.19 125.84,71.11 18.12,8.92 40.99,19.21 61.67,18.54 25.34,-0.83 56.88,-19.22 78.23,-31.58 57.89,-33.5 114.12,-69.34 172.5,-102.42 23.04,-13.06 40.93,-18.19 56.3,-32.36zm-1706.6 22.48c62.19,49.75 276.74,167.09 315.1,175.49 42.27,1.74 250.49,-114.6 315.9,-170.8 -67.46,-52.05 -274.8,-169.74 -312.71,-174.79 -45.54,-3.83 -135.7,62.37 -175.82,85.02 -35.43,20 -107.73,50.03 -142.47,85.08zm-1028.49 6.81c58.72,52.86 264.13,159.87 313.17,174.69 44.64,-5.18 254.28,-120.79 318.1,-171.48 -11.4,-12.58 -29.85,-22.28 -44.73,-29.96 -30.8,-15.91 -61.65,-30.57 -92.01,-47.56 -38.73,-21.68 -138.69,-92.75 -178.66,-95.93 -41.48,-3.31 -247.14,115.83 -315.87,170.24zm3509.93 109.82c-51.29,-28.73 -102.21,-57.94 -153.98,-85.96 -30,-16.24 -146.22,-80.12 -174.5,-83.62 -38.23,0.34 -131.46,64.05 -165.78,85.16 -30.94,19.05 -107.73,53.17 -141.15,85.84 36.97,33.19 106.96,64.7 144.06,85 35.15,19.23 139.15,87.96 175.33,87.9 40.42,-0.07 220.07,-114.16 267.46,-139.8 30.44,-16.47 41.69,-15.53 48.56,-34.52zm-1288.94 157.16c-72.78,-48.03 -288.65,-168.19 -322.33,-172.71 -47.08,-1.8 -137.32,64.4 -179.47,87.76 -32.5,17.99 -99.32,48.32 -133.65,81.24 78.66,55.38 277.28,174.72 315.87,177.19 38.56,-0.21 222.79,-114.23 265.36,-138.91 12.69,-7.36 42.28,-21.65 51.93,-31.79 0.82,-0.85 1.57,-1.79 2.29,-2.78zm-2740.39 38.61c71.36,49.34 281.85,166.12 317.47,169.47 41.44,1.73 235.71,-114.62 308.95,-170.44 -34.54,-30.44 -106.39,-62 -135.56,-78.27 -42.64,-23.77 -84.29,-49.67 -126.98,-73.04 -14.81,-8.11 -37.51,-20.52 -54.9,-20.73 -16.85,-0.21 -38.18,10.88 -52.61,18.56 -40.83,21.7 -81,47.02 -121.21,70.1 -30.14,17.3 -102.93,51.02 -135.16,84.35zm1033.91 -8.15c63.15,50.2 265.53,159.3 309.58,173.52 32.55,2 145.89,-60.03 173.69,-75.78 48.58,-27.53 101.2,-58.77 148.71,-91.26 -29.6,-31.49 -104,-65.12 -136.58,-83.79 -31.92,-18.3 -145.63,-89.84 -175.67,-93.37 -42.32,-4.98 -251.28,114.82 -319.73,170.68zm826.22 1328.78c0.99,1.78 2.09,3.4 3.3,4.81 7.29,8.5 24.96,16.97 34.79,21.96 32.17,16.35 63.47,32.22 94.73,50.46 37.56,21.93 74.64,45.85 112.65,66.78 19.41,10.68 42.38,22.38 64.74,24.65 34.5,3.49 75.65,-17.04 105.24,-32.46 80.65,-42.04 161.1,-94.28 239.16,-141.36 234.61,-141.49 472.99,-276.54 709.24,-415.24l1234.76 -724.93c30.81,-18.67 62.7,-36.52 94.85,-52.78 9.11,-4.61 43.98,-19.41 50.28,-25.55 1.57,-1.53 3.13,-4.52 4.54,-7.94 -1.4,-1.62 -2.84,-3.09 -4.28,-4.3 -10.68,-9.07 -39.33,-21.91 -52.25,-28.9 -62.12,-33.62 -121.95,-70.12 -183.49,-104.31 -22.12,-12.3 -55.51,-31.09 -81.56,-31.26 -30.86,-0.19 -75.15,27.29 -100.75,42.49 -83.45,49.57 -164.55,100.38 -248.95,147.53l-2077 1210.35zm1014.35 -1217.65c61.37,49.95 279.7,171.44 318.73,177.81 50.13,2.16 131.17,-60.55 173.7,-86.49 33.12,-20.21 105.04,-48.6 138.81,-81.32 -67.35,-52.39 -278.27,-167.77 -318.12,-175.26 -37.86,-2.05 -222.39,115.15 -265.84,138.74 -11.08,6.03 -37.68,18.04 -47.28,26.52zm-1291.13 159.3c72,51.77 280.06,171.19 316.51,174.32 42.35,2 136.14,-61.98 174.78,-84.67 31.26,-18.36 113.55,-54.37 146.58,-86.88 -11.23,-10.78 -27.33,-20.22 -37.71,-26.11 -36.03,-20.44 -73.85,-37.63 -109.96,-58.33 -199.78,-114.5 -153.53,-122.5 -354.15,-1.67 -31.91,19.22 -101.71,50.82 -136.05,83.34zm-2106.94 40.79c1.27,1.52 2.57,2.84 3.85,3.84 10.17,7.83 36.04,18.41 48.42,25.12 47.59,25.8 230.09,139.46 268.29,142.85 45.35,3.08 133.53,-60.87 172.38,-84.39 31.74,-19.21 106.16,-50.28 141.2,-82.64 -64.56,-50.83 -272.05,-171.33 -308.87,-178.11 -48.16,-4.12 -136.89,59.42 -177.51,84.07 -32.38,19.65 -65.6,35.61 -98.73,53.6 -16.15,8.76 -37.33,20.65 -49.03,35.66zm1036.45 -11.8c32.15,32.85 104.03,64.55 137.24,83.33 199.95,113.05 152.83,128.14 355.45,6.4 33.28,-19.99 103.72,-49.42 137.21,-83.31 -68.97,-50.28 -276.21,-168.63 -311.75,-173.76 -43.96,-4.37 -215.77,109.76 -261.61,135.23 -25.49,14.17 -41.84,16.57 -56.54,32.11zm1845 115.99c64.97,50.86 268.25,164 305.86,175.34 31.85,5.46 144.23,-55.62 173.22,-72.08 38.93,-22.1 77.28,-45.79 114.54,-70.61 9.39,-6.26 23.32,-15.15 35.92,-24.1 -59.06,-54.55 -264.19,-161.44 -313.69,-177.97 -43.44,-0.39 -134.85,61.02 -172.23,83.05 -32.99,19.44 -106.59,53.67 -143.62,86.37zm-1291.64 160.08c32.52,30.06 107.27,61.16 136.65,77.45 45.4,25.17 90.58,52.79 136.53,76.66 15.3,7.95 39.17,20.24 57,19.46 21.02,-0.91 53.5,-21.82 70.92,-32.48 59.81,-36.56 117.83,-72.58 179.56,-106.23 7.27,-3.97 50.59,-25.69 55.25,-30.92 0.04,-0.04 0.08,-0.09 0.12,-0.14 -56.93,-47.67 -275.27,-166.38 -319.44,-177.49 -45.74,1.42 -257.07,120.1 -316.59,173.69zm-2101 36.28c66.63,52.69 278.74,167.94 318.35,172.63 41.44,0.23 235.23,-113.6 306.54,-170.09 -72.84,-54.25 -273.55,-170.99 -310.2,-174.39 -41.54,0.47 -251.38,117.88 -314.69,171.85zm1659.43 1.01c-61.19,-51.56 -269.42,-162.61 -318.15,-179.44 -37.44,0.46 -134.5,65.84 -166.85,83.73 -36.27,20.05 -111.58,52.16 -145.71,86.17 28.6,33.85 100.67,61.72 133.3,80.69 41.99,24.4 84.62,51.29 127.73,73.43 17.72,9.1 40.83,20.24 61.24,19.99 38.7,-0.46 128.91,-59.91 162.44,-79.43 40.3,-23.47 107.43,-51 146,-85.14zm1217.4 107.57c65.2,53.07 268.46,165.38 307.82,172.41 51.8,5.1 134.25,-57.79 177.37,-83.59 31.8,-19.02 64.88,-34.57 97.09,-52.58 15.15,-8.47 33.48,-19.35 46.14,-32.92 -64.63,-49.28 -279.42,-166.57 -316.43,-173.99 -39.2,-0.38 -240.67,116.1 -311.99,170.67zm-1289.11 151.75c67.55,53.52 274.24,169.49 313.54,176.54 43.4,1.8 138.18,-63.88 176.49,-86.44 26.96,-15.87 107.44,-53.68 139.86,-84.67 -36.64,-31.42 -112.76,-64.26 -145.95,-83.75 -184.92,-108.59 -157.95,-123.08 -348.36,-4.94 -31.79,19.73 -100.51,51.47 -135.58,83.26zm-2106.52 39.88c63.5,50.99 269.4,164.75 307.97,173.35 32.88,4.17 145.33,-58.14 175.3,-75.26 52.11,-29.8 102.39,-61.73 152.63,-94.25 -0.55,-0.9 -1.12,-1.69 -1.71,-2.32 -6.42,-6.95 -35.41,-20.32 -44.33,-25.04 -66.12,-34.97 -128.46,-72.68 -192.81,-110.35 -21.8,-12.75 -56.99,-34.23 -82.9,-35.39 -41.01,-1.85 -135.87,59.42 -170.67,79.61 -35.65,20.69 -106.99,54.89 -143.48,89.65zm1661.31 -1.48c-72.2,-48.85 -284.09,-167.48 -317.55,-172.54 -39.76,-2.11 -114.46,45.54 -147.48,66.47 -39.85,25.25 -80.82,53.82 -122.99,74.73 -7.65,3.79 -40.5,16.62 -47.43,22.56 0.26,2.14 1.26,5.14 1.15,5.19 14.64,22.77 127.4,75.14 155.74,90.07 39.82,20.99 78.06,43.85 117.43,65.4 13.16,7.2 34.35,19.01 49.75,19.54 15.93,0.55 37.56,-10.91 51.11,-18.14 42.54,-22.76 84.47,-49.39 126.3,-73.7 34.14,-19.82 103.24,-44.62 133.97,-79.58zm1207.13 108.09c2.17,4.31 4.49,8.21 6.34,9.76 7.45,6.2 34.9,18.11 44.88,23.74 30.83,17.39 62.09,33.91 92.66,51.79 35.57,20.81 141.74,91.16 178.79,93.13 41.52,2.2 242.31,-113.98 313.54,-169.09 -61.76,-53.3 -265.32,-161.07 -313.05,-177.31 -42.08,-2.23 -131.42,60.69 -168.5,81.32l-133.15 74.04c-6.53,4.16 -13.74,8.57 -21.3,12.11 -0.07,0.17 -0.14,0.34 -0.21,0.51zm-1287.52 160.78c0.69,1.2 1.33,2.19 1.89,2.81 2.19,1.71 8.15,4.1 10.74,5.27 11.99,5.42 23.67,10.92 35.3,17.12 31.76,16.9 62.06,34.99 92.89,53.46 42.55,25.48 87.84,54.1 132.61,75.29 17.93,8.49 40.81,18.23 61.14,16.31 18.38,-1.73 38.78,-12.97 54.52,-21.95 35.57,-20.3 70.13,-42.8 105.65,-63.41 39.08,-22.69 104.6,-47.28 139.31,-83.47 -67.91,-49.33 -278.26,-167.25 -313.57,-174.96 -42.13,-4.43 -133.27,62.63 -170.62,83.99 -25.81,14.76 -119.62,60.49 -149.86,89.54zm-2096.83 34.47c59.39,50.38 271.64,165.22 310.99,173.64 42.94,1.13 250.33,-113.49 313.92,-170.07 -41.08,-34.78 -86.77,-52.14 -135.6,-80.39 -30.42,-17.61 -146.08,-89.37 -173.29,-92.14 -42.95,1.82 -257.08,116.26 -316.02,168.96zm1029.53 -5.29c64.81,49.33 276.75,167.18 313.03,174.27 40.59,-0.52 251.05,-117.69 314.87,-170.08 -33.39,-29.11 -105.98,-62.97 -132.83,-78.27 -42.02,-23.93 -83.46,-50.08 -125.83,-73.11 -16.17,-8.79 -38.95,-20.9 -57.84,-21.29 -17.87,-0.36 -38.67,9.56 -54.22,17.42 -39.4,19.93 -78.44,44.28 -116.81,66.35 -32.88,18.91 -67.39,35.31 -99.91,54.59 -13.01,7.72 -29.02,17.87 -40.46,30.12zm3282.46 582.05c-3.1,4.99 -6,11.27 -4.64,17 6.86,28.89 94,67.14 118.88,81.12l602.52 338.8c74.63,41.96 146.66,87.58 220.81,129.83 30.57,17.42 72.14,40.88 108.21,41.95 43.52,1.29 98.92,-31.33 135.28,-52.35 42.22,-24.4 83.77,-50.25 125.45,-75.59 61.23,-37.22 122.74,-73.87 184.88,-109.56 259.44,-148.98 518.96,-297.74 777.88,-447.63 173.87,-100.65 347.68,-201.56 520.5,-304.01 60.06,-35.61 120.14,-71.37 179.56,-108.05 18.51,-11.43 37.02,-22.95 55.21,-34.88 7.08,-4.65 17.55,-11.04 22.27,-15.03 2,-2.32 4.99,-6.17 4.8,-9.51 -1.69,-29.29 -94.98,-76.42 -117.99,-88.43l-0.96 -0.52 -603.56 -338.45c-74.91,-43.75 -150.4,-91.91 -226.99,-132.17 -34.84,-18.31 -78.14,-39.4 -118.48,-38.54 -46.92,1.01 -100.76,33.15 -139.82,56.63 -97.02,58.31 -191.25,121.52 -288.6,179.97 -96.68,58.04 -195.68,113.72 -293.5,169.87 -160.7,92.23 -321.49,184.31 -482.07,276.73 -174.2,100.26 -348.41,200.71 -521.43,302.99 -60.32,35.66 -120.68,71.52 -180.2,108.48 -18.64,11.57 -37.28,23.27 -55.52,35.45 -6.42,4.29 -16.32,10.51 -22.49,15.9zm-801.07 -457.57c-30.15,-36.61 -102.29,-64.61 -138.99,-84.72 -42.36,-23.21 -83.51,-48.55 -125.77,-71.64 -16.62,-9.08 -39.82,-21.61 -59.18,-22.51 -38.92,-1.8 -135.05,60.67 -168.11,79.99 -37.97,22.19 -109.52,55.41 -147.6,89.29 32,35.67 108.37,64.7 143.25,85.46 40.84,24.33 83.09,51.32 125.45,72.68 16.43,8.29 38.33,18.6 57.25,17.73 17.67,-0.81 38.04,-11.31 53.32,-19.46 36.81,-19.66 72.79,-41.98 109.34,-62.37 30.5,-17 60.42,-35.05 90.72,-52.4 15.08,-8.64 30.31,-16.93 45.87,-24.67 4.13,-2.06 9.94,-4.52 14.18,-6.98 0.09,-0.13 0.18,-0.26 0.27,-0.4zm-1930.7 144.64c70.69,48.2 287.11,171.05 321.98,174.77 39.72,0.54 218.92,-111.42 262.73,-135.86 28.16,-15.72 41.35,-15.33 52.79,-33.01 -61.63,-48.82 -283.24,-165.67 -328.38,-174.96 -39.46,5.55 -218.47,117.56 -263.66,141.73 -9.22,4.93 -35.97,16.92 -42.83,23.74 -0.92,0.91 -1.81,2.14 -2.63,3.59zm-1474.7 42.45c-71.58,-51.36 -282.37,-168.16 -318.02,-171.8 -36.76,1.46 -139,67.42 -173.69,87.75 -35.33,20.73 -105.59,47.12 -134.84,84.89 75.96,49.45 283.78,165.84 318.36,169.72 42.62,-2.71 246.98,-115.29 308.19,-170.56zm-108.23 295.24c29.65,26.14 85.56,50.88 112.56,65.88 46.04,25.58 91.23,53.5 137.48,78.39 18.29,9.85 43.4,23.06 64.67,23.63 21.45,0.58 46.6,-11.61 65.23,-21.04 47.68,-24.18 94.81,-53.11 140.96,-79.07l420.11 -246.3c25.59,-15.01 51.4,-28.95 78,-42.08 5.36,-2.64 19.18,-8.72 24.67,-12.68 0.68,-1.68 1.37,-3.95 2.06,-6.52 -83.17,-51.75 -174.23,-95.81 -258.68,-145.62 -99.63,-58.77 -191.26,32.72 -274.85,79.56 -94.49,52.96 -186.32,110.36 -280.66,163.58 -39.18,22.11 -182.72,97.66 -231.55,142.27zm2366.1 -186.8c75.42,54.1 274.81,169.82 311.82,172.88 39.13,0.46 237.02,-115.44 307.77,-170.41 -66.89,-52.89 -274.6,-165.76 -312.92,-173.69 -40.9,-1.36 -240.4,114.77 -306.67,171.22zm745.45 179.7c8.79,4.35 18.75,8.59 26.68,12.73 23.75,12.37 46.92,23.23 70.12,36.91 41.2,24.29 82.95,47.59 124.18,71.82 32.9,19.33 78.95,45.32 118.58,42.93 39.89,-2.41 89.94,-35.05 122.94,-55.71 87.11,-54.55 171.03,-108.1 261.48,-157.69 39.62,-21.73 156.18,-81.58 207.86,-124.03 -30.98,-23.54 -71.14,-45.08 -100.9,-61.28 -38.09,-20.73 -77.45,-40.78 -114.1,-63.92 -23.65,-14.92 -86.05,-56.7 -115.79,-53.1 -13.51,1.63 -29.73,11.18 -41.23,17.99 -28.28,16.75 -55.6,34.57 -84.28,50.87 -84.28,47.87 -168.89,94.82 -252.69,143.62 -53.27,31.02 -106.6,62.52 -158.56,95.67 -12.47,7.96 -43.9,27.57 -64.29,43.19zm-2596.45 299.93c30.43,28.55 83.3,49.64 114.29,68.9 39.97,24.84 80.51,52.02 121.84,74.34 21.74,11.74 47.16,23.87 72.25,25.15 38.2,1.95 81.59,-23.15 112.98,-42.27 50.02,-30.47 101.71,-59.22 152.67,-88.1 71.99,-40.8 144.04,-81.5 215.76,-122.77 47.29,-27.22 274.72,-157.18 348.7,-216.97 -8.71,-5.96 -17.43,-11.55 -23.68,-15.67 -31.07,-20.53 -62.9,-40.14 -94.81,-59.32 -47.49,-28.56 -100.83,-61.39 -150.81,-85 -53.24,-25.16 -95.91,4.63 -140.74,31.09 -124.35,73.36 -251.14,143.62 -376.13,216.08 -82.81,48.01 -165.68,96.39 -247.19,146.6 -29.16,17.96 -58.39,36.2 -86.74,55.41 -4.5,3.06 -11.46,7.64 -18.39,12.53zm515.35 290.98c13.68,10.61 30.44,21.92 39.05,27.83 36.77,25.27 75.05,49.06 113.71,71.32 28.42,16.35 143.23,79.48 176.99,78.18 16.69,-5.56 44.01,-21.25 59.17,-29.27 43.38,-22.94 86.34,-46.88 129.13,-70.91 121.72,-68.37 242.57,-138.55 362.94,-209.28 120.39,-70.75 240.53,-142.18 359.53,-215.24 41.83,-25.68 83.65,-51.55 124.82,-78.28 8.12,-5.27 20.21,-12.7 31.55,-20.31 -36.88,-32.65 -113.82,-67.09 -144.34,-84.3 -36.03,-20.32 -71.62,-42.56 -108.03,-61.98 -17.11,-9.12 -38.21,-19.69 -57.88,-21.12 -33.82,-2.45 -81.57,25.29 -109.78,41.26 -93.79,53.07 -185.63,111.52 -279.13,165.7l-562.56 325.98c-28.4,16.47 -102.28,49.49 -135.17,80.42zm1564.94 -296.18c0.23,0.4 0.46,0.8 0.7,1.22 6.55,8.46 45.77,29.78 55.16,34.94 65.02,35.72 128.26,74.39 193.06,110.09 20.28,11.17 54.05,30.21 78.06,29.41 18.52,-0.61 40.64,-12.37 56.53,-21 40.77,-22.15 80.6,-47.11 121.15,-69.94 31.57,-17.79 96.93,-46.52 128.49,-78.9 -68.61,-51.79 -280.4,-170.87 -318.47,-173.29 -42.81,-0.41 -216.97,113.72 -262.87,139.81 -13.32,7.57 -26.71,14.58 -40.37,21.46 -2.7,1.36 -9.16,4.29 -11.44,6.2zm112.95 310.51c-64.39,-55.25 -277.07,-171.29 -317.81,-175.03 -42.21,6.08 -243.34,115.37 -304.48,171.41 77.36,53.25 277.86,167.6 314.86,170.31 37.89,-1.31 237.62,-113.93 307.43,-166.69zm-1150.87 297.74c0.9,1.33 1.86,2.52 2.9,3.51 9.09,8.75 41.84,23.06 53.94,29.6 63.78,34.43 124.58,71.51 187.19,107.58 20.27,11.68 53.8,31.69 77.9,32.19 18.93,0.39 41.17,-10.27 57.64,-18.56 42.01,-21.14 83.53,-46.53 124.66,-69.57 35.17,-19.71 104.71,-48.76 135.01,-85.67 -74.41,-48.74 -286.95,-165.5 -320.55,-169.8 -38.9,0.01 -253.22,122 -318.69,170.72z"/>
     </g>
     <path class="fil15" d="M14033.77 19806.92c19.44,-25.7 302.19,-199.44 363.56,-196.69 48.72,2.19 339.91,170.93 366.05,195.49 -20.27,62.65 -103.49,93.81 -164.27,127.87 -250,140.08 -164.18,120.41 -482.35,-51.37 -52.9,-28.55 -68.44,-27.15 -82.99,-75.3zm521.45 -284.03c25.24,-65.26 311.93,-213.17 352.56,-214.63 46.65,-1.68 345.45,157.99 370.34,214.63 -31.54,40.2 -300.49,199.84 -357.59,199.54 -53.62,-0.28 -328.11,-165.05 -365.31,-199.54zm517.59 -313.66c20.73,-38.09 15.04,-24.76 76.14,-59.48 71.93,-40.88 224.46,-145.09 281.15,-144.55 55.33,0.54 337.8,166.67 365.82,204.03 -23.74,53.47 -105.35,86.17 -158.39,116.04 -242.21,136.42 -154.69,132.6 -484.07,-48.37 -86.36,-47.46 -61.31,-45.74 -80.65,-67.67zm-1570.5 300.59c21.08,-50.25 110.87,-84.91 164.8,-116.49l562.56 -325.98c440.92,-258.82 354.27,-257.5 590.83,-124.08 53.62,30.25 153.23,70.66 177.25,122.2 -36.68,43.8 -1063.18,647 -1111.72,652.87 -73.29,8.86 -360.08,-173.98 -383.72,-208.52zm-517.01 -300.59c28.43,-44.99 644.45,-389.06 759.49,-456.95 50.75,-29.94 104.89,-65.62 174.68,-32.64 56.95,26.9 275.14,155.67 307.13,189.01 -33.4,66.92 -607.42,374.78 -751.58,462.6 -139.03,84.68 -170.62,51.07 -345.1,-57.39 -49.56,-30.8 -116.79,-51.98 -144.62,-104.63zm2599.54 -300.58c25.63,-43.22 433.43,-268.36 504.01,-308.45 139.99,-79.53 128.42,-109.68 278.58,-14.89 73.64,46.49 195.57,98.71 247.68,153.44 -31.31,48.74 -179.95,123.99 -242.46,158.27 -356.76,195.61 -354.21,278.4 -538.81,169.93 -44.37,-26.06 -78.77,-45.04 -124.23,-71.84 -29.88,-17.61 -38.8,-20.53 -68.46,-35.99 -53.28,-27.76 -38.72,-12.11 -56.31,-50.47zm-751.08 -169.9c20.31,-45.47 296.29,-215.05 360.56,-211.68 34.02,1.78 336.18,159.82 362.35,211.68 -29.92,39.23 -297.86,207.18 -360.35,204.91 -55.01,-2.01 -328.46,-168.71 -362.56,-204.91zm-2360.89 182.96c26.31,-50.94 200.92,-140.62 260.54,-174.26 101.1,-57.03 179.26,-106.75 280.75,-163.62 92.99,-52.12 191.46,-149.7 311.01,-79.17 94.88,55.97 209.01,112.96 281.11,159.86 -16.16,70.21 -1.89,36 -127.25,109.58l-420.1 246.31c-256.58,144.34 -196.12,136.38 -444.31,-1.5 -53.41,-29.67 -117.51,-54.98 -141.75,-97.2zm204.75 -300.58c-23.63,59.16 -306.86,212.27 -357.79,211.78 -48.91,-0.47 -332.86,-168.06 -364.77,-194.26 19.04,-66.99 102.67,-92.65 162.79,-127.91 39.74,-23.3 142.69,-90.8 190.59,-92.71 47.25,-1.88 343.61,168.9 369.18,203.1zm1382.15 -24.31c12.41,-48.7 24.62,-47.61 71.2,-72.51 75.39,-40.33 235.91,-144.8 281.16,-146.16 34.25,-1.03 335.78,153.21 371.62,203.77 -19.72,52.7 -34.54,47.62 -78.76,72.3 -66.86,37.32 -227.91,141.16 -280.88,140.46 -50.77,-0.67 -337.25,-173.41 -364.34,-197.86zm1288.55 -171.73c34.22,-46.54 115.88,-81.96 174.63,-116.3 212.69,-124.29 170.64,-105.89 388.8,13.66 61.18,33.54 137.45,59.21 163.8,115.71 -25.25,42.81 -4.43,18.46 -84.53,64.35 -32.13,18.41 -61.29,36 -91.08,52.62 -198.24,110.56 -159.7,123.05 -381.59,-9.1 -57.12,-34.01 -145.62,-60.66 -170.03,-120.94zm4560.3 -43.2c-37.46,43.3 -1395.06,819.87 -1564.78,917.33 -545.34,313.18 -376.45,307.77 -810.48,65.88l-602.52 -338.79c-56.41,-32.34 -177,-75.73 -125.01,-152.36 30,-44.21 1373.46,-802.86 1565.09,-917.92 498.94,-299.55 376.48,-319.82 810.85,-66.11l603.01 338.14c46.73,24.39 180.23,88.65 123.84,153.83zm-6403.09 -61.35c20.43,-52.49 89.05,-76.39 168.67,-122.19 214.97,-123.65 168.9,-115.81 390.74,10.57 52.51,29.91 140.86,67.09 162.66,111.62 -22.18,42.92 -307.23,207.65 -364.34,204.47 -37.46,-2.08 -327.34,-161.52 -357.73,-204.47zm-1029.93 0c23.04,-55.49 316.45,-210.23 364.8,-205.88 37.23,3.35 149.87,74.01 189.46,96.92 69.88,40.43 114.63,52.59 166.89,108.96 -29.2,57.74 -307.11,213.67 -366.01,209.08 -33.63,-2.63 -332.4,-156.75 -355.14,-209.08zm2102.02 -39.21c18.27,-40.94 109.46,-80.42 173.44,-117.02 51.59,-29.51 134.82,-94.64 192.44,-88.59 37.81,3.98 333.1,169.27 358.12,205.61 -31.36,61.31 -110.09,85.82 -169.45,120.27 -190.87,110.79 -158.61,132.55 -390.77,-6.49 -35.03,-20.98 -54.45,-32.96 -91.29,-52.56 -53.29,-28.36 -53.48,-15.85 -72.49,-61.22zm1289.28 -156.83c25.6,-53.12 -7.8,-11.41 42.76,-43.74l134.1 -74.57c40.86,-23.11 135.96,-92.16 192.76,-85.44 16.89,1.99 327.41,152.54 356.2,216.82 -33.4,40.35 -298.16,205.17 -365.23,201.62 -48.35,-2.56 -155.68,-74.92 -195.19,-98.04 -32.95,-19.27 -59.05,-32.83 -92.16,-51.51 -49.32,-27.82 -53.2,-18.17 -73.24,-65.14zm-1120.09 -117.42c-21.86,63.64 -108.8,88.88 -162.95,120.33 -230.93,134.14 -163.97,121.34 -379.73,7.62 -39.93,-21.05 -159.28,-74.11 -171.95,-107.61 -18.91,-49.96 27.75,-57.18 63.29,-74.8 83.98,-41.66 210.85,-149.05 288.51,-144.93 46.43,2.46 340.15,174.56 362.83,199.39zm-1756.69 12.87c29.58,-50.52 114.22,-88.67 173.46,-123.04 236.54,-137.22 165.33,-101.83 481.54,65.44 50.6,26.77 60.12,26.08 72.61,74.44 -54.11,35.14 -301.45,199.95 -376.03,190.49 -35.82,-4.55 -321.53,-156.75 -351.58,-207.33zm2105.78 -39.21c27.45,-49.28 105.86,-79.83 165.38,-116.76 208.23,-129.22 193.55,-108.45 385.85,4.48 53.09,31.17 143.58,65.58 173.64,112.28 -19.04,47.08 -96.12,76.65 -167.52,118.68 -43.93,25.87 -139.47,93.78 -196.39,91.42 -38.24,-1.58 -324.1,-157.66 -360.96,-210.1zm1287 -156.82c29.16,-38.14 305.25,-208.9 365.43,-204.47 36.82,2.71 330.22,160.07 360.39,204.47 -22.8,55.66 -93.08,75.74 -170.98,122.35 -49.71,29.73 -133.06,95.09 -199.54,88.54 -41.62,-4.1 -330.53,-159.36 -355.3,-210.89zm-1840.72 -117.62c29.21,-50.12 111.08,-81.45 171.8,-115.02 42.31,-23.39 139.89,-92.3 190.2,-88.04 16.72,1.42 331.79,156.51 360.57,216.13 -36.51,52.14 -111.37,78.24 -175.97,115.86 -198.1,115.36 -167.64,114.02 -387.89,-13.98 -55.24,-32.11 -136.93,-57.63 -158.71,-114.95zm-1034.14 13.07c18.76,-46.59 309.06,-213.61 365.81,-209.7 56.87,3.93 337.01,174.79 361.33,209.7 -28.11,39.8 -291.58,207.66 -359.93,207.26 -44.68,-0.26 -336.39,-157.23 -367.21,-207.26zm2103.97 -39.21c25.65,-51.04 305.12,-212.12 365.99,-208.63 31.68,1.82 336.15,160.62 360,208.63 -19.94,39.22 -12.64,30.26 -81.88,68 -315.35,171.92 -208.02,192.65 -478.96,42.46 -52.5,-29.09 -142.24,-61.52 -165.15,-110.46zm1288.63 -156.83c28.24,-48.39 118.58,-86.74 174.3,-119.58 41.48,-24.45 139.92,-92.3 196.39,-87.84 15.69,1.24 332.45,150.39 357.22,220.49 -18.16,21.45 -300.26,209.58 -379.08,196.06 -25.95,-4.45 -317.03,-158.46 -348.83,-209.13zm-1840.45 -117.62c24.23,-43.12 36.87,-38.26 83.47,-64.15 73.07,-40.6 222.35,-145.63 282.82,-139.62 50.32,5.01 332.11,171.6 356.37,203.77 -25.3,56.99 -111.33,87.21 -166.74,120.5 -217.27,130.54 -181.14,113.29 -391.99,-5.93 -57.28,-32.38 -138.13,-64.43 -163.93,-114.57zm-1033.86 13.07c20.42,-54.91 85.21,-69.88 170.9,-121.88 46.67,-28.31 137.04,-94.52 199.42,-89.2 43.04,3.69 331.45,171.6 353.82,211.08 -26.35,52.96 -120.22,86.43 -170.45,116.85 -49.59,30.03 -134.53,93.57 -193.63,89.55 -45.97,-3.12 -217.56,-111.61 -283.12,-147.15 -49.03,-26.59 -55.25,-20.58 -76.94,-59.25zm2099.48 -36.64c24.97,-52.62 108.56,-85.12 166.75,-120.16 214.9,-129.44 179.46,-119.92 390.9,1.26 80.56,46.16 154.31,70.41 174.02,116.33 -23.93,50.1 -116.48,84.8 -172.59,117.75 -40.49,23.78 -138.7,92.28 -194.85,89.63 -56.5,-2.66 -342.36,-176.61 -364.23,-204.81zm1295.71 -159.4c14.8,-37.55 28.4,-38.83 74.81,-64.04 73.48,-39.92 231.53,-145.99 285.12,-143.09 36.54,1.98 325.63,154.79 363.89,207.13 -26.15,56.24 -111.21,82.21 -167.67,116.64 -55.76,34.01 -130.74,94.5 -194.15,91.76 -41.23,-1.79 -332.76,-161.67 -362,-208.4zm1089.22 -29.69c443.99,-248.05 287.08,-251.56 650.29,-55.01 55.33,29.94 56.95,26.03 79.55,58.56 -13.98,49.53 -24.01,44.72 -78.74,72.4 -29.99,15.17 -64.67,34.62 -92.42,51.43l-1235.19 725.19c-233.85,136.87 -473.28,272.94 -708.87,415.03 -382.99,230.98 -329.05,216.77 -558.82,82.65 -119.7,-69.88 -142.49,-57.01 -158.17,-125.11l2102.37 -1225.14zm-2934.79 -87.93c24.33,-40.45 303.56,-214.13 373.81,-205.87 38.41,4.52 147.24,73.72 189.46,97.92 82.03,47.01 147.25,69.37 166.55,125.82 -48.15,35.02 -306.29,202.11 -376.96,192.26 -22.26,-3.11 -328.42,-157.92 -352.86,-210.13zm-1032.09 16.73c19.97,-53.84 111.06,-92.52 165.12,-123.55 223.72,-128.4 163.11,-122.4 391.42,4.89 53.95,30.08 144.69,65.67 167.6,115 -36.72,38.97 -293.33,204.42 -360.16,201.64 -53.93,-2.24 -344.77,-172.9 -363.98,-197.98zm2102.59 -42.87c25.35,-53.11 111.52,-89.74 166.44,-120.17 54.22,-30.03 137.54,-94.59 198.44,-92.27 47.71,1.82 337.64,172.08 365.17,196.26 -12.95,47.04 -30.33,49.7 -80.26,78.64 -62.85,36.45 -234.26,144.57 -284.07,143.81 -57.09,-0.88 -326.79,-171.89 -365.72,-206.27zm1293.01 -156.82c24.02,-51.89 114.53,-85.93 168.48,-119.13 45.31,-27.88 134.46,-90.1 184.47,-90.54 44.57,-0.4 315.32,156.95 370.14,187.37 -9.88,61.55 -24.49,58.86 -72.63,84.9 -73.83,39.95 -230.75,144.09 -284.67,144.18 -49.04,0.08 -148.94,-68.35 -192.8,-92.36 -60.91,-33.33 -140.7,-67.2 -172.99,-114.42zm-2876.62 -117.62c27.72,-37.3 298.23,-207.91 367.18,-202.43 51.2,4.08 149.13,75.6 193.51,100.45 95.2,53.29 142.25,60.67 164.73,115.04 -32.28,45.09 -318.33,206.73 -367.9,201.93 -22.95,-2.22 -331.77,-149.18 -357.52,-214.99zm1029.97 0c28.63,-55.82 120.44,-90.63 171.6,-119.5 51.98,-29.34 136.39,-94.66 196.69,-89.58 50.26,4.22 336.36,169.2 359.55,209.08 -27.54,52.09 -308.39,214.7 -369.1,208.78 -35.17,-3.43 -334.82,-161.98 -358.74,-208.78zm1072.27 -39.21c31.06,-47.57 125.12,-82.31 176.77,-113.83 44.84,-27.39 134.37,-93.29 189.96,-88.22 25.3,2.31 332.11,156.56 361.34,215.12 -23.78,39.18 -37.06,37.47 -85.2,64.75 -291.45,165.15 -228.89,186.63 -474.34,44.16 -77.27,-44.85 -150.93,-71.25 -168.53,-121.98zm1820.16 156.83c19.85,-34.83 83.25,-61.21 123.94,-84.78 45.87,-26.59 80.32,-48.61 123.14,-73.07 385.42,-220.16 350.93,-271.32 534.94,-166.93 67.7,38.4 214.39,108.48 249.44,154.88 -26.06,49.69 -180.49,122.56 -243.67,160.84 -88.19,53.44 -167.49,98.1 -256.32,148.83 -145.92,83.31 -128.84,108.05 -285.62,18.91 -64.51,-36.68 -219.97,-109.84 -245.85,-158.68zm-3404.57 -418.21c23.91,-39.4 306.74,-210.18 369.02,-203.18 51.6,5.79 320.53,166.46 355.35,203.18 -24.46,57.72 -108.98,89.08 -165.19,121.47 -208.06,119.91 -169.25,126.63 -395.64,-4.34 -50.97,-29.48 -139.28,-63.44 -163.54,-117.13zm1034.07 0c26.4,-58.85 113.62,-87.13 171.14,-120.98 44.92,-26.43 129.73,-90.92 185.71,-88.97 43.47,1.52 324.49,164.08 369.11,190.4 -14.33,60.14 -15.92,42.63 -74.75,77.94 -60.4,36.24 -234.19,147.18 -281.22,148.01 -49.06,0.87 -152.24,-66.94 -193.34,-91 -60.91,-35.68 -151.06,-74.27 -176.65,-115.4zm3139.47 -26.14c21.04,-45.86 42.63,-40.83 89.25,-69.47 36.35,-22.32 55.59,-37.19 88.93,-54.66 49.26,-25.8 135.97,-91.95 199.95,-83.51 20.52,2.7 321.98,153.77 351.13,218.97 -39.54,38.21 -303.32,204.75 -372.87,197.53 -40.38,-4.18 -149.29,-75.07 -190.75,-98.32 -54.71,-30.68 -139.87,-64.11 -165.64,-110.54zm-2070.04 -13.07c27.05,-53.18 -8.95,-10.08 43.39,-42.26 64.62,-39.73 273.8,-167.23 325.09,-161.02 21.65,2.62 332.55,155.62 357.11,216.35 -36.74,47.32 -112.16,79.03 -173,114.39 -182.27,105.88 -158,131.03 -388.75,-9.94 -96.92,-59.2 -142.01,-61.26 -163.84,-117.52zm-550.09 -261.38c18.82,-47.81 -8,-13.36 38.28,-48.64 51.27,-39.07 278.17,-164.38 321.92,-162.07 50.65,2.69 330.25,170.22 362.76,198.87 -25.01,57.04 -103.27,85.46 -161.81,120.57 -213.71,128.21 -178.4,120.67 -381.85,7.47 -50.52,-28.11 -146.94,-68.89 -179.3,-116.2zm-1038.03 17.27c12.99,-52.2 25.75,-50.86 72.6,-76.26 82.11,-44.55 226.43,-145.26 281.65,-146.28 42.62,-0.8 340.4,157.35 372.99,205.27 -22.26,55.26 -91.6,75.16 -171.12,124.43 -185.78,115.11 -184.99,137.41 -556.12,-107.16zm2352.99 400.94c25.11,-58.34 669.23,-406.12 739.87,-449.36 490.67,-300.33 311.46,-247.9 766.61,-14.41 -13.74,37.84 16.26,22.87 -87.04,79.64 -162.52,89.32 -993.8,591.77 -1040.9,592.74 -44.54,0.91 -352.22,-180.54 -378.54,-208.61zm-1834.36 -696.35c9.9,-64.71 6.76,-49.48 73.04,-84.88 35.45,-18.93 53.9,-29.97 91.8,-51.96 48.23,-27.98 134.95,-93.37 192.84,-93.11 42.81,0.19 343.52,163.82 368.11,207.5 -30.47,63.51 -111.51,86.52 -169.29,120.34 -45.7,26.74 -134.37,90.09 -185.52,89.8 -49.93,-0.29 -321.87,-160.02 -370.98,-187.69zm1037.19 -22.45c22.14,-63.06 311.98,-217.2 365.49,-213.53 31.2,2.14 337.46,159.84 359.94,210.51 -24.87,40.87 -302.05,205.56 -359.57,205.45 -56.88,-0.11 -341.56,-170.63 -365.86,-202.43zm527.71 274.46c40.33,-58.26 656.27,-391.89 788.24,-474.47 73.55,-46.02 84.27,-59.15 164.55,-13.25 64.64,36.95 272,149.01 303.23,187.13 -47.82,57.08 -515.41,316.59 -614.43,371.88 -172.28,96.21 -230.76,174.02 -336.96,115.66 -59.81,-32.85 -274.76,-149.67 -304.63,-186.95zm-10.07 -588.11c21.33,-44.5 117.06,-82.33 183.62,-121.96 202.31,-120.43 165.16,-123.45 392.12,8.61 59.28,34.49 146.99,57.24 163.16,132.7 -65.81,32.86 -313.12,198.28 -380.82,195.06 -46.48,-2.22 -156.01,-75.18 -195.63,-97.48 -53.53,-30.15 -139.24,-58.95 -162.45,-116.93zm-997.93 -13.07c48.34,-63.3 490.05,-300.66 598.74,-365.13 171.01,-101.43 224.81,-167.89 333.55,-113.17 44.89,22.59 295.19,149.61 293.5,190.53 -1.49,36.03 -76.2,66.86 -145.17,104.03l-609.99 356.86c-72.09,44.96 -95.32,56.17 -177.22,13.64 -69.03,-35.84 -265.25,-137.44 -293.41,-186.76zm739.8 -1061.19c-11.86,264.46 -254.75,351.82 -439.77,462.67 -191.94,114.99 -371.25,217.36 -562.37,326.25 -132.35,75.4 -1025.04,596.57 -1132.78,643.29l61.67 57.9c35.37,20.35 34.38,14 63.64,41.56 -2.23,2.32 -5.56,5.24 -7.1,6.53 -1.54,1.29 -5.28,4.82 -7.2,6.37 -1.9,1.54 -5.24,4.4 -7.38,6.04 -2.14,1.64 -5.36,4 -7.63,5.63 -0.52,0.38 -21.73,13.95 -23.8,15.23 -21.01,12.96 -39.21,22.92 -57.81,33.31l-1505.39 871.25c-93.08,20.66 -103.49,-125.69 -238.25,-40.14l-919.8 530.8c-306.12,167.51 -616.72,352.24 -920.29,530.38l-697.48 400.3c-424.47,253.99 -388.69,220.86 -412.21,-391.1 -8.72,-226.68 -18.19,-454.63 -27,-681.68l-140.15 -3501.16c-9.91,-240.09 -53.09,-444.43 87.81,-609.01 97.3,-113.65 317.38,-184.43 470.25,-262.69 159.49,-81.64 322.58,-160.85 481.32,-236.89 651.37,-312.06 1286.35,-631.25 1946.64,-954.89l3409.41 -1674.22c400.1,-195.94 591.77,-360.14 572.97,22.11 38,-61.52 39.21,-198.76 -10.24,-246.49 -66.55,-64.26 -151.47,-11.22 -218.44,20.76 -149.71,71.48 -287.34,140.42 -429.74,210.88l-1273.47 619.38c-77.09,35.92 -139.82,68.5 -208.35,106.84 -67.19,37.59 -149.46,69.7 -219.7,107.32 -197.33,105.7 -1097.64,554.32 -1279.11,629.31l-2140.76 1048.2c-133.06,73.34 -284.88,137.46 -422.64,216.11l-432.13 209.11c-167.19,83.82 -257.32,120.94 -347.78,278.55 -53.84,93.81 -33.16,168.07 -23.5,268.11 9.39,97.17 -4.6,222.7 -2.06,325.51 5.48,221.33 18.97,676.64 50.61,896.93 13.13,91.51 6.11,212.69 4.03,318.49 -7.88,402.03 46.2,827.11 46.82,1228.48 0.63,409.04 49.45,825.46 51.51,1228.49 1.13,219.74 17.59,394.49 24,601.06 3.51,113.25 -32.29,337.3 53.24,420.49 37.01,35.99 14.47,-5.03 38.83,38.67 9.58,17.19 16.51,53.27 21.39,69.79 50.3,169.95 223.84,204.28 360.7,273.16l552.9 323.46c18.36,11.91 26.69,18.71 47.47,29.07l500.86 283.79c48.88,25.19 61.99,40.75 105.03,64.93l712.64 399.32c96.96,63.91 197.68,132.5 304.73,176.92 107.01,44.4 205.85,110.71 302.06,170.61 36.71,22.86 66.36,28.12 104.8,52.65 105.33,67.21 196.96,122.41 312.09,171.38 117.4,49.93 280.48,163.44 391.96,235.32 34.93,22.52 60.12,36.76 100.07,56.4 76.2,37.47 126.13,84.65 204.6,121.59 177.59,83.59 211.54,158.11 463.6,17.92l450.46 -267.82c20.92,-11.24 30.81,-12.3 54.42,-24.68 61.05,-31.99 137.43,-98.35 299.35,-183.33l414.9 -226.78c107.25,-56.84 482.28,-278.39 584.69,-354.64 44.91,-33.45 157.49,-101.31 205.61,-122 225.77,-97.12 306.3,-180.46 507.1,-290.04 152.97,-83.47 483.6,-263.38 601.88,-351.17l198.45 -116.09c18.93,-12.62 32.73,-23.1 45.75,-29.29l247.78 -134.86c126.27,-70.44 169.72,-66.59 307.8,-162.1 39.07,-27.02 8.37,-5.4 53.55,-27.35 98.97,-48.09 179.12,-118.47 278.5,-165.82l67.45 -36.53c2.77,-1.4 6.33,-2.88 9.09,-4.27 26.62,-13.39 23.92,-11.27 48.38,-28.3l1337.17 -768.32c149.15,-77.15 267.57,-200.1 430.93,-250.79 56.04,-17.38 98.42,-54.89 145.06,-86.87 54.63,-37.45 94.02,-40.12 144.35,-89.15 130.93,-127.53 166.85,-180.97 -93.51,-326.47 -140.32,-78.42 -275.21,-151.36 -409.64,-232.06 -130.29,-78.22 -269.26,-152.29 -400.99,-233.9 -127.05,-78.72 -269.55,-153.75 -401.05,-231.2 -675.12,-397.64 -1349.92,-768.5 -2023.4,-1166.79 -136.13,-80.51 -268.41,-156.36 -406.8,-233.62 -146.92,-82.01 -248.51,-174.56 -450.86,-188.99 0.21,-85.81 48.88,-127.23 48.83,-244.52 -19.62,-13.57 14.71,-20.5 -28.57,-2.6z"/>
     <path class="fil16" d="M11182.28 13339.22l7.79 -14.99 7.76 -19.25c-2.54,-20.56 -7.49,-16.41 12.46,-14.71 -1.87,-19.61 -5.94,-15.05 13.98,-11.79 -3.26,-22.33 -6.93,-16.73 15.93,-11.07l22.04 -5.59c17.95,-24.1 635.86,-329.01 754.93,-381.24 313.43,-137.52 702.74,-351.39 1019.8,-495.85 82.38,-37.53 173.73,-90.63 243.49,-121.15 81.37,-35.6 167.99,-79.04 261.57,-120.05 52.97,-23.23 79.85,-48.28 123.95,-69.72 50.95,-24.77 81.6,-25.69 131.39,-52.8 297.4,-161.95 686.59,-334.51 1002.4,-498.61 173.36,-90.08 346.78,-150.14 510.26,-236.25l1779.05 -874.29c121.57,-58.29 431.6,-226.2 517.06,-209.6 101.51,19.71 74.18,181.35 75.93,289.95l6.14 2247.87c0.18,503.46 11,1013.63 1.5,1516 -10.85,573.92 34.61,489.98 -396.24,737.79l-2615.29 1515.82c-156.96,95.2 -312.9,168.11 -470.05,275.33l-956.44 543.6c-369.62,234.17 -824.97,470.49 -1190.49,694.44l-597.51 340.35c-35.16,13.78 -74.57,26.88 -111.75,11.37 -31.08,-12.98 -6.62,4.43 -21.84,-17.8 -20.06,3.98 -14.31,6.79 -10.69,-14.69 2,-293.55 -47.47,-887.68 -56.28,-1258.01 -9.67,-406.43 -34.35,-850.76 -53.22,-1261.53l-80.26 -1893.39c-13.9,-246.69 -47.69,-383.81 52.63,-590.14zm6729.1 1175.64l-12.7 -4392.16c18.8,-382.25 -172.87,-218.05 -572.97,-22.11l-3409.41 1674.22c-660.29,323.64 -1295.27,642.83 -1946.64,954.89 -158.74,76.04 -321.83,155.25 -481.32,236.89 -152.87,78.26 -372.95,149.04 -470.25,262.69 -140.9,164.58 -97.72,368.92 -87.81,609.01l140.15 3501.16c8.81,227.05 18.28,455 27,681.68 23.52,611.96 -12.26,645.09 412.21,391.1l697.48 -400.3c303.57,-178.14 614.17,-362.87 920.29,-530.38l919.8 -530.8c134.76,-85.55 145.17,60.8 238.25,40.14l1505.39 -871.25c18.6,-10.39 36.8,-20.35 57.81,-33.31 2.07,-1.28 23.28,-14.85 23.8,-15.23 2.27,-1.63 5.49,-3.99 7.63,-5.63 2.14,-1.64 5.48,-4.5 7.38,-6.04 1.92,-1.55 5.66,-5.08 7.2,-6.37 1.54,-1.29 4.87,-4.21 7.1,-6.53 -29.26,-27.56 -28.27,-21.21 -63.64,-41.56l-61.67 -57.9c107.74,-46.72 1000.43,-567.89 1132.78,-643.29 191.12,-108.89 370.43,-211.26 562.37,-326.25 185.02,-110.85 427.91,-198.21 439.77,-462.67z"/>
     <path class="fil17" d="M19908.62 18381.89c56.39,-65.18 -77.11,-129.44 -123.84,-153.83l-603.01 -338.14c-434.37,-253.71 -311.91,-233.44 -810.85,66.11 -191.63,115.06 -1535.09,873.71 -1565.09,917.92 -51.99,76.63 68.6,120.02 125.01,152.36l602.52 338.79c434.03,241.89 265.14,247.3 810.48,-65.88 169.72,-97.46 1527.32,-874.03 1564.78,-917.33z"/>
     <path class="fil16" d="M16408.37 18418.19c15.68,68.1 38.47,55.23 158.17,125.11 229.77,134.12 175.83,148.33 558.82,-82.65 235.59,-142.09 475.02,-278.16 708.87,-415.03l1235.19 -725.19c27.75,-16.81 62.43,-36.26 92.42,-51.43 54.73,-27.68 64.76,-22.87 78.74,-72.4 -22.6,-32.53 -24.22,-28.62 -79.55,-58.56 -363.21,-196.55 -206.3,-193.04 -650.29,55.01l-2102.37 1225.14z"/>
     <path class="fil16" d="M13502.31 19509.82c23.64,34.54 310.43,217.38 383.72,208.52 48.54,-5.87 1075.04,-609.07 1111.72,-652.87 -24.02,-51.54 -123.63,-91.95 -177.25,-122.2 -236.56,-133.42 -149.91,-134.74 -590.83,124.08l-562.56 325.98c-53.93,31.58 -143.72,66.24 -164.8,116.49z"/>
     <path class="fil16" d="M18449.04 16621.57c26.32,28.07 334,209.52 378.54,208.61 47.1,-0.97 878.38,-503.42 1040.9,-592.74 103.3,-56.77 73.3,-41.8 87.04,-79.64 -455.15,-233.49 -275.94,-285.92 -766.61,14.41 -70.64,43.24 -714.76,391.02 -739.87,449.36z"/>
     <path class="fil16" d="M18179.58 16177.23c29.87,37.28 244.82,154.1 304.63,186.95 106.2,58.36 164.68,-19.45 336.96,-115.66 99.02,-55.29 566.61,-314.8 614.43,-371.88 -31.23,-38.12 -238.59,-150.18 -303.23,-187.13 -80.28,-45.9 -91,-32.77 -164.55,13.25 -131.97,82.58 -747.91,416.21 -788.24,474.47z"/>
     <path class="fil16" d="M12985.3 19209.23c27.83,52.65 95.06,73.83 144.62,104.63 174.48,108.46 206.07,142.07 345.1,57.39 144.16,-87.82 718.18,-395.68 751.58,-462.6 -31.99,-33.34 -250.18,-162.11 -307.13,-189.01 -69.79,-32.98 -123.93,2.7 -174.68,32.64 -115.04,67.89 -731.06,411.96 -759.49,456.95z"/>
     <path class="fil16" d="M17171.58 15576.05c28.16,49.32 224.38,150.92 293.41,186.76 81.9,42.53 105.13,31.32 177.22,-13.64l609.99 -356.86c68.97,-37.17 143.68,-68 145.17,-104.03 1.69,-40.92 -248.61,-167.94 -293.5,-190.53 -108.74,-54.72 -162.54,11.74 -333.55,113.17 -108.69,64.47 -550.4,301.83 -598.74,365.13z"/>
     <path class="fil16" d="M12472.87 18921.71c24.24,42.22 88.34,67.53 141.75,97.2 248.19,137.88 187.73,145.84 444.31,1.5l420.1 -246.31c125.36,-73.58 111.09,-39.37 127.25,-109.58 -72.1,-46.9 -186.23,-103.89 -281.11,-159.86 -119.55,-70.53 -218.02,27.05 -311.01,79.17 -101.49,56.87 -179.65,106.59 -280.75,163.62 -59.62,33.64 -234.23,123.32 -260.54,174.26z"/>
     <path class="fil16" d="M18985.24 16922.16c25.88,48.84 181.34,122 245.85,158.68 156.78,89.14 139.7,64.4 285.62,-18.91 88.83,-50.73 168.13,-95.39 256.32,-148.83 63.18,-38.28 217.61,-111.15 243.67,-160.84 -35.05,-46.4 -181.74,-116.48 -249.44,-154.88 -184.01,-104.39 -149.52,-53.23 -534.94,166.93 -42.82,24.46 -77.27,46.48 -123.14,73.07 -40.69,23.57 -104.09,49.95 -123.94,84.78z"/>
     <path class="fil16" d="M15584.84 18908.65c17.59,38.36 3.03,22.71 56.31,50.47 29.66,15.46 38.58,18.38 68.46,35.99 45.46,26.8 79.86,45.78 124.23,71.84 184.6,108.47 182.05,25.68 538.81,-169.93 62.51,-34.28 211.15,-109.53 242.46,-158.27 -52.11,-54.73 -174.04,-106.95 -247.68,-153.44 -150.16,-94.79 -138.59,-64.64 -278.58,14.89 -70.58,40.09 -478.38,265.23 -504.01,308.45z"/>
     <path class="fil16" d="M18169.51 15589.12c23.21,57.98 108.92,86.78 162.45,116.93 39.62,22.3 149.15,95.26 195.63,97.48 67.7,3.22 315.01,-162.2 380.82,-195.06 -16.17,-75.46 -103.88,-98.21 -163.16,-132.7 -226.96,-132.06 -189.81,-129.04 -392.12,-8.61 -66.56,39.63 -162.29,77.46 -183.62,121.96z"/>
     <path class="fil16" d="M16096.05 16220.63c371.13,244.57 370.34,222.27 556.12,107.16 79.52,-49.27 148.86,-69.17 171.12,-124.43 -32.59,-47.92 -330.37,-206.07 -372.99,-205.27 -55.22,1.02 -199.54,101.73 -281.65,146.28 -46.85,25.4 -59.61,24.06 -72.6,76.26z"/>
     <path class="fil16" d="M16125.81 17382.14c21.87,28.2 307.73,202.15 364.23,204.81 56.15,2.65 154.36,-65.85 194.85,-89.63 56.11,-32.95 148.66,-67.65 172.59,-117.75 -19.71,-45.92 -93.46,-70.17 -174.02,-116.33 -211.44,-121.18 -176,-130.7 -390.9,-1.26 -58.19,35.04 -141.78,67.54 -166.75,120.16z"/>
     <path class="fil16" d="M16092.81 16804.54c23.92,46.8 323.57,205.35 358.74,208.78 60.71,5.92 341.56,-156.69 369.1,-208.78 -23.19,-39.88 -309.29,-204.86 -359.55,-209.08 -60.3,-5.08 -144.71,60.24 -196.69,89.58 -51.16,28.87 -142.97,63.68 -171.6,119.5z"/>
     <path class="fil16" d="M15348.32 18425.09c24.41,60.28 112.91,86.93 170.03,120.94 221.89,132.15 183.35,119.66 381.59,9.1 29.79,-16.62 58.95,-34.21 91.08,-52.62 80.1,-45.89 59.28,-21.54 84.53,-64.35 -26.35,-56.5 -102.62,-82.17 -163.8,-115.71 -218.16,-119.55 -176.11,-137.95 -388.8,-13.66 -58.75,34.34 -140.41,69.76 -174.63,116.3z"/>
     <path class="fil16" d="M17165.08 16765.33c17.6,50.73 91.26,77.13 168.53,121.98 245.45,142.47 182.89,120.99 474.34,-44.16 48.14,-27.28 61.42,-25.57 85.2,-64.75 -29.23,-58.56 -336.04,-212.81 -361.34,-215.12 -55.59,-5.07 -145.12,60.83 -189.96,88.22 -51.65,31.52 -145.71,66.26 -176.77,113.83z"/>
     <path class="fil16" d="M17684.17 16464.74c21.83,56.26 66.92,58.32 163.84,117.52 230.75,140.97 206.48,115.82 388.75,9.94 60.84,-35.36 136.26,-67.07 173,-114.39 -24.56,-60.73 -335.46,-213.73 -357.11,-216.35 -51.29,-6.21 -260.47,121.29 -325.09,161.02 -52.34,32.18 -16.34,-10.92 -43.39,42.26z"/>
     <path class="fil16" d="M16614.68 15925.22c49.11,27.67 321.05,187.4 370.98,187.69 51.15,0.29 139.82,-63.06 185.52,-89.8 57.78,-33.82 138.82,-56.83 169.29,-120.34 -24.59,-43.68 -325.3,-207.31 -368.11,-207.5 -57.89,-0.26 -144.61,65.13 -192.84,93.11 -37.9,21.99 -56.35,33.03 -91.8,51.96 -66.28,35.4 -63.14,20.17 -73.04,84.88z"/>
     <path class="fil16" d="M15866.9 18124.5c20.04,46.97 23.92,37.32 73.24,65.14 33.11,18.68 59.21,32.24 92.16,51.51 39.51,23.12 146.84,95.48 195.19,98.04 67.07,3.55 331.83,-161.27 365.23,-201.62 -28.79,-64.28 -339.31,-214.83 -356.2,-216.82 -56.8,-6.72 -151.9,62.33 -192.76,85.44l-134.1 74.57c-50.56,32.33 -17.16,-9.38 -42.76,43.74z"/>
     <path class="fil16" d="M19754.21 16477.81c25.77,46.43 110.93,79.86 165.64,110.54 41.46,23.25 150.37,94.14 190.75,98.32 69.55,7.22 333.33,-159.32 372.87,-197.53 -29.15,-65.2 -330.61,-216.27 -351.13,-218.97 -63.98,-8.44 -150.69,57.71 -199.95,83.51 -33.34,17.47 -52.58,32.34 -88.93,54.66 -46.62,28.64 -68.21,23.61 -89.25,69.47z"/>
     <path class="fil16" d="M15575.95 17105.12c24.44,52.21 330.6,207.02 352.86,210.13 70.67,9.85 328.81,-157.24 376.96,-192.26 -19.3,-56.45 -84.52,-78.81 -166.55,-125.82 -42.22,-24.2 -151.05,-93.4 -189.46,-97.92 -70.25,-8.26 -349.48,165.42 -373.81,205.87z"/>
     <path class="fil16" d="M12990.12 18019.95c30.05,50.58 315.76,202.78 351.58,207.33 74.58,9.46 321.92,-155.35 376.03,-190.49 -12.49,-48.36 -22.01,-47.67 -72.61,-74.44 -316.21,-167.27 -245,-202.66 -481.54,-65.44 -59.24,34.37 -143.88,72.52 -173.46,123.04z"/>
     <path class="fil16" d="M14033.77 19806.92c14.55,48.15 30.09,46.75 82.99,75.3 318.17,171.78 232.35,191.45 482.35,51.37 60.78,-34.06 144,-65.22 164.27,-127.87 -26.14,-24.56 -317.33,-193.3 -366.05,-195.49 -61.37,-2.75 -344.12,170.99 -363.56,196.69z"/>
     <path class="fil16" d="M16646.45 17078.98c38.93,34.38 308.63,205.39 365.72,206.27 49.81,0.76 221.22,-107.36 284.07,-143.81 49.93,-28.94 67.31,-31.6 80.26,-78.64 -27.53,-24.18 -317.46,-194.44 -365.17,-196.26 -60.9,-2.32 -144.22,62.24 -198.44,92.27 -54.92,30.43 -141.09,67.06 -166.44,120.17z"/>
     <path class="fil16" d="M16900.64 17523.33c31.8,50.67 322.88,204.68 348.83,209.13 78.82,13.52 360.92,-174.61 379.08,-196.06 -24.77,-70.1 -341.53,-219.25 -357.22,-220.49 -56.47,-4.46 -154.91,63.39 -196.39,87.84 -55.72,32.84 -146.06,71.19 -174.3,119.58z"/>
     <path class="fil16" d="M15612.01 17680.16c22.91,48.94 112.65,81.37 165.15,110.46 270.94,150.19 163.61,129.46 478.96,-42.46 69.24,-37.74 61.94,-28.78 81.88,-68 -23.85,-48.01 -328.32,-206.81 -360,-208.63 -60.87,-3.49 -340.34,157.59 -365.99,208.63z"/>
     <path class="fil16" d="M15580.67 16503.95c24.26,53.69 112.57,87.65 163.54,117.13 226.39,130.97 187.58,124.25 395.64,4.34 56.21,-32.39 140.73,-63.75 165.19,-121.47 -34.82,-36.72 -303.75,-197.39 -355.35,-203.18 -62.28,-7 -345.11,163.78 -369.02,203.18z"/>
     <path class="fil16" d="M14026.33 17418.78c21.69,38.67 27.91,32.66 76.94,59.25 65.56,35.54 237.15,144.03 283.12,147.15 59.1,4.02 144.04,-59.52 193.63,-89.55 50.23,-30.42 144.1,-63.89 170.45,-116.85 -22.37,-39.48 -310.78,-207.39 -353.82,-211.08 -62.38,-5.32 -152.75,60.89 -199.42,89.2 -85.69,52 -150.48,66.97 -170.9,121.88z"/>
     <path class="fil16" d="M15062.84 16804.54c25.75,65.81 334.57,212.77 357.52,214.99 49.57,4.8 335.62,-156.84 367.9,-201.93 -22.48,-54.37 -69.53,-61.75 -164.73,-115.04 -44.38,-24.85 -142.31,-96.37 -193.51,-100.45 -68.95,-5.48 -339.46,165.13 -367.18,202.43z"/>
     <path class="fil16" d="M13508.04 17719.37c30.82,50.03 322.53,207 367.21,207.26 68.35,0.4 331.82,-167.46 359.93,-207.26 -24.32,-34.91 -304.46,-205.77 -361.33,-209.7 -56.75,-3.91 -347.05,163.11 -365.81,209.7z"/>
     <path class="fil16" d="M17651.87 15902.77c24.3,31.8 308.98,202.32 365.86,202.43 57.52,0.11 334.7,-164.58 359.57,-205.45 -22.48,-50.67 -328.74,-208.37 -359.94,-210.51 -53.51,-3.67 -343.35,150.47 -365.49,213.53z"/>
     <path class="fil16" d="M16382.9 17823.92c24.77,51.53 313.68,206.79 355.3,210.89 66.48,6.55 149.83,-58.81 199.54,-88.54 77.9,-46.61 148.18,-66.69 170.98,-122.35 -30.17,-44.4 -323.57,-201.76 -360.39,-204.47 -60.18,-4.43 -336.27,166.33 -365.43,204.47z"/>
     <path class="fil16" d="M15095.9 17980.74c36.86,52.44 322.72,208.52 360.96,210.1 56.92,2.36 152.46,-65.55 196.39,-91.42 71.4,-42.03 148.48,-71.6 167.52,-118.68 -30.06,-46.7 -120.55,-81.11 -173.64,-112.28 -192.3,-112.93 -177.62,-133.7 -385.85,-4.48 -59.52,36.93 -137.93,67.48 -165.38,116.76z"/>
     <path class="fil16" d="M17939.46 16922.16c32.29,47.22 112.08,81.09 172.99,114.42 43.86,24.01 143.76,92.44 192.8,92.36 53.92,-0.09 210.84,-104.23 284.67,-144.18 48.14,-26.04 62.75,-23.35 72.63,-84.9 -54.82,-30.42 -325.57,-187.77 -370.14,-187.37 -50.01,0.44 -139.16,62.66 -184.47,90.54 -53.95,33.2 -144.46,67.24 -168.48,119.13z"/>
     <path class="fil16" d="M14542.18 17706.3c21.78,57.32 103.47,82.84 158.71,114.95 220.25,128 189.79,129.34 387.89,13.98 64.6,-37.62 139.46,-63.72 175.97,-115.86 -28.78,-59.62 -343.85,-214.71 -360.57,-216.13 -50.31,-4.26 -147.89,64.65 -190.2,88.04 -60.72,33.57 -142.59,64.9 -171.8,115.02z"/>
     <path class="fil16" d="M14577.62 18281.33c19.01,45.37 19.2,32.86 72.49,61.22 36.84,19.6 56.26,31.58 91.29,52.56 232.16,139.04 199.9,117.28 390.77,6.49 59.36,-34.45 138.09,-58.96 169.45,-120.27 -25.02,-36.34 -320.31,-201.63 -358.12,-205.61 -57.62,-6.05 -140.85,59.08 -192.44,88.59 -63.98,36.6 -155.17,76.08 -173.44,117.02z"/>
     <path class="fil16" d="M16614.74 16503.95c25.59,41.13 115.74,79.72 176.65,115.4 41.1,24.06 144.28,91.87 193.34,91 47.03,-0.83 220.82,-111.77 281.22,-148.01 58.83,-35.31 60.42,-17.8 74.75,-77.94 -44.62,-26.32 -325.64,-188.88 -369.11,-190.4 -55.98,-1.95 -140.79,62.54 -185.71,88.97 -57.52,33.85 -144.74,62.13 -171.14,120.98z"/>
     <path class="fil16" d="M14059.77 18596.82c27.09,24.45 313.57,197.19 364.34,197.86 52.97,0.7 214.02,-103.14 280.88,-140.46 44.22,-24.68 59.04,-19.6 78.76,-72.3 -35.84,-50.56 -337.37,-204.8 -371.62,-203.77 -45.25,1.36 -205.77,105.83 -281.16,146.16 -46.58,24.9 -58.79,23.81 -71.2,72.51z"/>
     <path class="fil16" d="M14746.81 18007.08c-22.68,-24.83 -316.4,-196.93 -362.83,-199.39 -77.66,-4.12 -204.53,103.27 -288.51,144.93 -35.54,17.62 -82.2,24.84 -63.29,74.8 12.67,33.5 132.02,86.56 171.95,107.61 215.76,113.72 148.8,126.52 379.73,-7.62 54.15,-31.45 141.09,-56.69 162.95,-120.33z"/>
     <path class="fil16" d="M12475.6 18320.54c22.74,52.33 321.51,206.45 355.14,209.08 58.9,4.59 336.81,-151.34 366.01,-209.08 -52.26,-56.37 -97.01,-68.53 -166.89,-108.96 -39.59,-22.91 -152.23,-93.57 -189.46,-96.92 -48.35,-4.35 -341.76,150.39 -364.8,205.88z"/>
     <path class="fil16" d="M15072.81 19209.23c19.34,21.93 -5.71,20.21 80.65,67.67 329.38,180.97 241.86,184.79 484.07,48.37 53.04,-29.87 134.65,-62.57 158.39,-116.04 -28.02,-37.36 -310.49,-203.49 -365.82,-204.03 -56.69,-0.54 -209.22,103.67 -281.15,144.55 -61.1,34.72 -55.41,21.39 -76.14,59.48z"/>
     <path class="fil16" d="M15060.19 17405.71c25.8,50.14 106.65,82.19 163.93,114.57 210.85,119.22 174.72,136.47 391.99,5.93 55.41,-33.29 141.44,-63.51 166.74,-120.5 -24.26,-32.17 -306.05,-198.76 -356.37,-203.77 -60.47,-6.01 -209.75,99.02 -282.82,139.62 -46.6,25.89 -59.24,21.03 -83.47,64.15z"/>
     <path class="fil16" d="M17421.52 17222.74c29.24,46.73 320.77,206.61 362,208.4 63.41,2.74 138.39,-57.75 194.15,-91.76 56.46,-34.43 141.52,-60.4 167.67,-116.64 -38.26,-52.34 -327.35,-205.15 -363.89,-207.13 -53.59,-2.9 -211.64,103.17 -285.12,143.09 -46.41,25.21 -60.01,26.49 -74.81,64.04z"/>
     <path class="fil16" d="M17134.08 16203.36c32.36,47.31 128.78,88.09 179.3,116.2 203.45,113.2 168.14,120.74 381.85,-7.47 58.54,-35.11 136.8,-63.53 161.81,-120.57 -32.51,-28.65 -312.11,-196.18 -362.76,-198.87 -43.75,-2.31 -270.65,123 -321.92,162.07 -46.28,35.28 -19.46,0.83 -38.28,48.64z"/>
     <path class="fil16" d="M12677.62 18621.13c-25.57,-34.2 -321.93,-204.98 -369.18,-203.1 -47.9,1.91 -150.85,69.41 -190.59,92.71 -60.12,35.26 -143.75,60.92 -162.79,127.91 31.91,26.2 315.86,193.79 364.77,194.26 50.93,0.49 334.16,-152.62 357.79,-211.78z"/>
     <path class="fil16" d="M13505.53 18320.54c30.39,42.95 320.27,202.39 357.73,204.47 57.11,3.18 342.16,-161.55 364.34,-204.47 -21.8,-44.53 -110.15,-81.71 -162.66,-111.62 -221.84,-126.38 -175.77,-134.22 -390.74,-10.57 -79.62,45.8 -148.24,69.7 -168.67,122.19z"/>
     <path class="fil16" d="M14833.76 18738.75c34.1,36.2 307.55,202.9 362.56,204.91 62.49,2.27 330.43,-165.68 360.35,-204.91 -26.17,-51.86 -328.33,-209.9 -362.35,-211.68 -64.27,-3.37 -340.25,166.21 -360.56,211.68z"/>
     <path class="fil16" d="M14555.22 19522.89c37.2,34.49 311.69,199.26 365.31,199.54 57.1,0.3 326.05,-159.34 357.59,-199.54 -24.89,-56.64 -323.69,-216.31 -370.34,-214.63 -40.63,1.46 -327.32,149.37 -352.56,214.63z"/>
     <path class="fil16" d="M14543.86 17121.85c19.21,25.08 310.05,195.74 363.98,197.98 66.83,2.78 323.44,-162.67 360.16,-201.64 -22.91,-49.33 -113.65,-84.92 -167.6,-115 -228.31,-127.29 -167.7,-133.29 -391.42,-4.89 -54.06,31.03 -145.15,69.71 -165.12,123.55z"/>
     <path class="fil18" d="M11240.2 13267.41c9.49,28.35 11.98,21.52 -15.93,11.07 14.21,29.57 16.07,22.94 -13.98,11.79 15.86,30.44 20.12,25.63 -12.46,14.71 15.22,30.02 25.4,29.1 -7.76,19.25l-7.79 14.99c-100.32,206.33 -66.53,343.45 -52.63,590.14l80.26 1893.39c18.87,410.77 43.55,855.1 53.22,1261.53 8.81,370.33 58.28,964.46 56.28,1258.01 19.39,0 15.33,-4.51 10.69,14.69 16.4,-17.81 26.01,-8.48 16.32,-78.33 -4.61,-33.19 -9.59,-45.95 -10.63,-83.57l-22.25 -488.77c-9.48,-205.21 2.27,-461.32 -21.38,-653.45 -24.15,-196.14 -24.59,-448.6 -32.72,-653.6l-55.94 -1306.77c-8.36,-219.34 -18.97,-433.62 -24.67,-652.82 -3.67,-141.13 -51.14,-863.9 -25.49,-971.13 11.2,-46.82 26.57,-78.49 54.12,-116.85l35.42 -44.06c1.68,-2.07 4.58,-5.02 6.09,-7.05 35.86,-47.75 23.38,-17.76 13.27,-38.76 -0.08,22.65 3.43,14.53 -22.04,5.59z"/>
    </g>
   </g>
  </g>
 </g>
</svg>
