<?xml version="1.0" encoding="UTF-8"?>
<!DOCTYPE svg PUBLIC "-//W3C//DTD SVG 1.1//EN" "http://www.w3.org/Graphics/SVG/1.1/DTD/svg11.dtd">
<!-- Creator: CorelDRAW 2020 (64 Bit) -->
<svg xmlns="http://www.w3.org/2000/svg" xml:space="preserve" width="242.147mm" height="242.147mm" version="1.1" style="shape-rendering:geometricPrecision; text-rendering:geometricPrecision; image-rendering:optimizeQuality; fill-rule:evenodd; clip-rule:evenodd"
viewBox="0 0 24214.7 24214.7"
 xmlns:xlink="http://www.w3.org/1999/xlink"
 xmlns:xodm="http://www.corel.com/coreldraw/odm/2003">
 <defs>
  <style type="text/css">
   <![CDATA[
    .str0 {stroke:#373435;stroke-width:20;stroke-miterlimit:22.9256}
    .fil0 {fill:#FEFEFE}
    .fil1 {fill:black}
    .fil2 {fill:black;fill-rule:nonzero}
   ]]>
  </style>
 </defs>
 <g id="Camada_x0020_1">
  <metadata id="CorelCorpID_0Corel-Layer"/>
  <rect class="fil0 str0" x="0.01" y="0.01" width="24214.68" height="24214.68"/>
  <g id="_2354944369568">
   <path class="fil1" d="M11944.1 4654.25l415.23 0 0 558.57c165.88,9.61 328.69,30.74 487.55,62.77l148.51 -525.88 399.61 112.86 -146.75 519.57c162.38,53.69 319.47,119.03 470.25,194.99l308.08 -483.57 350.2 223.09 -299 469.35c131.49,87.36 256.71,183.39 374.8,287.3l396.17 -380.06 287.47 299.63 -388.61 372.83c114.52,127.84 219.71,264.23 314.54,408.07l483.37 -280.51 208.39 359.16 -484.29 281.03c83.93,167.96 154.8,343.58 211.01,525.66l519.72 -147.24 113.17 399.51 -534.47 151.41c27.63,152.54 45.14,308.58 52.21,467.34l568.58 -21.16 15.42 414.93 -589.94 21.97c-12.5,169.77 -37.31,336.13 -73.31,498.28l543.27 141.48 -104.67 401.82 -552.83 -143.96c-54.04,153.34 -118.45,301.78 -192.49,444.44l506.11 296.55 -209.93 358.28 -509.16 -298.35c-86.27,126.51 -180.67,247 -282.44,360.82l400.29 416.54 -299.38 287.72 -395.58 -411.63c-125.02,110.2 -258.01,211.59 -398,303.17l274.97 536.58 -369.52 189.38 -266.31 -519.65c-138.61,68.61 -282.34,128.41 -430.66,178.33l133.45 558.14 -403.86 96.54 -130.56 -546.12c-157.29,32.61 -318.52,54.37 -482.78,64.99l2.46 579.53 -415.23 1.76 -2.47 -578.82c-172.41,-9.21 -341.54,-30.92 -506.41,-64.31l-129.8 542.97 -403.86 -96.54 132.29 -553.33c-148.97,-49.39 -293.46,-108.59 -432.74,-176.8l-263.07 513.31 -369.52 -189.38 270.94 -528.73c-141.17,-91.5 -275.24,-192.97 -401.32,-303.37l-388.23 403.98 -299.38 -287.72 391.96 -407.91c-102.9,-114.33 -198.3,-235.52 -285.48,-362.8l-497.78 291.7 -209.93 -358.28 493.9 -289.38c-75,-143.69 -140.26,-293.24 -194.93,-447.82l-538.19 140.17 -104.67 -401.82 528.13 -137.55c-36.51,-163.56 -61.62,-331.45 -74.2,-502.82l-573.91 -21.36 15.42 -414.93 552.63 20.56c7.15,-160.04 24.96,-317.31 52.99,-471.01l-519.3 -147.14 113.17 -399.51 504.98 143.06c56.94,-183.61 128.82,-360.66 213.93,-529.86l-469.85 -272.65 208.39 -359.16 469.91 272.68c95.88,-144.54 202.16,-281.58 317.96,-409.9l-378.55 -363.17 287.48 -299.63 387.2 371.48c119.18,-104.06 245.58,-200.09 378.25,-287.35l-293.51 -460.72 350.22 -223.09 303.58 476.55c151.76,-75.58 309.81,-140.42 473.17,-193.5l-145.19 -514.04 399.61 -112.86 147.58 522.51c151.24,-29.69 305.97,-49.56 463.54,-59l0 -558.97zm218.79 1030.39c1663.88,0 3012.73,1348.85 3012.73,3012.75 0,1663.9 -1348.85,3012.73 -3012.73,3012.73 -1663.9,0 -3012.76,-1348.83 -3012.76,-3012.73 0,-1663.9 1348.86,-3012.75 3012.76,-3012.75z"/>
   <path class="fil1" d="M11336.15 8498.23c-29.22,206.73 4.58,579.45 8.55,804.61 3.27,185.3 4.4,369.49 4.41,554.81 0,70.9 8.61,204.97 -15.95,263.39 -40.79,97.03 -108.93,63.34 -176.45,100.8 -50.48,28.01 -87.23,108.53 -120.07,157.42 -46.1,68.63 -76.81,81.46 -145.68,131.76 -107.1,78.21 -212.72,156.74 -322.15,232.61 -54.02,37.45 -109.78,77.24 -161.42,115.99 -53.8,40.36 -109.63,78.15 -161.56,115.93l-644.85 464.67c-55.84,40.48 -109.42,76.27 -162.57,114.95 -25,18.2 -55.02,41.88 -77.44,61.33 -27.52,23.88 -41.93,48.16 -72.05,69.69 -16.73,-4.01 -74.1,-38.85 -107.5,-51.07 -218.25,-79.84 -344.08,30.92 -405.58,38.4 -5.46,-16.38 -24.87,-39.83 -36.03,-57.32 -103.97,-162.97 20.38,-298.07 -194.26,-466.08 -38.07,-29.79 -67.4,-56.08 -103.95,-84.5 -36.91,-28.7 -68.8,-53.94 -104.58,-83.95l-417.97 -336.7c-174.77,-138.86 -345.07,-283.52 -521.87,-421.43 -143.42,-111.86 -113.52,-103.67 -204.49,40.09 -22.02,34.8 -73.78,92.38 -61.6,147.81 11.45,52.11 191.46,235.12 257.29,309.07 10.14,11.4 14.68,19.19 25.24,30.54l246.15 280.69c94.17,113.59 195.66,220.61 285.66,335.72 12.98,16.61 35.43,45.23 48.23,57.57 40.21,38.76 68.1,68.32 105.78,104.92 68.82,66.84 144.5,124.23 234.61,181.22 73.85,46.71 215.19,101.02 266.77,154.92 1.32,19.53 -29.06,95.85 -34.95,132.27 -46.1,285.03 176.93,546.69 467.98,540.61 54.4,-1.14 112.13,-23.02 148.65,-23.44 58.57,266.21 64.8,331.7 278.75,498.58l965.08 782.8c38.85,30.38 67.77,58.79 106,87.96 19.73,15.05 32.33,25.03 51.81,42.56 43.79,39.4 117.97,101.78 169.49,126.72 1.01,-1.07 2.43,-4.27 2.83,-3.38 0.41,0.89 2.19,-2.63 2.73,-3.43 26.83,-40.37 40.35,-91.07 59.22,-135.8l56.96 -154.62c16.58,-63.98 -38.31,-113.85 -66.43,-142.8 -67.66,-69.69 -129.92,-149.34 -196.6,-219.86 -104.98,-111.02 -194.88,-225.27 -299.59,-332.6l-621.28 -682.54c-73.23,-77.05 -184.02,-117.7 -224.87,-146.85 0.75,-26.51 18.57,-83.3 22.09,-122.08 4.92,-54.19 -6.1,-90.93 -6.35,-139.68 21.79,-11.42 51.94,-35.8 75.01,-52.49l1156.78 -840.31c103.53,-75.17 202.27,-150.13 307.21,-225.55 47.6,-34.22 108.95,-97.88 176.29,-92.61 43.13,3.38 59.27,28.62 89.17,46.1 28.52,16.68 64.43,24.23 94.74,38.78 121.52,58.36 20.48,135.45 296.13,236.37 107.95,39.52 379.2,20.85 512.93,21.59 149.13,0.81 370.82,10.36 506.71,-27.91 217.58,-61.27 182.07,-185.99 290.89,-241.66 30.55,-15.64 158.68,-84.56 179.87,-85.65 46.73,-2.42 130.43,68.94 167.06,96.53 51.59,38.85 103.22,71.86 155.12,111.17 152.37,115.4 311.92,219.9 468.48,330.95l215.82 150.06c8.9,5.86 12.26,8.09 19.77,13.36l235.22 164.13c35.76,25.17 461.16,311.78 468.34,330.4 1.27,36.64 -15.57,90.99 -14.26,144.46 1.33,54.33 19.46,96.29 21.76,139.86 -82.3,26.56 -196.53,115.88 -245.59,165.18l-99.99 105.55c-25.28,24.29 -29.69,35.02 -49.81,55.66 -22.39,22.98 -30.59,37.34 -49.91,55.43 -37.93,35.52 -64.21,69.65 -97.42,107.93l-588.29 648.68c-47.04,44.42 -121.34,138.37 -168.97,191.99 -36.8,41.43 -112.12,88.55 -90.33,162.29 7.15,24.17 89.13,279.18 112.51,305.28 46.85,-16.93 462.02,-361.44 535.2,-420.98 37.6,-30.58 69.29,-58.2 107.21,-86.87 107.7,-81.43 212.52,-175.27 318.65,-258.25 78.47,-61.36 389.51,-304.17 426.06,-345.29 155.69,-175.17 114.8,-150.36 181.38,-399.44 119.14,16.83 169.62,44.07 300.61,-0.58 126.13,-42.99 220.76,-125.6 273.47,-242.37 39.88,-88.35 53.67,-194.46 34.65,-292.01 -11.4,-58.45 -31.53,-86.04 -46.61,-130.84 18.79,-23.31 94.13,-67.85 123.87,-86.8 73.85,-47.05 257.15,-158.57 311.87,-215.28 18.08,-18.72 35.33,-38.14 51.9,-58.87 126.57,-158.22 256.9,-311.04 382.38,-472.12l93.98 -116.83c92.6,-123.56 189.15,-237.02 285.33,-358.46l93.68 -117.13c107.55,-126.81 108.26,-125.68 17.86,-268.34 -16.76,-26.45 -69.58,-117.78 -83.36,-130.78 -53.97,29.75 -404.92,353.83 -489.89,426.21l-208.05 180.67c-96.66,80.62 -182.87,172.69 -282.37,250.19 -53.72,41.84 -100,97.14 -154.32,139.6 -36.28,28.38 -66.98,63.7 -101.28,92.74 -41.31,34.96 -58.94,45.54 -87.2,107.25 -66.56,145.32 -29.77,218.82 -66.21,321.87 -14.68,41.5 -46.53,99.13 -76.95,120.13 -87.25,-32.61 -123.74,-59.25 -238.6,-55.14 -120.46,4.3 -190.05,60.27 -227.45,63.97 -56.44,-58.33 -79.6,-81.41 -149.51,-128.38 -168.22,-113.01 -325.77,-236.83 -494.71,-348.5 -55.75,-36.85 -107.78,-74.42 -163.41,-113.57l-500.21 -349.1c-95.26,-67.4 -425.82,-271.99 -481.25,-356.74 -46,-70.33 -33.77,-135.69 -114.71,-167.82 -71.57,-28.41 -131.36,-8.2 -181.7,-95.76 -27.34,-47.57 -18.32,-199.34 -19.04,-265.9 -1.52,-141.05 -20.27,-707.56 -1.03,-823.36 16.35,-98.39 13.33,-169.71 11.23,-269.86l-2.19 -60.56c-4.08,-64.93 -6.92,-128.28 -21.82,-189.86 -48.92,-201.96 41.59,-235.85 104.83,-292.81l72.09 -66.47c77.87,-79.6 8.17,-155.01 135.54,-286.14 96.86,-99.72 89.4,-126.68 240.26,-186.8l394.97 -165.45c128.78,-54.71 261.69,-121.7 386.12,-174.13 65.65,-27.65 127.68,-58.07 191.57,-86.12l389.07 -176.59c64.44,-28.07 132.26,-63.44 204.77,-80.2 -35.58,73.84 -95.13,130.21 -128.42,206.47 -79.86,182.93 135.19,195.2 259.29,114.86 53.59,-34.68 108.33,-129.16 146.71,-186.02 87.25,-129.25 45.52,-85.5 170.93,-83.37 162.04,2.76 208.69,-58.57 252.92,-67.48 23.02,-4.64 23.99,129.81 29.72,155.53 10.76,48.28 31.8,92.89 58.26,124.87 41.12,49.7 224.53,206.77 284.44,253.8 18.09,14.19 29.11,26.84 47.71,41.12l484.13 420.34c101.94,95.51 243.99,204.65 338.17,294.2 45.85,43.6 101.06,80.92 147.14,124.69l49.24 42.98c27.17,-23.23 100.11,-223.45 128.09,-243.76l0 -57.6 -13.68 -16.17c-33.79,-50.81 -346.57,-435.49 -388.43,-482.68 -26.7,-30.11 -51.9,-65.64 -78.55,-99.18l-478.74 -591.8c-129.04,-164.97 -222.68,-223.88 -388.56,-319.98 9.03,-225.62 -103.14,-401.07 -287.16,-474.68 -192.72,-77.09 -169.3,26.33 -286.96,-90.43 -140.14,-139.06 -63.97,-221.4 -238.45,-393.71l-479.35 -403.12c-24.14,-18.47 -44.77,-39.03 -69.14,-58.43 -87.57,-69.7 -192.8,-167.24 -274.13,-230.66l-343.16 -284c-12.66,-10.91 -58.89,-47.05 -66.3,-58.26l-31.91 0c-5.37,14.2 -25.16,40.7 -35.54,63.07 -30.83,66.42 -103.07,132.53 -44.35,201.13l937.91 1004.07c58.09,59.78 130.68,123.92 212.83,175.68 59.81,37.68 181.07,94.72 231.95,139.6l5.53 5.76c0.43,-0.93 1.8,1.98 2.67,3.01 -105.21,110.57 -157.66,173.84 -162.79,392.66 -29.22,14.69 -92.9,35.04 -126.14,45.73 -133.38,42.88 -687.91,280.66 -835.25,340.79 -159.94,65.27 -319.01,132.41 -479.01,197.88 -79.07,32.36 -159.67,66.25 -238.31,100.2 -53.65,23.16 -188.14,89 -233.09,98.09 -42.68,-254.74 -50.48,-519.81 -103.99,-773.03 -13.91,-65.86 -25.12,-179.95 -82.52,-205.4 -39.67,-17.59 -72.69,3.66 -115.9,-34.04 -28,-24.42 -42.66,-49.82 -67.07,-77.06 -41.67,-46.49 -75.6,-127.11 -133.24,-155.19 -101.93,-49.66 -985.41,-41.66 -1087.44,11.15 -42.38,21.94 -49.17,40.84 -76.82,73.06 -35.42,41.27 -87.56,132.69 -130.35,158.28 -108.61,64.96 -136.15,31.33 -162.91,130.85 -33.01,122.82 -50.99,239.1 -63.68,367.9 -7.28,73.77 -37.31,493.97 -51.92,524.85 -7.62,5.26 -1.54,4.15 -12.66,2.5l-227.67 -98.89c-408.57,-172.46 -821.6,-336.48 -1236.56,-494.42 -102.28,-38.94 -422.58,-147.28 -490.97,-195.7 10.34,-84.58 33.93,-112.95 20.69,-216.52 -12.63,-98.85 -46.83,-125.57 -60.88,-183.74 36.72,-21.28 74.03,-47.47 112.27,-69.23 73.87,-42.02 150.27,-94.08 205.8,-154.96l172.58 -188.2c14.74,-16.79 29.65,-27.24 44.25,-44.21 66.24,-76.95 137.25,-159.63 211.56,-232.33 27.92,-27.3 56.87,-68.36 85.34,-98.03l169.18 -185.69c60.98,-62.28 110.55,-127.16 172.66,-187.89 27.18,-26.59 56.95,-66.02 82.93,-94.9 26.44,-29.36 56.18,-64.25 57.56,-119.58 2.16,-85.71 -39.43,-101.63 -54.98,-121.91 -39.97,-52.08 -45.28,-71.45 -109.18,-25.92 -34.61,24.65 -60.85,57.25 -94.98,82.66 -34.32,25.54 -63.45,58.79 -97.62,85.53 -17.95,14.06 -27.58,27.63 -46.55,42.13l-239.73 209.84c-9.49,8.22 -12.7,13.78 -21.91,22.08l-501.35 436.55c-74.33,56.11 -172.47,150.23 -223.31,225.92 -60.87,90.64 -92.13,236.16 -112.25,244.33 -4.84,1.97 -336.41,-168.08 -574.21,123.49 -42.39,51.97 -72.35,108.38 -89.48,176.67 -43.88,174.95 17.05,221.7 19.01,302 -19.45,17.86 -85.12,48.3 -113.18,64.57 -38.34,22.22 -76.02,45.02 -108.99,68.52 -137.86,98.27 -173.53,169.98 -274.79,257.77 -35.55,30.82 -92.73,99.51 -127.42,139.04 -14.88,16.95 -29.47,26.93 -43.98,44.49 -53.07,64.26 -111.31,121.45 -167.17,182.35l-383.45 415.74c-15.75,19.39 -26.53,26.7 -43.57,44.97 -15.48,16.59 -25.2,31.55 -40.8,48.27l-86.75 90.46c-11.51,13.19 -22.31,34.53 -35.91,46.9l0 35.35c27.6,30.5 76.83,224.58 110.97,264.84l1068.52 -806.75c34.85,-26.71 72.39,-51.13 109.22,-79.5 34.72,-26.73 74.41,-55.95 109.53,-79.01 275.58,-180.95 177.7,-379.97 250.56,-503.41 54.92,3.37 63.02,66.07 118.22,117.82 101.71,95.36 213.34,-1.39 311.75,165.5 54.31,92.09 112.06,223.89 225.83,256.58 119.43,34.32 270.63,-32.13 151.28,-223.37 -14.37,-23.04 -89.65,-136 -93.96,-151.66 43.19,-18.69 165.46,44.17 205.95,62.05 65.89,29.11 128.78,54.51 193.17,84.23 128.61,59.34 256.03,111.23 386.03,168.61 174.73,77.11 355.12,149.58 528.25,232.06 17.38,8.29 31.95,15.87 48.03,24.12 60.77,31.13 121.61,62.79 194.28,82.91 200.4,55.48 195.02,128.05 280.26,202.5 14.03,12.25 23.39,22.06 34.13,37.97 68.19,101.07 -14.68,114.16 148.13,268.16 27.08,25.61 54.09,40.11 76.29,62.26 56.64,56.5 51.12,121.5 37.54,217.53z"/>
   <path class="fil2" d="M3452.19 15491.73l837.92 0c182.52,0 319.16,43.27 410.21,130.16 90.71,86.91 136.26,210.64 136.26,371.14 0,164.7 -49.72,293.74 -148.76,386.32 -99.07,92.99 -250.47,139.28 -453.89,139.28l-276.25 0 0 603.39 -505.49 0 0 -1630.29zm505.49 696.73l124.08 0c97.92,0 166.61,-17.05 206.06,-50.84 39.48,-33.78 59.21,-77.05 59.21,-129.8 0,-51.22 -17.09,-94.48 -51.61,-130.15 -34.16,-35.66 -98.68,-53.51 -193.55,-53.51l-144.19 0 0 364.3zm1950.56 664.89l-570.74 0 -81.99 268.67 -514.18 0 613.63 -1630.29 551.4 0 610.97 1630.29 -527.48 0 -81.61 -268.67zm-106.64 -352.95l-177.97 -585.92 -178.73 585.92 356.7 0zm881.57 621.62l0 -1630.29 839.45 0c155.57,0 274.75,13.27 356.7,40.22 82.37,26.56 148.76,76.29 199.25,148.38 50.46,72.5 75.53,160.91 75.53,264.88 0,90.32 -19.37,168.49 -58.06,234.16 -38.34,66.04 -91.47,119.17 -159.39,160.15 -42.89,25.8 -102.09,47.43 -176.86,64.52 59.97,20.1 103.59,39.83 130.92,59.94 18.23,13.29 45.18,42.12 80.46,85.77 34.9,43.64 58.44,77.4 70.21,101.32l244.78 470.95 -569.25 0 -269.05 -497.13c-34.17,-64.52 -64.52,-106.26 -91.09,-125.6 -36.42,-25.07 -77.78,-37.57 -123.72,-37.57l-44.38 0 0 660.3 -505.5 0zm505.5 -967.69l212.9 0c22.75,0 67.54,-7.61 133.55,-22.4 33.41,-6.46 60.74,-23.54 81.61,-51.22 21.25,-27.71 31.87,-59.21 31.87,-94.87 0,-52.75 -16.7,-93.37 -50.1,-121.44 -33.38,-28.47 -95.99,-42.5 -188.22,-42.5l-221.61 0 0 332.43zm1263.34 -662.6l470.18 0 611.34 900.15 0 -900.15 475.91 0 0 1630.29 -475.91 0 -607.94 -895.22 0 895.22 -473.58 0 0 -1630.29zm2872.72 1361.62l-570.75 0 -81.98 268.67 -514.18 0 613.63 -1630.29 551.4 0 610.96 1630.29 -527.48 0 -81.6 -268.67zm-106.64 -352.95l-177.97 -585.92 -178.73 585.92 356.7 0zm881.57 -1008.67l748.74 0c147.24,0 266.8,20.11 357.47,59.97 90.7,40.22 165.85,97.51 225.43,172.28 59.21,75.14 102.09,162.03 128.66,261.48 26.92,99.42 40.21,204.53 40.21,315.72 0,174.18 -19.72,309.3 -59.58,405.28 -39.45,96.02 -94.49,176.48 -165.09,241.38 -70.56,64.9 -146.09,108.13 -226.93,129.77 -110.42,29.62 -210.61,44.41 -300.17,44.41l-748.74 0 0 -1630.29zm503.2 368.86l0 890.29 123.73 0c105.49,0 180.64,-11.78 225.4,-34.91 44.41,-23.54 79.32,-64.13 104.77,-122.19 25.42,-58.45 37.92,-152.55 37.92,-283.12 0,-172.65 -28.06,-290.68 -84.63,-354.44 -56.53,-63.75 -150.26,-95.63 -281.2,-95.63l-125.99 0zm1267.89 1261.43l0 -1630.29 839.45 0c155.57,0 274.75,13.27 356.7,40.22 82.37,26.56 148.77,76.29 199.25,148.38 50.46,72.5 75.53,160.91 75.53,264.88 0,90.32 -19.37,168.49 -58.06,234.16 -38.34,66.04 -91.47,119.17 -159.39,160.15 -42.89,25.8 -102.09,47.43 -176.85,64.52 59.96,20.1 103.58,39.83 130.91,59.94 18.23,13.29 45.18,42.12 80.46,85.77 34.9,43.64 58.44,77.4 70.21,101.32l244.78 470.95 -569.25 0 -269.05 -497.13c-34.17,-64.52 -64.52,-106.26 -91.09,-125.6 -36.42,-25.07 -77.78,-37.57 -123.72,-37.57l-44.38 0 0 660.3 -505.5 0zm505.5 -967.69l212.9 0c22.75,0 67.54,-7.61 133.55,-22.4 33.41,-6.46 60.74,-23.54 81.61,-51.22 21.25,-27.71 31.87,-59.21 31.87,-94.87 0,-52.75 -16.7,-93.37 -50.1,-121.44 -33.38,-28.47 -95.99,-42.5 -188.21,-42.5l-221.62 0 0 332.43zm1155.93 153.69c0,-266.03 74,-473.23 222.38,-621.23 148.38,-148.38 354.83,-222.38 619.71,-222.38 271.31,0 480.43,72.85 627.28,218.21 146.86,145.71 220.12,349.89 220.12,612.1 0,190.51 -31.87,346.49 -96.01,468.31 -64.14,121.81 -157.13,216.68 -278.18,284.61 -121.44,67.92 -272.46,101.71 -453.48,101.71 -183.67,0 -335.86,-29.24 -456.54,-87.68 -120.29,-58.8 -218.21,-151.41 -292.97,-278.15 -74.74,-126.37 -112.31,-285 -112.31,-475.5zm503.21 1.15c0,164.29 30.73,282.7 91.81,354.44 61.5,71.71 144.98,107.75 250.48,107.75 108.16,0 192.41,-35.28 251.58,-105.49 59.59,-70.6 89.21,-196.58 89.21,-379.1 0,-153.31 -31.14,-265.27 -92.99,-335.86 -62.23,-70.95 -146.09,-106.26 -252.35,-106.26 -101.71,0 -183.67,36.04 -245.16,107.78 -61.85,71.71 -92.58,190.89 -92.58,356.74zm1461.79 -817.44l470.19 0 611.34 900.15 0 -900.15 475.9 0 0 1630.29 -475.9 0 -607.94 -895.22 0 895.22 -473.59 0 0 -1630.29zm1892.15 0l1347.94 0 0 348.37 -842.47 0 0 259.57 781 0 0 332.43 -781 0 0 321.06 867.51 0 0 368.86 -1372.98 0 0 -1630.29z"/>
   <polygon class="fil1" points="3452.25,17608.73 20762.54,17608.73 20762.54,17981.51 3452.25,17981.51 "/>
   <path class="fil2" d="M4282.89 19588.96c-35.61,0 -53.39,-18.08 -53.39,-53.95l0 -968.57c0,-35.87 17.78,-53.66 53.39,-53.66 35.6,0 53.39,17.79 53.39,53.66l0 968.57c0,35.87 -17.79,53.95 -53.39,53.95zm1506.65 -1076.18c35.6,0 53.39,17.79 53.39,53.66l0 968.57c0,35.87 -17.79,53.95 -53.39,53.95 -35.58,0 -53.4,-18.08 -53.4,-53.95l0 -791.42 -219.68 328.14c-14.73,21.69 -31.14,32.52 -49.78,32.52 -18.9,0 -35.87,-10.83 -50.6,-32.52l-218.83 -328.14 0 791.42c0,35.87 -17.82,53.95 -53.4,53.95 -35.6,0 -53.39,-18.08 -53.39,-53.95l0 -968.57c0,-35.87 17.79,-53.66 53.39,-53.66 19.17,0 34.76,8.9 46.7,26.98l276.13 413.23 277.83 -416.58c10.27,-15.85 25.3,-23.63 45.03,-23.63zm860.11 226.64l-157.95 474.14 315.93 0 -157.98 -474.14zm376.25 795.59c0,35.87 -17.79,53.95 -53.66,53.95 -26.15,0 -43.09,-12.24 -51.16,-36.72l-77.58 -231.92 -387.67 0 -77.58 231.92c-8.07,24.48 -25.01,36.72 -51.16,36.72 -35.87,0 -53.95,-18.08 -53.95,-53.95 0,-6.4 0.85,-11.94 2.49,-16.96l320.36 -962.18c9.75,-28.62 27.54,-43.09 53.66,-43.09 26.15,0 43.68,13.91 52.84,41.71l321.21 963.56c1.64,5.02 2.2,10.56 2.2,16.96zm752.8 -52.83l270.02 0 0 -430.47 -107.64 0c-35.87,0 -53.66,-17.79 -53.66,-53.39 0,-35.61 17.79,-53.4 53.66,-53.4l161 0c35.61,0 53.4,17.79 53.4,53.66l0 536.73c0,35.87 -17.79,53.65 -53.66,53.65l-322.86 0c-74.53,0 -137.93,-26.15 -190.47,-78.43 -52.57,-52.54 -78.7,-115.94 -78.7,-190.21l0 -537.25c0,-74.24 26.13,-137.64 78.7,-190.21 52.54,-52.28 115.94,-78.41 190.47,-78.41l322.86 0c35.87,0 53.66,17.79 53.66,53.4 0,35.57 -18.05,53.39 -53.92,53.39l-323.42 0c-45.06,0 -83.42,15.85 -114.59,47.26 -31.41,31.44 -47,69.54 -47,114.01l0 538.11c0,45.32 15.59,83.42 47,114.56 31.43,31.44 69.8,47 115.15,47zm969.1 53.13l0 -967.2c0,-35.87 17.82,-53.66 53.39,-53.66l429.94 0c35.58,0 53.66,17.79 53.66,53.4 0,35.57 -18.08,53.39 -53.66,53.39l-376.54 0 0 323.68 268.9 0c35.87,0 53.69,17.79 53.69,53.4 0,35.6 -17.82,53.39 -53.69,53.39l-268.9 0 0 430.47 376.54 0c35.58,0 53.66,17.78 53.66,53.39 0,35.61 -18.08,53.39 -53.66,53.39l-429.94 0c-35.57,0 -53.39,-17.78 -53.39,-53.65zm1666.86 -208.03l0 -760.84c0,-35.87 17.79,-53.66 53.36,-53.66 35.61,0 53.4,17.79 53.4,53.66l0 968.57c0,35.87 -17.79,53.95 -53.4,53.95 -21.39,0 -36.98,-8.89 -46.7,-26.97l-438.83 -788.37 0 761.39c0,35.87 -17.79,53.95 -53.36,53.95 -35.61,0 -53.4,-18.08 -53.4,-53.95l0 -968.57c0,-35.87 17.79,-53.66 53.66,-53.66 21.4,0 37.81,10.57 49.78,31.7l435.49 782.8zm1289.73 -7.22c0,73.97 -26.42,137.08 -78.96,189.91 -52.84,52.58 -116.24,78.99 -189.95,78.99 -132.65,0 -250.53,-38.92 -353.15,-116.5 -15.85,-11.98 -23.63,-26.71 -23.63,-43.94 0,-14.74 5.28,-27.27 15.85,-38.1 10.57,-10.57 23.34,-15.85 38.07,-15.85 8.63,0 18.94,3.31 30.88,9.71 31.7,19.2 81.19,44.24 148.77,75.09 43.94,15.29 92.05,22.81 143.77,22.81 44.5,0 82.6,-15.85 114.3,-47.26 31.44,-31.44 47.29,-69.54 47.29,-114.04 0,-65.61 -30.06,-113.72 -89.82,-144.04l-302.84 -154.9c-97.63,-50.04 -146.27,-129.59 -146.27,-238.58 0,-73.97 26.42,-137.11 79.26,-189.95 52.83,-52.54 116.23,-78.96 190.21,-78.96 127.33,0 224.4,19.47 291.42,58.12 21.13,12.51 31.7,28.65 31.7,48.67 0,14.74 -5.29,27.24 -15.85,37.81 -10.57,10.57 -23.08,15.85 -37.81,15.85 -5.58,0 -13.09,-1.94 -22.81,-5.55 -83.16,-31.99 -165.46,-48.11 -247.21,-48.11 -44.8,0 -82.9,15.85 -114.6,47.26 -31.7,31.44 -47.55,69.54 -47.55,114.01 0,65.63 29.5,113.48 88.18,143.51l303.1 154.6c98.45,50.61 147.65,130.42 147.65,239.44zm2043.08 -580.64l-157.95 474.14 315.93 0 -157.98 -474.14zm376.25 795.59c0,35.87 -17.79,53.95 -53.66,53.95 -26.15,0 -43.09,-12.24 -51.16,-36.72l-77.58 -231.92 -387.67 0 -77.58 231.92c-8.07,24.48 -25.01,36.72 -51.17,36.72 -35.86,0 -53.95,-18.08 -53.95,-53.95 0,-6.4 0.85,-11.94 2.5,-16.96l320.36 -962.18c9.75,-28.62 27.53,-43.09 53.66,-43.09 26.15,0 43.68,13.91 52.83,41.71l321.22 963.56c1.64,5.02 2.2,10.56 2.2,16.96zm538.93 0.3l0 -967.2c0,-35.87 17.82,-53.66 53.39,-53.66l429.94 0c35.58,0 53.66,17.79 53.66,53.4 0,35.57 -18.08,53.39 -53.66,53.39l-376.54 0 0 323.68 268.9 0c35.87,0 53.69,17.79 53.69,53.4 0,35.6 -17.82,53.39 -53.69,53.39l-268.9 0 0 430.47 376.54 0c35.58,0 53.66,17.78 53.66,53.39 0,35.61 -18.08,53.39 -53.66,53.39l-429.94 0c-35.57,0 -53.39,-17.78 -53.39,-53.65zm160.47 -1182.97c-35.87,0 -53.68,-18.09 -53.68,-53.96 0,-18.37 6.95,-32.81 21.13,-43.12l215.25 -161.26c9.16,-6.7 20.02,-10.01 32.52,-10.01 35.87,0 53.69,17.79 53.69,53.1 0,18.64 -6.96,32.81 -21.14,43.38l-214.95 161.3c-9.48,6.93 -20.31,10.57 -32.82,10.57zm1419.06 783.91l187.42 374.57c4.46,8.63 6.67,16.68 6.67,24.49 0,14.17 -5.29,26.41 -16.12,37.24 -10.86,10.87 -23.07,16.41 -37.28,16.41 -21.95,0 -38.07,-10.01 -48.37,-30.03l-201.34 -401.28c-4.99,0.55 -11.39,0.85 -19.75,0.85l-216.07 0 0 376.51c0,35.87 -17.79,53.95 -53.37,53.95 -35.6,0 -53.39,-17.78 -53.39,-53.65l0 -967.2c0,-35.87 18.05,-53.66 53.92,-53.66l268.91 0c89.82,0 166.02,31.41 228.6,93.99 62.85,62.85 94.26,138.76 94.26,228.31 0,148.21 -64.79,248.04 -194.09,299.5zm-344.84 -515.01l0 430.47 216.07 0c60.64,0 111.81,-20.87 153.52,-62.29 41.71,-41.71 62.58,-92.61 62.58,-152.96 0,-60.35 -20.87,-111.22 -62.58,-152.93 -41.71,-41.45 -92.88,-62.29 -153.52,-62.29l-216.07 0zm1131.25 914.07l0 -967.2c0,-35.87 17.81,-53.66 53.39,-53.66l429.94 0c35.58,0 53.66,17.79 53.66,53.4 0,35.57 -18.08,53.39 -53.66,53.39l-376.55 0 0 323.68 268.91 0c35.87,0 53.69,17.79 53.69,53.4 0,35.6 -17.82,53.39 -53.69,53.39l-268.91 0 0 430.47 376.55 0c35.58,0 53.66,17.78 53.66,53.39 0,35.61 -18.08,53.39 -53.66,53.39l-429.94 0c-35.58,0 -53.39,-17.78 -53.39,-53.65zm1450.76 -795.89l-157.95 474.14 315.93 0 -157.98 -474.14zm376.25 795.59c0,35.87 -17.79,53.95 -53.66,53.95 -26.15,0 -43.09,-12.24 -51.16,-36.72l-77.58 -231.92 -387.67 0 -77.58 231.92c-8.08,24.48 -25.01,36.72 -51.17,36.72 -35.87,0 -53.95,-18.08 -53.95,-53.95 0,-6.4 0.85,-11.94 2.5,-16.96l320.36 -962.18c9.75,-28.62 27.53,-43.09 53.66,-43.09 26.15,0 43.68,13.91 52.83,41.71l321.22 963.56c1.64,5.02 2.2,10.56 2.2,16.96zm1129.58 -214.95c0,73.97 -26.42,137.08 -78.97,189.91 -52.83,52.58 -116.23,78.99 -189.94,78.99 -132.65,0 -250.53,-38.92 -353.15,-116.5 -15.85,-11.98 -23.63,-26.71 -23.63,-43.94 0,-14.74 5.28,-27.27 15.85,-38.1 10.57,-10.57 23.34,-15.85 38.07,-15.85 8.63,0 18.93,3.31 30.88,9.71 31.7,19.2 81.19,44.24 148.76,75.09 43.95,15.29 92.06,22.81 143.78,22.81 44.5,0 82.6,-15.85 114.3,-47.26 31.44,-31.44 47.29,-69.54 47.29,-114.04 0,-65.61 -30.06,-113.72 -89.82,-144.04l-302.84 -154.9c-97.63,-50.04 -146.27,-129.59 -146.27,-238.58 0,-73.97 26.42,-137.11 79.25,-189.95 52.84,-52.54 116.24,-78.96 190.21,-78.96 127.34,0 224.41,19.47 291.42,58.12 21.14,12.51 31.7,28.65 31.7,48.67 0,14.74 -5.28,27.24 -15.85,37.81 -10.56,10.57 -23.07,15.85 -37.8,15.85 -5.58,0 -13.09,-1.94 -22.81,-5.55 -83.16,-31.99 -165.47,-48.11 -247.21,-48.11 -44.8,0 -82.9,15.85 -114.6,47.26 -31.7,31.44 -47.55,69.54 -47.55,114.01 0,65.63 29.5,113.48 88.17,143.51l303.11 154.6c98.45,50.61 147.65,130.42 147.65,239.44z"/>
  </g>
 </g>
</svg>
