<?xml version="1.0" encoding="UTF-8"?>
<!DOCTYPE svg PUBLIC "-//W3C//DTD SVG 1.1//EN" "http://www.w3.org/Graphics/SVG/1.1/DTD/svg11.dtd">
<!-- Creator: CorelDRAW 2020 (64 Bit) -->
<svg xmlns="http://www.w3.org/2000/svg" xml:space="preserve" width="242.147mm" height="242.147mm" version="1.1" style="shape-rendering:geometricPrecision; text-rendering:geometricPrecision; image-rendering:optimizeQuality; fill-rule:evenodd; clip-rule:evenodd"
viewBox="0 0 24214.7 24214.7"
 xmlns:xlink="http://www.w3.org/1999/xlink"
 xmlns:xodm="http://www.corel.com/coreldraw/odm/2003">
 <defs>
  <style type="text/css">
   <![CDATA[
    .str0 {stroke:#373435;stroke-width:20;stroke-miterlimit:22.9256}
    .fil0 {fill:#FEFEFE}
    .fil6 {fill:#FFF212}
    .fil8 {fill:#F58634}
    .fil5 {fill:#0F69B2}
    .fil1 {fill:#020101}
    .fil7 {fill:#0672CE}
    .fil3 {fill:#0672CE}
    .fil4 {fill:#86C5FA}
    .fil2 {fill:#B3DCFE}
   ]]>
  </style>
 </defs>
 <g id="Camada_x0020_1">
  <metadata id="CorelCorpID_0Corel-Layer"/>
  <g id="_2354942236592">
   <rect class="fil0 str0" x="0.01" y="0.01" width="24214.68" height="24214.68"/>
   <g>
    <path class="fil1" d="M2836.71 9454.77l13.9 263.05c2.57,43.22 4.34,86.48 20.95,119.82 82.31,165.2 209.35,351.91 384.09,421.74 29.1,11.64 99.85,58.84 172.39,73.57 13.5,2.75 22.12,2.95 35.3,6.13l43.36 22.26c0.56,3.88 3.37,5.34 4.11,6.99 39.53,89.63 32.91,223.72 45.8,285.57l68.83 283.63c4.91,82.01 14.72,87.31 28.61,152.79 5.56,26.15 7.09,50.12 12.53,70.11 8.32,30.55 15.53,34.66 24.06,67.87 22.55,87.81 32.09,212.6 67.13,298.53l81.5 270.69c21.04,113.23 42.58,176.93 87.56,276.81 24.09,53.47 45.69,162.41 94.86,257.65 70.65,136.84 89.97,232.94 198.32,421.77l150.5 307.16c39.55,77.57 87.51,140.33 132.31,219.07 11.61,20.41 19.9,29.76 31.24,51.19 48.74,92.14 262.95,414.89 321.12,484.94l239.21 299.05c212.04,266.68 440.33,508.1 686.25,742.12 168.2,160.08 698.84,590.7 897.4,706.57 185.31,108.14 326.11,221.57 558.81,341.95 82.41,42.63 389.69,208.33 474.07,239.43 70.58,26.02 166.43,74.66 240.56,110.82 60.95,29.72 578.6,217.81 654.62,233.94 74.98,15.9 99.24,0.4 128.83,58.97l-1303.79 2120.57c-34.15,50.22 -66.57,96.11 -95.05,142.77l-565.85 1.38c-25.4,5.33 13.77,10.18 -89.09,31.66 -58.24,12.18 -191.54,87.08 -243.24,135.45 -275.18,257.44 -207.52,417.97 -207.52,818.94 0,147.27 13.8,382.39 -2.5,518.53 21,26.25 27.38,58.33 38.29,97.71 68.3,246.55 292.01,386.52 551.04,417.42 142.24,16.96 386.55,3.35 543.13,3.35l1646.09 -0.01c357.8,0.07 743.4,13.78 1097.77,-0.71 55.02,-2.25 65.65,-14.52 104.4,-29.47l41.19 -22.16c212.92,-164.46 115.22,-487.14 -207.5,-488.43l-3013.23 -0.76c-322.06,-0.1 -257.13,80.02 -257.13,-567.94 0,-88.07 -3.47,-182.55 -0.54,-269.73 3.49,-103.5 101.04,-72.78 205.9,-72.73l7133.05 -0.99c176.04,0 387.29,-10.6 559.02,2.3 47.47,61.37 32.78,126.86 32.79,227.27l0.16 538.36c0.75,118.86 -4.61,145.93 -126.05,144.91l-2132.72 -0.58c-351.44,0 -736.16,-14.89 -1083.43,1.07 -366.74,91.07 -222.03,340.06 -211.75,435.23 19.7,-5.25 14.99,-7.66 8.71,12.07 19.77,-6.1 15.15,-8.47 9.19,11.58 20,-5.78 16.57,-9.27 10.23,10.56 46.94,4.59 23.69,12.26 70.39,32.99 17.16,7.62 73.53,30.08 80.71,31.69 44.87,10.04 598.47,4.28 670.79,4.28l1791.03 -0.01c287.35,-0.01 619.18,15.31 901.16,-2.23 87.47,-5.44 239.44,-72.41 312.18,-130.6 93.39,-74.71 130.59,-134.55 190.88,-254.09 54.78,-108.62 30.69,-706.46 30.71,-876.64 0.03,-173.4 13.24,-263.75 -56.31,-394.32 -118.5,-222.46 -306.35,-332.04 -571.11,-332.3 -138.32,-0.13 -322.91,10.55 -455.52,-2.71 -44.07,-22.44 -450.62,-735.63 -535.27,-857.33l-176.89 -288.22c-116.48,-194.09 -235.19,-388.48 -354.44,-577.37l-355.22 -581.11c25.1,-63.96 167.34,-69.28 242.94,-100.43 38.89,-16.02 54.76,-16.46 93.51,-29.37 193.02,-64.3 509.61,-185.34 689.53,-274.73l244.65 -118.7c27.82,-17 53.03,-27.25 82.98,-39.67 44.53,-18.47 109.85,-61.03 154.42,-83.9 46.97,-24.1 111.98,-57.33 154,-85.4 99.55,-66.52 205.87,-119.09 301.02,-185.5 94.19,-65.72 191.69,-123.3 282.46,-194.31 90.45,-70.76 192.82,-135.33 278.32,-208.87 198.87,-171.04 311.5,-254.63 512.64,-449.85 430.49,-417.79 867.98,-944.23 1175.22,-1465.84l101.57 -146.04c-1.7,-21.36 -11.49,-6.21 3.23,-28.01 13.27,-19.64 -2.34,-4.7 19.01,-11.87 -8.74,-28.83 20.22,-56.97 32.67,-81.57 8.33,-16.44 6.68,-19.31 16.55,-35.62 2.17,-3.59 10.51,-15.11 12.85,-17.28 15.93,-14.78 0.78,-2.62 19.7,-11.6 -6.93,-39.09 -6.03,-17.56 9.85,-21.13 -6.18,-37.72 -6.08,-16.89 11.03,-20.01 -1.89,-20.64 -7.91,-13.32 3.49,-38.91 11.92,-26.75 23.49,-21.21 27.31,-23.44 2.48,-39.51 101,-232.74 122.78,-282.58 24.16,-55.28 37.31,-88.13 61.37,-136.01l172.77 -438.54c38.04,-97.21 67.22,-211.6 102.98,-311.16l48.01 -147.51c17.4,-40.81 31.41,-116.36 44.14,-164.97 6.64,-25.35 10.4,-52.03 16.21,-75.77 8.99,-36.71 16.34,-38.52 25.21,-78.08 5.8,-25.86 6.24,-60.61 14.74,-89.34 10.9,-36.87 17.69,-32.51 25.41,-76.84 4.42,-25.34 4.83,-57.38 9.17,-86.44 5.59,-37.35 17.02,-39.58 24.73,-75.91l26.86 -182.33c13.67,-68.08 12.36,-121.99 14.69,-198.09 1.34,-43.65 9.1,-44.55 22.65,-72.57 60.7,-125.51 -103.66,-98.32 365.77,-119.57 10.01,-10.61 -0.69,-3.41 16.68,-14.44 2.04,-1.3 16.45,-9.28 19.64,-10.64 31.3,-13.28 35.7,-9.1 68.22,-5.57 18.49,-24.01 50.74,-32.16 86.72,-45.79 262.65,-99.49 522.04,-336.48 639.75,-584.79 23.46,-49.48 69.74,-150.36 79.76,-202.35 14,-72.61 4.35,-46.03 27.73,-105 33.96,-85.67 17.54,-1540.19 17.76,-1768.44 0.16,-175.44 -31.63,-306.2 -255.85,-307.96 -310.04,-2.43 -253.9,333.78 -253.9,577.13l-1.15 1097.39c-0.02,324.9 -1.15,157.71 -40.68,360.55 -7.46,38.32 -26.73,69.74 -41.21,101.85 -74.46,165.09 -262.01,313.89 -444.07,368.56 -106.62,32.02 -108.52,31.83 -243.85,31.56 -182.9,-0.37 -365.8,-0.17 -548.7,-0.17 -107.22,0 -463.09,17.6 -521.85,-18.38l-0.56 -512.69 25.53 -23.66c26.82,-11.02 796.03,10.48 921.84,-2.72 387.48,-40.65 325.84,-370.3 325.84,-615.49l0 -3716.64c0,-187.75 -11.08,-152.68 16.77,-321.51 6.59,-40 5.01,-78.88 14.1,-111.28 26.64,-94.89 111.11,-231.29 170.28,-292.36 66.82,-68.97 190.42,-162.75 272.7,-187.9 126.38,-38.61 231.21,-39.39 370.49,-36.82 75.02,1.39 58.68,25.09 58.81,132.01l-1.34 410.2 -114.82 37.24c-118.34,40.78 -212.9,129.67 -217.5,277.1 -11.72,375.25 -0.52,910.3 -0.63,1304.6 -0.03,130.8 -16.12,190.37 46.61,279.13 48.93,69.23 115.5,109.81 234.64,104.88 -4.08,14.71 -3.95,20.96 -5.66,26.1 -1.65,4.94 -5,8.87 -15.47,18.33 2.28,-7.31 7.68,-13.17 15.47,-18.33 60.59,-40.19 265.51,-38.13 264.66,-347.99 -0.52,-191.06 -7.95,-1036.24 3.24,-1127.77 195.79,-16.62 459.68,-2.06 662.92,-2.06 165.54,0 685.56,23.97 814.77,-23.52 122.87,-45.17 133.09,-4.98 337.36,-169.52 100.67,-81.11 250.81,-270.91 260.59,-412.57 6.87,-5.81 17.28,-6.33 26.31,-9.79l0 -281.82 -22.3 0.08c-5.36,-87.98 -19.82,-168.06 -56.84,-252.07 -124.58,-282.75 -434.05,-475.08 -749.08,-479.55 -231.06,-3.27 -1740.22,-13.61 -1818.26,7.14 -40.35,10.73 -27.13,17.02 -57.02,22.25 -24.47,4.3 -42.13,1.13 -68.24,7.28 -73.47,17.31 -274.89,93.14 -327.82,129.15l-89.76 65.25c-23.41,19.62 -18.84,9.35 -45.35,26.83 -170.05,112.15 -362.58,359.7 -422.24,566.19 -21.14,73.17 -64.19,153.05 -71.83,225.83 -18.52,176.39 -4.58,427.3 -4.58,611.27l-0.01 3488.88c0.08,88.25 21.2,134 -44.39,140.07 -113.07,10.47 -636.47,1.24 -741.48,-1.03 -39.78,-70.94 -78.04,-412.73 -90.77,-455.8 -12.8,-43.23 -27.78,-87.77 -38.26,-133.52 -10.99,-48.06 -19.55,-113.39 -32.06,-157.6 -6.88,-24.29 -17.35,-41.84 -23.23,-67.52l-122.2 -408.13 -291 -694.3 -470.51 -792.53c-152.68,-201.34 -298.83,-407.64 -474.65,-591.91 -31.16,-32.65 -51.31,-61.21 -82.34,-93.86 -138.42,-145.64 -303.05,-313.01 -457.18,-443.45 -228.65,-193.51 -461.3,-373.06 -715.85,-537.93 -158.16,-102.45 -404.34,-252.59 -574.39,-327.69l-621.7 -268.1c-43.75,-19.1 -90.11,-32.61 -135.92,-50.16 -27.08,-10.38 -49.78,-8.24 -73.85,-19.58 -65.55,-30.87 -100.6,-26.87 -131.93,-43.38 -45.61,-24.04 -157.98,-45.64 -215.19,-57.33 -47.75,-9.78 -28.35,-12.39 -64.81,-25.31 -24.7,-8.75 -42.3,-6.13 -69.68,-13.98 -71.89,-20.59 -179.93,-34.92 -215.53,-51.53 -66.38,-30.96 -164.81,-8.42 -237.49,-34.57 -47.15,-16.97 -220.94,-31.58 -305.12,-47.53 -58.22,-11.03 -106.8,-10.12 -172.97,-13.02 -46.6,-2.04 -42.01,-10.27 -73.52,-16.86 -121.65,-25.45 -657.11,-22.7 -784.88,-10.11 -126.64,12.48 -167.77,29.53 -321.26,35.45 -69.54,2.68 -310.25,31.05 -368.52,50.02l-104.69 18.34c-87.07,13.02 -80.41,21.56 -139.29,35.31 -24.71,5.77 -50.57,5.3 -79.52,14.5 -67.35,21.41 -141.53,48.28 -209.37,56.49 -88.54,10.72 -257.64,66.7 -345.33,102.89 -105.87,43.69 -223.29,66.09 -330.61,115.18l-255.43 106.67c-45.12,21.6 -73.77,36.89 -116.23,59.57 -44.78,23.93 -87,37.02 -128.05,58.86l-292.45 160.89c-97.04,44.65 -180.79,108.43 -273.06,163.29 -150.15,89.29 -286.65,189.74 -423.04,292.54 -65.65,49.47 -144.43,108.45 -201.18,162.47l-554.55 521.97c-283.58,284.6 -565.24,671.42 -773.69,1018.73 -126.5,210.76 -249.28,421.7 -344.06,650.75l-131.23 314.42c-51.34,127.93 -109.47,262.35 -140.09,398.78 -8.78,39.1 -13.44,41.57 -22.35,70.86 -7.52,24.71 -8.04,44.96 -15.13,69.06 -12.18,41.3 -17.16,15.74 -27.36,65.66 -5.66,27.71 -4.84,41.92 -13.34,66.94 -30.47,89.66 -17.37,96.88 -31.43,147.01 -19.24,68.6 -15.3,-1.74 -37.05,148.13 -6.43,44.24 -23.03,91.36 -31.29,144.42 -8.49,54.6 -25.86,96.52 -30.35,146.66 -3.71,41.42 2.19,123.34 -23.76,148.48 -39.47,38.23 -942.33,-3.24 -1078.24,15.93 -131.23,18.51 -229.18,62.53 -340.37,126.61 -132.54,76.37 -219.6,204.72 -290.46,334.47 -25.4,46.51 -37.58,74.98 -46.29,108.07l-17.97 92.48c-1.61,9.46 -3.34,19.61 -5.26,30.57 -0.06,-0.85 -0.12,-1.7 -0.18,-2.55l-4.56 23.47zm9664.34 7761.98c19.99,-7.2 15.41,-9.43 9.41,11.04 19.05,-6.39 14.05,-8.35 9.37,11.62 17.19,2.76 10.55,-16.52 14.9,16.4 16.66,10.67 4.29,-3.13 6.67,24.06 21.07,8.72 23.5,-13.2 20.32,31.56 15.96,8.81 6.2,-14.41 17.82,11.53 6.49,14.5 4.23,8.77 3.89,28.78 30.82,12.74 32.36,28.01 57.08,65.59 20.94,31.83 37.19,50.85 48.76,94.38l197.39 323.14c31.76,43.33 197.36,295.77 195.34,335.12 24.42,0 19.34,-5.11 10.44,18.51 19.35,1.72 20.04,-19.86 10.66,20.48 18.74,-8.07 15.66,-13.48 15.66,5.19 64.91,76.72 136.33,216.12 195.83,310.24l166.65 268.57c30.29,64.67 -30.56,49.92 -147.35,49.65l-5000.38 -0.98c-91.16,-0.01 -263.03,9.9 -344.29,-2.24 -24.23,-36.41 27.33,-87.51 51.76,-130.21l248.33 -403.2c220.15,-348.2 447.32,-745.62 667.55,-1092.56l333.75 -544.26c109.08,1.32 502.16,75.05 688.5,89.4 29.01,2.23 64.08,0.09 92.04,4.27 29.58,4.42 34.02,12.67 73.54,15.44l590.66 6.7c427.09,-0.1 510.08,2.25 916.23,-43.24l338.85 -54.29c43.17,-14.9 119.63,-19.58 173.85,-22.72 47.47,42.41 134.14,198.07 177.43,264.51 27.91,42.84 61.12,90.52 83.83,132.17 17.38,31.87 77.68,123.83 75.51,155.35zm-3657.98 -3663c12.34,7.34 17.42,-20.76 8.43,22.34 24.96,-4.91 14.31,10 11.52,29.92 24.04,-3.13 11.84,27.56 9.59,40.88 6.55,10.82 6.69,-12.59 12.71,33.71 1.47,11.31 0.45,39.46 0.51,52.39 0.17,44.01 6.71,64.77 -13.38,97.67l5.37 8.3c-13.95,213.65 -202.61,363.1 -407.59,424.48 -112.83,33.79 -244.89,7.48 -336.31,-41 -201.23,-106.73 -311.53,-277.04 -304.01,-520.58 6.43,-207.95 181.36,-400.9 363.26,-460.33 57.14,-18.66 223.64,-26.52 290.25,-10.22 13.76,3.37 23.06,6.68 37.25,11.64 6.78,2.37 16.18,4.78 22.82,8.57 18.06,10.3 9.75,7.02 18.78,16.09 38.57,-9.47 15.54,-4.66 22.54,8.14 41.15,-6.86 13.66,-3.14 21.15,9.75 39.36,-4.35 12.54,-2.89 19.08,11.79 36.16,4.86 59.33,27.97 83.83,50.11 26.98,24.39 53.77,43.15 63.71,80.8 17.76,-3.37 13.53,-6.18 8.84,11.82 2.22,1.29 5.87,0.5 6.76,3.72 0.88,3.16 5.34,3.09 6.47,3.94 0.14,0.11 15.54,13.08 16.38,13.91l-4.95 15.52c12.96,10.41 13.99,6.94 25.79,27.89 11.54,20.49 11.2,24.55 11.2,48.75zm2188.67 1587.82c-12.84,12.54 18.51,14.51 -79,15.18 -27.6,0.2 -55.17,0.87 -82.8,1.02 -55.21,0.29 -110.44,0.1 -165.65,0.14 -85.67,0.05 -417.59,1.52 -495.49,-16.25 -60.93,-13.9 -87.98,-11.48 -154.76,-20.59 -110.96,-15.16 -190.52,-25.29 -299.85,-41.72 -49.65,-7.46 -79.5,-21.33 -132.96,-32.12 -94.11,-19.01 -181.32,-23.09 -282.67,-60.56 -50.4,-18.64 -102.49,-13.17 -143.99,-33.38 -35.09,-17.08 -85.24,-31.78 -119.92,-43.68 -92.62,-31.73 -325.01,-83.9 -382.42,-145.44 193.59,-72.04 269.87,-109.62 426.41,-266.73 52.75,-52.94 177.32,-208.88 208.36,-277.2 2.82,-6.22 4.24,-9.18 4.91,-10.48 1.09,-2.13 0.14,0.22 0,0 -0.13,-0.19 0.41,-2.46 3.66,-11.91l41.1 -104.4c10.09,-16.8 5.66,-9.17 16.35,-20.6 0.33,-45.99 14.99,-23.09 27.43,-108.24 14.57,-99.76 30.06,-171.52 25.63,-263.26 -3.7,-76.49 -13.84,16.82 -20.76,-123.9 -4.09,-83.22 -28.53,-157.16 -55.77,-232.09 -13.23,-36.4 -27.36,-63.26 -45.4,-98.31 -29.41,-57.17 -44.99,-47.66 -47.5,-123.7 83.23,0.05 193.99,-8.08 263.02,11.24 71.78,20.1 156.37,22.38 243.23,23.43 186.15,2.23 128.96,25.19 227.23,28.95 302.04,11.56 1097.4,22.8 1306.7,-13.16 185.66,-31.89 367.54,-5.56 610.46,-44.09 43.23,-6.86 89.33,-4.72 133.49,-5.3 74.82,-0.98 140.32,-36.04 227.26,-39.16 167.14,-6 128.76,-30.06 217.37,-38.7 101.13,-9.86 27.49,11.6 109.86,-22.62 29.49,-12.25 84.41,-11.35 118.16,-17.56l217.32 -51.31c85.11,-26.82 325.34,-56.44 432.02,-96.97l510.8 -154.34c35.89,-10.59 19.34,-5.23 43.29,-15.96l237.11 -93.98c171.08,-82.21 349.69,-142.5 552.77,-244.57 117.75,-59.2 237.04,-113.46 338.87,-187.02l160.83 -98.54c52.52,-35.62 109.32,-69.61 160.18,-108.47l554.53 -439.18c24.82,-24.11 16.05,-18.51 46.81,-32.47 1.32,136.14 -100.74,293.9 -144.46,398.91 -95.05,228.31 -170.83,342.78 -273.52,535.68 -30.15,56.65 -72.34,110.29 -103.56,165.58 -28.2,49.94 -72.46,118.31 -105.65,163.87l-354.01 452.82c-152.32,186.01 -551.18,571.24 -756.83,725.16 -28.62,21.42 -46.99,36.6 -74.39,58.74l-398.19 277.05c-36.75,20.47 -50.31,27.09 -82.98,50.35 -169.93,120.98 -507.43,296.05 -704.63,373.75l-427.98 171.82c-154.75,55.88 -308.95,94.64 -466.84,142.92 -61.54,18.82 -269.29,44.03 -286.78,48.82 -14.95,4.09 -30.27,16.54 -47.68,21.45 -78.57,22.14 -142.03,-0.27 -237.02,33.77 -68.45,24.54 -172.36,3.16 -244.6,24.61 -54.76,16.27 -176.01,36.49 -247.1,12.7zm2945.86 -3582.64c-62.95,292.97 -318.71,478.66 -601.32,440.37 -45.67,-6.18 -140.8,-50.59 -182.8,-71.07 -65.49,-31.93 -106.75,-75.78 -146.01,-124.47 -135.98,-168.65 -155.83,-415.9 -37.36,-610.27 99.61,-163.43 308.64,-274.81 538.89,-240.6 69.01,10.26 202.09,81.67 257.59,133.4 24.77,23.07 44.21,42.14 64.73,70.34 67.03,92.07 139.17,249.17 106.28,402.3zm-8512.96 -84.22c47.25,12.52 185.28,153.75 252.37,205.47 168.41,129.84 487.43,367.33 678.86,469.59l775.43 383.57c150.67,58.27 546.14,207.51 686.7,237 -17.6,63.71 -69.77,68.73 -121.01,107.39 -122.39,92.36 -246.08,225.15 -318.08,365.09 -124.19,241.36 -78.84,250.75 -115.8,339.83 -21.31,51.36 -25.09,267.81 -1.67,313.01 20.91,40.35 16.52,40.45 15.9,96.6 -54.8,-7.27 -118.08,-80.95 -155.5,-112l-288.15 -250.69c-50.03,-48.2 -91.57,-89.82 -140.69,-138.85 -43.76,-43.68 -94.21,-90.41 -132.69,-136.9 -116.31,-140.49 -218.77,-235.18 -310.94,-373.03 -16.44,-24.59 -42.63,-54.11 -63.02,-81.33l-220.84 -317.6c-37.83,-58.3 -71.41,-105.56 -105.5,-163.1 -16.89,-28.52 -27,-60.15 -46.79,-88.01 -56.05,-78.88 -195.54,-375.37 -232.56,-463.84 -37.56,-89.72 -153.59,-285.6 -156.02,-392.2zm4634.78 -775.06c-12.92,60.45 -38.76,128.59 -77.18,177.7 -127.55,163.01 -315.82,284.08 -541.79,229.05 -148.05,-36.05 -219.84,-65.69 -329.05,-199.65 -27.59,-33.84 -82.92,-126.6 -90.85,-176 -12.33,-76.87 -10.27,-191.78 -2.27,-269.65 12.59,-122.42 138.5,-257.4 216.01,-311.34 73.29,-51.01 216,-99.41 301.31,-99.34 158.72,0.12 342.77,102.07 429.76,229.45 71.32,104.43 130.59,248.73 94.06,419.78zm-3341.59 3563.45l39.05 33.25c23.35,9.71 97.16,63.52 117.91,80.09l337.03 252.22c12.91,14.59 3.24,3.25 10.94,19.55 50.37,5.12 176.42,104.38 220.99,131.92 210.24,129.92 724.17,403.01 948.54,481.23 91.92,32.05 175.95,62.67 261.8,99.6l478.1 145.76c75.48,11.75 44.2,-15.78 66.41,23.02 29.8,-0.79 63.57,2.69 82.29,21.75 44.54,-2.68 187.58,29.71 261.5,42.49 42.14,7.29 81.73,23.95 127.49,27.24 71.93,5.18 76.26,8.07 134.19,21.27 87.41,19.94 206.03,5.03 285.9,25.69 143.45,37.11 122.32,24.81 284.44,27.99 120.01,2.35 817.34,10.16 916.53,-10.66l387.73 -62.34c65.85,-2.27 81.18,-12.14 131.75,-25.22 46.36,-11.99 90.87,-13.06 132.64,-22.34 49.1,-10.92 73.82,-22.22 128.9,-25.51l771.56 -234.2c119.02,-33.8 276.83,-110.02 387.27,-163.02 34.74,-16.66 76.35,-26.93 112.75,-43.59 48.14,-22.04 53.27,-40.86 112.35,-44.61 7.53,-14.49 -6.09,-5.89 17.82,-21.69 2.69,-1.79 27.66,-13.4 35.07,-17.56 26.84,-15.04 37.68,-21.5 67.26,-35.38 46.14,-21.68 85.41,-43.29 128.66,-68.29 45.5,-26.3 217.18,-136.95 261.69,-143.33l125.28 -92.19c45.39,-32.9 80.39,-58.09 126.41,-90.02 394.2,-273.5 598.25,-462.95 936.76,-803.64 63.19,-63.61 151.78,-158.99 206.26,-230 31.66,-41.27 67.3,-76.51 99.01,-118.08l238.52 -309.31c24.95,-33 21.9,-39.42 55.61,-61.06l523.8 -900.63c26.76,-56.25 48.12,-106.21 73.57,-164.44l250.35 -704.26c15.19,-53.27 46.34,-135.23 55.88,-182.02 7.48,-36.71 7.28,-71.5 14.83,-101.79 9.81,-39.38 19.27,-41.88 27.67,-95.74 17.66,-113.19 71.68,-304.51 75.83,-401.58 4.48,-104.78 8.46,-123.43 58.36,-178.4l509.6 -0.83c28.66,53.7 -2.45,228.37 -18.77,279.5 -13.95,43.7 -8.99,101.62 -20.15,146.18 -8.32,33.23 -12.33,18.32 -21.87,57.91 -6.89,28.65 -4.77,58.43 -8.17,88.86 -5.31,47.44 -22.61,76.05 -31.36,134.29 -5.93,39.41 -9,25.1 -20.87,57.59 -10.4,28.48 -8.98,52.58 -13.77,83.92l-196.08 641.23 -257.05 600.98c-37.48,74.47 -70.04,143.33 -110.7,220.71l-529.44 834.98 -303.7 379.05c-97.67,120.9 -377.75,407.08 -495.61,519.46l-263.89 244.22c-195.46,154.99 -266.42,219.33 -478.12,370.65 -233.72,167.05 -357.18,256.99 -619.29,395.77 -78.51,41.57 -150.12,75.54 -221.05,119.72l-880.09 388.56c-27.02,8.22 -57.67,4.23 -84.08,14.39 -30.89,11.87 -9.03,13.71 -55.52,24.37l-196.81 62.5c-19.64,6.06 -46.94,8.34 -68.5,15.5 -20.61,6.85 -30.46,16 -56.41,23.1 -20.17,5.52 -45.11,5.76 -72.71,10.38 -47.67,7.96 -28.48,12.26 -61.5,27.74 -89.24,7.68 -83.36,0.09 -148.23,33.05l-307.49 50.46c-67.18,3.33 -85.59,27.78 -154.83,30.78 -209.56,9.07 -183.21,32.63 -331.55,35.31 -364.6,6.56 -721.27,12.74 -1087.04,3.26 -58.7,-1.52 -117.87,-1.86 -176.43,-3.79 -61.93,-2.04 -97.95,-22.39 -154.86,-28.77 -55.11,-6.18 -118,-1.2 -171.79,-8.11 -57.17,-7.35 -89.6,-22.61 -140.46,-32.78 -119.42,-5.87 -199.1,-32.85 -301.69,-59.68 -82.64,-21.61 -117.43,-8.1 -285.93,-65.74 -90.54,-30.98 -178.84,-43.12 -270.74,-80.61l-277.1 -87.59c-167.39,-58.96 -342.21,-135.46 -497.27,-204.9 -168.42,-75.41 -317.01,-152.44 -478.87,-235.95 -123.8,-63.87 -312.82,-184.69 -438.39,-265.2 -959.5,-615.18 -1842.67,-1595.4 -2345.49,-2621.75l-318.69 -735.68c-16.99,-46.87 -24.85,-91.87 -43.72,-134.11 -31.83,-71.26 -154.48,-498.17 -162.07,-550.75 -9.81,-68.02 -29.03,-98.7 -37.51,-147.71 -4.63,-26.7 -3.01,-49.38 -9.19,-75.4 -7.06,-29.72 -17.65,-40.37 -22.01,-67.83 -29.76,-187.44 -35.1,-113.98 -42.65,-309.16 -1.47,-38.02 -6.26,-50.2 -13.4,-83.18 -10.16,-46.9 -20.97,-72.55 18.96,-79.75l512.97 2.86c39.45,49.65 8.94,82.9 39.39,184.81 16.73,56.01 38.59,282.57 77.64,388.19l237.4 801.19c14.25,37.57 45.63,86.75 58.13,123.76 44.19,130.82 76.61,174.61 111.58,262.61 164.56,414.09 607,1073.07 876.98,1380.69 61.47,70.04 113.33,129.98 173.15,199.98 107.58,125.93 383.51,394.23 519.63,505.92l38.9 33.31c12.68,14.66 3.72,3.33 11.88,19.36zm1964.75 -4344.48c3.96,25.88 8.62,9.98 -3.77,27.53 -20.18,28.59 -7.35,8.13 -27.08,14.06 3.62,21.46 3.04,24.36 -9.52,42.65 -23.07,33.63 -5.92,13.86 -31.85,19.41 9.52,27.91 -15.24,52.42 -27.27,76.62 -5.45,10.96 -9.15,23.11 -16.18,35.1 -19.8,33.81 -10.31,17.23 -28.71,29.87 -1.67,17.12 1.52,8.48 -6.65,27 -15,33.98 -5.82,4.93 -17.13,33.03 -36.77,91.32 -69.14,293.23 -68.57,393.04 0.51,90.44 20.26,93.32 27.33,154.62 20.01,173.34 -3.6,22.89 29.99,158.57 55.65,224.83 313.21,506.94 504.74,605.49 40.75,20.97 83.79,39.34 128.47,58.11 200.17,84.06 250.8,84.8 472.64,81.72 50.22,-0.7 43.51,-12.71 146.94,-33.79 399.69,-81.46 697.64,-373.55 818.4,-759.78 7.45,-23.82 11.15,-54.16 18.71,-75.48 31.18,-87.96 36.15,-322.87 7.56,-419.77 -8.17,-27.7 -11.45,-47.08 -16.76,-79.18 -5.52,-33.34 -13.82,-35.91 -25.67,-62.79 -11.6,-26.32 -15.94,-47.12 -25.07,-68.56 -98.3,-230.92 -203.54,-282.17 -216.33,-350.72l5955.14 -1.06c0.78,154.59 -40.8,211.37 -80.39,341.87l-44.7 112.93c-5.41,8.33 -8.06,11.54 -9.16,12.13 -3.24,1.71 7.09,-19.55 0,0 -0.7,1.92 -1.57,4.25 -2.63,7.03 -17.91,46.67 -41.14,95.76 -67.85,140.18 -106.66,177.37 -110.6,206.6 -251.23,370.86 -137.07,160.09 -148.24,170.22 -306.54,325.14 -35.79,35.02 -75.92,54.93 -115.06,91.93l-358.11 274.2c-44.5,29.09 -82,47.19 -125.79,80.66 -21.87,16.71 -40.42,28.07 -63.67,40.87l-51.51 30.32c-20.08,9.1 1.25,1.3 -19.58,5.5 -7.83,12.42 -2.44,16.02 -11.76,24.21l-34.72 -2.2c9.31,22.23 11.45,17.53 -11.04,9.55 -5.1,14 -1.69,12.69 -1.13,12.39 0.1,-0.06 0.11,-0.08 0,0 -0.4,0.27 -2.49,1.86 -8.71,8.29 -2.76,2.86 -18.39,12.75 -24.65,16.24 -24.45,13.59 -29.08,17.5 -59.02,14.78 -6.26,17.03 1.23,17.98 -42.11,39.76 -24.69,12.41 -34.23,16.23 -55.03,27.94 -34.31,19.29 -67.82,46.6 -108.68,43.89 -3.24,-64.34 28.17,-40.83 37.39,-159.12 7.9,-101.48 43.97,-121.56 29.83,-290.51 -4.36,-52.08 -20.22,-49.54 -26.12,-83.73 -22.45,-130.15 9.16,-26.76 -38.75,-180.88 -66.25,-213.06 -211.98,-387.95 -358.55,-504.26 -124.57,-98.85 -279.77,-180.49 -447.09,-197.91 -64.25,-6.69 -150.99,-24.94 -197.47,-25.16 -57.92,-0.27 -120.28,26.55 -176.77,30.68 -198.93,14.6 -78.51,13.83 -184.6,36.88 -93.48,20.31 -253.16,136.32 -297.11,142.5 -7.83,20.84 11.23,2.83 -36.85,45.56l-122.45 127.14c-87.8,103.32 -137.14,196.88 -183.53,314.12 -47.14,119.14 -15.04,27.27 -31.31,138.21 -18.64,127.04 -41.57,83.69 -29.84,303.31 2.78,52.07 17.88,95.76 26.96,139.88 5.41,26.34 3.14,50.48 8.2,76.44 5.93,30.46 18.85,40.02 24.68,56.8 8.45,24.35 7.28,42.59 17.23,68 59.89,152.89 201.8,317.84 323.3,423.49 90.05,78.29 100.64,35.37 99.22,108.9l-410.51 83.21c-40.9,1.89 -41.32,4.23 -70.65,13.06l-68.5 22.88c-41.69,9.64 -106.65,3 -153.57,12.72 -52.2,10.82 -77.82,20.93 -141.74,22.7 -188.16,5.21 -178.65,30.26 -310.7,34.04 -230.35,6.58 -395.07,39.29 -631.52,40.94l-1004.54 -9.72c-66.52,-1.79 -86.28,-19.3 -144.14,-21.83 -59.32,-2.59 -108.21,-6.66 -166.1,-8.37 -294.46,-8.73 -149.57,-20.28 -309.51,-33.38 -65.94,-5.4 -90.14,-1.31 -149.86,-15.99 -66.36,-16.33 -87.14,-12.29 -161.52,-18.8 -29,-2.55 -35.14,-11.85 -56.15,-19.68 -73.95,-27.55 -278.46,-47.16 -356.34,-62.08 -25.25,-4.83 -32.12,-13.53 -59.01,-20.96 -53.38,-14.75 -18.99,6.74 -143.59,-32.1l-216.73 -45c-39.31,-9.11 -69.78,-34 -121.3,-42.15l-394.98 -113.39c-25.76,-10.68 -22.06,-15.34 -55.26,-26.27l-193.89 -65.89c-20.77,-7.23 -36.49,-13.03 -58.24,-23.07l-522.15 -233.06c-293.41,-155.88 -464.12,-254.18 -741.48,-447.87 -169.59,-118.43 -400.4,-319.56 -543.5,-470.79l-157.18 -184.59c-131.12,-150.69 -226.58,-344.86 -310.52,-525.62l-96.01 -329.67c-11.92,-89.32 -18.38,-83.71 102.34,-83.08 622.94,3.29 3495.11,-18.5 3560.47,10.2 -11.91,34.94 -54.58,80.28 -86.28,89.11zm-4158.29 -636.81l2.81 465.67c0.07,7.24 0.71,24.92 -0.06,31.34l-11 31.55c-54.28,26.06 -604.08,9.04 -715.62,9.06 -157.49,0.03 -336.47,15.25 -420.21,-129.78 -63.78,-110.48 -62.84,-163.1 -9.67,-277.33 74.8,-160.72 275.06,-133.91 419.52,-133.92 127.73,0 653.96,-6.65 734.23,3.41zm6036.47 -1661.34c-190.03,0.13 -283.29,-48.67 -377.19,-146.37 -112.6,-117.18 -192.16,-331.24 -138.72,-489.32 8.47,-25.02 9.68,-14.53 17.7,-44.28 58.86,-218.37 252.34,-344.25 498.21,-344.42 95.71,-0.07 101.29,-5.71 173.6,24.85 8.52,3.6 12.88,5.04 23.2,8.83 74.6,27.4 122.09,68.5 175.13,121.06 88.4,87.6 150.22,219.13 150.73,356.43 0.59,156.89 -71.79,291.75 -151.12,371.56 -104.87,105.5 -210.52,141.56 -371.54,141.66zm2811.99 -789.74c64,-10.42 362,108.13 437.21,133.3 209.64,70.17 578.47,245.19 778.34,349.77 63.07,32.99 120.37,63.16 179.6,100l132.28 83.5c40.73,23.98 24.19,12.64 29.18,35.99 40.32,-1.27 123.43,59.67 161.89,85.22 71.08,47.2 321.73,235.87 377.08,295.88 31.24,33.86 10.06,1.17 16.76,34.9 23.08,-8.99 19.97,-12.82 10.58,10.2 23.17,-9.23 19.91,-12.87 10.45,10.25 34.96,1.74 21.68,-2.56 48.85,23.71 42.49,41.09 235.18,212.91 229.48,257.21 59.52,15.32 150.16,167.12 179.79,213.8 130.25,205.21 175.48,259.83 265.07,509.4 24.83,69.16 77.09,224.22 69.24,299.64 -77.03,15.27 -256.14,5.57 -344,5.57l-2453.6 0c-2327.34,0 -4673.41,10.12 -6998.46,-0.04 -167.68,-0.73 -1335.38,12.22 -1387.1,-7.33 -23.81,-18.6 -12.62,-112.45 -2.86,-139.77 118.08,-330.55 108.59,-354.08 326.95,-698.17 99.52,-156.84 284.74,-336.88 420.16,-468.19 78.86,-76.47 99.33,-82.19 155.75,-134.12 95.02,-87.45 391.8,-302.32 515.62,-372.51 62.46,-35.4 120.56,-73.16 182.93,-106.83l590.91 -288.64c43.89,-18.63 54.49,-22.63 104.89,-40.28 47.57,-16.68 57.22,-32.37 122.53,-25.81 3.07,-10.23 1.85,-11.75 1.25,-11.89 -0.25,-0.06 -0.38,0.14 0,0 0.7,-0.25 3.07,-1.59 9.38,-7.41 1.56,-1.44 114.24,-57.08 146.65,-50.88 9.33,-12.46 0.43,-5.53 21.34,-18.03 2.32,-1.38 19.77,-9.84 20.12,-9.97 28.02,-9.84 33.15,-7.63 61.78,-3.95 1.08,-15.43 -18.13,-13.72 21.46,-9.08 5.52,-8.09 -9.51,-16.22 57.12,-31.62l276.13 -86.71c22.28,-7.97 46.89,-20.95 65.46,-24.3 45.1,-8.13 41.62,-2.08 79.66,-17.05 55.09,-21.67 275.87,-58.51 364.14,-82.78 55.5,-15.25 100.74,-7.82 158.35,-29.16 51.09,-18.94 109.63,-17.66 171.98,-18.39l-2.53 7.27c38.8,-54.38 91.63,-30.61 164.47,-47.36 36.84,-8.48 39.29,-19.23 76.27,-23.5 76.02,-8.78 185.93,-0.96 279.62,-25.44 26.16,-6.84 203,-54.49 163.51,17.86 -6.15,11.24 -8.59,8.11 -18.13,24.02l-86.83 195.19c-22.26,55.53 -35.31,74.87 -42.51,145.42 -10.61,103.95 -19.41,63.4 -29.22,113.32l5.35 222.69c58.78,303.02 28.16,144.08 138.45,410.27 47.08,113.63 244.2,309.59 357.43,380.94 234.88,148 458.43,169.43 765.04,139.74 59.62,-5.78 183.26,-62.09 245.44,-85.79 174.29,-66.45 377.59,-258.83 467.36,-416.96 80.76,-142.26 59.75,-120.21 108.64,-255.84 26.84,-74.44 49.49,-295.36 32.88,-404.88 -4.49,-29.57 -14.18,-47.93 -17.93,-74.33 -12.49,-87.73 -6.39,-129.83 -56.38,-229.43 -21.6,-43.04 -119.45,-188.93 -121.4,-227.74 99.18,-12.62 194.45,4.64 273.16,17.79 83.71,13.99 193.17,3.82 263.74,25.38l615.22 114.91c31.4,9.72 88.76,14.6 125.73,20.14 152.86,22.92 468.25,113.57 629.11,167.13 33.63,11.19 59.8,0.39 49.17,23.77zm-7940.87 768.48c2.47,-67.78 108.78,-294.55 142.28,-362.44 11.44,-23.2 28.99,-61.79 38.25,-84.96 85.47,-213.78 359.66,-659.26 503.42,-854.53 41.45,-56.32 32.53,-63.68 101.55,-147.86 39.82,-48.55 71.22,-89.59 110.3,-137.45 74.87,-91.68 142.07,-181.08 223.01,-264.5 83.84,-86.4 160.7,-166.01 246.88,-250.07 45.15,-44.04 204.97,-218.19 267.69,-225.64l-1.24 147.98c-0.6,79.08 22.97,255.58 50.83,320.15 37.52,86.95 64.95,178.51 120.03,251.96 90.71,120.93 41.36,79.98 167.91,204.75l204.79 159.23c1.02,-1.97 3.95,4.05 5.98,6.02 -10.03,14.08 -0.57,6.7 -15.81,18.64 -20.75,16.26 -480.93,164.9 -592.37,235.62l-290.12 134.22c-248,115.73 -391.12,209.34 -616.04,347.9 -23.63,14.55 -43.06,25.97 -63.79,39.96l-247.07 177.19c-47.36,35.24 -72.58,59.52 -115.8,91.52 -110.62,81.88 -169.47,180.43 -240.68,192.31zm2614.53 -2697.4c183.72,-52.84 404.86,60.16 503.62,189.34 71.82,93.95 52.39,75.59 91.09,167.81l22.77 67.59c9.62,41.13 19.3,58.98 17.43,114.23 -1.75,51.81 -15.21,64.06 -21.34,113.41 -14.44,116.12 -125.13,250.71 -218.47,312.41 -40.97,27.09 -125.5,65.23 -180.34,75.89 -490.16,95.36 -842.87,-444.43 -541.74,-837.88 86.52,-113.05 166.36,-156.6 326.98,-202.8zm3688.9 -867.1c75.52,-25.04 132.85,22 212.65,27.42 173.96,11.83 715.15,207.27 928.07,295.31 62.15,25.7 108.14,50.38 167.87,79.39 498.55,242.11 617.05,314.06 1064.56,643.95 149.32,110.08 152.66,124.65 268,218.93 140.28,114.66 258.61,235.03 383.29,362.39 144.26,147.37 442.99,499.23 545.71,665.99 139.07,225.76 235.48,344.95 368.13,605.25 30.25,59.36 54.15,104.95 81.38,168.24l36.9 88.1c12.56,27.94 27.48,44.17 39.7,72.5 24.6,57.04 133.37,295.22 135.61,354.08 -49.85,-20.51 -48.72,-30.06 -85.18,-63.8l-214.57 -189.25c-127.77,-116.5 -336.71,-250.99 -484.44,-342.77 -57.32,-35.62 -106.23,-70.05 -161.05,-107.5l-1128.56 -506.74c-97.12,-45.32 -68.49,-18.4 -110.12,-36.14 -23.93,-10.19 -8.7,-11.72 -44.22,-24.75l-419.98 -118.83c-41.59,-12.93 -6.95,-4.53 -43.95,-17.95l-336.85 -76.84c-64,-10.27 -59.32,-2.54 -111.87,-24.78 -32.56,-13.78 -77,-14.43 -112.71,-18.86 -65.86,-8.15 -57.39,-23.08 -238.11,-42.8 -40.9,-4.46 -78.28,-21.56 -106.97,-26.59 -124.21,-21.79 -253.41,-30.93 -379.62,-37.94 -50.7,-2.81 -62.88,-14.84 -109.59,-24.34 -81.7,-16.62 -158.95,-10.13 -237.13,-29.66 -147.8,-36.9 -1763.78,-32.91 -1879.49,2.6 -83.65,25.68 -162.97,7.29 -245.53,23.29 -20.97,4.06 -51.84,20.8 -105.5,26.46 -42.88,4.52 -88.42,1.01 -131.92,5.7 -78.41,8.43 -157.89,38.72 -230.06,33.9 1.75,-56.51 19.2,-49.64 40.81,-90.35 45.58,-85.89 72.75,-189.93 103.56,-279.4 35.79,-103.97 -10.62,-385.48 3.11,-484.89l-21.37 -68.27c-16.4,-1.69 -21.11,25.32 -9.29,-22.04 -29.49,-19.33 -26.06,-36.88 -39.55,-76.35 -12.08,-35.34 -32.61,-38.65 -23.51,-77.42 -26.08,-3.89 -9.34,4.97 -27.32,-13.81l-39.38 -64.06c-18.52,-28.77 -31.7,-56.38 -52.08,-83.93 -77.02,-104.11 -185.51,-193.47 -293.42,-262.85 -28.88,-18.57 -59.77,-35.28 -92.52,-51.42 -108.91,-53.67 -66.2,-5.97 -86.27,-59.41 2.31,-2.73 4.61,-6.43 6.7,-8.35l37.84 -22.49c92.24,-33 200.92,-95.49 294.87,-117.5l274.35 -86.7c64.74,-28.93 560.95,-129.14 578.05,-135.54 121.26,-45.35 155.83,-14.42 295.63,-47.85 67.51,-16.15 145.97,-6.41 221.6,-16.44l204.28 -29c159.04,-1.33 317.47,-3.13 476.55,-1.49 244.65,2.53 225.75,22.34 445.57,33.22 157.92,7.81 130.51,21.81 205.39,30.62 28.16,3.32 69.71,4.62 98.7,14.74l75.12 30.65c1.75,-2.59 5.46,4.19 8.13,6.37zm7840.51 -35.85c46.27,-21.89 757.62,-8.7 820.06,-8.7 132.85,0 177.67,-16.93 271.54,40.44 61.89,37.82 108.79,110.26 122.66,178.37 31.28,153.61 -107,327.49 -280.32,327.25l-942.18 -6.66c-1.51,-98.33 -14.44,-485.79 8.24,-530.7z"/>
    <path class="fil2" d="M9024.56 6603.43l2.53 -7.27c-30.13,28.25 40.18,17.28 -41.36,24.45l-285.84 61.3c-67.09,11.48 -90.31,3.86 -142.5,28.91l-417.97 111.74c-53.34,15.64 -96.49,24.25 -138.36,39.38 -39.69,14.34 -94.29,34.04 -146.81,24.23 -8.24,12.06 20.97,21.8 -21.46,9.08l-48.91 29.73c-28.03,8.72 -22.63,8.43 -54.33,2.22 -18.71,69.79 -91.04,26.67 -120.91,77.52l-36.37 -7.34c-36.71,37.49 -260.1,122.62 -286.18,130.76 -77.46,24.19 -201.31,87.96 -283.28,129.15 -56.62,28.45 -73.1,52.11 -93.08,115.67 -64.23,204.37 -233.72,647.39 -266.67,862.11 -5.09,33.14 -11.21,53.23 -19.8,81.24 -22.03,71.88 -33.55,210.74 -44.21,258.25 -26.92,119.93 -75.81,508.12 -64.26,614.25 4.91,45.19 7.72,26.11 12.98,35.12 28.89,27.14 573.38,13.83 604.82,13.84l6718.94 0c175.39,0 2331.86,10.49 2441.69,-1.57 6.35,-77.15 -7.98,-92.6 -28,-155.66 -10.87,-34.23 -7.03,-56.06 -13.71,-84.07 -2.4,-10.05 -21.97,-44.95 -27.43,-60.34 -71.61,-201.73 -152.66,-299.71 -254.51,-469.35 -53.99,-89.92 -144.99,-159.53 -145.12,-216.12 -37.29,-8.56 -38.98,-22.28 -80.89,-64.2l-139.78 -139.75c-85.45,-85.37 -51.69,-39.34 -57.66,-76.97 -23.11,9.41 -19.74,12.94 -10.45,-10.25 -22.92,9.25 -19.59,12.86 -10.58,-10.2 -42.57,-6.68 -46.65,-23.41 -75.37,-47.07 -23.88,-19.67 -44.47,-37.9 -68.49,-55.98 -48.11,-36.22 -81.55,-66.63 -133.26,-105.11 -36.44,-27.12 -259.44,-171.22 -278.61,-207.84 -36,-4.7 -63.82,-31.47 -96.67,-48.38l-575.45 -303.3c-21.45,-12.77 -4.77,-5.01 -17.95,-10.62l-753.97 -289.91c-21.16,-6.46 -40.75,-7.46 -62.39,-15.26l-30.81 -14.27c-5.62,-18.87 -35.21,23.31 -19.37,-20.82 -34.78,10.62 -379.9,-89.16 -460.89,-106.87 -43.59,-9.53 -74.4,-30.12 -112.51,-36.34 -37.65,-6.16 -78.75,-5.02 -120.61,-18.97l-712.88 -130.29c-47.1,-5.17 -93.11,3.6 -143.54,-4.71 -35.74,-5.88 -68.27,-23.24 -104.62,-26.61l-256.29 -10.56c28.92,11.03 50.05,82.05 60.67,110.07 23.66,62.41 12.59,-4.56 63.9,121.33 67.57,165.8 88.69,463.52 36.81,643.52l-44.69 138.23c-69.75,204.96 -224.85,396.87 -409.1,508.97 -99.42,60.49 -85.15,72.88 -247.03,125.12 -311.72,100.59 -628.19,88.67 -898.71,-72.52 -51.82,-30.87 -74.33,-38.75 -111.63,-76.36 -47.98,-48.39 -121.7,-58.62 -271.19,-279.46 -67.79,-100.14 -114.12,-212.96 -136.32,-335.95 -4.77,-26.4 -16.22,-35.18 -24.45,-66.04 -11.3,-42.41 -6.55,-297.72 -6.17,-361.33 0.91,-151.37 131.59,-366.31 138.19,-418.47 -118.19,-4.88 -212.67,9.86 -317.45,34.7 -51.26,12.15 -108.01,10.66 -162.27,19.19 -56.16,8.82 -84.44,30.75 -147.41,16.05z"/>
    <path class="fil2" d="M12799.63 10621.27c4.5,-13.73 -2.52,-16.24 25.92,-37.9 9.94,-7.57 21.28,-13.17 32.18,-20.35l134.3 -74c28.89,-14.15 44.96,-18.71 79.18,-27.43 135.76,-34.59 82.42,-72.47 355.86,-72.47 51.97,0 175.5,-6.36 219.29,1.67 44.92,8.24 30.69,22.58 72.03,29.79 106.86,18.63 130.39,20.66 247.05,80.08l125.74 82.17c53.84,44.48 17.94,-3.38 120.06,98.75l77.03 79.72c121.77,164.25 191.55,245.16 228.05,471.46 2.99,18.57 15.89,59.7 21.91,78.32 11.75,36.33 10.56,287.74 6.53,322.07 -6.34,53.98 -46.04,90.45 -32.94,166.08 15.25,-2.27 100.26,-41.03 116.33,-64.83l36.54 6.79c7.77,-11.79 3.52,-11.89 18.88,-25.41 10.74,-9.45 5.2,-4.31 19.39,-12.28 25.65,-14.4 25.52,-15.52 55.24,-14.01 -8.09,-22.69 -11.09,-18.78 11.04,-9.55 20.69,-33.85 -30.42,6.31 15.09,-20.08 22.87,-13.25 7.26,-6.73 31.39,-1.93 20.83,-4.2 -0.5,3.6 19.58,-5.5l51.51 -30.32c23.25,-12.8 41.8,-24.16 63.67,-40.87 43.79,-33.47 81.29,-51.57 125.79,-80.66l358.11 -274.2c39.14,-37 79.27,-56.91 115.06,-91.93 158.3,-154.92 169.47,-165.05 306.54,-325.14 140.63,-164.26 144.57,-193.49 251.23,-370.86 26.71,-44.42 49.94,-93.51 67.85,-140.18 15.55,-40.56 -11.18,16.19 11.79,-19.16l44.7 -112.93c39.59,-130.5 81.17,-187.28 80.39,-341.87l-5955.14 1.06c12.79,68.55 118.03,119.8 216.33,350.72 9.13,21.44 13.47,42.24 25.07,68.56 11.85,26.88 20.15,29.45 25.67,62.79 5.31,32.1 8.59,51.48 16.76,79.18 28.59,96.9 23.62,331.81 -7.56,419.77 -7.56,21.32 -11.26,51.66 -18.71,75.48 -120.76,386.23 -418.71,678.32 -818.4,759.78 -103.43,21.08 -96.72,33.09 -146.94,33.79 -221.84,3.08 -272.47,2.34 -472.64,-81.72 -44.68,-18.77 -87.72,-37.14 -128.47,-58.11 -191.53,-98.55 -449.09,-380.66 -504.74,-605.49 -33.59,-135.68 -9.98,14.77 -29.99,-158.57 -7.07,-61.3 -26.82,-64.18 -27.33,-154.62 -0.57,-99.81 31.8,-301.72 68.57,-393.04 11.31,-28.1 2.13,0.95 17.13,-33.03 8.17,-18.52 4.98,-9.88 6.65,-27 -2.2,-44.53 -6.22,-16.13 6.51,-48.29 15.51,-39.2 32.79,-72.11 65.65,-93.3 -0.93,-19.09 -4.78,-23.99 6.52,-42.42 21.51,-35.08 8.1,-15.2 34.85,-19.64 -1.39,-28.46 -8.46,-15.09 6.48,-33.83 13.56,-17.01 1.89,-4.69 24.37,-7.76 -1.81,-44.87 40.84,-75.32 49.19,-78.36l-2269.38 3.3c-1.8,65.8 13.57,136.15 16.86,203.48 3.95,80.84 6.57,143.17 14.59,217.86 4.42,41.14 13.45,36.69 19.03,92.87 14.98,150.89 47.39,328.33 81.14,478.23l204.17 697.02c88.13,229.69 38.01,242.13 306.54,365.48 124.85,57.35 344.44,149.7 476.82,192.72 33.28,10.81 51.2,22.05 83.84,33.32 98.51,33.98 53.5,16.99 70.66,45.15 -29.23,-9.63 -34.14,-4.5 -43.04,-20.6 230.7,73.46 32.18,44.75 227.76,53.58 11.76,17.28 4.46,11.05 24.56,20.68l804.16 198.39c64.01,11.28 7.01,17.4 145.19,34.64 22.26,2.77 55.35,6.18 70.32,10.11 155.24,40.66 130.32,18.84 218.65,38.69l455.61 57.88c115.1,1.47 195.65,41.1 310.54,41.74 121.55,0.66 173.87,-5.73 289.75,14.36 164.97,28.6 518.3,15.61 714.91,16.6 32.82,0.17 201.88,-31.22 320.68,-31.23 105.29,-0.01 227.01,6.36 325.24,-12.08 53.89,-10.11 72.62,-26.87 150.97,-29.25 68.07,-2.07 100.47,1.87 162.68,-9.64 52.21,-9.66 87.98,-21.95 146.74,-27.13l307.02 -36.82c25.4,-4.2 38.64,-18.57 64.89,-24.49 28.32,-6.39 50.48,-4.17 76.67,-7.98 140.95,-20.53 80.51,-25.17 138.82,-34.74 47.54,-7.8 101.9,-5.21 138.45,-24.69 -12.05,-51.2 -107.54,-94.87 -166.98,-164.71 -28.66,-33.67 -38.16,-56.25 -72.89,-92.56 -29.3,-30.64 -45.57,-58.4 -69.6,-96.71 -122.05,-194.53 -135.65,-326.34 -135.65,-526.21 0,-148.86 -8.76,-247.92 35.22,-383.99l71.77 -168.02c67.73,-137.63 61.22,-96.27 100.06,-149.79 6.62,-9.11 5.58,-11.03 18.01,-25.4 42.58,-49.17 125.36,-165.49 193.08,-169.05z"/>
    <path class="fil2" d="M9143.52 4919.95c24.82,20.65 71.65,113.43 63.06,153.77 16.43,6.3 26.66,-21.4 9.29,22.04 5.17,4.58 14.65,3.21 21.93,24.33 11.87,34.41 2.52,22.94 -0.56,43.94 -13.73,99.41 32.68,380.92 -3.11,484.89 -30.81,89.47 -57.98,193.51 -103.56,279.4 -21.61,40.71 -39.06,33.84 -40.81,90.35 72.17,4.82 151.65,-25.47 230.06,-33.9 43.5,-4.69 89.04,-1.18 131.92,-5.7 53.66,-5.66 84.53,-22.4 105.5,-26.46 82.56,-16 161.88,2.39 245.53,-23.29 115.71,-35.51 1731.69,-39.5 1879.49,-2.6 78.18,19.53 155.43,13.04 237.13,29.66 46.71,9.5 58.89,21.53 109.59,24.34 126.21,7.01 255.41,16.15 379.62,37.94 28.69,5.03 66.07,22.13 106.97,26.59 180.72,19.72 172.25,34.65 238.11,42.8 35.71,4.43 80.15,5.08 112.71,18.86 52.55,22.24 47.87,14.51 111.87,24.78l336.85 76.84c37,13.42 2.36,5.02 43.95,17.95l419.98 118.83c35.52,13.03 20.29,14.56 44.22,24.75 41.63,17.74 13,-9.18 110.12,36.14l1128.56 506.74c54.82,37.45 103.73,71.88 161.05,107.5 147.73,91.78 356.67,226.27 484.44,342.77l214.57 189.25c36.46,33.74 35.33,43.29 85.18,63.8 -2.24,-58.86 -111.01,-297.04 -135.61,-354.08 -12.22,-28.33 -27.14,-44.56 -39.7,-72.5l-36.9 -88.1c-27.23,-63.29 -51.13,-108.88 -81.38,-168.24 -132.65,-260.3 -229.06,-379.49 -368.13,-605.25 -102.72,-166.76 -401.45,-518.62 -545.71,-665.99 -124.68,-127.36 -243.01,-247.73 -383.29,-362.39 -115.34,-94.28 -118.68,-108.85 -268,-218.93 -447.51,-329.89 -566.01,-401.84 -1064.56,-643.95 -59.73,-29.01 -105.72,-53.69 -167.87,-79.39 -212.92,-88.04 -754.11,-283.48 -928.07,-295.31 -79.8,-5.42 -137.13,-52.46 -212.65,-27.42 -46.02,7.93 -337.39,-47.13 -398.56,-55.49 -136.76,-18.65 -291.28,-10.61 -433.97,-25.55 -50.5,-5.29 -135.19,-28.73 -196.52,-29.78 -77.19,-1.32 -131.73,25.51 -197.02,35.5 -167.05,25.57 -331.49,110.1 -497.83,174.27 -113.22,43.68 -339.11,164.42 -452.83,220.69 -52.19,25.82 -94.57,52.89 -145.75,82.47l-279.53 166.37c-46.02,29.26 -87.82,63.86 -127.91,89.04 -0.81,71.29 13.56,75.67 49.93,124.05 23.33,31.05 48.35,61.2 48.2,103.67z"/>
    <path class="fil2" d="M9393.02 14072.85c15.46,47.49 -17.5,101 -39.52,138.4l-102.68 169.46c-29.84,38.44 -48.69,57.4 -52.22,113.14 145.06,99.17 233.81,143.06 380.02,231.01 156.55,94.17 549.77,272.37 747.19,341.08 41.21,14.34 69.5,33.43 106.74,47.16 156.41,57.62 439.43,-2.69 599.19,28.47 71.09,23.79 192.34,3.57 247.1,-12.7 72.24,-21.45 176.15,-0.07 244.6,-24.61 94.99,-34.04 158.45,-11.63 237.02,-33.77 17.41,-4.91 32.73,-17.36 47.68,-21.45 17.49,-4.79 225.24,-30 286.78,-48.82 157.89,-48.28 312.09,-87.04 466.84,-142.92l427.98 -171.82c197.2,-77.7 534.7,-252.77 704.63,-373.75 32.67,-23.26 46.23,-29.88 82.98,-50.35l398.19 -277.05c27.4,-22.14 45.77,-37.32 74.39,-58.74 205.65,-153.92 604.51,-539.15 756.83,-725.16l354.01 -452.82c33.19,-45.56 77.45,-113.93 105.65,-163.87 31.22,-55.29 73.41,-108.93 103.56,-165.58 102.69,-192.9 178.47,-307.37 273.52,-535.68 43.72,-105.01 145.78,-262.77 144.46,-398.91 -30.76,13.96 -21.99,8.36 -46.81,32.47l-554.53 439.18c-50.86,38.86 -107.66,72.85 -160.18,108.47l-160.83 98.54c-101.83,73.56 -221.12,127.82 -338.87,187.02 -203.08,102.07 -381.69,162.36 -552.77,244.57l-237.11 93.98c-23.95,10.73 -7.4,5.37 -43.29,15.96l-510.8 154.34c-106.68,40.53 -346.91,70.15 -432.02,96.97l-217.32 51.31c-33.75,6.21 -88.67,5.31 -118.16,17.56 -82.37,34.22 -8.73,12.76 -109.86,22.62 -88.61,8.64 -50.23,32.7 -217.37,38.7 -86.94,3.12 -152.44,38.18 -227.26,39.16 -44.16,0.58 -90.26,-1.56 -133.49,5.3 -242.92,38.53 -424.8,12.2 -610.46,44.09 -209.3,35.96 -1004.66,24.72 -1306.7,13.16 -98.27,-3.76 -41.08,-26.72 -227.23,-28.95 -86.86,-1.05 -171.45,-3.33 -243.23,-23.43 -69.03,-19.32 -179.79,-11.19 -263.02,-11.24 2.51,76.04 18.09,66.53 47.5,123.7 18.04,35.05 32.17,61.91 45.4,98.31 27.24,74.93 51.68,148.87 55.77,232.09 6.92,140.72 17.06,47.41 20.76,123.9 4.43,91.74 -11.06,163.5 -25.63,263.26 -12.44,85.15 -27.1,62.25 -27.43,108.24z"/>
    <path class="fil3" d="M10395.29 20581.42l-32.4 -7.5c3.77,-140.63 -110.93,-277.12 -320.59,-277.96l-3013.23 -0.76c-322.06,-0.1 -257.13,80.02 -257.13,-567.94 0,-88.07 -3.47,-182.55 -0.54,-269.73 3.49,-103.5 101.04,-72.78 205.9,-72.73l7133.05 -0.99c176.04,0 387.29,-10.6 559.02,2.3 47.47,61.37 32.78,126.86 32.79,227.27l0.16 538.36c0.75,118.86 -4.61,145.93 -126.05,144.91l-2132.72 -0.58c-351.44,0 -736.16,-14.89 -1083.43,1.07 -74.79,9.52 -58.03,-4.88 -111.74,26.63 -46.25,27.13 -45.76,27.97 -80.05,64.32 -70.11,74.3 -64.02,80.49 -81.2,209.5l-22.41 -28.94 -526.07 -1.75c-81.56,-0.1 -91.02,-3.99 -143.36,14.52z"/>
    <path class="fil3" d="M13103.1 18208.96c-15.19,-5.25 -24.64,24.42 -10.66,-20.48 -27.05,10.71 -17.5,10.84 -10.44,-18.51 2.02,-39.35 -163.58,-291.79 -195.34,-335.12l-197.39 -323.14c-26.84,-14.9 -6.05,3.84 -29.03,-22.48 -2.84,-3.26 -7.73,-12.34 -11.98,-18.88 -8.33,-12.81 -14.12,-21.74 -24.52,-37.3 -13.22,-19.8 -14.18,-19.7 -25.37,-36.93 -18.94,-29.16 -14.31,-4.83 -14.94,-44.38 -18.66,-3.59 -12.45,5.6 -26.55,-5.72l4.84 -34.59c-22.27,-7.73 -30.35,14.88 -20.32,-31.56 -17.44,-3.98 -12.43,4.5 -25.84,-6.3l4.27 -34.16c-19.41,4.31 -15.51,7.49 -9.37,-11.62 -20.59,6.01 -16.82,9.11 -9.41,-11.04 -35.12,-5.93 -14.85,7.31 -36.76,-27.11 -6.99,-10.98 -12.6,-23.35 -18.63,-33.62l-213.26 -344.75c-112.43,-180.41 -64.56,-121.57 -200.76,-91.59 -89.04,19.6 -78.24,-6.21 -189.5,28.04 -57.49,17.7 -140.42,10.68 -193.52,17.53 -47.62,6.15 -64.19,22.32 -115.6,26.99 -47.7,4.34 -97.54,5.19 -145.44,5.17 -109.31,-0.03 -162.45,-0.65 -259.43,16.48 -110.49,19.5 -696.29,30.58 -827.29,-0.94 -89.76,-21.59 -157.81,-15.58 -259.14,-15.58 -39.09,24.32 -23.11,8.77 -40.91,50.72l-157.79 246.06c-16.75,30.44 -23.36,32.47 -40.87,62.49 -68.72,117.83 -167.71,265.86 -222.95,377.87 -23.81,48.29 -75.29,110.47 -116.23,194.58l-314.18 493.12c-17.27,28.65 -10.71,35.75 -31.34,63.26l-81.33 123.89c-15.07,25.98 -25.93,39.27 -40.65,63.27l-181.62 312.53c67.98,34.91 450.41,15.17 565.29,15.17l3913.34 0.06c64.47,0.06 140,13.15 139.17,-23.79 -0.1,-4.86 -2.32,-9.52 -7.36,-19.41 -5.09,-10 -15.63,-24.36 -24.56,-38.61l-129.52 -213.87c-32.98,-55.05 -166.76,-249.24 -167.11,-295.75z"/>
    <path class="fil3" d="M15794.24 13074.13c-33.71,21.64 -30.66,28.06 -55.61,61.06l-238.52 309.31c-31.71,41.57 -67.35,76.81 -99.01,118.08 -54.48,71.01 -143.07,166.39 -206.26,230 -338.51,340.69 -542.56,530.14 -936.76,803.64 -46.02,31.93 -81.02,57.12 -126.41,90.02l-125.28 92.19c-44.51,6.38 -216.19,117.03 -261.69,143.33 -43.25,25 -82.52,46.61 -128.66,68.29 -29.58,13.88 -40.42,20.34 -67.26,35.38 -7.41,4.16 -32.38,15.77 -35.07,17.56 -23.91,15.8 -10.29,7.2 -17.82,21.69 -59.08,3.75 -64.21,22.57 -112.35,44.61 -36.4,16.66 -78.01,26.93 -112.75,43.59 -110.44,53 -268.25,129.22 -387.27,163.02l-771.56 234.2c-55.08,3.29 -79.8,14.59 -128.9,25.51 -41.77,9.28 -86.28,10.35 -132.64,22.34 -50.57,13.08 -65.9,22.95 -131.75,25.22l-387.73 62.34c-99.19,20.82 -796.52,13.01 -916.53,10.66 -162.12,-3.18 -140.99,9.12 -284.44,-27.99 -79.87,-20.66 -198.49,-5.75 -285.9,-25.69 -57.93,-13.2 -62.26,-16.09 -134.19,-21.27 -45.76,-3.29 -85.35,-19.95 -127.49,-27.24 -73.92,-12.78 -216.96,-45.17 -261.5,-42.49 -18.72,-19.06 -52.49,-22.54 -82.29,-21.75 -22.21,-38.8 9.07,-11.27 -66.41,-23.02l-478.1 -145.76c-85.85,-36.93 -169.88,-67.55 -261.8,-99.6 -224.37,-78.22 -738.3,-351.31 -948.54,-481.23 -44.57,-27.54 -170.62,-126.8 -220.99,-131.92 -7.7,-16.3 1.97,-4.96 -10.94,-19.55l-337.03 -252.22c-20.75,-16.57 -94.56,-70.38 -117.91,-80.09l-39.05 -33.25c-8.16,-16.03 0.8,-4.7 -11.88,-19.36l-38.9 -33.31c-136.12,-111.69 -412.05,-379.99 -519.63,-505.92 -59.82,-70 -111.68,-129.94 -173.15,-199.98 -269.98,-307.62 -712.42,-966.6 -876.98,-1380.69 -34.97,-88 -67.39,-131.79 -111.58,-262.61 -12.5,-37.01 -43.88,-86.19 -58.13,-123.76l-237.4 -801.19c-39.05,-105.62 -60.91,-332.18 -77.64,-388.19 -30.45,-101.91 0.06,-135.16 -39.39,-184.81l-512.97 -2.86c-39.93,7.2 -29.12,32.85 -18.96,79.75 7.14,32.98 11.93,45.16 13.4,83.18 7.55,195.18 12.89,121.72 42.65,309.16 4.36,27.46 14.95,38.11 22.01,67.83 6.18,26.02 4.56,48.7 9.19,75.4 8.48,49.01 27.7,79.69 37.51,147.71 7.59,52.58 130.24,479.49 162.07,550.75 18.87,42.24 26.73,87.24 43.72,134.11l318.69 735.68c502.82,1026.35 1385.99,2006.57 2345.49,2621.75 125.57,80.51 314.59,201.33 438.39,265.2 161.86,83.51 310.45,160.54 478.87,235.95 155.06,69.44 329.88,145.94 497.27,204.9l277.1 87.59c91.9,37.49 180.2,49.63 270.74,80.61 168.5,57.64 203.29,44.13 285.93,65.74 102.59,26.83 182.27,53.81 301.69,59.68 50.86,10.17 83.29,25.43 140.46,32.78 53.79,6.91 116.68,1.93 171.79,8.11 56.91,6.38 92.93,26.73 154.86,28.77 58.56,1.93 117.73,2.27 176.43,3.79 365.77,9.48 722.44,3.3 1087.04,-3.26 148.34,-2.68 121.99,-26.24 331.55,-35.31 69.24,-3 87.65,-27.45 154.83,-30.78l307.49 -50.46c64.87,-32.96 58.99,-25.37 148.23,-33.05 33.02,-15.48 13.83,-19.78 61.5,-27.74 27.6,-4.62 52.54,-4.86 72.71,-10.38 25.95,-7.1 35.8,-16.25 56.41,-23.1 21.56,-7.16 48.86,-9.44 68.5,-15.5l196.81 -62.5c46.49,-10.66 24.63,-12.5 55.52,-24.37 26.41,-10.16 57.06,-6.17 84.08,-14.39l880.09 -388.56c70.93,-44.18 142.54,-78.15 221.05,-119.72 262.11,-138.78 385.57,-228.72 619.29,-395.77 211.7,-151.32 282.66,-215.66 478.12,-370.65l263.89 -244.22c117.86,-112.38 397.94,-398.56 495.61,-519.46l303.7 -379.05 529.44 -834.98c40.66,-77.38 73.22,-146.24 110.7,-220.71l257.05 -600.98 196.08 -641.23c4.79,-31.34 3.37,-55.44 13.77,-83.92 11.87,-32.49 14.94,-18.18 20.87,-57.59 8.75,-58.24 26.05,-86.85 31.36,-134.29 3.4,-30.43 1.28,-60.21 8.17,-88.86 9.54,-39.59 13.55,-24.68 21.87,-57.91 11.16,-44.56 6.2,-102.48 20.15,-146.18 16.32,-51.13 47.43,-225.8 18.77,-279.5l-509.6 0.83c-49.9,54.97 -53.88,73.62 -58.36,178.4 -4.15,97.07 -58.17,288.39 -75.83,401.58 -8.4,53.86 -17.86,56.36 -27.67,95.74 -7.55,30.29 -7.35,65.08 -14.83,101.79 -9.54,46.79 -40.69,128.75 -55.88,182.02l-250.35 704.26c-25.45,58.23 -46.81,108.19 -73.57,164.44l-523.8 900.63z"/>
    <path class="fil4" d="M9024.56 6603.43c62.97,14.7 91.25,-7.23 147.41,-16.05 54.26,-8.53 111.01,-7.04 162.27,-19.19 104.78,-24.84 199.26,-39.58 317.45,-34.7 -6.6,52.16 -137.28,267.1 -138.19,418.47 -0.38,63.61 -5.13,318.92 6.17,361.33 8.23,30.86 19.68,39.64 24.45,66.04 22.2,122.99 68.53,235.81 136.32,335.95 149.49,220.84 223.21,231.07 271.19,279.46 37.3,37.61 59.81,45.49 111.63,76.36 270.52,161.19 586.99,173.11 898.71,72.52 161.88,-52.24 147.61,-64.63 247.03,-125.12 184.25,-112.1 339.35,-304.01 409.1,-508.97l44.69 -138.23c51.88,-180 30.76,-477.72 -36.81,-643.52 -51.31,-125.89 -40.24,-58.92 -63.9,-121.33 -10.62,-28.02 -31.75,-99.04 -60.67,-110.07l256.29 10.56c36.35,3.37 68.88,20.73 104.62,26.61 50.43,8.31 96.44,-0.46 143.54,4.71l712.88 130.29c41.86,13.95 82.96,12.81 120.61,18.97 38.11,6.22 68.92,26.81 112.51,36.34 80.99,17.71 426.11,117.49 460.89,106.87 -15.84,44.13 13.75,1.95 19.37,20.82l30.81 14.27c21.64,7.8 41.23,8.8 62.39,15.26l753.97 289.91c13.18,5.61 -3.5,-2.15 17.95,10.62l575.45 303.3c32.85,16.91 60.67,43.68 96.67,48.38 19.17,36.62 242.17,180.72 278.61,207.84 51.71,38.48 85.15,68.89 133.26,105.11 24.02,18.08 44.61,36.31 68.49,55.98 28.72,23.66 32.8,40.39 75.37,47.07 -9.01,23.06 -12.34,19.45 10.58,10.2 -9.29,23.19 -12.66,19.66 10.45,10.25 5.97,37.63 -27.79,-8.4 57.66,76.97l139.78 139.75c41.91,41.92 43.6,55.64 80.89,64.2 0.13,56.59 91.13,126.2 145.12,216.12 101.85,169.64 182.9,267.62 254.51,469.35 5.46,15.39 25.03,50.29 27.43,60.34 6.68,28.01 2.84,49.84 13.71,84.07 20.02,63.06 34.35,78.51 28,155.66 -109.83,12.06 -2266.3,1.57 -2441.69,1.57l-6718.94 0c-31.44,-0.01 -575.93,13.3 -604.82,-13.84 -5.26,-9.01 -8.07,10.07 -12.98,-35.12 -11.55,-106.13 37.34,-494.32 64.26,-614.25 10.66,-47.51 22.18,-186.37 44.21,-258.25 8.59,-28.01 14.71,-48.1 19.8,-81.24 32.95,-214.72 202.44,-657.74 266.67,-862.11 19.98,-63.56 36.46,-87.22 93.08,-115.67 81.97,-41.19 205.82,-104.96 283.28,-129.15 26.08,-8.14 249.47,-93.27 286.18,-130.76l36.37 7.34c29.87,-50.85 102.2,-7.73 120.91,-77.52 31.7,6.21 26.3,6.5 54.33,-2.22l48.91 -29.73c42.43,12.72 13.22,2.98 21.46,-9.08 52.52,9.81 107.12,-9.89 146.81,-24.23 41.87,-15.13 85.02,-23.74 138.36,-39.38l417.97 -111.74c52.19,-25.05 75.41,-17.43 142.5,-28.91l285.84 -61.3c81.54,-7.17 11.23,3.8 41.36,-24.45 -62.35,0.73 -120.89,-0.55 -171.98,18.39 -57.61,21.34 -102.85,13.91 -158.35,29.16 -88.27,24.27 -309.05,61.11 -364.14,82.78 -38.04,14.97 -34.56,8.92 -79.66,17.05 -18.57,3.35 -43.18,16.33 -65.46,24.3l-276.13 86.71c-66.63,15.4 -51.6,23.53 -57.12,31.62 -39.59,-4.64 -20.38,-6.35 -21.46,9.08 -28.63,-3.68 -33.76,-5.89 -61.78,3.95 -0.35,0.13 -17.8,8.59 -20.12,9.97 -20.91,12.5 -12.01,5.57 -21.34,18.03 -32.41,-6.2 -145.09,49.44 -146.65,50.88 -18.03,16.62 -3.84,-3.31 -10.63,19.3 -65.31,-6.56 -74.96,9.13 -122.53,25.81 -50.4,17.65 -61,21.65 -104.89,40.28l-590.91 288.64c-62.37,33.67 -120.47,71.43 -182.93,106.83 -123.82,70.19 -420.6,285.06 -515.62,372.51 -56.42,51.93 -76.89,57.65 -155.75,134.12 -135.42,131.31 -320.64,311.35 -420.16,468.19 -218.36,344.09 -208.87,367.62 -326.95,698.17 -9.76,27.32 -20.95,121.17 2.86,139.77 51.72,19.55 1219.42,6.6 1387.1,7.33 2325.05,10.16 4671.12,0.04 6998.46,0.04l2453.6 0c87.86,0 266.97,9.7 344,-5.57 7.85,-75.42 -44.41,-230.48 -69.24,-299.64 -89.59,-249.57 -134.82,-304.19 -265.07,-509.4 -29.63,-46.68 -120.27,-198.48 -179.79,-213.8 5.7,-44.3 -186.99,-216.12 -229.48,-257.21 -27.17,-26.27 -13.89,-21.97 -48.85,-23.71 9.46,-23.12 12.72,-19.48 -10.45,-10.25 9.39,-23.02 12.5,-19.19 -10.58,-10.2 -6.7,-33.73 14.48,-1.04 -16.76,-34.9 -55.35,-60.01 -306,-248.68 -377.08,-295.88 -38.46,-25.55 -121.57,-86.49 -161.89,-85.22 -4.99,-23.35 11.55,-12.01 -29.18,-35.99l-132.28 -83.5c-59.23,-36.84 -116.53,-67.01 -179.6,-100 -199.87,-104.58 -568.7,-279.6 -778.34,-349.77 -75.21,-25.17 -373.21,-143.72 -437.21,-133.3 10.63,-23.38 -15.54,-12.58 -49.17,-23.77 -160.86,-53.56 -476.25,-144.21 -629.11,-167.13 -36.97,-5.54 -94.33,-10.42 -125.73,-20.14l-615.22 -114.91c-70.57,-21.56 -180.03,-11.39 -263.74,-25.38 -78.71,-13.15 -173.98,-30.41 -273.16,-17.79 1.95,38.81 99.8,184.7 121.4,227.74 49.99,99.6 43.89,141.7 56.38,229.43 3.75,26.4 13.44,44.76 17.93,74.33 16.61,109.52 -6.04,330.44 -32.88,404.88 -48.89,135.63 -27.88,113.58 -108.64,255.84 -89.77,158.13 -293.07,350.51 -467.36,416.96 -62.18,23.7 -185.82,80.01 -245.44,85.79 -306.61,29.69 -530.16,8.26 -765.04,-139.74 -113.23,-71.35 -310.35,-267.31 -357.43,-380.94 -110.29,-266.19 -79.67,-107.25 -138.45,-410.27l-5.35 -222.69c9.81,-49.92 18.61,-9.37 29.22,-113.32 7.2,-70.55 20.25,-89.89 42.51,-145.42l86.83 -195.19c9.54,-15.91 11.98,-12.78 18.13,-24.02 39.49,-72.35 -137.35,-24.7 -163.51,-17.86 -93.69,24.48 -203.6,16.66 -279.62,25.44 -36.98,4.27 -39.43,15.02 -76.27,23.5 -72.84,16.75 -125.67,-7.02 -164.47,47.36z"/>
    <path class="fil4" d="M8722.58 9918.62c-22.48,3.07 -10.81,-9.25 -24.37,7.76 -14.94,18.74 -7.87,5.37 -6.48,33.83 -26.75,4.44 -13.34,-15.44 -34.85,19.64 -11.3,18.43 -7.45,23.33 -6.52,42.42 -32.86,21.19 -50.14,54.1 -65.65,93.3 -12.73,32.16 -8.71,3.76 -6.51,48.29 18.4,-12.64 8.91,3.94 28.71,-29.87 7.03,-11.99 10.73,-24.14 16.18,-35.1 12.03,-24.2 36.79,-48.71 27.27,-76.62 25.93,-5.55 8.78,14.22 31.85,-19.41 12.56,-18.29 13.14,-21.19 9.52,-42.65 19.73,-5.93 6.9,14.53 27.08,-14.06 12.39,-17.55 7.73,-1.65 3.77,-27.53 31.7,-8.83 74.37,-54.17 86.28,-89.11 -65.36,-28.7 -2937.53,-6.91 -3560.47,-10.2 -120.72,-0.63 -114.26,-6.24 -102.34,83.08l96.01 329.67c83.94,180.76 179.4,374.93 310.52,525.62l157.18 184.59c143.1,151.23 373.91,352.36 543.5,470.79 277.36,193.69 448.07,291.99 741.48,447.87l522.15 233.06c21.75,10.04 37.47,15.84 58.24,23.07l193.89 65.89c33.2,10.93 29.5,15.59 55.26,26.27l394.98 113.39c51.52,8.15 81.99,33.04 121.3,42.15l216.73 45c124.6,38.84 90.21,17.35 143.59,32.1 26.89,7.43 33.76,16.13 59.01,20.96 77.88,14.92 282.39,34.53 356.34,62.08 21.01,7.83 27.15,17.13 56.15,19.68 74.38,6.51 95.16,2.47 161.52,18.8 59.72,14.68 83.92,10.59 149.86,15.99 159.94,13.1 15.05,24.65 309.51,33.38 57.89,1.71 106.78,5.78 166.1,8.37 57.86,2.53 77.62,20.04 144.14,21.83l1004.54 9.72c236.45,-1.65 401.17,-34.36 631.52,-40.94 132.05,-3.78 122.54,-28.83 310.7,-34.04 63.92,-1.77 89.54,-11.88 141.74,-22.7 46.92,-9.72 111.88,-3.08 153.57,-12.72l68.5 -22.88c29.33,-8.83 29.75,-11.17 70.65,-13.06l410.51 -83.21c1.42,-73.53 -9.17,-30.61 -99.22,-108.9 -121.5,-105.65 -263.41,-270.6 -323.3,-423.49 -9.95,-25.41 -8.78,-43.65 -17.23,-68 -5.83,-16.78 -18.75,-26.34 -24.68,-56.8 -5.06,-25.96 -2.79,-50.1 -8.2,-76.44 -9.08,-44.12 -24.18,-87.81 -26.96,-139.88 -11.73,-219.62 11.2,-176.27 29.84,-303.31 16.27,-110.94 -15.83,-19.07 31.31,-138.21 46.39,-117.24 95.73,-210.8 183.53,-314.12l122.45 -127.14c48.08,-42.73 29.02,-24.72 36.85,-45.56 43.95,-6.18 203.63,-122.19 297.11,-142.5 106.09,-23.05 -14.33,-22.28 184.6,-36.88 56.49,-4.13 118.85,-30.95 176.77,-30.68 46.48,0.22 133.22,18.47 197.47,25.16 167.32,17.42 322.52,99.06 447.09,197.91 146.57,116.31 292.3,291.2 358.55,504.26 47.91,154.12 16.3,50.73 38.75,180.88 5.9,34.19 21.76,31.65 26.12,83.73 14.14,168.95 -21.93,189.03 -29.83,290.51 -9.22,118.29 -40.63,94.78 -37.39,159.12 40.86,2.71 74.37,-24.6 108.68,-43.89 20.8,-11.71 30.34,-15.53 55.03,-27.94 43.34,-21.78 35.85,-22.73 42.11,-39.76 29.94,2.72 34.57,-1.19 59.02,-14.78 6.26,-3.49 21.89,-13.38 24.65,-16.24 18.3,-18.91 0.85,4.01 9.84,-20.68 22.49,7.98 20.35,12.68 11.04,-9.55l34.72 2.2c9.32,-8.19 3.93,-11.79 11.76,-24.21 -24.13,-4.8 -8.52,-11.32 -31.39,1.93 -45.51,26.39 5.6,-13.77 -15.09,20.08 -22.13,-9.23 -19.13,-13.14 -11.04,9.55 -29.72,-1.51 -29.59,-0.39 -55.24,14.01 -14.19,7.97 -8.65,2.83 -19.39,12.28 -15.36,13.52 -11.11,13.62 -18.88,25.41l-36.54 -6.79c-16.07,23.8 -101.08,62.56 -116.33,64.83 -13.1,-75.63 26.6,-112.1 32.94,-166.08 4.03,-34.33 5.22,-285.74 -6.53,-322.07 -6.02,-18.62 -18.92,-59.75 -21.91,-78.32 -36.5,-226.3 -106.28,-307.21 -228.05,-471.46l-77.03 -79.72c-102.12,-102.13 -66.22,-54.27 -120.06,-98.75l-125.74 -82.17c-116.66,-59.42 -140.19,-61.45 -247.05,-80.08 -41.34,-7.21 -27.11,-21.55 -72.03,-29.79 -43.79,-8.03 -167.32,-1.67 -219.29,-1.67 -273.44,0 -220.1,37.88 -355.86,72.47 -34.22,8.72 -50.29,13.28 -79.18,27.43l-134.3 74c-10.9,7.18 -22.24,12.78 -32.18,20.35 -28.44,21.66 -21.42,24.17 -25.92,37.9 -67.72,3.56 -150.5,119.88 -193.08,169.05 -12.43,14.37 -11.39,16.29 -18.01,25.4 -38.84,53.52 -32.33,12.16 -100.06,149.79l-71.77 168.02c-43.98,136.07 -35.22,235.13 -35.22,383.99 0,199.87 13.6,331.68 135.65,526.21 24.03,38.31 40.3,66.07 69.6,96.71 34.73,36.31 44.23,58.89 72.89,92.56 59.44,69.84 154.93,113.51 166.98,164.71 -36.55,19.48 -90.91,16.89 -138.45,24.69 -58.31,9.57 2.13,14.21 -138.82,34.74 -26.19,3.81 -48.35,1.59 -76.67,7.98 -26.25,5.92 -39.49,20.29 -64.89,24.49l-307.02 36.82c-58.76,5.18 -94.53,17.47 -146.74,27.13 -62.21,11.51 -94.61,7.57 -162.68,9.64 -78.35,2.38 -97.08,19.14 -150.97,29.25 -98.23,18.44 -219.95,12.07 -325.24,12.08 -118.8,0.01 -287.86,31.4 -320.68,31.23 -196.61,-0.99 -549.94,12 -714.91,-16.6 -115.88,-20.09 -168.2,-13.7 -289.75,-14.36 -114.89,-0.64 -195.44,-40.27 -310.54,-41.74l-455.61 -57.88c-88.33,-19.85 -63.41,1.97 -218.65,-38.69 -14.97,-3.93 -48.06,-7.34 -70.32,-10.11 -138.18,-17.24 -81.18,-23.36 -145.19,-34.64l-804.16 -198.39c-20.1,-9.63 -12.8,-3.4 -24.56,-20.68 -195.58,-8.83 2.94,19.88 -227.76,-53.58 8.9,16.1 13.81,10.97 43.04,20.6 -17.16,-28.16 27.85,-11.17 -70.66,-45.15 -32.64,-11.27 -50.56,-22.51 -83.84,-33.32 -132.38,-43.02 -351.97,-135.37 -476.82,-192.72 -268.53,-123.35 -218.41,-135.79 -306.54,-365.48l-204.17 -697.02c-33.75,-149.9 -66.16,-327.34 -81.14,-478.23 -5.58,-56.18 -14.61,-51.73 -19.03,-92.87 -8.02,-74.69 -10.64,-137.02 -14.59,-217.86 -3.29,-67.33 -18.66,-137.68 -16.86,-203.48l2269.38 -3.3c-8.35,3.04 -51,33.49 -49.19,78.36z"/>
    <path class="fil5" d="M13103.1 18208.96c9.38,-40.34 8.69,-18.76 -10.66,-20.48 8.9,-23.62 13.98,-18.51 -10.44,-18.51 -7.06,29.35 -16.61,29.22 10.44,18.51 -13.98,44.9 -4.53,15.23 10.66,20.48 0.35,46.51 134.13,240.7 167.11,295.75l129.52 213.87c8.93,14.25 19.47,28.61 24.56,38.61 5.04,9.89 7.26,14.55 7.36,19.41 0.83,36.94 -74.7,23.85 -139.17,23.79l-3913.34 -0.06c-114.88,0 -497.31,19.74 -565.29,-15.17l181.62 -312.53c14.72,-24 25.58,-37.29 40.65,-63.27l81.33 -123.89c20.63,-27.51 14.07,-34.61 31.34,-63.26l314.18 -493.12c40.94,-84.11 92.42,-146.29 116.23,-194.58 55.24,-112.01 154.23,-260.04 222.95,-377.87 17.51,-30.02 24.12,-32.05 40.87,-62.49l157.79 -246.06c17.8,-41.95 1.82,-26.4 40.91,-50.72 101.33,0 169.38,-6.01 259.14,15.58 131,31.52 716.8,20.44 827.29,0.94 96.98,-17.13 150.12,-16.51 259.43,-16.48 47.9,0.02 97.74,-0.83 145.44,-5.17 51.41,-4.67 67.98,-20.84 115.6,-26.99 53.1,-6.85 136.03,0.17 193.52,-17.53 111.26,-34.25 100.46,-8.44 189.5,-28.04 136.2,-29.98 88.33,-88.82 200.76,91.59l213.26 344.75c6.03,10.27 11.64,22.64 18.63,33.62 21.91,34.42 1.64,21.18 36.76,27.11 -7.41,20.15 -11.18,17.05 9.41,11.04 -6.14,19.11 -10.04,15.93 9.37,11.62l-4.27 34.16c13.41,10.8 8.4,2.32 25.84,6.3 -10.03,46.44 -1.95,23.83 20.32,31.56l-4.84 34.59c14.1,11.32 7.89,2.13 26.55,5.72 0.63,39.55 -4,15.22 14.94,44.38 11.19,17.23 12.15,17.13 25.37,36.93 10.4,15.56 16.19,24.49 24.52,37.3 4.25,6.54 9.14,15.62 11.98,18.88 22.98,26.32 2.19,7.58 29.03,22.48 -11.57,-43.53 -27.82,-62.55 -48.76,-94.38 -24.72,-37.58 -26.26,-52.85 -57.08,-65.59 0.34,-20.01 2.6,-14.28 -3.89,-28.78 -11.62,-25.94 -1.86,-2.72 -17.82,-11.53 3.18,-44.76 0.75,-22.84 -20.32,-31.56 -2.38,-27.19 9.99,-13.39 -6.67,-24.06 -4.35,-32.92 2.29,-13.64 -14.9,-16.4 4.68,-19.97 9.68,-18.01 -9.37,-11.62 6,-20.47 10.58,-18.24 -9.41,-11.04 2.17,-31.52 -58.13,-123.48 -75.51,-155.35 -22.71,-41.65 -55.92,-89.33 -83.83,-132.17 -43.29,-66.44 -129.96,-222.1 -177.43,-264.51 -54.22,3.14 -130.68,7.82 -173.85,22.72l-338.85 54.29c-406.15,45.49 -489.14,43.14 -916.23,43.24l-590.66 -6.7c-39.52,-2.77 -43.96,-11.02 -73.54,-15.44 -27.96,-4.18 -63.03,-2.04 -92.04,-4.27 -186.34,-14.35 -579.42,-88.08 -688.5,-89.4l-333.75 544.26c-220.23,346.94 -447.4,744.36 -667.55,1092.56l-248.33 403.2c-24.43,42.7 -75.99,93.8 -51.76,130.21 81.26,12.14 253.13,2.23 344.29,2.24l5000.38 0.98c116.79,0.27 177.64,15.02 147.35,-49.65l-166.65 -268.57c-59.5,-94.12 -130.92,-233.52 -195.83,-310.24 0,-18.67 3.08,-13.26 -15.66,-5.19z"/>
    <path class="fil4" d="M5717.01 11680.18c-67.09,-51.72 -205.12,-192.95 -252.37,-205.47 2.43,106.6 118.46,302.48 156.02,392.2 37.02,88.47 176.51,384.96 232.56,463.84 19.79,27.86 29.9,59.49 46.79,88.01 34.09,57.54 67.67,104.8 105.5,163.1l220.84 317.6c20.39,27.22 46.58,56.74 63.02,81.33 92.17,137.85 194.63,232.54 310.94,373.03 38.48,46.49 88.93,93.22 132.69,136.9 49.12,49.03 90.66,90.65 140.69,138.85l288.15 250.69c37.42,31.05 100.7,104.73 155.5,112 0.62,-56.15 5.01,-56.25 -15.9,-96.6 -23.42,-45.2 -19.64,-261.65 1.67,-313.01 36.96,-89.08 -8.39,-98.47 115.8,-339.83 72,-139.94 195.69,-272.73 318.08,-365.09 51.24,-38.66 103.41,-43.68 121.01,-107.39 -140.56,-29.49 -536.03,-178.73 -686.7,-237l-775.43 -383.57c-191.43,-102.26 -510.45,-339.75 -678.86,-469.59z"/>
    <path class="fil4" d="M5471.88 7599.21c71.21,-11.88 130.06,-110.43 240.68,-192.31 43.22,-32 68.44,-56.28 115.8,-91.52l247.07 -177.19c20.73,-13.99 40.16,-25.41 63.79,-39.96 224.92,-138.56 368.04,-232.17 616.04,-347.9l290.12 -134.22c111.44,-70.72 571.62,-219.36 592.37,-235.62 15.24,-11.94 5.78,-4.56 15.81,-18.64 -2.03,-1.97 -4.96,-7.99 -5.98,-6.02l-204.79 -159.23c-126.55,-124.77 -77.2,-83.82 -167.91,-204.75 -55.08,-73.45 -82.51,-165.01 -120.03,-251.96 -27.86,-64.57 -51.43,-241.07 -50.83,-320.15l1.24 -147.98c-62.72,7.45 -222.54,181.6 -267.69,225.64 -86.18,84.06 -163.04,163.67 -246.88,250.07 -80.94,83.42 -148.14,172.82 -223.01,264.5 -39.08,47.86 -70.48,88.9 -110.3,137.45 -69.02,84.18 -60.1,91.54 -101.55,147.86 -143.76,195.27 -417.95,640.75 -503.42,854.53 -9.26,23.17 -26.81,61.76 -38.25,84.96 -33.5,67.89 -139.81,294.66 -142.28,362.44z"/>
    <path class="fil6" d="M13977.6 11558.93c32.89,-153.13 -39.25,-310.23 -106.28,-402.3 -20.52,-28.2 -39.96,-47.27 -64.73,-70.34 -55.5,-51.73 -188.58,-123.14 -257.59,-133.4 -230.25,-34.21 -439.28,77.17 -538.89,240.6 -118.47,194.37 -98.62,441.62 37.36,610.27 39.26,48.69 80.52,92.54 146.01,124.47 42,20.48 137.13,64.89 182.8,71.07 282.61,38.29 538.37,-147.4 601.32,-440.37z"/>
    <path class="fil6" d="M10600.76 7620.47c161.02,-0.1 266.67,-36.16 371.54,-141.66 79.33,-79.81 151.71,-214.67 151.12,-371.56 -0.51,-137.3 -62.33,-268.83 -150.73,-356.43 -53.04,-52.56 -100.53,-93.66 -175.13,-121.06 -10.32,-3.79 -14.68,-5.23 -23.2,-8.83 -72.31,-30.56 -77.89,-24.92 -173.6,-24.85 -245.87,0.17 -439.35,126.05 -498.21,344.42 -8.02,29.75 -9.23,19.26 -17.7,44.28 -53.44,158.08 26.12,372.14 138.72,489.32 93.9,97.7 187.16,146.5 377.19,146.37z"/>
    <path class="fil7" d="M4564.29 9281.81c-80.27,-10.06 -606.5,-3.41 -734.23,-3.41 -144.46,0.01 -344.72,-26.8 -419.52,133.92 -53.17,114.23 -54.11,166.85 9.67,277.33 83.74,145.03 262.72,129.81 420.21,129.78 111.54,-0.02 661.34,17 715.62,-9.06l11 -31.55c0.77,-6.42 0.13,-24.1 0.06,-31.34l-2.81 -465.67z"/>
    <path class="fil4" d="M9143.52 4919.95c-9.1,38.77 11.43,42.08 23.51,77.42 13.49,39.47 10.06,57.02 39.55,76.35 -11.82,47.36 -7.11,20.35 9.29,22.04l21.37 68.27c3.08,-21 12.43,-9.53 0.56,-43.94 -7.28,-21.12 -16.76,-19.75 -21.93,-24.33 17.37,-43.44 7.14,-15.74 -9.29,-22.04 8.59,-40.34 -38.24,-133.12 -63.06,-153.77 0.15,-42.47 -24.87,-72.62 -48.2,-103.67 -36.37,-48.38 -50.74,-52.76 -49.93,-124.05 40.09,-25.18 81.89,-59.78 127.91,-89.04l279.53 -166.37c51.18,-29.58 93.56,-56.65 145.75,-82.47 113.72,-56.27 339.61,-177.01 452.83,-220.69 166.34,-64.17 330.78,-148.7 497.83,-174.27 65.29,-9.99 119.83,-36.82 197.02,-35.5 61.33,1.05 146.02,24.49 196.52,29.78 142.69,14.94 297.21,6.9 433.97,25.55 61.17,8.36 352.54,63.42 398.56,55.49 -2.67,-2.18 -6.38,-8.96 -8.13,-6.37l-75.12 -30.65c-28.99,-10.12 -70.54,-11.42 -98.7,-14.74 -74.88,-8.81 -47.47,-22.81 -205.39,-30.62 -219.82,-10.88 -200.92,-30.69 -445.57,-33.22 -159.08,-1.64 -317.51,0.16 -476.55,1.49l-204.28 29c-75.63,10.03 -154.09,0.29 -221.6,16.44 -139.8,33.43 -174.37,2.5 -295.63,47.85 -17.1,6.4 -513.31,106.61 -578.05,135.54l-274.35 86.7c-93.95,22.01 -202.63,84.5 -294.87,117.5l-37.84 22.49c-2.09,1.92 -4.39,5.62 -6.7,8.35 20.07,53.44 -22.64,5.74 86.27,59.41 32.75,16.14 63.64,32.85 92.52,51.42 107.91,69.38 216.4,158.74 293.42,262.85 20.38,27.55 33.56,55.16 52.08,83.93l39.38 64.06c17.98,18.78 1.24,9.92 27.32,13.81z"/>
    <path class="fil8" d="M9715.92 11056.07c-106.94,-143.62 -181.03,-419.5 -130.54,-601.71 40.53,-146.31 0.87,-157.94 130.92,-338.18 196.41,0.91 362.7,229.93 362.05,469.57 -0.37,135.67 -33.62,227.91 -96.92,312.5 -51.8,69.22 -142.02,158.15 -265.51,157.82zm383.5 -356.42c36.53,-171.05 -22.74,-315.35 -94.06,-419.78 -86.99,-127.38 -271.04,-229.33 -429.76,-229.45 -85.31,-0.07 -228.02,48.33 -301.31,99.34 -77.51,53.94 -203.42,188.92 -216.01,311.34 -8,77.87 -10.06,192.78 2.27,269.65 7.93,49.4 63.26,142.16 90.85,176 109.21,133.96 181,163.6 329.05,199.65 225.97,55.03 414.24,-66.04 541.79,-229.05 38.42,-49.11 64.26,-117.25 77.18,-177.7z"/>
    <path class="fil8" d="M8173.62 5419.74c0.7,-220.52 13.57,-198.32 119.85,-420.95 14.52,-30.4 17.85,-26.94 34.93,-49.3 61.35,0.22 102.37,25.33 148.6,57.86 238.02,167.49 281.38,464.17 110.24,726.93 -38.16,58.58 -157.27,162.47 -256.92,163.96 -15.37,-18.2 -19.04,-18.06 -32.81,-40.18 -12.04,-19.38 -19.44,-35.64 -29.09,-54.11 -36.18,-69.28 -73.03,-138.76 -83.46,-228.93 -6.49,-56.17 -11.53,-94.66 -11.34,-155.28zm-87.21 -517.93c-160.62,46.2 -240.46,89.75 -326.98,202.8 -301.13,393.45 51.58,933.24 541.74,837.88 54.84,-10.66 139.37,-48.8 180.34,-75.89 93.34,-61.7 204.03,-196.29 218.47,-312.41 6.13,-49.35 19.59,-61.6 21.34,-113.41 1.87,-55.25 -7.81,-73.1 -17.43,-114.23l-22.77 -67.59c-38.7,-92.22 -19.27,-73.86 -91.09,-167.81 -98.76,-129.18 -319.9,-242.18 -503.62,-189.34z"/>
    <path class="fil8" d="M8877.82 13838.96l-31.86 61.78c-25.26,72.24 -40.78,112.67 -98.6,173.78 -90.74,95.9 -128.94,134.27 -244.77,131.22 -12.74,-18.5 -25.02,-27.07 -36.39,-47.41l-95.83 -226.42c-6.92,-23.88 -9.21,-42.46 -10.3,-74.36 -1.77,-51.46 -1.82,-104.09 -1.18,-155.6 1.71,-139.75 33.23,-257 106.98,-374.06 31.01,-49.22 32.35,-46.7 96.4,-60.28 4.96,11.61 -20.16,12.67 22.54,8.14 4.24,12.6 -17.65,10.96 21.15,9.75 4.13,14.48 -13.86,11.53 19.08,11.79l77.82 66.42c31.63,28.84 40.39,48.26 69.72,64.49 -3.74,18.03 -8.36,15.67 8.84,11.82l8.25 20.75 16.41 16.34c5.5,23.73 4.62,23.6 16.75,48.03l20.24 28.61c-3.03,41.09 -3.01,17.54 8.43,22.34 0.09,11.16 -6.74,33.13 11.52,29.92l9.59 40.88 -0.16 183.77c20.09,-32.9 13.55,-53.66 13.38,-97.67 -0.06,-12.93 0.96,-41.08 -0.51,-52.39 -6.02,-46.3 -6.16,-22.89 -12.71,-33.71 2.25,-13.32 14.45,-44.01 -9.59,-40.88 2.79,-19.92 13.44,-34.83 -11.52,-29.92 8.99,-43.1 3.91,-15 -8.43,-22.34 0,-24.2 0.34,-28.26 -11.2,-48.75 -11.8,-20.95 -12.83,-17.48 -25.79,-27.89l4.95 -15.52c-0.84,-0.83 -16.24,-13.8 -16.38,-13.91 -1.13,-0.85 -5.59,-0.78 -6.47,-3.94 -0.89,-3.22 -4.54,-2.43 -6.76,-3.72 4.69,-18 8.92,-15.19 -8.84,-11.82 -9.94,-37.65 -36.73,-56.41 -63.71,-80.8 -24.5,-22.14 -47.67,-45.25 -83.83,-50.11 -6.54,-14.68 20.28,-16.14 -19.08,-11.79 -7.49,-12.89 20,-16.61 -21.15,-9.75 -7,-12.8 16.03,-17.61 -22.54,-8.14 -9.03,-9.07 -0.72,-5.79 -18.78,-16.09 -6.64,-3.79 -16.04,-6.2 -22.82,-8.57 -14.19,-4.96 -23.49,-8.27 -37.25,-11.64 -66.61,-16.3 -233.11,-8.44 -290.25,10.22 -181.9,59.43 -356.83,252.38 -363.26,460.33 -7.52,243.54 102.78,413.85 304.01,520.58 91.42,48.48 223.48,74.79 336.31,41 204.98,-61.38 393.64,-210.83 407.59,-424.48z"/>
    <path class="fil4" d="M11031.74 15141.57c-159.76,-31.16 -442.78,29.15 -599.19,-28.47 -37.24,-13.73 -65.53,-32.82 -106.74,-47.16 -197.42,-68.71 -590.64,-246.91 -747.19,-341.08 -146.21,-87.95 -234.96,-131.84 -380.02,-231.01 3.53,-55.74 22.38,-74.7 52.22,-113.14l102.68 -169.46c22.02,-37.4 54.98,-90.91 39.52,-138.4 -10.69,11.43 -6.26,3.8 -16.35,20.6l-41.1 104.4c-9.09,26.38 3.05,-3.2 -8.57,22.39 -31.04,68.32 -155.61,224.26 -208.36,277.2 -156.54,157.11 -232.82,194.69 -426.41,266.73 57.41,61.54 289.8,113.71 382.42,145.44 34.68,11.9 84.83,26.6 119.92,43.68 41.5,20.21 93.59,14.74 143.99,33.38 101.35,37.47 188.56,41.55 282.67,60.56 53.46,10.79 83.31,24.66 132.96,32.12 109.33,16.43 188.89,26.56 299.85,41.72 66.78,9.11 93.83,6.69 154.76,20.59 77.9,17.77 409.82,16.3 495.49,16.25 55.21,-0.04 110.44,0.15 165.65,-0.14 27.63,-0.15 55.2,-0.82 82.8,-1.02 97.51,-0.67 66.16,-2.64 79,-15.18z"/>
    <path class="fil6" d="M8173.62 5419.74c-0.19,60.62 4.85,99.11 11.34,155.28 10.43,90.17 47.28,159.65 83.46,228.93 9.65,18.47 17.05,34.73 29.09,54.11 13.77,22.12 17.44,21.98 32.81,40.18 99.65,-1.49 218.76,-105.38 256.92,-163.96 171.14,-262.76 127.78,-559.44 -110.24,-726.93 -46.23,-32.53 -87.25,-57.64 -148.6,-57.86 -17.08,22.36 -20.41,18.9 -34.93,49.3 -106.28,222.63 -119.15,200.43 -119.85,420.95z"/>
    <path class="fil6" d="M8877.82 13838.96l-5.37 -8.3 0.16 -183.77 -9.59 -40.88c-18.26,3.21 -11.43,-18.76 -11.52,-29.92 -11.44,-4.8 -11.46,18.75 -8.43,-22.34l-20.24 -28.61c-12.13,-24.43 -11.25,-24.3 -16.75,-48.03l-16.41 -16.34 -8.25 -20.75c-17.2,3.85 -12.58,6.21 -8.84,-11.82 -29.33,-16.23 -38.09,-35.65 -69.72,-64.49l-77.82 -66.42c-32.94,-0.26 -14.95,2.69 -19.08,-11.79 -38.8,1.21 -16.91,2.85 -21.15,-9.75 -42.7,4.53 -17.58,3.47 -22.54,-8.14 -64.05,13.58 -65.39,11.06 -96.4,60.28 -73.75,117.06 -105.27,234.31 -106.98,374.06 -0.64,51.51 -0.59,104.14 1.18,155.6 1.09,31.9 3.38,50.48 10.3,74.36l95.83 226.42c11.37,20.34 23.65,28.91 36.39,47.41 115.83,3.05 154.03,-35.32 244.77,-131.22 57.82,-61.11 73.34,-101.54 98.6,-173.78l31.86 -61.78z"/>
    <path class="fil6" d="M9715.92 11056.07c123.49,0.33 213.71,-88.6 265.51,-157.82 63.3,-84.59 96.55,-176.83 96.92,-312.5 0.65,-239.64 -165.64,-468.66 -362.05,-469.57 -130.05,180.24 -90.39,191.87 -130.92,338.18 -50.49,182.21 23.6,458.09 130.54,601.71z"/>
    <path class="fil7" d="M19607.58 4529.56l942.18 6.66c173.32,0.24 311.6,-173.64 280.32,-327.25 -13.87,-68.11 -60.77,-140.55 -122.66,-178.37 -93.87,-57.37 -138.69,-40.44 -271.54,-40.44 -62.44,0 -773.79,-13.19 -820.06,8.7 -22.68,44.91 -9.75,432.37 -8.24,530.7z"/>
   </g>
  </g>
 </g>
</svg>
