<?xml version="1.0" encoding="UTF-8"?>
<!DOCTYPE svg PUBLIC "-//W3C//DTD SVG 1.1//EN" "http://www.w3.org/Graphics/SVG/1.1/DTD/svg11.dtd">
<!-- Creator: CorelDRAW 2020 (64 Bit) -->
<svg xmlns="http://www.w3.org/2000/svg" xml:space="preserve" width="242.147mm" height="242.147mm" version="1.1" style="shape-rendering:geometricPrecision; text-rendering:geometricPrecision; image-rendering:optimizeQuality; fill-rule:evenodd; clip-rule:evenodd"
viewBox="0 0 24214.7 24214.7"
 xmlns:xlink="http://www.w3.org/1999/xlink"
 xmlns:xodm="http://www.corel.com/coreldraw/odm/2003">
 <defs>
  <style type="text/css">
   <![CDATA[
    .str0 {stroke:#373435;stroke-width:20;stroke-miterlimit:22.9256}
    .fil0 {fill:#FEFEFE}
    .fil2 {fill:#FFCC29}
    .fil1 {fill:#020202}
   ]]>
  </style>
 </defs>
 <g id="Camada_x0020_1">
  <metadata id="CorelCorpID_0Corel-Layer"/>
  <g id="_2352334547136">
   <rect class="fil0 str0" x="0.01" y="0.01" width="24214.68" height="24214.68"/>
   <g>
    <path class="fil1" d="M11766.21 5445.75l0.98 1713.95c-863.34,68.72 -875.99,190.64 -1335.29,262.22 -265.35,-398.5 -279.16,-1083.83 -769.07,-920.18 -501.13,167.4 63.27,875.57 124.86,1222.9 -376.66,178.2 -511.08,315.37 -804.6,522.19 -83,58.49 -160.17,161.6 -251.99,201.87 -208.05,-157.44 -1594.64,-1544.64 -1739.25,-1626.3 33.83,-207.91 258.83,-483.43 101.31,-1024.23 -96.08,-329.85 -267.42,-539.68 -492.96,-716.97 -515.4,-405.11 -1244.76,-341.31 -1747.47,160.03 -683.15,681.3 -410.77,1930.52 651.48,2203.77 468.49,120.51 654.42,-3.45 1007.21,-146.27l1725.65 1630.35c3.31,3.66 10.13,11.2 14.52,17.32l-399.61 590.5c-378.22,628.41 -682.35,1480.45 -700.13,2242.49l-1712.01 1.43c-362.36,-1478.49 -2618.3,-1230.21 -2613.21,336.56 5.09,1567.99 2246.82,1798.41 2609.24,340.37l1709.75 -3.24c49.02,209.34 63.89,518.8 107.06,735.04 47.1,235.96 135.55,443.99 177.92,657.45 -564.76,408.87 -1826.52,537.89 -1597.96,1109.6 162.44,406.31 691.58,64.4 934.1,-48.12 290.27,-134.69 659.6,-316.34 955.42,-423.1l898.62 1177.72c-85.7,176.49 -260.03,323 -390.16,479.7l-794.17 935.53c-102.43,119.9 -309.43,388.43 -406.14,445.31 -346.06,-118.32 -583.7,-186.46 -980.23,-46.19 -1029.4,364.14 -1202.15,1602.28 -431.89,2277.55 980.29,859.41 2466.09,-125.07 2147.36,-1370.63 -45.04,-176.04 -134.67,-283.54 -179.31,-415.11 74.01,-113.9 1484.77,-1788.85 1577.27,-1841.81 554.01,332.85 659.34,467.09 1348.1,695.31 162.85,53.95 390.32,88.4 535.29,166.37 14.19,898.19 -605.61,2280.5 18.81,2348.5 457.63,49.84 424.59,-585.71 480.05,-976.19 60.69,-427.24 140.23,-860.47 184.14,-1287.07l400.62 6.54c62.85,-1410.39 891.56,-2710.02 1984.36,-3470.96 145.59,-101.38 363.58,-205.94 493.92,-310.67 -29.2,-77.97 -45.98,-73.95 -123.36,-133.12 -156.44,-119.64 -306.39,-208.08 -504.45,-273.17 -467.58,-153.65 -2491,-89.57 -3059.04,-90.32 -717.51,-0.94 -1159.72,236.09 -1460.84,620.72 -460.69,588.46 -334.41,910.53 -376.04,1726.37 -108.73,-62.02 -77.9,-71.52 -180.25,-179.17 -1940.17,-2040.67 -1232.42,-5732.27 1677.76,-6881.32 2176.72,-859.46 4536.16,278.69 5456.97,2311.95 343.76,759.08 422.97,1497.48 302.9,2393.58l686.43 -6.15c130.32,-1128.23 -27.61,-1120.02 -103.32,-1910.83l2006.54 -677.92c140.86,146.35 133.51,201.51 299.32,325.08 420.44,313.31 954.61,344.01 1407.26,124.64 527.49,-255.66 926.34,-891.7 669.35,-1624.67 -467.67,-1333.86 -2568.08,-1171.48 -2586.89,517.98l-2004.96 667.67c-56.04,-61.99 -202.23,-397 -263.92,-508.82 -104.08,-188.68 -202.24,-335.86 -315.44,-493.56 -221.27,-308.25 -512.42,-648.52 -774.83,-835.63 44.4,-117.21 1094.56,-1519.28 1210.06,-1629.51 429.77,61.19 558.04,167.25 1003.75,-22.73 1038.49,-442.64 1058.99,-1721.97 291.97,-2298.3 -538.17,-404.39 -1382.05,-300.63 -1755.66,143.62 -301.36,358.35 -481.27,858.88 -302.63,1367.81 64.65,184.19 151.13,261.65 212.13,396.47l-1206.43 1602.53c-212.78,-76.73 -440.03,-293.19 -1051.53,-502.93 -447.13,-153.36 -802.06,-218.05 -1315.8,-271.33l-6.6 -1699.88c395.05,-176.71 518.48,-200.82 731.37,-488.11 177.26,-239.21 286.65,-582.24 240.33,-965.44 -186.65,-1544.12 -2411.79,-1556.26 -2615.63,-22.74 -49.74,374.23 47.81,729.98 225.37,971.91 132.01,179.88 408.38,442.63 743.52,491.79z"/>
    <path class="fil1" d="M11992.86 8967.76c-247.9,26.81 -454.27,72.83 -647.97,170.75 -1574.5,796.04 -948.49,3293.99 893.46,3136.49 890.76,-76.18 1599.37,-793.74 1509.17,-1802.03 -77.85,-870.28 -806.95,-1607.77 -1754.66,-1505.21z"/>
    <g>
     <path class="fil2" d="M16306.14 13457.05c-1074.42,132.48 -1922.85,591.55 -2590.24,1367.99 -599.69,697.69 -1072.61,1744.47 -923.24,3001.71 442.55,3724.92 4854.9,4632.63 6992.27,2173.65 567.87,-653.32 1032.8,-1838.65 910.73,-3010.75 -228.86,-2197.62 -2244.08,-3797.14 -4389.52,-3532.6zm97.87 4195.11l5.23 1226.15c-415.96,-134.86 -338.79,-536.58 -427.93,-693.96 -148.92,-262.95 -587.67,-192.79 -595.93,187.8 -6.97,320.38 165.36,624.06 319.95,780.43 104.45,105.66 162.52,168.06 298.22,248.34 112.23,66.39 296.23,109.04 390.32,191.49 90.03,129.13 56.03,317.88 351.18,313.89 267.51,-3.61 247.83,-168.52 341.46,-326.81 43.39,-42.9 988.08,-258.73 1004.49,-1207.67 11.63,-672.41 -452.29,-1046.45 -1021.19,-1185.66l-2.64 -1238.2c375.18,61.11 373.26,586.08 419.76,674.87 147.67,281.99 599.9,207.47 604.28,-180.76 7.06,-625.91 -506.56,-1037.29 -1018.11,-1191.73 -114.8,-487.94 -502.6,-352.81 -598.81,-204.04 -89.2,137.93 6.88,163.44 -145.32,230.01 -342.58,149.86 -590.88,233.75 -802.69,638.81 -254.41,486.55 -189.72,1186.63 376.59,1512.2 156.93,90.21 366.28,130.65 501.14,224.84z"/>
     <path class="fil2" d="M16409.4 16943.28l-0.4 -1001.32c-420.72,126.18 -601.07,869.36 0.4,1001.32z"/>
     <path class="fil2" d="M17068.59 18878.02c172.88,-31.86 350.2,-253.44 372.95,-476.72 28.24,-277.1 -141.34,-499.29 -373.77,-516.49l0.82 993.21z"/>
    </g>
   </g>
  </g>
 </g>
</svg>
