<?xml version="1.0" encoding="UTF-8"?>
<!DOCTYPE svg PUBLIC "-//W3C//DTD SVG 1.1//EN" "http://www.w3.org/Graphics/SVG/1.1/DTD/svg11.dtd">
<!-- Creator: CorelDRAW 2020 (64 Bit) -->
<svg xmlns="http://www.w3.org/2000/svg" xml:space="preserve" width="41.131mm" height="41.319mm" version="1.1" style="shape-rendering:geometricPrecision; text-rendering:geometricPrecision; image-rendering:optimizeQuality; fill-rule:evenodd; clip-rule:evenodd"
viewBox="0 0 4113.1 4131.9"
 xmlns:xlink="http://www.w3.org/1999/xlink"
 xmlns:xodm="http://www.corel.com/coreldraw/odm/2003">
 <defs>
  <style type="text/css">
   <![CDATA[
    .fil0 {fill:white}
   ]]>
  </style>
 </defs>
 <g id="Camada_x0020_1">
  <metadata id="CorelCorpID_0Corel-Layer"/>
  <g id="_2352334988160">
   <path class="fil0" d="M1281.3 540.73c5.9,-7.77 30.42,-18.01 40.57,-23.03l126.99 -55.86c201.14,-76.86 397.27,-115.14 618.1,-115.15 238.37,-0.01 422.38,41.22 636.97,123.84l3.99 1.46c7.81,2.88 14.09,5.53 21.16,8.63 25.87,11.38 110.34,45.65 120.98,59.95 27.95,2.98 178.79,104.32 215.09,131.25l26.7 19.57c7.91,6.04 13.47,10.72 21.38,16.78l86.05 72.46c7.65,6.43 12.32,10.53 21.2,19.62 12.66,12.96 27.7,25.12 41.38,37.88 22.95,21.4 37.89,42.26 57.2,60.16l55.99 64.21c140.02,160.1 271.08,414.85 327.29,620.49 45.67,167.09 77.7,379.42 61.06,567.43 -13.11,128.69 -13.58,158.8 -42.44,289.01 -55.83,251.84 -203.87,537.87 -363.8,714.41 -42.02,46.37 -71.85,83.25 -121.05,127.48l-133.62 114.91c-102.51,74.68 -135.87,98.89 -253.29,161.89 -69.36,37.21 -152.74,74.05 -232.63,100.42 -511.97,168.96 -1017.41,103.48 -1466.32,-173.55 -14.47,-8.93 -12.59,-9.63 -30.57,-4.59 -178.81,50.18 -375.47,99.46 -557.99,146.84 -20.99,5.45 -48.41,14.17 -69.27,17.3 12.74,-63.31 36.11,-131.98 52.85,-194.97 17.51,-65.83 36.53,-129.84 53.61,-195.03 16.63,-63.46 35.48,-130.26 52.88,-192.87 16.41,-59.05 13.44,-38.8 -14.19,-85.28 -19.5,-32.81 -52.27,-83.09 -68.92,-116.77 -59.98,-121.39 -82.92,-158.37 -128.95,-305.27 -20.34,-64.95 -36.92,-133.01 -49.02,-199.34l-16.03 -107.01c-2.6,-22.16 -11.52,-98.77 -7.77,-117.23l-3.18 -15.62c-0.32,-6.35 -0.34,-12.94 -0.56,-19.34 -5.69,-165.46 19.68,-369.95 66.99,-522.61 82.58,-266.51 171.77,-415.97 328.2,-613.97l53.85 -60.79c76.39,-88.77 179.31,-170.98 272.86,-240.57 23.35,-17.37 171.1,-113.76 196.26,-117.14zm-605.94 1.07c-7.39,12.01 -22.16,23.4 -32.94,33.89l-102.07 105.52c-24.26,23.15 -104.33,126.89 -125,153.49 -31.66,40.77 -83.96,121.14 -111.18,167.35 -35.53,60.32 -64.66,117.29 -96.5,182.05 -111.73,227.24 -180.99,525.58 -189.74,786.2 -1.5,44.86 0.15,91.24 -0.97,136.53 3.44,43.06 3.97,87.31 7.82,130.92 3.64,41.25 9.05,82.86 15.24,123.58 38.34,251.96 115.6,457.71 230.48,676.24 10.17,19.36 21.42,25.73 15.21,48.57 -9.98,36.68 -19.34,72.9 -30.05,109.31 -21.37,72.67 -41.68,148.67 -60.36,220.81l-120.77 438.62 -75.37 277.03c117.09,-26.12 284.68,-74.07 406.94,-105.88 68.97,-17.96 133.26,-35.4 203.46,-53.45 29.49,-7.58 190.71,-53.27 205.9,-51.89l107.58 -30.58c36.63,-9.95 73.25,-18.73 110.31,-28.99 13.92,-3.86 42.73,-14.5 54.98,-11.49l92.24 47.16c11.5,5.46 39.18,15.12 47.65,24.31 10.08,0.44 80.6,31.65 97.51,38.29 34.62,13.61 68.02,24.83 102.85,36.44 383.25,127.79 820.91,133.45 1208.93,19.66l52.36 -16.06c78.58,-23.61 175.33,-64.35 250.51,-99.1 14.96,-6.91 85.42,-44.16 92.41,-45.01l182.99 -113.48c53.09,-36.67 108.8,-77.23 157.33,-118.74l23.64 -19.9c14.38,-13.9 35.51,-28.8 48,-42.26 16.27,-17.53 29.75,-25.09 45.1,-42.26 9.2,-10.29 12.65,-14.01 21.23,-22.26 0.39,-0.38 0.98,-0.93 1.37,-1.3 0.39,-0.38 0.97,-0.94 1.36,-1.33l2.74 -2.72c2.46,-2.51 3.09,-3.27 5.45,-5.71 4.47,-4.63 6.21,-6.26 11.26,-10.64 21.71,-18.85 63.01,-69.45 84.56,-92.98 28.74,-31.37 53.78,-63.09 79.7,-97.69 82.05,-109.57 138.75,-199.49 202.69,-327.13 127.94,-255.41 207.55,-560.76 212.03,-850.09 -4.64,-164.04 0.1,-233.39 -25.92,-389.53 -27.34,-163.99 -74.85,-333.44 -141.1,-484.03 -42.14,-95.78 -70.58,-149.93 -123.36,-239.58 -0.3,-0.5 -0.7,-1.19 -1,-1.7l-19.06 -30.2c-9.45,-15.34 -17.06,-27.58 -27.77,-43.26 -38.93,-56.94 -74.7,-108.33 -118.04,-160.57l-200.3 -215.98c-8.95,-3.49 -13.55,-8.1 -19.62,-14.66 -7.31,-7.89 -8.23,-8.18 -15.87,-14.18 -6.7,-5.25 -9.04,-8.84 -15.54,-14.38 -76.71,-65.42 -138.76,-112.5 -222.84,-167.77 -321.99,-211.7 -707.42,-330.99 -1117.59,-330.99 -333.44,0 -692.75,89.66 -965.89,242.51 -54.97,30.76 -103.1,57.33 -150.96,89.39 -65.35,43.76 -159.68,112.5 -222.63,167.84 -13.36,11.74 -37.34,36.21 -49.39,42.06z"/>
   <path class="fil0" d="M1220.26 2108.61c7.05,4.13 63.77,87.07 74.68,101.11 38.87,50.01 154.13,195.49 199.87,237.26 25.48,23.27 78.06,82.13 110.62,110.3l69.48 61.64c13.53,12.54 32.51,26.99 47.88,39.52l132.19 97.52c40.06,26.58 88.42,58.1 130.23,79.65 38.69,19.94 77.28,40.84 117.4,57.53 20.49,8.53 39.99,17.07 61.47,25.82 79.58,32.43 168.19,66.51 258.54,91.03 94.03,25.51 222.67,31.61 317,9.78 100.76,-23.32 261.39,-114.89 314.85,-212.26 18.87,-34.35 33.83,-91.07 41.37,-133.62 28.01,-158.01 6.75,-147.94 -121.73,-210.16 -59.74,-28.94 -303.26,-154.66 -361.43,-165.55 -35.98,-6.74 -50.21,4.32 -66.53,20.05 -10.9,10.49 -27.2,36.55 -37.37,50.1 -19.83,26.44 -134.95,173.71 -163.39,188.82 -39.5,20.99 -87.34,-10.66 -129.38,-28.87 -133.87,-57.98 -215.92,-111.38 -326.92,-200 -31.88,-25.44 -164.04,-149.2 -172.62,-176.02 -11.19,-4.89 -38.78,-44.34 -48.15,-56.49 -28.72,-37.24 -58.4,-82.8 -84.27,-123.36 -37.52,-58.85 -49.2,-84.39 2.47,-135.62 10.98,-10.89 84.55,-95.91 95.12,-112.61 12.68,-20.05 23.66,-42.06 34.98,-66.08 21.15,-44.85 -3.19,-78.15 -19.62,-118.08 -1.31,-3.2 -2.55,-6.66 -3.77,-9.68 -1.54,-3.77 -1.68,-3.95 -4.2,-9.57 -2.45,-5.47 -5.11,-11.48 -7.43,-17.19 -4.93,-12.11 -9.97,-23.86 -14.95,-36.77l-44.82 -108.27c-19.94,-48.03 -39.69,-97.35 -59.72,-145.07 -19.99,-47.6 -41.08,-104.47 -95.8,-109.18 -51.71,-4.44 -148.59,-7.03 -191.76,10.77 -40.35,16.65 -84.17,59.57 -111.11,93.57 -32.15,40.56 -54.49,69.62 -82.79,124.92 -79.38,155.16 -68.28,354.74 -5.37,509.08 30.27,74.27 62.45,139.26 104.69,203.68 10.23,15.6 36.41,49.76 40.29,62.3z"/>
  </g>
 </g>
</svg>
