<?xml version="1.0" encoding="UTF-8"?>
<!DOCTYPE svg PUBLIC "-//W3C//DTD SVG 1.1//EN" "http://www.w3.org/Graphics/SVG/1.1/DTD/svg11.dtd">
<!-- Creator: CorelDRAW 2020 (64 Bit) -->
<svg xmlns="http://www.w3.org/2000/svg" xml:space="preserve" width="52.39mm" height="41.319mm" version="1.1" style="shape-rendering:geometricPrecision; text-rendering:geometricPrecision; image-rendering:optimizeQuality; fill-rule:evenodd; clip-rule:evenodd"
viewBox="0 0 5239 4131.9"
 xmlns:xlink="http://www.w3.org/1999/xlink"
 xmlns:xodm="http://www.corel.com/coreldraw/odm/2003">
 <defs>
  <style type="text/css">
   <![CDATA[
    .fil0 {fill:none;fill-rule:nonzero}
    .fil1 {fill:white}
   ]]>
  </style>
 </defs>
 <g id="Camada_x0020_1">
  <metadata id="CorelCorpID_0Corel-Layer"/>
  <g id="_2354944823888">
   <path class="fil0" d="M1800.7 2982.03l1627.25 -916.08 -1627.25 -916.08 0 1832.16zm813.62 -458.04m0 -916.08m-813.62 458.04"/>
   <polygon class="fil1" points="3711.31,2065.95 2084.06,1149.87 2084.06,2982.03 "/>
   <path class="fil1" d="M4134.81 3766.43c-1009.6,67.35 -2023.42,64.43 -3040.96,0 -442.71,-28.02 -806.04,-436.85 -806.04,-970.77l0 -1463.98c0,-533.93 351.18,-953.47 794.11,-976.1 987,-50.44 1998.28,-54.94 3040.95,0 442.9,23.33 817.97,442.18 817.97,976.1l0 1463.98c0,533.92 -363.4,941.25 -806.03,970.77zm178.03 -3719.75c-1173.98,-64.86 -2312.6,-59.55 -3423.9,0 -498.7,26.72 -894.1,522.03 -894.1,1152.39l0 1728.37c0,630.36 409.08,1113.02 907.54,1146.11 1145.68,76.06 2287.17,79.51 3423.9,0 498.38,-34.86 907.54,-515.75 907.54,-1146.11l0 -1728.37c0,-630.35 -422.31,-1124.84 -920.98,-1152.39z"/>
  </g>
 </g>
</svg>
