<?xml version="1.0" encoding="UTF-8"?>
<!DOCTYPE svg PUBLIC "-//W3C//DTD SVG 1.1//EN" "http://www.w3.org/Graphics/SVG/1.1/DTD/svg11.dtd">
<!-- Creator: CorelDRAW 2020 (64 Bit) -->
<svg xmlns="http://www.w3.org/2000/svg" xml:space="preserve" width="315.436mm" height="315.436mm" version="1.1" style="shape-rendering:geometricPrecision; text-rendering:geometricPrecision; image-rendering:optimizeQuality; fill-rule:evenodd; clip-rule:evenodd"
viewBox="0 0 17590.91 17590.91"
 xmlns:xlink="http://www.w3.org/1999/xlink"
 xmlns:xodm="http://www.corel.com/coreldraw/odm/2003">
 <defs>
  <style type="text/css">
   <![CDATA[
    .str0 {stroke:black;stroke-width:11.15;stroke-miterlimit:22.9256}
    .fil1 {fill:black}
    .fil0 {fill:white}
   ]]>
  </style>
 </defs>
 <g id="Camada_x0020_1">
  <metadata id="CorelCorpID_0Corel-Layer"/>
  <rect class="fil0 str0" x="5.58" y="5.58" width="17579.76" height="17579.76"/>
  <g id="_2091509719552">
   <path class="fil1" d="M9042.98 5835.41c1.79,41.55 1.08,82.12 1.77,123.75 0.21,12.49 1.48,44.67 0.6,55.13 -2.95,35.02 3.75,-9.07 -3.4,25.71 -8.73,42.49 -3.26,19.02 -12.2,34.53 -182.24,41.2 -297.47,17.62 -628.1,107.41 -1063.36,288.78 -1933.87,1102.67 -2281.96,2153.7 -43.33,130.84 -138.45,457.17 -135.41,601.62l6572.21 4.36c-5.86,-321.54 -228.31,-877.84 -356.75,-1117.24 -476,-887.21 -1354.63,-1544.37 -2359.51,-1708.89 -69.83,-11.43 -293.06,-29.32 -335.29,-43.37l-9.86 -234.78c129.83,-9.7 282.63,9.64 407.37,-4.47 109.37,-12.36 195.74,-130.9 125.78,-245.33 -64.74,-105.87 -170.74,-89.7 -316.62,-89.61l-834.66 0.54c-144.45,0.07 -275.17,-25.25 -351.87,67.08 -88.29,106.28 -6.82,249.96 94.09,266.09 105.56,16.86 305.21,0.06 423.79,3.79z"/>
   <path class="fil1" d="M4894.61 3214.24c96.71,-24.21 7686.2,-6.97 8251.45,-6.97 148.16,0 488.38,-30.93 584.07,42.55 140.37,107.79 97.06,309.51 97.02,530.66l0 5713.18c0,134 17.64,4653.83 -10.58,4739.38 -19.14,58.04 -95.85,131.08 -169.34,145.81 -116.32,23.32 -7679.67,5.24 -8259.41,5.24 -169.51,0 -458.7,35.95 -583.44,-45.25 -134.07,-87.28 -94.9,-330.25 -94.95,-529.48l0.55 -10152.19c-0.33,-226.65 -22.62,-391.07 184.63,-442.94zm-457.5 10040c12.37,78.18 2.65,380.22 4,500.44 0.28,25.39 2.7,60.46 1.93,84.15 -2.16,66.7 24.36,78 -354.88,60.7 -332.52,-15.17 -413.36,-403.18 -226.27,-563.1 133.76,-114.33 472.63,-107.12 575.22,-82.18zm5.94 -1267.7c-224.22,2.82 -439.98,33.06 -580.41,-88.77 -119.02,-103.27 -132.41,-349.17 -2.49,-467.29 164.22,-149.27 561.17,-93.68 563.01,-92.67 28.8,15.75 19.84,26.08 19.72,72.12l0.17 576.61zm-5.31 -1909.72c-105.23,14.94 -378.57,10.99 -470.07,-24.35 -243.94,-94.19 -298.49,-471.98 -2.93,-600.1 84.63,-36.68 371.52,-45.54 476.12,-24.06l-3.12 648.5zm3.77 -1913.21c-102.11,17.96 -394.63,11.29 -479.3,-23.88 -104.27,-43.32 -200.29,-151.79 -199.03,-303.89 2.88,-347.97 429.94,-360.05 677.33,-320.89l0.99 648.67zm-3.21 -1908.7c-106.09,6.08 -387.59,9.87 -470.11,-24.99 -296.02,-125.07 -384.61,-738.49 472.61,-621.02l-2.5 646.02zm3.72 -1913.95c-800.42,105.13 -743.71,-399.37 -579.55,-553.26 58.84,-55.15 127.19,-93.76 238.74,-96.82 375.13,-10.26 341.42,-10.69 341.64,74.07l-1.9 248.44c-0.08,109.23 -0.5,218.4 1.07,327.56zm-3.21 -921.63c-283.44,53.25 -380.83,-64.58 -666.7,99.49 -326.12,187.17 -404.96,730.25 -6.06,995.12 231.02,153.39 405.82,71.87 675.91,103.67l-1.96 709.89c-260.74,53.59 -417.95,-57.62 -664.72,99.16 -349.92,222.29 -397.31,725.6 -11.71,994.5 244.86,170.75 412.68,55.29 673.62,105.96l3.5 716.58c-292.07,7.89 -427.89,-38.62 -669.05,96.91 -360.77,202.76 -368.6,767.8 -6.66,996.75 255.15,161.4 397.82,55.02 676.44,101.59l-0.38 712.99c-270.39,48.03 -414.48,-61.86 -664.7,97.89 -398.28,254.26 -342.84,795.14 -13.9,994.85 278.64,169.17 386.62,58.43 673.1,106.59l5.46 714c-289.73,39.22 -406.43,-57.82 -670.58,97.2 -335.84,197.07 -394.17,741.88 -4.51,996.58 241.89,158.1 406.11,60.7 675.82,102.37l-1.58 710.26c-267.94,47.15 -425.19,-53.76 -665.03,99.9 -367.41,235.38 -377.58,752.48 -11.3,994.12 259.37,171.11 400.02,54.03 673.78,105.93 55.88,179.78 37.04,221.55 155.55,337.61 80.91,79.25 199.23,139.99 356.55,142.18 967.28,13.55 2021.63,-0.94 2996.83,-0.32l4994.28 0.1c267.4,0 732.31,49.63 925.53,-79.24 263.84,-175.97 227.99,-392.86 227.99,-776.29l0 -9987.77c0,-134.41 12.85,-363.33 -11.28,-486.54 -94.82,-484.29 -736.52,-382.02 -1128.55,-382.02 -2330.67,0 -4661.33,0 -6992.01,0 -332.65,0 -666.54,-2.97 -999.01,-0.59 -167.4,1.19 -278.25,61.52 -363.71,134.78 -103.99,89.17 -112.04,173.02 -160.96,345.81z"/>
   <path class="fil1" d="M5617.47 9267.07c-307.76,45.44 -327.6,516.15 -12.35,570.94 126.51,21.99 367.36,8.42 507.89,8.42 504.92,-0.02 6678.29,15.93 6806.28,-5.64 320.63,-54.05 317.9,-513.54 15.11,-572.24 -113.66,-22.02 -5954.08,-5.9 -6794.03,-5.9 -142.35,0 -395.78,-14.35 -522.9,4.42z"/>
   <path class="fil1" d="M5632.26 11214.92c-130.08,47.49 -113.97,247.81 69.23,257.4 149.18,7.81 327.37,-0.95 479.94,-0.95l2887.1 -0.63c412.51,-0.28 3748.99,28.17 3847.01,-15.02 126.73,-55.84 94.89,-242.92 -69.54,-252.02 -150.06,-8.3 -326.83,0.02 -479.88,0.02 -749.36,0 -6654.77,-17.67 -6733.88,11.2z"/>
   <path class="fil1" d="M6715.19 12612.28c-89.04,28.81 -122.28,160.94 -43.79,226.69 63.94,53.58 220.69,31.02 317.32,30.89l2079.81 -0.53c302.63,-0.01 2697.91,21.56 2769.6,-12.82 75.64,-36.27 98.94,-160.97 30.81,-221.33 -53.86,-47.7 -224.08,-29.99 -310.11,-30.01 -549.48,-0.13 -4773.53,-15.6 -4843.64,7.1z"/>
  </g>
 </g>
</svg>
