<?xml version="1.0" encoding="UTF-8"?>
<!DOCTYPE svg PUBLIC "-//W3C//DTD SVG 1.1//EN" "http://www.w3.org/Graphics/SVG/1.1/DTD/svg11.dtd">
<!-- Creator: CorelDRAW 2020 (64 Bit) -->
<svg xmlns="http://www.w3.org/2000/svg" xml:space="preserve" width="315.436mm" height="315.436mm" version="1.1" style="shape-rendering:geometricPrecision; text-rendering:geometricPrecision; image-rendering:optimizeQuality; fill-rule:evenodd; clip-rule:evenodd"
viewBox="0 0 7045.25 7045.25"
 xmlns:xlink="http://www.w3.org/1999/xlink"
 xmlns:xodm="http://www.corel.com/coreldraw/odm/2003">
 <defs>
  <style type="text/css">
   <![CDATA[
    .str0 {stroke:black;stroke-width:4.47;stroke-miterlimit:22.9256}
    .fil1 {fill:black}
    .fil0 {fill:white}
   ]]>
  </style>
 </defs>
 <g id="Camada_x0020_1">
  <metadata id="CorelCorpID_0Corel-Layer"/>
  <g id="_2090962154752">
   <rect class="fil0 str0" x="2.23" y="2.23" width="7040.79" height="7040.79"/>
   <g>
    <path class="fil1" d="M3621.76 2337.11c0.72,16.64 0.43,32.89 0.71,49.56 0.08,5 0.59,17.89 0.24,22.08 -1.18,14.03 1.5,-3.63 -1.36,10.3 -3.5,17.02 -1.31,7.62 -4.88,13.83 -72.99,16.5 -119.14,7.06 -251.56,43.02 -425.88,115.66 -774.53,441.63 -913.94,862.57 -17.35,52.4 -55.45,183.1 -54.23,240.95l2632.21 1.74c-2.35,-128.78 -91.44,-351.58 -142.88,-447.46 -190.64,-355.33 -542.54,-618.53 -945,-684.42 -27.97,-4.58 -117.37,-11.74 -134.28,-17.37l-3.95 -94.03c52,-3.88 113.19,3.86 163.15,-1.79 43.8,-4.95 78.4,-52.43 50.38,-98.26 -25.93,-42.4 -68.38,-35.92 -126.81,-35.89l-334.29 0.21c-57.85,0.03 -110.21,-10.11 -140.92,26.86 -35.36,42.57 -2.73,100.11 37.68,106.57 42.28,6.75 122.24,0.02 169.73,1.52z"/>
    <path class="fil1" d="M1960.32 1287.32c38.73,-9.7 3078.36,-2.79 3304.75,-2.79 59.34,0 195.6,-12.39 233.93,17.04 56.22,43.17 38.87,123.96 38.86,212.53l0 2288.16c0,53.67 7.06,1863.88 -4.24,1898.15 -7.67,23.24 -38.39,52.5 -67.82,58.4 -46.59,9.34 -3075.75,2.1 -3307.94,2.1 -67.89,0 -183.71,14.4 -233.67,-18.12 -53.7,-34.95 -38.01,-132.27 -38.03,-212.06l0.22 -4066.01c-0.13,-90.77 -9.06,-156.63 73.95,-177.4zm-183.23 4021.07c4.96,31.31 1.06,152.28 1.6,200.43 0.11,10.17 1.08,24.22 0.77,33.7 -0.86,26.71 9.76,31.24 -142.13,24.31 -133.18,-6.08 -165.56,-161.47 -90.63,-225.52 53.57,-45.79 189.29,-42.9 230.38,-32.92zm2.38 -507.72c-89.8,1.13 -176.22,13.24 -232.46,-35.55 -47.67,-41.36 -53.03,-139.85 -1,-187.15 65.77,-59.78 224.75,-37.52 225.49,-37.11 11.54,6.31 7.94,10.45 7.9,28.88l0.07 230.93zm-2.13 -764.85c-42.14,5.98 -151.62,4.4 -188.27,-9.75 -97.7,-37.72 -119.55,-189.03 -1.17,-240.34 33.9,-14.69 148.8,-18.24 190.69,-9.64l-1.25 259.73zm1.51 -766.25c-40.9,7.19 -158.05,4.52 -191.96,-9.57 -41.76,-17.35 -80.22,-60.79 -79.71,-121.71 1.15,-139.36 172.19,-144.2 271.28,-128.52l0.4 259.8zm-1.28 -764.44c-42.49,2.43 -155.23,3.95 -188.28,-10.01 -118.56,-50.09 -154.04,-295.77 189.28,-248.72l-1 258.73zm1.49 -766.55c-320.57,42.11 -297.86,-159.95 -232.11,-221.58 23.57,-22.09 50.94,-37.55 95.62,-38.78 150.24,-4.11 136.74,-4.28 136.83,29.67l-0.76 99.5c-0.03,43.75 -0.2,87.47 0.43,131.19zm-1.28 -369.12c-113.52,21.33 -152.52,-25.86 -267.02,39.85 -130.61,74.96 -162.19,292.47 -2.43,398.55 92.52,61.43 162.53,28.79 270.71,41.52l-0.78 284.31c-104.43,21.46 -167.39,-23.08 -266.23,39.71 -140.14,89.03 -159.13,290.61 -4.69,398.3 98.07,68.39 165.28,22.15 269.79,42.44l1.4 286.99c-116.98,3.16 -171.37,-15.47 -267.96,38.81 -144.49,81.21 -147.63,307.51 -2.67,399.2 102.19,64.64 159.33,22.04 270.92,40.69l-0.15 285.55c-108.29,19.24 -166,-24.77 -266.21,39.2 -159.51,101.83 -137.31,318.46 -5.57,398.44 111.6,67.75 154.84,23.4 269.58,42.69l2.19 285.96c-116.04,15.71 -162.78,-23.16 -268.57,38.93 -134.51,78.93 -157.87,297.13 -1.81,399.13 96.88,63.32 162.65,24.31 270.67,41l-0.63 284.46c-107.31,18.88 -170.29,-21.53 -266.35,40.01 -147.15,94.27 -151.22,301.37 -4.53,398.15 103.88,68.53 160.21,21.64 269.85,42.43 22.38,72 14.83,88.73 62.3,135.21 32.41,31.74 79.79,56.07 142.8,56.95 387.4,5.43 809.67,-0.38 1200.25,-0.13l2000.24 0.04c107.1,0 293.29,19.88 370.68,-31.74 105.67,-70.48 91.31,-157.34 91.31,-310.91l0 -4000.15c0,-53.83 5.15,-145.52 -4.52,-194.86 -37.98,-193.96 -294.98,-153 -451.99,-153 -933.45,0 -1866.89,0 -2800.34,0 -133.23,0 -266.95,-1.19 -400.11,-0.24 -67.05,0.48 -111.44,24.64 -145.67,53.98 -41.65,35.71 -44.87,69.3 -64.47,138.5z"/>
    <path class="fil1" d="M2249.83 3711.51c-123.26,18.2 -131.2,206.72 -4.94,228.67 50.67,8.81 147.13,3.37 203.41,3.37 202.22,-0.01 2674.69,6.38 2725.95,-2.26 128.41,-21.65 127.32,-205.68 6.05,-229.18 -45.52,-8.82 -2384.64,-2.36 -2721.05,-2.36 -57.01,0 -158.51,-5.75 -209.43,1.77z"/>
    <path class="fil1" d="M2255.75 4491.63c-52.1,19.02 -45.64,99.25 27.73,103.09 59.75,3.13 131.12,-0.38 192.22,-0.38l1156.3 -0.25c165.21,-0.11 1501.49,11.28 1540.75,-6.02 50.76,-22.36 38,-97.29 -27.85,-100.93 -60.1,-3.32 -130.9,0.01 -192.19,0.01 -300.12,0 -2665.27,-7.08 -2696.95,4.49z"/>
    <path class="fil1" d="M2689.47 5051.29c-35.66,11.54 -48.97,64.46 -17.54,90.79 25.61,21.46 88.39,12.42 127.09,12.37l832.98 -0.21c121.21,-0 1080.53,8.63 1109.24,-5.13 30.3,-14.52 39.63,-64.47 12.34,-88.64 -21.57,-19.1 -89.75,-12.01 -124.2,-12.02 -220.07,-0.05 -1911.82,-6.25 -1939.9,2.84z"/>
   </g>
  </g>
 </g>
</svg>
