<?xml version="1.0" encoding="UTF-8"?>
<!DOCTYPE svg PUBLIC "-//W3C//DTD SVG 1.1//EN" "http://www.w3.org/Graphics/SVG/1.1/DTD/svg11.dtd">
<!-- Creator: CorelDRAW 2020 (64 Bit) -->
<svg xmlns="http://www.w3.org/2000/svg" xml:space="preserve" width="315.436mm" height="315.436mm" version="1.1" style="shape-rendering:geometricPrecision; text-rendering:geometricPrecision; image-rendering:optimizeQuality; fill-rule:evenodd; clip-rule:evenodd"
viewBox="0 0 17590.91 17590.91"
 xmlns:xlink="http://www.w3.org/1999/xlink"
 xmlns:xodm="http://www.corel.com/coreldraw/odm/2003">
 <defs>
  <style type="text/css">
   <![CDATA[
    .str0 {stroke:black;stroke-width:11.15;stroke-miterlimit:22.9256}
    .fil1 {fill:black}
    .fil0 {fill:white}
   ]]>
  </style>
 </defs>
 <g id="Camada_x0020_1">
  <metadata id="CorelCorpID_0Corel-Layer"/>
  <g id="_2091087038640">
   <rect class="fil0 str0" x="5.58" y="5.58" width="17579.76" height="17579.76"/>
   <g>
    <path class="fil1" d="M7500.74 5755.02c-30.78,39.3 -170.36,94.97 -226.11,114.95 -60.23,41.11 -60.02,43.89 -120.34,2.22 -47.03,-32.48 -89.6,-60.07 -129.29,-87.11 -47.29,-32.22 -222.87,-146.18 -244.45,-176.95 -76.82,-27.5 -127.32,-76.07 -194.32,-119.99 -53.95,-35.36 -130.56,-96.25 -183.72,-119.82 -32.93,30.24 -13.51,17.41 -54.68,39.1 -29.62,65.57 -165.64,177.78 -228.1,240.25 -95.9,95.9 -655.99,676.5 -715.55,703.41 -21.69,41.16 -8.86,21.75 -39.1,54.67 22.09,49.82 85.7,131.77 119.81,183.73 43.95,66.97 92.5,117.5 120,194.31 31.02,21.75 144.13,196.49 177.14,244.18 27.34,39.49 54.67,82.94 86.91,129.57 41.68,60.3 38.89,60.11 -2.21,120.33 -19.99,55.76 -75.65,195.32 -114.95,226.11l-117.51 372.47 -954.81 180.68 -0.47 1479.71 620.45 120.25 336.12 62.52c37.39,162.69 151.84,445.3 234.91,595.84 47.65,86.36 32.69,81.2 -19.16,153.49 -83.25,116.08 -382.72,580.34 -446.03,642.57 -15.34,36.92 -26.18,44.77 -41.4,81.09l1037.23 1037.94c78.8,-30.13 530.29,-355.19 659.99,-443.9 161.84,-110.7 142.42,-106.8 212.52,-59.68l409.23 181.63c1.77,-3.11 6.99,4.6 10.24,7.23 61.41,-1.51 116.55,32.28 179.63,43.69l182.23 948.74c59.93,18.09 1422.78,17.95 1476.94,-0.7l121.97 -613.3 65.22 -330.86 302.69 -98.71c17.72,-15.51 216.26,-102 249.29,-118.61 146.08,-73.45 80.16,-89.75 457.31,178.93 68.17,48.56 171.85,104.68 219.55,155.79 49.43,19.35 68.67,36.32 120.19,71.52l107.11 82.72c56.76,-33.03 1023.67,-1000.01 1056.6,-1056.6l-154.24 -227.3c-55.42,-51.73 -105.79,-149.46 -155.79,-219.55 -256.39,-359.42 -252.27,-310.69 -178.94,-457.3 16.22,-32.43 100.95,-229.11 118.62,-249.3l94.39 -306.36 335.18 -61.54 613.3 -123.14c19.67,-57.44 18.51,-1415.59 0.78,-1476.18l-947.39 -183.12 -28.6 -133.25c-15.49,-16.58 -7.51,-5.88 -21.58,-30.39l-182.63 -439.65 -39.77 -56.44 543.08 -811.51 -1041.13 -1031.65c-48.03,17.28 -36.66,20.32 -78.82,36.74 -43.02,43.93 -277.79,210.34 -343.35,230.29 -19.37,32.75 -191.51,141.51 -236.77,170.51 -133.42,85.48 -101.31,124.3 -235.8,51.93 -140.93,-75.83 -403.33,-186.16 -575.65,-223.62l-180.13 -955.28 -1480.52 0.04 -184.87 950.65 -370.44 122zm674.63 1701.9c-29.11,41.04 -111.44,73.21 -158.98,103.19 -282.49,178.11 -270.78,239.52 -403.25,363.12 -18.04,45.11 -56.99,97.24 -85.79,143.87 -368.73,596.93 -101.26,1208.97 -101.58,1279.83l39.15 62.57c8.65,17.4 15.66,34.71 24.22,51.99 64.65,130.48 178.93,262.03 199.57,314.27 77.27,43.38 89.32,87.86 156.68,140.91 39.15,30.83 133.09,95.37 158.68,124.93 65.17,20.25 87.92,45.38 147.2,72.34 460.33,258.78 1092.74,156.91 1472.25,-103.77 320.44,-220.11 631.93,-620.32 638.73,-1195.83 9.35,-792.15 -607.27,-1399.79 -1283.07,-1471.4 -483.23,-51.21 -668.89,109.07 -803.82,114z"/>
    <path class="fil1" d="M2571.53 11026.03c96.58,398.29 529.06,1197.9 778.49,1546.93l612.46 766.8c61.62,78.61 156.68,171.19 231.64,243.68l239.03 220.55c425.96,345.51 603.83,490.54 1072.16,767.6l600.17 321.86 547.55 205.7 148.97 46.88c827.78,245.66 1499.97,343.45 2375.97,296.19 290.4,-15.66 545.66,-69.99 811.69,-95.3l88.6 498.44c112.12,-52.19 1496.3,-1136.52 1584.73,-1173.06 66.15,-82.14 200.04,-151.6 292.87,-231.48l-39.69 -28.08c-1.67,-5.41 -6.81,-5.01 -10.25,-7.46l-63.89 -11.05 -886.72 -264.93c-110.19,4.53 -1028.3,-309.14 -1254.89,-349.37l109.86 620.41c-156.23,10.91 -342.28,48.25 -514.42,65.9 -415.18,42.57 -1219.22,19 -1589.23,-83.98 -36.39,-6.48 -67.99,-11.97 -104.72,-19.89 -45.61,-9.84 -61.63,-9.87 -91.48,-34.93 -186.89,13.9 -1057.03,-330.21 -1196.36,-423.24 -76.36,-26.53 -352.58,-165.14 -418.93,-233.93 -134.14,-22.56 -622.36,-433.65 -757.04,-539.54l-229.22 -200.74c-107.48,-97.11 -178.59,-183.95 -276.05,-291.48 -1043.68,-1151.54 -1582.08,-2660.73 -1446.69,-4253.24 18.64,-219.3 91.36,-788.33 165.12,-955.72 5.03,-29.27 8.18,-54.14 17.97,-85.31 5.43,-17.26 5.14,-16.79 13.82,-34.64 23.18,-47.67 0.35,-6.77 20.04,-30.82 -4.03,-76.27 179.87,-586.41 224.85,-642.25 13.72,-56.98 -1.2,-40.85 38.56,-72.28 7.47,-99.18 295.49,-612.12 360.35,-691.58 104.3,-247.95 443.1,-595.81 568.92,-767.82 39.98,-54.66 40.34,-47.08 91.57,-86.92 -19.23,-47.71 -265.91,-273.9 -315.89,-320.17 -71.42,-66.12 -273.24,-236.35 -312.75,-305.55 -53.2,-15.53 -21.54,-18.02 -83.24,-43.97 -68.32,99.49 -167.85,189.56 -253.32,296.79 -607.43,762.04 -1065.09,1556.32 -1310.73,2553.63 -239.51,972.4 -286.48,1972.41 -79.47,2972.1 33.53,161.91 176.21,766.2 239.6,855.28z"/>
    <path class="fil1" d="M6586.17 2583.34c-29.31,44.91 -74.14,61.63 -113.75,90.47 -48.68,35.43 -62.03,43.12 -110.26,74.02 -77.39,49.56 -149.92,110.11 -234.7,149.12 -15.4,28.36 -214.5,149.8 -235.45,159.78 26.31,26.92 -13.18,1.39 42.19,31.4 10.76,5.83 18.76,8.23 33.83,13.53l220.6 69.01 1927.54 662.55 -70.74 -552.92c370.41,-24.93 693.38,-71.36 1085.3,-41.67 233.97,17.73 784.65,70.27 972.1,146.54 25.87,4.15 38.48,4.56 60.35,11.74 67.48,22.17 22.33,5.87 46.15,24.76 125.4,-6.82 384.11,114.42 517.79,146.9 59.43,22.12 138.2,45.91 174.76,79.13 153.72,13.53 726.84,352.95 863.91,432.28 199.51,115.46 765.85,537.02 914.76,710.62 45.39,52.92 105.92,112.91 160.66,161.16 193.23,170.33 779.76,926.51 827.17,1113.56 85.27,64.69 355.9,700.53 414.83,864.1 58.23,161.61 108.24,319.17 154.68,489.55 49.44,181.38 73.54,354.88 116.87,540.54 8.25,139.48 36.93,308.52 51.6,455.6 43.7,438.28 4.32,1010.79 -68.81,1435.31 -48.8,283.3 -122.31,562.63 -208.91,817 -95.88,281.65 -257.14,600.38 -302.37,737.51l-595.18 929.85 550.08 431.82c39.97,29.94 157.57,95.57 165.83,140.39l50.23 15.93 367.25 -533.04c42.51,-62.45 75.7,-121.62 110.98,-179.65 76.43,-125.74 142.45,-248.98 213.26,-384.42 30.14,-57.65 160.63,-367.96 199.56,-404.61 0.9,-15.63 171.41,-505.91 192.29,-541.84 110.35,-472.41 153.43,-516.8 240.36,-1072.92 149.77,-958.19 49.17,-2013.7 -235.29,-2929.66 -52.62,-169.43 -122.07,-332.89 -174.92,-496.46l-215.25 -473.55c-22.41,-28.11 -249.4,-444.07 -256.7,-474.26l-368.71 -528.86c-28.84,-40.02 -103.79,-122.25 -119.19,-165.99 -17.12,-12.98 -512.57,-586.15 -698.06,-733.76l-238.57 -226.73c-65.15,-11.87 -178.09,-127.01 -237.03,-172l-705.85 -481.17c-69.13,-17.87 -151.51,-76.27 -221.57,-109.27 -266.15,-125.38 -343.76,-176.83 -652.36,-298.44 -306.77,-120.9 -632.44,-226.04 -974.89,-297.15 -571.96,-118.77 -1154.75,-179.93 -1749.16,-147.15l-505.09 42.18c-53.26,2.63 -18.43,12.32 -44.74,-5.6 -31.34,-47.56 -73.07,-467.3 -82.05,-562.99l-12.94 0c-58.11,55.96 -225.13,159.9 -306.5,214.08 -85.19,56.71 -874.96,608.89 -935.9,623.71z"/>
   </g>
  </g>
 </g>
</svg>
