<?xml version="1.0" encoding="UTF-8"?>
<!DOCTYPE svg PUBLIC "-//W3C//DTD SVG 1.1//EN" "http://www.w3.org/Graphics/SVG/1.1/DTD/svg11.dtd">
<!-- Creator: CorelDRAW 2020 (64 Bit) -->
<svg xmlns="http://www.w3.org/2000/svg" xml:space="preserve" width="210mm" height="297mm" version="1.1" style="shape-rendering:geometricPrecision; text-rendering:geometricPrecision; image-rendering:optimizeQuality; fill-rule:evenodd; clip-rule:evenodd"
viewBox="0 0 21000 29700"
 xmlns:xlink="http://www.w3.org/1999/xlink"
 xmlns:xodm="http://www.corel.com/coreldraw/odm/2003">
 <defs>
  <style type="text/css">
   <![CDATA[
    .str0 {stroke:black;stroke-width:20;stroke-miterlimit:22.9256}
    .fil2 {fill:black}
    .fil1 {fill:white}
    .fil0 {fill:white;fill-rule:nonzero}
   ]]>
  </style>
 </defs>
 <g id="Camada_x0020_1">
  <metadata id="CorelCorpID_0Corel-Layer"/>
  <path class="fil0" d="M27816.03 -7494.64l1831.09 -114.81c39.24,296.46 120.62,523.17 242.69,677.21 199.1,251.42 482.48,377.85 851.6,377.85 274.67,0 486.84,-63.94 635.07,-193.28 149.69,-129.34 223.8,-279.03 223.8,-449.06 0,-161.31 -69.75,-306.63 -210.72,-434.52 -140.96,-127.88 -469.4,-247.05 -985.3,-361.85 -845.79,-188.93 -1447.43,-441.79 -1807.84,-757.14 -363.31,-313.91 -544.96,-715 -544.96,-1203.29 0,-319.72 93,-621.99 279.02,-906.83 186.02,-286.29 465.04,-510.09 838.52,-672.85 373.49,-162.76 885.03,-244.14 1534.63,-244.14 797.83,0 1405.29,148.23 1823.82,446.14 418.54,296.46 667.04,768.77 746.97,1416.92l-1813.65 107.54c-47.96,-283.39 -149.68,-489.75 -303.73,-617.63 -155.5,-129.34 -369.12,-193.28 -640.88,-193.28 -223.8,0 -393.83,47.95 -507.18,142.41 -113.35,94.46 -170.03,210.72 -170.03,347.33 0,98.82 46.5,187.47 138.06,267.4 88.64,82.83 303.72,158.4 643.78,229.61 842.89,181.65 1445.98,366.22 1809.29,552.23 364.77,186.02 630.71,415.63 796.38,691.75 165.67,274.66 248.51,582.75 248.51,924.26 0,399.64 -110.45,768.77 -331.34,1107.37 -222.35,337.16 -530.44,594.38 -928.63,768.77 -396.73,174.39 -896.65,261.58 -1501.2,261.58 -1060.87,0 -1796.21,-204.9 -2204.57,-613.27 -408.36,-408.36 -639.43,-927.17 -693.2,-1556.42zm10691.52 -4178.08l1927.01 0 0 3718.85c0,367.67 -58.13,716.45 -172.94,1043.43 -114.81,328.44 -295.01,614.73 -540.61,860.32 -245.59,245.6 -502.82,417.09 -771.67,517.36 -374.94,138.06 -825.44,207.81 -1350.06,207.81 -303.73,0 -635.07,-21.8 -994.02,-63.94 -358.95,-42.14 -659.78,-126.43 -901.02,-252.86 -241.23,-126.44 -462.13,-305.19 -661.22,-537.7 -200.55,-232.52 -337.15,-472.31 -411.27,-719.36 -119.17,-396.74 -178.75,-748.42 -178.75,-1055.06l0 -3718.85 1927 0 0 3807.5c0,340.06 94.46,606 281.93,796.38 188.92,191.83 450.51,287.74 784.76,287.74 329.88,0 590.01,-94.46 778.93,-283.38 187.47,-187.47 281.93,-454.87 281.93,-800.74l0 -3807.5zm6743.06 5214.24l-2185.68 0 -313.9 1028.9 -1969.15 0 2349.9 -6243.14 2111.56 0 2339.73 6243.14 -2020.01 0 -312.45 -1028.9zm-408.36 -1351.52l-681.58 -2243.81 -684.47 2243.81 1366.05 0zm6257.66 -3862.72l1927 0 0 4708.51 3016.94 0 0 1534.63 -4943.94 0 0 -6243.14zm5422.07 3125.93c0,-1018.73 283.38,-1812.2 851.6,-2378.96 568.22,-568.22 1358.78,-851.6 2373.15,-851.6 1039.07,0 1839.8,279.02 2402.21,835.61 562.41,558.05 842.88,1339.89 842.88,2344.09 0,729.52 -122.07,1326.81 -367.67,1793.3 -245.6,466.49 -601.64,829.8 -1065.23,1089.93 -465.04,260.13 -1043.43,389.47 -1736.62,389.47 -703.38,0 -1286.13,-111.9 -1748.26,-335.7 -460.68,-225.25 -835.61,-579.84 -1121.9,-1065.22 -286.29,-483.94 -430.16,-1091.39 -430.16,-1820.92zm1927 4.36c0,629.25 117.71,1082.67 351.68,1357.33 235.43,274.66 555.14,412.72 959.15,412.72 414.17,0 736.79,-135.15 963.5,-404 228.16,-270.3 341.51,-752.78 341.51,-1451.79 0,-587.11 -119.17,-1015.82 -356.05,-1286.12 -238.33,-271.76 -559.49,-406.91 -966.4,-406.91 -389.47,0 -703.37,138.06 -938.8,412.72 -236.88,274.66 -354.59,730.98 -354.59,1366.05zm8719.47 854.51l0 -1299.2 2982.06 0 0 2655.07c-571.13,389.47 -1075.4,655.42 -1512.83,796.38 -438.88,140.97 -959.14,210.72 -1560.78,210.72 -741.16,0 -1345.71,-126.43 -1812.2,-379.29 -466.49,-251.41 -828.35,-627.81 -1085.57,-1127.72 -257.23,-498.46 -385.11,-1072.5 -385.11,-1719.19 0,-681.57 140.96,-1273.04 421.44,-1777.32 280.47,-502.82 691.74,-885.03 1233.8,-1146.61 422.9,-202 992.57,-302.27 1707.56,-302.27 688.84,0 1204.74,62.49 1546.26,187.46 342.96,124.98 626.35,318.27 851.6,581.3 225.25,263.04 395.28,595.83 508.63,998.38l-1857.24 334.25c-77.02,-236.88 -206.36,-418.54 -389.47,-543.52 -183.11,-126.43 -415.63,-188.92 -700.47,-188.92 -421.44,0 -758.59,146.78 -1010,440.34 -251.41,293.55 -376.39,758.59 -376.39,1393.66 0,674.3 126.43,1156.78 380.75,1445.98 252.86,289.19 607.45,434.52 1060.87,434.52 215.08,0 419.98,-30.52 616.17,-93.01 194.74,-62.49 418.54,-168.58 671.4,-316.81l0 -584.2 -1290.48 0zm3880.17 -858.87c0,-1018.73 283.38,-1812.2 851.6,-2378.96 568.22,-568.22 1358.78,-851.6 2373.15,-851.6 1039.07,0 1839.8,279.02 2402.21,835.61 562.41,558.05 842.88,1339.89 842.88,2344.09 0,729.52 -122.07,1326.81 -367.67,1793.3 -245.6,466.49 -601.64,829.8 -1065.23,1089.93 -465.04,260.13 -1043.43,389.47 -1736.62,389.47 -703.38,0 -1286.13,-111.9 -1748.26,-335.7 -460.68,-225.25 -835.61,-579.84 -1121.9,-1065.22 -286.29,-483.94 -430.16,-1091.39 -430.16,-1820.92zm1927 4.36c0,629.25 117.71,1082.67 351.68,1357.33 235.43,274.66 555.14,412.72 959.15,412.72 414.17,0 736.79,-135.15 963.5,-404 228.16,-270.3 341.51,-752.78 341.51,-1451.79 0,-587.11 -119.17,-1015.82 -356.05,-1286.12 -238.33,-271.76 -559.49,-406.91 -966.4,-406.91 -389.47,0 -703.37,138.06 -938.8,412.72 -236.88,274.66 -354.59,730.98 -354.59,1366.05zm12329.33 2083.95l-2185.68 0 -313.9 1028.9 -1969.15 0 2349.9 -6243.14 2111.56 0 2339.73 6243.14 -2020.01 0 -312.45 -1028.9zm-408.36 -1351.52l-681.58 -2243.81 -684.47 2243.81 1366.05 0zm8729.63 1464.88c239.79,167.12 396.74,273.21 470.86,315.35 108.99,62.49 258.67,135.15 444.69,217.99l-533.34 1079.76c-268.85,-130.79 -536.25,-284.84 -799.29,-465.04 -264.49,-180.2 -449.05,-315.35 -553.68,-405.46 -425.8,184.57 -959.15,277.57 -1601.48,277.57 -948.97,0 -1697.39,-247.05 -2245.26,-741.15 -648.15,-584.21 -972.22,-1405.29 -972.22,-2463.25 0,-1027.45 283.38,-1825.28 850.14,-2394.95 566.77,-568.22 1357.34,-853.05 2374.61,-853.05 1036.16,0 1835.45,277.57 2399.3,834.16 563.86,555.14 845.79,1351.52 845.79,2386.23 0,921.35 -226.7,1658.15 -680.12,2211.84zm-1477.95 -989.66c154.05,-274.67 231.07,-685.94 231.07,-1233.81 0,-629.25 -117.71,-1078.31 -351.69,-1348.61 -235.42,-268.85 -558.04,-404 -970.76,-404 -385.11,0 -696.11,138.06 -934.44,412.72 -239.78,274.66 -358.95,704.82 -358.95,1289.03 0,681.57 116.26,1159.69 348.78,1434.35 233.97,274.66 553.68,412.72 959.14,412.72 130.79,0 254.32,-13.08 370.58,-37.78 -162.77,-156.95 -418.54,-303.73 -768.77,-443.24l302.28 -693.2c171.48,30.52 305.18,69.76 399.64,114.81 95.91,45.05 281.93,164.21 559.5,357.49 65.39,45.05 136.6,91.56 213.62,139.52zm7258.96 -4337.94l1927.01 0 0 3718.85c0,367.67 -58.13,716.45 -172.94,1043.43 -114.81,328.44 -295.01,614.73 -540.61,860.32 -245.59,245.6 -502.82,417.09 -771.67,517.36 -374.94,138.06 -825.44,207.81 -1350.06,207.81 -303.73,0 -635.07,-21.8 -994.02,-63.94 -358.95,-42.14 -659.78,-126.43 -901.02,-252.86 -241.23,-126.44 -462.13,-305.19 -661.22,-537.7 -200.55,-232.52 -337.15,-472.31 -411.27,-719.36 -119.17,-396.74 -178.75,-748.42 -178.75,-1055.06l0 -3718.85 1927 0 0 3807.5c0,340.06 94.46,606 281.93,796.38 188.92,191.83 450.51,287.74 784.76,287.74 329.88,0 590.01,-94.46 778.93,-283.38 187.47,-187.47 281.93,-454.87 281.93,-800.74l0 -3807.5zm3278.53 0l1935.72 0 0 6243.14 -1935.72 0 0 -6243.14z"/>
  <rect class="fil1 str0" x="38791.67" y="12054.06" width="31523.63" height="31523.63"/>
  <g id="_2090911712128">
   <path class="fil2" d="M52231.83 22363.84c-55.2,70.48 -305.48,170.29 -405.45,206.13 -108,73.71 -107.63,78.7 -215.79,3.98 -84.34,-58.25 -160.67,-107.72 -231.84,-156.21 -84.8,-57.77 -399.65,-262.13 -438.35,-317.3 -137.76,-49.32 -228.3,-136.41 -348.45,-215.17 -96.74,-63.4 -234.12,-172.59 -329.44,-214.86 -59.05,54.23 -24.23,31.22 -98.05,70.11 -53.12,117.57 -297.03,318.8 -409.03,430.81 -171.97,171.96 -1176.31,1213.08 -1283.11,1261.34 -38.9,73.81 -15.88,39 -70.11,98.04 39.61,89.33 153.67,236.28 214.84,329.46 78.81,120.09 165.87,210.69 215.18,348.44 55.62,39.01 258.45,352.35 317.65,437.85 49.03,70.81 98.04,148.73 155.85,232.34 74.74,108.13 69.74,107.79 -3.96,215.78 -35.84,99.98 -135.66,350.25 -206.13,405.46l-210.72 667.9 -1712.14 324 -0.85 2653.38 1112.57 215.63 602.72 112.11c67.04,291.74 272.28,798.51 421.23,1068.45 85.44,154.85 58.62,145.6 -34.36,275.24 -149.29,208.16 -686.29,1040.66 -799.81,1152.24 -27.51,66.21 -46.95,80.28 -74.23,145.41l1859.93 1861.21c141.31,-54.03 950.91,-636.91 1183.48,-795.99 290.21,-198.51 255.38,-191.51 381.09,-107.01l733.83 325.7c3.17,-5.58 12.54,8.25 18.36,12.97 110.12,-2.71 209,57.89 322.1,78.35l326.77 1701.26c107.46,32.43 2551.3,32.19 2648.42,-1.26l218.71 -1099.75 116.95 -593.29 542.77 -177.01c31.78,-27.82 387.79,-182.9 447.03,-212.69 261.95,-131.71 143.75,-160.93 820.03,320.85 122.24,87.08 308.15,187.71 393.7,279.36 88.64,34.69 123.13,65.12 215.53,128.25l192.06 148.33c101.78,-59.22 1835.62,-1793.19 1894.67,-1894.67l-276.58 -407.59c-99.37,-92.76 -189.7,-268.01 -279.36,-393.7 -459.75,-644.5 -452.37,-557.13 -320.87,-820.02 29.08,-58.15 181.02,-410.84 212.71,-447.04l169.26 -549.36 601.03 -110.35 1099.76 -220.82c35.27,-103 33.19,-2538.4 1.4,-2647.06l-1698.83 -328.36 -51.29 -238.94c-27.78,-29.73 -13.46,-10.54 -38.69,-54.49l-327.48 -788.37 -71.32 -101.2 973.84 -1455.18 -1866.94 -1849.93c-86.12,30.99 -65.74,36.44 -141.33,65.88 -77.14,78.78 -498.12,377.17 -615.68,412.95 -34.74,58.72 -343.41,253.76 -424.57,305.75 -239.25,153.28 -181.66,222.9 -422.84,93.12 -252.72,-135.98 -723.25,-333.81 -1032.25,-400.99l-323.01 -1712.99 -2654.83 0.07 -331.51 1704.69 -664.27 218.76zm1209.73 3051.81c-52.2,73.59 -199.83,131.27 -285.08,185.03 -506.55,319.39 -485.55,429.51 -723.1,651.14 -32.35,80.89 -102.19,174.37 -153.83,257.98 -661.19,1070.4 -181.58,2167.89 -182.15,2294.96l70.2 112.2c15.51,31.2 28.08,62.25 43.43,93.22 115.93,233.98 320.86,469.87 357.87,563.55 138.55,77.78 160.16,157.54 280.95,252.67 70.21,55.29 238.66,171.01 284.55,224.03 116.86,36.31 157.66,81.38 263.95,129.71 825.46,464.03 1959.48,281.37 2640.01,-186.08 574.61,-394.69 1133.17,-1112.35 1145.36,-2144.34 16.77,-1420.47 -1088.94,-2510.08 -2300.77,-2638.49 -866.52,-91.82 -1199.43,195.58 -1441.39,204.42z"/>
   <path class="fil2" d="M43392.88 31815.69c173.18,714.2 948.7,2148.04 1395.98,2773.92l1098.25 1375c110.5,140.96 280.95,306.98 415.38,436.97l428.62 395.48c763.82,619.56 1082.78,879.63 1922.57,1376.44l1076.22 577.16 981.86 368.86 267.13 84.06c1484.35,440.51 2689.72,615.86 4260.53,531.13 520.74,-28.09 978.47,-125.5 1455.51,-170.89l158.87 893.79c201.05,-93.59 2683.14,-2037.99 2841.7,-2103.51 118.62,-147.29 358.7,-271.84 525.17,-415.09l-71.17 -50.35c-3,-9.7 -12.22,-8.98 -18.38,-13.38l-114.57 -19.82 -1590.05 -475.07c-197.59,8.13 -1843.92,-554.34 -2250.24,-626.49l197 1112.5c-280.14,19.56 -613.77,86.52 -922.45,118.17 -744.49,76.34 -2186.28,34.07 -2849.78,-150.6 -65.26,-11.62 -121.91,-21.46 -187.79,-35.67 -81.79,-17.65 -110.52,-17.69 -164.04,-62.63 -335.13,24.93 -1895.44,-592.12 -2145.28,-758.94 -136.92,-47.58 -632.23,-296.13 -751.21,-419.47 -240.54,-40.45 -1116,-777.61 -1357.51,-967.49l-411.04 -359.97c-192.73,-174.14 -320.25,-329.85 -495.01,-522.67 -1871.51,-2064.92 -2836.95,-4771.17 -2594.17,-7626.82 33.43,-393.24 163.82,-1413.62 296.09,-1713.77 9.02,-52.49 14.66,-97.08 32.23,-152.97 9.73,-30.95 9.21,-30.1 24.78,-62.12 41.57,-85.48 0.63,-12.14 35.93,-55.26 -7.22,-136.76 322.54,-1051.54 403.19,-1151.66 24.61,-102.18 -2.16,-73.26 69.14,-129.61 13.4,-177.84 529.86,-1097.64 646.17,-1240.12 187.03,-444.62 794.56,-1068.39 1020.18,-1376.84 71.7,-98.02 72.34,-84.42 164.2,-155.86 -34.48,-85.56 -476.83,-491.16 -566.44,-574.13 -128.07,-118.57 -489.97,-423.81 -560.81,-547.9 -95.39,-27.85 -38.62,-32.32 -149.26,-78.85 -122.51,178.4 -300.99,339.91 -454.25,532.19 -1089.23,1366.47 -1909.89,2790.76 -2350.38,4579.11 -429.49,1743.68 -513.71,3536.89 -142.51,5329.5 60.12,290.34 315.97,1373.94 429.64,1533.67z"/>
   <path class="fil2" d="M50591.84 16676.45c-52.56,80.54 -132.94,110.52 -203.97,162.22 -87.3,63.53 -111.23,77.33 -197.71,132.73 -138.77,88.87 -268.84,197.45 -420.86,267.39 -27.62,50.85 -384.64,268.61 -422.2,286.52 47.18,48.28 -23.63,2.5 75.65,56.3 19.29,10.45 33.64,14.76 60.67,24.26l395.58 123.75 3456.42 1188.07 -126.85 -991.49c664.21,-44.7 1243.36,-127.97 1946.14,-74.72 419.55,31.79 1407.01,126.01 1743.15,262.78 46.39,7.44 69,8.17 108.21,21.05 121.01,39.76 40.05,10.52 82.75,44.4 224.86,-12.23 688.78,205.17 928.49,263.41 106.57,39.67 247.82,82.33 313.37,141.89 275.65,24.26 1303.35,632.9 1549.15,775.15 357.75,207.04 1373.3,962.97 1640.32,1274.27 81.4,94.89 189.93,202.46 288.09,288.99 346.49,305.43 1398.24,1661.39 1483.27,1996.81 152.9,116 638.19,1256.18 743.87,1549.49 104.41,289.8 194.09,572.32 277.37,877.85 88.66,325.24 131.87,636.37 209.56,969.28 14.8,250.11 66.23,553.23 92.53,816.98 78.36,785.91 7.75,1812.53 -123.38,2573.77 -87.51,508 -219.33,1008.9 -374.61,1465.02 -171.93,505.04 -461.1,1076.58 -542.2,1322.48l-1067.27 1667.39 986.4 774.33c71.67,53.68 282.55,171.37 297.36,251.74l90.08 28.56 658.54 -955.83c76.22,-111.98 135.74,-218.08 199,-322.15 137.06,-225.48 255.43,-446.47 382.42,-689.34 54.05,-103.37 288.03,-659.81 357.84,-725.53 1.62,-28.02 307.36,-907.18 344.81,-971.62 197.88,-847.12 275.13,-926.71 431.01,-1923.94 268.56,-1718.2 88.17,-3610.93 -421.92,-5253.4 -94.35,-303.81 -218.89,-596.93 -313.67,-890.24l-385.99 -849.16c-40.18,-50.41 -447.21,-796.29 -460.31,-850.44l-661.16 -948.34c-51.72,-71.76 -186.12,-219.22 -213.73,-297.65 -30.7,-23.28 -919.13,-1051.08 -1251.75,-1315.77l-427.79 -406.57c-116.82,-21.29 -319.34,-227.75 -425.03,-308.42l-1265.72 -862.82c-123.96,-32.04 -271.68,-136.76 -397.32,-195.94 -477.25,-224.82 -616.42,-317.08 -1169.79,-535.16 -550.1,-216.79 -1134.07,-405.33 -1748.15,-532.84 -1025.63,-212.98 -2070.68,-322.64 -3136.55,-263.86l-905.71 75.64c-95.5,4.71 -33.05,22.1 -80.23,-10.05 -56.19,-85.29 -131.03,-837.95 -147.13,-1009.55l-23.2 0c-104.2,100.35 -403.69,286.73 -549.61,383.89 -152.76,101.7 -1568.96,1091.84 -1678.24,1118.42z"/>
  </g>
 </g>
</svg>
