<?xml version="1.0" encoding="UTF-8"?>
<!DOCTYPE svg PUBLIC "-//W3C//DTD SVG 1.1//EN" "http://www.w3.org/Graphics/SVG/1.1/DTD/svg11.dtd">
<!-- Creator: CorelDRAW 2020 (64 Bit) -->
<svg xmlns="http://www.w3.org/2000/svg" xml:space="preserve" width="768.053mm" height="70.4532mm" version="1.1" style="shape-rendering:geometricPrecision; text-rendering:geometricPrecision; image-rendering:optimizeQuality; fill-rule:evenodd; clip-rule:evenodd"
viewBox="0 0 141306.96 12962.03"
 xmlns:xlink="http://www.w3.org/1999/xlink"
 xmlns:xodm="http://www.corel.com/coreldraw/odm/2003">
 <defs>
  <style type="text/css">
   <![CDATA[
    .fil0 {fill:black;fill-rule:nonzero}
   ]]>
  </style>
 </defs>
 <g id="Camada_x0020_1">
  <metadata id="CorelCorpID_0Corel-Layer"/>
  <g id="_2085207540480">
   <path class="fil0" d="M-0 7879.34l3368.85 -211.23c72.19,545.43 221.92,962.53 446.5,1245.94 366.31,462.56 887.67,695.17 1566.78,695.17 505.34,0 895.69,-117.64 1168.39,-355.6 275.4,-237.96 411.75,-513.36 411.75,-826.18 0,-296.78 -128.33,-564.14 -387.68,-799.43 -259.32,-235.27 -863.59,-454.52 -1812.74,-665.73 -1556.09,-347.59 -2662.99,-812.79 -3326.08,-1392.97 -668.42,-577.53 -1002.62,-1315.46 -1002.62,-2213.82 0,-588.22 171.1,-1144.34 513.34,-1668.39 342.24,-526.72 855.58,-938.47 1542.72,-1237.91 687.15,-299.45 1628.28,-449.17 2823.42,-449.17 1467.84,0 2585.44,272.71 3355.46,820.81 770.03,545.43 1227.23,1414.39 1374.28,2606.86l-3336.77 197.85c-88.24,-521.38 -275.36,-901.05 -558.79,-1136.32 -286.09,-237.96 -679.11,-355.6 -1179.1,-355.6 -411.75,0 -724.57,88.22 -933.11,262.01 -208.54,173.79 -312.82,387.68 -312.82,639.02 0,181.81 85.55,344.91 254,491.96 163.08,152.39 558.79,291.43 1184.43,422.44 1550.74,334.2 2660.31,673.77 3328.73,1016 671.11,342.24 1160.38,764.68 1465.19,1272.69 304.8,505.3 457.21,1072.13 457.21,1700.44 0,735.26 -203.21,1414.39 -609.6,2037.35 -409.08,620.31 -975.91,1093.54 -1708.5,1414.39 -729.91,320.84 -1649.66,481.26 -2761.9,481.26 -1951.8,0 -3304.68,-376.98 -4055.98,-1128.3 -751.3,-751.3 -1176.43,-1705.81 -1275.35,-2863.51zm19670.28 -7686.83l3545.33 0 0 6841.95c0,676.44 -106.95,1318.13 -318.18,1919.71 -211.23,604.27 -542.76,1130.98 -994.62,1582.82 -451.84,451.86 -925.09,767.37 -1419.72,951.84 -689.82,254 -1518.63,382.33 -2483.83,382.33 -558.8,0 -1168.41,-40.11 -1828.81,-117.64 -660.4,-77.53 -1213.87,-232.61 -1657.7,-465.21 -443.82,-232.63 -850.23,-561.49 -1216.52,-989.26 -368.97,-427.79 -620.29,-868.96 -756.66,-1323.48 -219.25,-729.93 -328.87,-1376.95 -328.87,-1941.11l0 -6841.95 3545.31 0 0 7005.05c0,625.64 173.79,1114.92 518.7,1465.19 347.58,352.93 828.85,529.39 1443.81,529.39 606.92,0 1085.5,-173.79 1433.08,-521.36 344.89,-344.91 518.68,-836.87 518.68,-1473.21l0 -7005.05zm12405.93 9593.16l-4021.23 0 -577.52 1892.98 -3622.86 0 4323.36 -11486.16 3884.86 0 4304.63 11486.16 -3716.43 0 -574.83 -1892.98zm-751.3 -2486.54l-1253.98 -4128.16 -1259.29 4128.16 2513.27 0zm11512.85 -7106.62l3545.29 0 0 8662.73 5550.59 0 0 2823.42 -9095.88 0 0 -11486.16zm9975.55 5751.09c0,-1874.27 521.36,-3334.1 1566.78,-4376.83 1045.42,-1045.42 2499.89,-1566.78 4366.12,-1566.78 1911.69,0 3384.88,513.34 4419.6,1537.36 1034.73,1026.7 1550.74,2465.14 1550.74,4312.67 0,1342.16 -224.59,2441.06 -676.44,3299.31 -451.86,858.25 -1106.9,1526.67 -1959.82,2005.26 -855.58,478.59 -1919.71,716.55 -3195.05,716.55 -1294.07,0 -2366.21,-205.87 -3216.44,-617.62 -847.56,-414.42 -1537.36,-1066.79 -2064.08,-1959.8 -526.72,-890.36 -791.41,-2007.95 -791.41,-3350.12zm3545.31 8.02c0,1157.68 216.56,1991.89 647.02,2497.21 433.15,505.32 1021.33,759.33 1764.63,759.33 761.99,0 1355.55,-248.65 1772.65,-743.28 419.77,-497.3 628.31,-1384.97 628.31,-2671 0,-1080.17 -219.25,-1868.91 -655.06,-2366.21 -438.48,-499.99 -1029.35,-748.64 -1777.99,-748.64 -716.55,0 -1294.05,254 -1727.19,759.33 -435.81,505.32 -652.38,1344.86 -652.38,2513.27zm16042.09 1572.12l0 -2390.26 5486.42 0 0 4884.8c-1050.77,716.55 -1978.53,1205.85 -2783.32,1465.19 -807.45,259.36 -1764.63,387.68 -2871.53,387.68 -1363.59,0 -2475.83,-232.61 -3334.08,-697.82 -858.25,-462.55 -1524,-1155.05 -1997.24,-2074.79 -473.25,-917.07 -708.53,-1973.19 -708.53,-3162.96 0,-1253.96 259.34,-2342.15 775.37,-3269.93 516.01,-925.09 1272.67,-1628.28 2269.95,-2109.54 778.05,-371.64 1826.12,-556.12 3141.56,-556.12 1267.33,0 2216.49,114.97 2844.82,344.89 630.98,229.94 1152.36,585.56 1566.78,1069.48 414.42,483.94 727.24,1096.21 935.78,1836.83l-3416.96 614.96c-141.7,-435.81 -379.66,-770.03 -716.55,-999.97 -336.89,-232.61 -764.68,-347.58 -1288.73,-347.58 -775.37,0 -1395.66,270.05 -1858.19,810.14 -462.55,540.08 -692.49,1395.66 -692.49,2564.07 0,1240.56 232.61,2128.23 700.51,2660.31 465.2,532.05 1117.57,799.43 1951.78,799.43 395.71,0 772.68,-56.15 1133.63,-171.12 358.28,-114.97 770.03,-310.15 1235.25,-582.87l0 -1074.82 -2374.23 0zm7138.77 -1580.14c0,-1874.27 521.36,-3334.1 1566.78,-4376.83 1045.42,-1045.42 2499.88,-1566.78 4366.12,-1566.78 1911.69,0 3384.88,513.34 4419.6,1537.36 1034.73,1026.7 1550.74,2465.14 1550.74,4312.67 0,1342.16 -224.59,2441.06 -676.44,3299.31 -451.86,858.25 -1106.9,1526.67 -1959.82,2005.26 -855.58,478.59 -1919.71,716.55 -3195.05,716.55 -1294.08,0 -2366.21,-205.87 -3216.44,-617.62 -847.56,-414.42 -1537.36,-1066.79 -2064.08,-1959.8 -526.72,-890.36 -791.41,-2007.95 -791.41,-3350.12zm3545.31 8.02c0,1157.68 216.56,1991.89 647.01,2497.21 433.15,505.32 1021.35,759.33 1764.65,759.33 761.99,0 1355.55,-248.65 1772.65,-743.28 419.77,-497.3 628.31,-1384.97 628.31,-2671 0,-1080.17 -219.25,-1868.91 -655.06,-2366.21 -438.48,-499.99 -1029.35,-748.64 -1777.99,-748.64 -716.55,0 -1294.07,254 -1727.21,759.33 -435.8,505.32 -652.36,1344.86 -652.36,2513.27zm22683.54 3834.05l-4021.23 0 -577.52 1892.98 -3622.86 0 4323.36 -11486.16 3884.86 0 4304.63 11486.16 -3716.41 0 -574.85 -1892.98zm-751.29 -2486.54l-1253.98 -4128.16 -1259.29 4128.16 2513.27 0zm16060.8 2695.1c441.17,307.47 729.93,502.65 866.29,580.18 200.52,114.97 475.88,248.65 818.13,401.06l-981.22 1986.55c-494.63,-240.63 -986.6,-524.05 -1470.54,-855.58 -486.61,-331.53 -826.17,-580.18 -1018.66,-745.97 -783.39,339.57 -1764.65,510.68 -2946.41,510.68 -1745.92,0 -3122.87,-454.52 -4130.85,-1363.57 -1192.47,-1074.83 -1788.7,-2585.46 -1788.7,-4531.89 0,-1890.31 521.36,-3358.16 1564.09,-4406.25 1042.75,-1045.42 2497.24,-1569.45 4368.83,-1569.45 1906.33,0 3376.87,510.68 4414.25,1534.69 1037.39,1021.35 1556.07,2486.54 1556.07,4390.2 0,1695.09 -417.07,3050.66 -1251.27,4069.34zm-2719.14 -1820.77c283.42,-505.34 425.12,-1262 425.12,-2269.95 0,-1157.7 -216.56,-1983.88 -647.04,-2481.18 -433.13,-494.63 -1026.69,-743.28 -1786.01,-743.28 -708.53,0 -1280.71,254 -1719.19,759.33 -441.15,505.32 -660.4,1296.73 -660.4,2371.57 0,1253.94 213.9,2133.59 641.69,2638.91 430.46,505.32 1018.66,759.33 1764.63,759.33 240.63,0 467.9,-24.06 681.8,-69.51 -299.47,-288.76 -770.03,-558.8 -1414.39,-815.48l556.14 -1275.35c315.49,56.15 561.47,128.34 735.26,211.23 176.46,82.88 518.7,302.11 1029.37,657.71 120.31,82.88 251.32,168.45 393.02,256.69zm13355.07 -7980.96l3545.31 0 0 6841.95c0,676.44 -106.95,1318.13 -318.16,1919.71 -211.23,604.27 -542.76,1130.98 -994.62,1582.82 -451.84,451.86 -925.09,767.37 -1419.72,951.84 -689.82,254 -1518.65,382.33 -2483.85,382.33 -558.8,0 -1168.41,-40.11 -1828.81,-117.64 -660.4,-77.53 -1213.87,-232.61 -1657.7,-465.21 -443.82,-232.63 -850.23,-561.49 -1216.52,-989.26 -368.97,-427.79 -620.29,-868.96 -756.66,-1323.48 -219.25,-729.93 -328.87,-1376.95 -328.87,-1941.11l0 -6841.95 3545.31 0 0 7005.05c0,625.64 173.79,1114.92 518.7,1465.19 347.58,352.93 828.85,529.39 1443.81,529.39 606.92,0 1085.5,-173.79 1433.08,-521.36 344.91,-344.91 518.7,-836.87 518.7,-1473.21l0 -7005.05zm6031.85 0l3561.35 0 0 11486.16 -3561.35 0 0 -11486.16z"/>
  </g>
 </g>
</svg>
