<?xml version="1.0" encoding="UTF-8"?>
<!DOCTYPE svg PUBLIC "-//W3C//DTD SVG 1.1//EN" "http://www.w3.org/Graphics/SVG/1.1/DTD/svg11.dtd">
<!-- Creator: CorelDRAW 2020 (64 Bit) -->
<svg xmlns="http://www.w3.org/2000/svg" xml:space="preserve" width="768.054mm" height="70.4533mm" version="1.1" style="shape-rendering:geometricPrecision; text-rendering:geometricPrecision; image-rendering:optimizeQuality; fill-rule:evenodd; clip-rule:evenodd"
viewBox="0 0 170335.73 15624.82"
 xmlns:xlink="http://www.w3.org/1999/xlink"
 xmlns:xodm="http://www.corel.com/coreldraw/odm/2003">
 <defs>
  <style type="text/css">
   <![CDATA[
    .fil0 {fill:white;fill-rule:nonzero}
   ]]>
  </style>
 </defs>
 <g id="Camada_x0020_1">
  <metadata id="CorelCorpID_0Corel-Layer"/>
  <path class="fil0" d="M-0 9498l4060.91 -254.62c87.02,657.48 267.51,1160.26 538.23,1501.89 441.56,557.59 1070.02,837.98 1888.64,837.98 609.15,0 1079.69,-141.8 1408.43,-428.65 331.98,-286.84 496.33,-618.82 496.33,-995.91 0,-357.75 -154.69,-680.03 -467.33,-963.66 -312.61,-283.61 -1041.01,-547.9 -2185.15,-802.49 -1875.76,-419 -3210.05,-979.78 -4009.35,-1679.15 -805.73,-696.18 -1208.59,-1585.7 -1208.59,-2668.6 0,-709.06 206.25,-1379.42 618.8,-2011.13 412.55,-634.92 1031.35,-1131.26 1859.63,-1492.22 828.31,-360.96 1962.78,-541.44 3403.43,-541.44 1769.39,0 3116.59,328.74 4044.79,989.43 928.22,657.48 1479.33,1704.94 1656.6,3142.38l-4022.23 238.5c-106.36,-628.49 -331.95,-1086.15 -673.6,-1369.75 -344.86,-286.84 -818.62,-428.65 -1421.32,-428.65 -496.33,0 -873.42,106.34 -1124.8,315.83 -251.38,209.49 -377.09,467.33 -377.09,770.29 0,219.16 103.13,415.76 306.18,593.03 196.58,183.7 673.58,351.29 1427.75,509.22 1869.32,402.86 3206.83,812.19 4012.56,1224.71 808.97,412.55 1398.76,921.77 1766.18,1534.13 367.42,609.13 551.13,1292.4 551.13,2049.78 0,886.3 -244.95,1704.94 -734.83,2455.88 -493.12,747.74 -1176.39,1318.19 -2059.47,1704.94 -879.85,386.75 -1988.55,580.12 -3329.29,580.12 -2352.75,0 -3983.56,-454.42 -4889.2,-1360.08 -905.64,-905.64 -1418.1,-2056.24 -1537.35,-3451.76zm23711.18 -9265.96l4273.64 0 0 8247.5c0,815.4 -128.92,1588.91 -383.54,2314.07 -254.62,728.4 -654.26,1363.32 -1198.94,1907.98 -544.66,544.68 -1115.13,925 -1711.38,1147.38 -831.53,306.18 -1830.62,460.87 -2994.1,460.87 -673.6,0 -1408.43,-48.35 -2204.49,-141.8 -796.06,-93.46 -1463.23,-280.39 -1998.24,-560.78 -534.99,-280.41 -1024.89,-676.84 -1466.42,-1192.49 -444.77,-515.67 -747.72,-1047.47 -912.1,-1595.36 -264.29,-879.87 -396.42,-1659.81 -396.42,-2339.87l0 -8247.5 4273.62 0 0 8444.1c0,754.17 209.49,1343.96 625.25,1766.18 418.98,425.43 999.12,638.14 1740.41,638.14 731.59,0 1308.5,-209.49 1727.48,-628.47 415.76,-415.76 625.25,-1008.79 625.25,-1775.85l0 -8444.1zm14954.46 11563.91l-4847.3 0 -696.15 2281.85 -4367.09 0 5211.5 -13845.76 4682.92 0 5188.95 13845.76 -4479.89 0 -692.94 -2281.85zm-905.64 -2997.34l-1511.58 -4976.22 -1517.99 4976.22 3029.57 0zm13877.96 -8566.57l4273.62 0 0 10442.33 6690.84 0 0 3403.43 -10964.45 0 0 -13845.76zm12024.83 6932.55c0,-2259.29 628.47,-4019.02 1888.64,-5275.95 1260.17,-1260.17 3013.44,-1888.64 5263.07,-1888.64 2304.4,0 4080.23,618.8 5327.52,1853.18 1247.29,1237.62 1869.3,2971.55 1869.3,5198.62 0,1617.9 -270.72,2942.54 -815.4,3977.1 -544.68,1034.56 -1334.29,1840.29 -2362.42,2417.2 -1031.35,576.9 -2314.07,863.75 -3851.4,863.75 -1559.93,0 -2852.32,-248.17 -3877.21,-744.5 -1021.68,-499.55 -1853.18,-1285.94 -2488.1,-2362.4 -634.92,-1073.26 -953.99,-2420.44 -953.99,-4038.36zm4273.62 9.67c0,1395.52 261.05,2401.1 779.94,3010.23 522.13,609.13 1231.16,915.31 2127.16,915.31 918.53,0 1634.02,-299.73 2136.81,-895.97 506,-599.46 757.39,-1669.48 757.39,-3219.72 0,-1302.07 -264.29,-2252.84 -789.63,-2852.3 -528.56,-602.7 -1240.81,-902.43 -2143.24,-902.43 -863.75,0 -1559.9,306.18 -2082.03,915.31 -525.34,609.13 -786.39,1621.14 -786.39,3029.57zm19337.65 1895.09l0 -2881.31 6613.48 0 0 5888.3c-1266.63,863.75 -2384.97,1453.56 -3355.09,1766.18 -973.33,312.64 -2127.14,467.33 -3461.43,467.33 -1643.71,0 -2984.46,-280.39 -4019.02,-841.17 -1034.56,-557.57 -1837.08,-1392.33 -2407.53,-2501.01 -570.47,-1105.46 -854.08,-2378.54 -854.08,-3812.74 0,-1511.56 312.61,-2823.29 934.65,-3941.66 622.01,-1115.13 1534.11,-1962.78 2736.27,-2542.9 937.89,-447.99 2201.28,-670.36 3786.95,-670.36 1527.68,0 2671.82,138.59 3429.23,415.74 760.6,277.18 1389.09,705.85 1888.64,1289.18 499.55,583.36 876.63,1321.41 1128.02,2214.16l-4118.9 741.28c-170.81,-525.34 -457.66,-928.22 -863.75,-1205.39 -406.09,-280.39 -921.77,-418.98 -1553.47,-418.98 -934.65,0 -1682.37,325.52 -2239.93,976.57 -557.57,651.02 -834.74,1682.37 -834.74,3090.8 0,1495.43 280.39,2565.46 844.41,3206.83 560.78,641.35 1347.18,963.66 2352.75,963.66 476.99,0 931.41,-67.69 1366.51,-206.27 431.89,-138.59 928.22,-373.87 1489,-702.61l0 -1295.61 -2861.97 0zm8605.27 -1904.76c0,-2259.29 628.47,-4019.02 1888.64,-5275.95 1260.17,-1260.17 3013.44,-1888.64 5263.07,-1888.64 2304.4,0 4080.23,618.8 5327.52,1853.18 1247.29,1237.62 1869.3,2971.55 1869.3,5198.62 0,1617.9 -270.72,2942.54 -815.4,3977.1 -544.68,1034.56 -1334.29,1840.29 -2362.42,2417.2 -1031.35,576.9 -2314.07,863.75 -3851.4,863.75 -1559.93,0 -2852.32,-248.17 -3877.21,-744.5 -1021.68,-499.55 -1853.18,-1285.94 -2488.1,-2362.4 -634.92,-1073.26 -953.99,-2420.44 -953.99,-4038.36zm4273.62 9.67c0,1395.52 261.05,2401.1 779.94,3010.23 522.13,609.13 1231.16,915.31 2127.16,915.31 918.53,0 1634.02,-299.73 2136.81,-895.97 506,-599.46 757.39,-1669.48 757.39,-3219.72 0,-1302.07 -264.29,-2252.84 -789.63,-2852.3 -528.56,-602.7 -1240.81,-902.43 -2143.24,-902.43 -863.75,0 -1559.9,306.18 -2082.03,915.31 -525.34,609.13 -786.39,1621.14 -786.39,3029.57zm27343.44 4621.69l-4847.3 0 -696.15 2281.85 -4367.09 0 5211.5 -13845.76 4682.92 0 5188.95 13845.76 -4479.89 0 -692.94 -2281.85zm-905.64 -2997.34l-1511.58 -4976.22 -1517.99 4976.22 3029.57 0zm19360.19 3248.75c531.8,370.63 879.87,605.91 1044.25,699.37 241.71,138.59 573.67,299.73 986.21,483.45l-1182.82 2394.64c-596.24,-290.06 -1189.27,-631.71 -1772.63,-1031.35 -586.57,-399.64 -995.88,-699.37 -1227.93,-899.21 -944.32,409.33 -2127.16,615.58 -3551.69,615.58 -2104.58,0 -3764.4,-547.9 -4979.44,-1643.69 -1437.44,-1295.64 -2156.15,-3116.59 -2156.15,-5462.89 0,-2278.63 628.47,-4048.03 1885.4,-5311.41 1256.96,-1260.17 3010.25,-1891.86 5266.3,-1891.86 2297.95,0 4070.58,615.58 5321.06,1849.96 1250.5,1231.16 1875.76,2997.34 1875.76,5292.08 0,2043.33 -502.77,3677.37 -1508.34,4905.32zm-3277.73 -2194.82c341.65,-609.15 512.46,-1521.25 512.46,-2736.29 0,-1395.52 -261.05,-2391.43 -779.96,-2990.89 -522.1,-596.24 -1237.6,-895.97 -2152.91,-895.97 -854.08,0 -1543.8,306.18 -2072.36,915.31 -531.77,609.13 -796.06,1563.12 -796.06,2858.75 0,1511.56 257.84,2571.91 773.51,3181.04 518.89,609.13 1227.93,915.31 2127.14,915.31 290.06,0 564.02,-29.01 821.86,-83.79 -360.98,-348.08 -928.22,-673.6 -1704.94,-983l670.38 -1537.35c380.3,67.69 676.81,154.71 886.3,254.62 212.7,99.91 625.25,364.18 1240.83,792.83 145.02,99.91 302.95,203.06 473.76,309.42zm16098.6 -9620.49l4273.64 0 0 8247.5c0,815.4 -128.92,1588.91 -383.54,2314.07 -254.62,728.4 -654.26,1363.32 -1198.94,1907.98 -544.66,544.68 -1115.13,925 -1711.38,1147.38 -831.53,306.18 -1830.62,460.87 -2994.1,460.87 -673.6,0 -1408.43,-48.35 -2204.49,-141.8 -796.06,-93.46 -1463.23,-280.39 -1998.24,-560.78 -534.99,-280.41 -1024.89,-676.84 -1466.42,-1192.49 -444.77,-515.67 -747.72,-1047.47 -912.1,-1595.36 -264.29,-879.87 -396.42,-1659.81 -396.42,-2339.87l0 -8247.5 4273.62 0 0 8444.1c0,754.17 209.49,1343.96 625.25,1766.18 418.98,425.43 999.12,638.14 1740.41,638.14 731.59,0 1308.5,-209.49 1727.48,-628.47 415.76,-415.76 625.25,-1008.79 625.25,-1775.85l0 -8444.1zm7270.98 0l4292.95 0 0 13845.76 -4292.95 0 0 -13845.76z"/>
 </g>
</svg>
